<?xml version="1.0" encoding="utf-8" standalone="no"?>
<!DOCTYPE svg PUBLIC "-//W3C//DTD SVG 1.1//EN"
  "http://www.w3.org/Graphics/SVG/1.1/DTD/svg11.dtd">
<svg xmlns:xlink="http://www.w3.org/1999/xlink" width="648pt" height="288pt" viewBox="0 0 648 288" xmlns="http://www.w3.org/2000/svg" version="1.1">
 <metadata>
  <rdf:RDF xmlns:dc="http://purl.org/dc/elements/1.1/" xmlns:cc="http://creativecommons.org/ns#" xmlns:rdf="http://www.w3.org/1999/02/22-rdf-syntax-ns#">
   <cc:Work>
    <dc:type rdf:resource="http://purl.org/dc/dcmitype/StillImage"/>
    <dc:date>2026-05-14T15:21:36.538133</dc:date>
    <dc:format>image/svg+xml</dc:format>
    <dc:creator>
     <cc:Agent>
      <dc:title>Matplotlib v3.10.1+dfsg1, https://matplotlib.org/</dc:title>
     </cc:Agent>
    </dc:creator>
   </cc:Work>
  </rdf:RDF>
 </metadata>
 <defs>
  <style type="text/css">*{stroke-linejoin: round; stroke-linecap: butt}</style>
 </defs>
 <g id="figure_1">
  <g id="patch_1">
   <path d="M 0 288 
L 648 288 
L 648 0 
L 0 0 
z
" style="fill: #ffffff"/>
  </g>
  <g id="axes_1">
   <g id="patch_2">
    <path d="M 68.600396 235.110229 
L 313.452842 235.110229 
L 313.452842 3.00024 
L 68.600396 3.00024 
z
" style="fill: #eaeaf2"/>
   </g>
   <g id="matplotlib.axis_1">
    <g id="xtick_1">
     <g id="line2d_1">
      <path d="M 79.730053 235.110229 
L 79.730053 3.00024 
" clip-path="url(#pae00b2002d)" style="fill: none; stroke: #ffffff; stroke-opacity: 0.2; stroke-width: 1.5; stroke-linecap: round"/>
     </g>
     <g id="text_1">
      <!-- −20 -->
      <g style="fill: #262626" transform="translate(62.318686 260.147651) scale(0.165 -0.165)">
       <defs>
        <path id="DejaVuSans-2212" d="M 678 2272 
L 4684 2272 
L 4684 1741 
L 678 1741 
L 678 2272 
z
" transform="scale(0.015625)"/>
        <path id="DejaVuSans-32" d="M 1228 531 
L 3431 531 
L 3431 0 
L 469 0 
L 469 531 
Q 828 903 1448 1529 
Q 2069 2156 2228 2338 
Q 2531 2678 2651 2914 
Q 2772 3150 2772 3378 
Q 2772 3750 2511 3984 
Q 2250 4219 1831 4219 
Q 1534 4219 1204 4116 
Q 875 4013 500 3803 
L 500 4441 
Q 881 4594 1212 4672 
Q 1544 4750 1819 4750 
Q 2544 4750 2975 4387 
Q 3406 4025 3406 3419 
Q 3406 3131 3298 2873 
Q 3191 2616 2906 2266 
Q 2828 2175 2409 1742 
Q 1991 1309 1228 531 
z
" transform="scale(0.015625)"/>
        <path id="DejaVuSans-30" d="M 2034 4250 
Q 1547 4250 1301 3770 
Q 1056 3291 1056 2328 
Q 1056 1369 1301 889 
Q 1547 409 2034 409 
Q 2525 409 2770 889 
Q 3016 1369 3016 2328 
Q 3016 3291 2770 3770 
Q 2525 4250 2034 4250 
z
M 2034 4750 
Q 2819 4750 3233 4129 
Q 3647 3509 3647 2328 
Q 3647 1150 3233 529 
Q 2819 -91 2034 -91 
Q 1250 -91 836 529 
Q 422 1150 422 2328 
Q 422 3509 836 4129 
Q 1250 4750 2034 4750 
z
" transform="scale(0.015625)"/>
       </defs>
       <use xlink:href="#DejaVuSans-2212"/>
       <use xlink:href="#DejaVuSans-32" transform="translate(83.789062 0)"/>
       <use xlink:href="#DejaVuSans-30" transform="translate(147.412109 0)"/>
      </g>
     </g>
    </g>
    <g id="xtick_2">
     <g id="line2d_2">
      <path d="M 191.026619 235.110229 
L 191.026619 3.00024 
" clip-path="url(#pae00b2002d)" style="fill: none; stroke: #ffffff; stroke-opacity: 0.2; stroke-width: 1.5; stroke-linecap: round"/>
     </g>
     <g id="text_2">
      <!-- 0 -->
      <g style="fill: #262626" transform="translate(185.777556 260.147651) scale(0.165 -0.165)">
       <use xlink:href="#DejaVuSans-30"/>
      </g>
     </g>
    </g>
    <g id="xtick_3">
     <g id="line2d_3">
      <path d="M 302.323185 235.110229 
L 302.323185 3.00024 
" clip-path="url(#pae00b2002d)" style="fill: none; stroke: #ffffff; stroke-opacity: 0.2; stroke-width: 1.5; stroke-linecap: round"/>
     </g>
     <g id="text_3">
      <!-- 20 -->
      <g style="fill: #262626" transform="translate(291.82506 260.147651) scale(0.165 -0.165)">
       <use xlink:href="#DejaVuSans-32"/>
       <use xlink:href="#DejaVuSans-30" transform="translate(63.623047 0)"/>
      </g>
     </g>
    </g>
    <g id="text_4">
     <!-- Mode number -->
     <g style="fill: #262626" transform="translate(128.5174 281.256323) scale(0.18 -0.18)">
      <defs>
       <path id="DejaVuSans-4d" d="M 628 4666 
L 1569 4666 
L 2759 1491 
L 3956 4666 
L 4897 4666 
L 4897 0 
L 4281 0 
L 4281 4097 
L 3078 897 
L 2444 897 
L 1241 4097 
L 1241 0 
L 628 0 
L 628 4666 
z
" transform="scale(0.015625)"/>
       <path id="DejaVuSans-6f" d="M 1959 3097 
Q 1497 3097 1228 2736 
Q 959 2375 959 1747 
Q 959 1119 1226 758 
Q 1494 397 1959 397 
Q 2419 397 2687 759 
Q 2956 1122 2956 1747 
Q 2956 2369 2687 2733 
Q 2419 3097 1959 3097 
z
M 1959 3584 
Q 2709 3584 3137 3096 
Q 3566 2609 3566 1747 
Q 3566 888 3137 398 
Q 2709 -91 1959 -91 
Q 1206 -91 779 398 
Q 353 888 353 1747 
Q 353 2609 779 3096 
Q 1206 3584 1959 3584 
z
" transform="scale(0.015625)"/>
       <path id="DejaVuSans-64" d="M 2906 2969 
L 2906 4863 
L 3481 4863 
L 3481 0 
L 2906 0 
L 2906 525 
Q 2725 213 2448 61 
Q 2172 -91 1784 -91 
Q 1150 -91 751 415 
Q 353 922 353 1747 
Q 353 2572 751 3078 
Q 1150 3584 1784 3584 
Q 2172 3584 2448 3432 
Q 2725 3281 2906 2969 
z
M 947 1747 
Q 947 1113 1208 752 
Q 1469 391 1925 391 
Q 2381 391 2643 752 
Q 2906 1113 2906 1747 
Q 2906 2381 2643 2742 
Q 2381 3103 1925 3103 
Q 1469 3103 1208 2742 
Q 947 2381 947 1747 
z
" transform="scale(0.015625)"/>
       <path id="DejaVuSans-65" d="M 3597 1894 
L 3597 1613 
L 953 1613 
Q 991 1019 1311 708 
Q 1631 397 2203 397 
Q 2534 397 2845 478 
Q 3156 559 3463 722 
L 3463 178 
Q 3153 47 2828 -22 
Q 2503 -91 2169 -91 
Q 1331 -91 842 396 
Q 353 884 353 1716 
Q 353 2575 817 3079 
Q 1281 3584 2069 3584 
Q 2775 3584 3186 3129 
Q 3597 2675 3597 1894 
z
M 3022 2063 
Q 3016 2534 2758 2815 
Q 2500 3097 2075 3097 
Q 1594 3097 1305 2825 
Q 1016 2553 972 2059 
L 3022 2063 
z
" transform="scale(0.015625)"/>
       <path id="DejaVuSans-20" transform="scale(0.015625)"/>
       <path id="DejaVuSans-6e" d="M 3513 2113 
L 3513 0 
L 2938 0 
L 2938 2094 
Q 2938 2591 2744 2837 
Q 2550 3084 2163 3084 
Q 1697 3084 1428 2787 
Q 1159 2491 1159 1978 
L 1159 0 
L 581 0 
L 581 3500 
L 1159 3500 
L 1159 2956 
Q 1366 3272 1645 3428 
Q 1925 3584 2291 3584 
Q 2894 3584 3203 3211 
Q 3513 2838 3513 2113 
z
" transform="scale(0.015625)"/>
       <path id="DejaVuSans-75" d="M 544 1381 
L 544 3500 
L 1119 3500 
L 1119 1403 
Q 1119 906 1312 657 
Q 1506 409 1894 409 
Q 2359 409 2629 706 
Q 2900 1003 2900 1516 
L 2900 3500 
L 3475 3500 
L 3475 0 
L 2900 0 
L 2900 538 
Q 2691 219 2414 64 
Q 2138 -91 1772 -91 
Q 1169 -91 856 284 
Q 544 659 544 1381 
z
M 1991 3584 
L 1991 3584 
z
" transform="scale(0.015625)"/>
       <path id="DejaVuSans-6d" d="M 3328 2828 
Q 3544 3216 3844 3400 
Q 4144 3584 4550 3584 
Q 5097 3584 5394 3201 
Q 5691 2819 5691 2113 
L 5691 0 
L 5113 0 
L 5113 2094 
Q 5113 2597 4934 2840 
Q 4756 3084 4391 3084 
Q 3944 3084 3684 2787 
Q 3425 2491 3425 1978 
L 3425 0 
L 2847 0 
L 2847 2094 
Q 2847 2600 2669 2842 
Q 2491 3084 2119 3084 
Q 1678 3084 1418 2786 
Q 1159 2488 1159 1978 
L 1159 0 
L 581 0 
L 581 3500 
L 1159 3500 
L 1159 2956 
Q 1356 3278 1631 3431 
Q 1906 3584 2284 3584 
Q 2666 3584 2933 3390 
Q 3200 3197 3328 2828 
z
" transform="scale(0.015625)"/>
       <path id="DejaVuSans-62" d="M 3116 1747 
Q 3116 2381 2855 2742 
Q 2594 3103 2138 3103 
Q 1681 3103 1420 2742 
Q 1159 2381 1159 1747 
Q 1159 1113 1420 752 
Q 1681 391 2138 391 
Q 2594 391 2855 752 
Q 3116 1113 3116 1747 
z
M 1159 2969 
Q 1341 3281 1617 3432 
Q 1894 3584 2278 3584 
Q 2916 3584 3314 3078 
Q 3713 2572 3713 1747 
Q 3713 922 3314 415 
Q 2916 -91 2278 -91 
Q 1894 -91 1617 61 
Q 1341 213 1159 525 
L 1159 0 
L 581 0 
L 581 4863 
L 1159 4863 
L 1159 2969 
z
" transform="scale(0.015625)"/>
       <path id="DejaVuSans-72" d="M 2631 2963 
Q 2534 3019 2420 3045 
Q 2306 3072 2169 3072 
Q 1681 3072 1420 2755 
Q 1159 2438 1159 1844 
L 1159 0 
L 581 0 
L 581 3500 
L 1159 3500 
L 1159 2956 
Q 1341 3275 1631 3429 
Q 1922 3584 2338 3584 
Q 2397 3584 2469 3576 
Q 2541 3569 2628 3553 
L 2631 2963 
z
" transform="scale(0.015625)"/>
      </defs>
      <use xlink:href="#DejaVuSans-4d"/>
      <use xlink:href="#DejaVuSans-6f" transform="translate(86.279297 0)"/>
      <use xlink:href="#DejaVuSans-64" transform="translate(147.460938 0)"/>
      <use xlink:href="#DejaVuSans-65" transform="translate(210.9375 0)"/>
      <use xlink:href="#DejaVuSans-20" transform="translate(272.460938 0)"/>
      <use xlink:href="#DejaVuSans-6e" transform="translate(304.248047 0)"/>
      <use xlink:href="#DejaVuSans-75" transform="translate(367.626953 0)"/>
      <use xlink:href="#DejaVuSans-6d" transform="translate(431.005859 0)"/>
      <use xlink:href="#DejaVuSans-62" transform="translate(528.417969 0)"/>
      <use xlink:href="#DejaVuSans-65" transform="translate(591.894531 0)"/>
      <use xlink:href="#DejaVuSans-72" transform="translate(653.417969 0)"/>
     </g>
    </g>
   </g>
   <g id="matplotlib.axis_2">
    <g id="ytick_1">
     <g id="line2d_4">
      <path d="M 68.600396 235.110229 
L 313.452842 235.110229 
" clip-path="url(#pae00b2002d)" style="fill: none; stroke: #ffffff; stroke-opacity: 0.2; stroke-width: 1.5; stroke-linecap: round"/>
     </g>
     <g id="text_5">
      <!-- 0.0 -->
      <g style="fill: #262626" transform="translate(29.86024 241.37894) scale(0.165 -0.165)">
       <defs>
        <path id="DejaVuSans-2e" d="M 684 794 
L 1344 794 
L 1344 0 
L 684 0 
L 684 794 
z
" transform="scale(0.015625)"/>
       </defs>
       <use xlink:href="#DejaVuSans-30"/>
       <use xlink:href="#DejaVuSans-2e" transform="translate(63.623047 0)"/>
       <use xlink:href="#DejaVuSans-30" transform="translate(95.410156 0)"/>
      </g>
     </g>
    </g>
    <g id="ytick_2">
     <g id="line2d_5">
      <path d="M 68.600396 199.401 
L 313.452842 199.401 
" clip-path="url(#pae00b2002d)" style="fill: none; stroke: #ffffff; stroke-opacity: 0.2; stroke-width: 1.5; stroke-linecap: round"/>
     </g>
     <g id="text_6">
      <!-- 0.1 -->
      <g style="fill: #262626" transform="translate(29.86024 205.669711) scale(0.165 -0.165)">
       <defs>
        <path id="DejaVuSans-31" d="M 794 531 
L 1825 531 
L 1825 4091 
L 703 3866 
L 703 4441 
L 1819 4666 
L 2450 4666 
L 2450 531 
L 3481 531 
L 3481 0 
L 794 0 
L 794 531 
z
" transform="scale(0.015625)"/>
       </defs>
       <use xlink:href="#DejaVuSans-30"/>
       <use xlink:href="#DejaVuSans-2e" transform="translate(63.623047 0)"/>
       <use xlink:href="#DejaVuSans-31" transform="translate(95.410156 0)"/>
      </g>
     </g>
    </g>
    <g id="ytick_3">
     <g id="line2d_6">
      <path d="M 68.600396 163.691771 
L 313.452842 163.691771 
" clip-path="url(#pae00b2002d)" style="fill: none; stroke: #ffffff; stroke-opacity: 0.2; stroke-width: 1.5; stroke-linecap: round"/>
     </g>
     <g id="text_7">
      <!-- 0.2 -->
      <g style="fill: #262626" transform="translate(29.86024 169.960482) scale(0.165 -0.165)">
       <use xlink:href="#DejaVuSans-30"/>
       <use xlink:href="#DejaVuSans-2e" transform="translate(63.623047 0)"/>
       <use xlink:href="#DejaVuSans-32" transform="translate(95.410156 0)"/>
      </g>
     </g>
    </g>
    <g id="ytick_4">
     <g id="line2d_7">
      <path d="M 68.600396 127.982542 
L 313.452842 127.982542 
" clip-path="url(#pae00b2002d)" style="fill: none; stroke: #ffffff; stroke-opacity: 0.2; stroke-width: 1.5; stroke-linecap: round"/>
     </g>
     <g id="text_8">
      <!-- 0.3 -->
      <g style="fill: #262626" transform="translate(29.86024 134.251253) scale(0.165 -0.165)">
       <defs>
        <path id="DejaVuSans-33" d="M 2597 2516 
Q 3050 2419 3304 2112 
Q 3559 1806 3559 1356 
Q 3559 666 3084 287 
Q 2609 -91 1734 -91 
Q 1441 -91 1130 -33 
Q 819 25 488 141 
L 488 750 
Q 750 597 1062 519 
Q 1375 441 1716 441 
Q 2309 441 2620 675 
Q 2931 909 2931 1356 
Q 2931 1769 2642 2001 
Q 2353 2234 1838 2234 
L 1294 2234 
L 1294 2753 
L 1863 2753 
Q 2328 2753 2575 2939 
Q 2822 3125 2822 3475 
Q 2822 3834 2567 4026 
Q 2313 4219 1838 4219 
Q 1578 4219 1281 4162 
Q 984 4106 628 3988 
L 628 4550 
Q 988 4650 1302 4700 
Q 1616 4750 1894 4750 
Q 2613 4750 3031 4423 
Q 3450 4097 3450 3541 
Q 3450 3153 3228 2886 
Q 3006 2619 2597 2516 
z
" transform="scale(0.015625)"/>
       </defs>
       <use xlink:href="#DejaVuSans-30"/>
       <use xlink:href="#DejaVuSans-2e" transform="translate(63.623047 0)"/>
       <use xlink:href="#DejaVuSans-33" transform="translate(95.410156 0)"/>
      </g>
     </g>
    </g>
    <g id="ytick_5">
     <g id="line2d_8">
      <path d="M 68.600396 92.273313 
L 313.452842 92.273313 
" clip-path="url(#pae00b2002d)" style="fill: none; stroke: #ffffff; stroke-opacity: 0.2; stroke-width: 1.5; stroke-linecap: round"/>
     </g>
     <g id="text_9">
      <!-- 0.4 -->
      <g style="fill: #262626" transform="translate(29.86024 98.542024) scale(0.165 -0.165)">
       <defs>
        <path id="DejaVuSans-34" d="M 2419 4116 
L 825 1625 
L 2419 1625 
L 2419 4116 
z
M 2253 4666 
L 3047 4666 
L 3047 1625 
L 3713 1625 
L 3713 1100 
L 3047 1100 
L 3047 0 
L 2419 0 
L 2419 1100 
L 313 1100 
L 313 1709 
L 2253 4666 
z
" transform="scale(0.015625)"/>
       </defs>
       <use xlink:href="#DejaVuSans-30"/>
       <use xlink:href="#DejaVuSans-2e" transform="translate(63.623047 0)"/>
       <use xlink:href="#DejaVuSans-34" transform="translate(95.410156 0)"/>
      </g>
     </g>
    </g>
    <g id="ytick_6">
     <g id="line2d_9">
      <path d="M 68.600396 56.564084 
L 313.452842 56.564084 
" clip-path="url(#pae00b2002d)" style="fill: none; stroke: #ffffff; stroke-opacity: 0.2; stroke-width: 1.5; stroke-linecap: round"/>
     </g>
     <g id="text_10">
      <!-- 0.5 -->
      <g style="fill: #262626" transform="translate(29.86024 62.832794) scale(0.165 -0.165)">
       <defs>
        <path id="DejaVuSans-35" d="M 691 4666 
L 3169 4666 
L 3169 4134 
L 1269 4134 
L 1269 2991 
Q 1406 3038 1543 3061 
Q 1681 3084 1819 3084 
Q 2600 3084 3056 2656 
Q 3513 2228 3513 1497 
Q 3513 744 3044 326 
Q 2575 -91 1722 -91 
Q 1428 -91 1123 -41 
Q 819 9 494 109 
L 494 744 
Q 775 591 1075 516 
Q 1375 441 1709 441 
Q 2250 441 2565 725 
Q 2881 1009 2881 1497 
Q 2881 1984 2565 2268 
Q 2250 2553 1709 2553 
Q 1456 2553 1204 2497 
Q 953 2441 691 2322 
L 691 4666 
z
" transform="scale(0.015625)"/>
       </defs>
       <use xlink:href="#DejaVuSans-30"/>
       <use xlink:href="#DejaVuSans-2e" transform="translate(63.623047 0)"/>
       <use xlink:href="#DejaVuSans-35" transform="translate(95.410156 0)"/>
      </g>
     </g>
    </g>
    <g id="ytick_7">
     <g id="line2d_10">
      <path d="M 68.600396 20.854855 
L 313.452842 20.854855 
" clip-path="url(#pae00b2002d)" style="fill: none; stroke: #ffffff; stroke-opacity: 0.2; stroke-width: 1.5; stroke-linecap: round"/>
     </g>
     <g id="text_11">
      <!-- 0.6 -->
      <g style="fill: #262626" transform="translate(29.86024 27.123565) scale(0.165 -0.165)">
       <defs>
        <path id="DejaVuSans-36" d="M 2113 2584 
Q 1688 2584 1439 2293 
Q 1191 2003 1191 1497 
Q 1191 994 1439 701 
Q 1688 409 2113 409 
Q 2538 409 2786 701 
Q 3034 994 3034 1497 
Q 3034 2003 2786 2293 
Q 2538 2584 2113 2584 
z
M 3366 4563 
L 3366 3988 
Q 3128 4100 2886 4159 
Q 2644 4219 2406 4219 
Q 1781 4219 1451 3797 
Q 1122 3375 1075 2522 
Q 1259 2794 1537 2939 
Q 1816 3084 2150 3084 
Q 2853 3084 3261 2657 
Q 3669 2231 3669 1497 
Q 3669 778 3244 343 
Q 2819 -91 2113 -91 
Q 1303 -91 875 529 
Q 447 1150 447 2328 
Q 447 3434 972 4092 
Q 1497 4750 2381 4750 
Q 2619 4750 2861 4703 
Q 3103 4656 3366 4563 
z
" transform="scale(0.015625)"/>
       </defs>
       <use xlink:href="#DejaVuSans-30"/>
       <use xlink:href="#DejaVuSans-2e" transform="translate(63.623047 0)"/>
       <use xlink:href="#DejaVuSans-36" transform="translate(95.410156 0)"/>
      </g>
     </g>
    </g>
    <g id="text_12">
     <!-- $f_0^{-1, 0, 1}$ -->
     <g style="fill: #262626" transform="translate(20.64024 146.955234) rotate(-90) scale(0.18 -0.18)">
      <defs>
       <path id="DejaVuSans-Oblique-66" d="M 3059 4863 
L 2969 4384 
L 2419 4384 
Q 2106 4384 1964 4261 
Q 1822 4138 1753 3809 
L 1691 3500 
L 2638 3500 
L 2553 3053 
L 1606 3053 
L 1013 0 
L 434 0 
L 1031 3053 
L 481 3053 
L 563 3500 
L 1113 3500 
L 1159 3744 
Q 1278 4363 1576 4613 
Q 1875 4863 2516 4863 
L 3059 4863 
z
" transform="scale(0.015625)"/>
       <path id="DejaVuSans-2c" d="M 750 794 
L 1409 794 
L 1409 256 
L 897 -744 
L 494 -744 
L 750 256 
L 750 794 
z
" transform="scale(0.015625)"/>
      </defs>
      <use xlink:href="#DejaVuSans-Oblique-66" transform="translate(0 0.8)"/>
      <use xlink:href="#DejaVuSans-2212" transform="translate(42.652786 46.046875) scale(0.7)"/>
      <use xlink:href="#DejaVuSans-31" transform="translate(101.30513 46.046875) scale(0.7)"/>
      <use xlink:href="#DejaVuSans-2c" transform="translate(145.841263 46.046875) scale(0.7)"/>
      <use xlink:href="#DejaVuSans-30" transform="translate(181.729935 46.046875) scale(0.7)"/>
      <use xlink:href="#DejaVuSans-2c" transform="translate(226.266068 46.046875) scale(0.7)"/>
      <use xlink:href="#DejaVuSans-31" transform="translate(262.15474 46.046875) scale(0.7)"/>
      <use xlink:href="#DejaVuSans-30" transform="translate(35.205078 -26.54375) scale(0.7)"/>
     </g>
    </g>
   </g>
   <g id="line2d_11">
    <path d="M 79.730053 56.56408 
L 236.101728 56.564095 
L 302.323185 56.563996 
L 302.323185 56.563996 
" clip-path="url(#pae00b2002d)" style="fill: none; stroke: #59a590; stroke-width: 2; stroke-linecap: round"/>
   </g>
   <g id="line2d_12">
    <path d="M 79.730053 225.875686 
L 91.972675 224.830834 
L 101.989366 223.761966 
L 110.893091 222.587821 
L 118.127368 221.423414 
L 124.805162 220.124129 
L 130.36999 218.824689 
L 135.378336 217.435411 
L 139.830199 215.975403 
L 143.725578 214.476166 
L 147.064475 212.983778 
L 150.403372 211.25174 
L 153.185786 209.581181 
L 155.968201 207.653802 
L 158.194132 205.88519 
L 160.420063 203.870012 
L 162.645995 201.553889 
L 164.871926 198.865565 
L 166.541374 196.549077 
L 168.210823 193.91845 
L 169.880271 190.907457 
L 171.54972 187.430734 
L 173.219168 183.376818 
L 174.888617 178.598242 
L 176.558065 172.897516 
L 177.671031 168.456494 
L 178.783997 163.387648 
L 179.896962 157.567383 
L 181.009928 150.846727 
L 182.122894 143.051183 
L 183.235859 133.988823 
L 184.348825 123.478334 
L 186.018273 104.838905 
L 189.35717 64.722468 
L 189.913653 60.33468 
L 190.470136 57.530299 
L 191.026619 56.564084 
L 191.583102 57.531759 
L 192.139585 60.345816 
L 192.696067 64.757285 
L 193.809033 76.927462 
L 197.14793 118.200976 
L 198.817379 134.720679 
L 199.930344 143.873346 
L 201.04331 151.742127 
L 202.156276 158.522118 
L 203.825724 167.031418 
L 205.495173 173.972575 
L 207.164621 179.712207 
L 208.83407 184.520791 
L 210.503518 188.598248 
L 212.172966 192.093729 
L 213.842415 195.119882 
L 215.511863 197.762922 
L 217.737795 200.804412 
L 219.963726 203.402406 
L 222.189657 205.645871 
L 224.415589 207.601803 
L 227.198003 209.719422 
L 229.980417 211.543144 
L 233.319314 213.422499 
L 236.658211 215.032464 
L 240.553591 216.64112 
L 244.448971 218.018583 
L 248.900833 219.368501 
L 253.909179 220.660948 
L 259.474007 221.876924 
L 266.151801 223.099756 
L 273.942561 224.278537 
L 282.846286 225.381465 
L 292.862977 226.39202 
L 302.323185 227.1794 
L 302.323185 227.1794 
" clip-path="url(#pae00b2002d)" style="fill: none; stroke: #254b7f; stroke-width: 2; stroke-linecap: round"/>
   </g>
   <g id="patch_3">
    <path d="M 68.600396 235.110229 
L 68.600396 3.00024 
" style="fill: none; stroke: #ffffff; stroke-width: 1.875; stroke-linejoin: miter; stroke-linecap: square"/>
   </g>
   <g id="patch_4">
    <path d="M 313.452842 235.110229 
L 313.452842 3.00024 
" style="fill: none; stroke: #ffffff; stroke-width: 1.875; stroke-linejoin: miter; stroke-linecap: square"/>
   </g>
   <g id="patch_5">
    <path d="M 68.600396 235.110229 
L 313.452842 235.110229 
" style="fill: none; stroke: #ffffff; stroke-width: 1.875; stroke-linejoin: miter; stroke-linecap: square"/>
   </g>
   <g id="patch_6">
    <path d="M 68.600396 3.00024 
L 313.452842 3.00024 
" style="fill: none; stroke: #ffffff; stroke-width: 1.875; stroke-linejoin: miter; stroke-linecap: square"/>
   </g>
  </g>
  <g id="axes_2">
   <g id="patch_7">
    <path d="M 326.160049 235.110229 
L 571.012494 235.110229 
L 571.012494 3.00024 
L 326.160049 3.00024 
z
" style="fill: #eaeaf2"/>
   </g>
   <g id="matplotlib.axis_3">
    <g id="xtick_4">
     <g id="line2d_13">
      <path d="M 337.289706 235.110229 
L 337.289706 3.00024 
" clip-path="url(#pe7833ca41c)" style="fill: none; stroke: #ffffff; stroke-opacity: 0.2; stroke-width: 1.5; stroke-linecap: round"/>
     </g>
     <g id="text_13">
      <!-- −20 -->
      <g style="fill: #262626" transform="translate(319.878338 260.147651) scale(0.165 -0.165)">
       <use xlink:href="#DejaVuSans-2212"/>
       <use xlink:href="#DejaVuSans-32" transform="translate(83.789062 0)"/>
       <use xlink:href="#DejaVuSans-30" transform="translate(147.412109 0)"/>
      </g>
     </g>
    </g>
    <g id="xtick_5">
     <g id="line2d_14">
      <path d="M 448.586272 235.110229 
L 448.586272 3.00024 
" clip-path="url(#pe7833ca41c)" style="fill: none; stroke: #ffffff; stroke-opacity: 0.2; stroke-width: 1.5; stroke-linecap: round"/>
     </g>
     <g id="text_14">
      <!-- 0 -->
      <g style="fill: #262626" transform="translate(443.337209 260.147651) scale(0.165 -0.165)">
       <use xlink:href="#DejaVuSans-30"/>
      </g>
     </g>
    </g>
    <g id="xtick_6">
     <g id="line2d_15">
      <path d="M 559.882838 235.110229 
L 559.882838 3.00024 
" clip-path="url(#pe7833ca41c)" style="fill: none; stroke: #ffffff; stroke-opacity: 0.2; stroke-width: 1.5; stroke-linecap: round"/>
     </g>
     <g id="text_15">
      <!-- 20 -->
      <g style="fill: #262626" transform="translate(549.384713 260.147651) scale(0.165 -0.165)">
       <use xlink:href="#DejaVuSans-32"/>
       <use xlink:href="#DejaVuSans-30" transform="translate(63.623047 0)"/>
      </g>
     </g>
    </g>
    <g id="text_16">
     <!-- Mode number -->
     <g style="fill: #262626" transform="translate(386.077053 281.256323) scale(0.18 -0.18)">
      <use xlink:href="#DejaVuSans-4d"/>
      <use xlink:href="#DejaVuSans-6f" transform="translate(86.279297 0)"/>
      <use xlink:href="#DejaVuSans-64" transform="translate(147.460938 0)"/>
      <use xlink:href="#DejaVuSans-65" transform="translate(210.9375 0)"/>
      <use xlink:href="#DejaVuSans-20" transform="translate(272.460938 0)"/>
      <use xlink:href="#DejaVuSans-6e" transform="translate(304.248047 0)"/>
      <use xlink:href="#DejaVuSans-75" transform="translate(367.626953 0)"/>
      <use xlink:href="#DejaVuSans-6d" transform="translate(431.005859 0)"/>
      <use xlink:href="#DejaVuSans-62" transform="translate(528.417969 0)"/>
      <use xlink:href="#DejaVuSans-65" transform="translate(591.894531 0)"/>
      <use xlink:href="#DejaVuSans-72" transform="translate(653.417969 0)"/>
     </g>
    </g>
   </g>
   <g id="matplotlib.axis_4">
    <g id="ytick_8">
     <g id="line2d_16">
      <path d="M 326.160049 235.110229 
L 571.012494 235.110229 
" clip-path="url(#pe7833ca41c)" style="fill: none; stroke: #ffffff; stroke-opacity: 0.2; stroke-width: 1.5; stroke-linecap: round"/>
     </g>
     <g id="line2d_17">
      <defs>
       <path id="ma45364163f" d="M 0 0 
L 9 0 
" style="stroke: #262626; stroke-width: 1.875"/>
      </defs>
      <g>
       <use xlink:href="#ma45364163f" x="571.012494" y="235.110229" style="fill: #262626; stroke: #262626; stroke-width: 1.875"/>
      </g>
     </g>
     <g id="text_17">
      <!-- −0.2 -->
      <g style="fill: #262626" transform="translate(583.512494 241.37894) scale(0.165 -0.165)">
       <use xlink:href="#DejaVuSans-2212"/>
       <use xlink:href="#DejaVuSans-30" transform="translate(83.789062 0)"/>
       <use xlink:href="#DejaVuSans-2e" transform="translate(147.412109 0)"/>
       <use xlink:href="#DejaVuSans-32" transform="translate(179.199219 0)"/>
      </g>
     </g>
    </g>
    <g id="ytick_9">
     <g id="line2d_18">
      <path d="M 326.160049 199.278661 
L 571.012494 199.278661 
" clip-path="url(#pe7833ca41c)" style="fill: none; stroke: #ffffff; stroke-opacity: 0.2; stroke-width: 1.5; stroke-linecap: round"/>
     </g>
     <g id="line2d_19">
      <g>
       <use xlink:href="#ma45364163f" x="571.012494" y="199.278661" style="fill: #262626; stroke: #262626; stroke-width: 1.875"/>
      </g>
     </g>
     <g id="text_18">
      <!-- 0.0 -->
      <g style="fill: #262626" transform="translate(583.512494 205.547372) scale(0.165 -0.165)">
       <use xlink:href="#DejaVuSans-30"/>
       <use xlink:href="#DejaVuSans-2e" transform="translate(63.623047 0)"/>
       <use xlink:href="#DejaVuSans-30" transform="translate(95.410156 0)"/>
      </g>
     </g>
    </g>
    <g id="ytick_10">
     <g id="line2d_20">
      <path d="M 326.160049 163.447093 
L 571.012494 163.447093 
" clip-path="url(#pe7833ca41c)" style="fill: none; stroke: #ffffff; stroke-opacity: 0.2; stroke-width: 1.5; stroke-linecap: round"/>
     </g>
     <g id="line2d_21">
      <g>
       <use xlink:href="#ma45364163f" x="571.012494" y="163.447093" style="fill: #262626; stroke: #262626; stroke-width: 1.875"/>
      </g>
     </g>
     <g id="text_19">
      <!-- 0.2 -->
      <g style="fill: #262626" transform="translate(583.512494 169.715804) scale(0.165 -0.165)">
       <use xlink:href="#DejaVuSans-30"/>
       <use xlink:href="#DejaVuSans-2e" transform="translate(63.623047 0)"/>
       <use xlink:href="#DejaVuSans-32" transform="translate(95.410156 0)"/>
      </g>
     </g>
    </g>
    <g id="ytick_11">
     <g id="line2d_22">
      <path d="M 326.160049 127.615526 
L 571.012494 127.615526 
" clip-path="url(#pe7833ca41c)" style="fill: none; stroke: #ffffff; stroke-opacity: 0.2; stroke-width: 1.5; stroke-linecap: round"/>
     </g>
     <g id="line2d_23">
      <g>
       <use xlink:href="#ma45364163f" x="571.012494" y="127.615526" style="fill: #262626; stroke: #262626; stroke-width: 1.875"/>
      </g>
     </g>
     <g id="text_20">
      <!-- 0.4 -->
      <g style="fill: #262626" transform="translate(583.512494 133.884236) scale(0.165 -0.165)">
       <use xlink:href="#DejaVuSans-30"/>
       <use xlink:href="#DejaVuSans-2e" transform="translate(63.623047 0)"/>
       <use xlink:href="#DejaVuSans-34" transform="translate(95.410156 0)"/>
      </g>
     </g>
    </g>
    <g id="ytick_12">
     <g id="line2d_24">
      <path d="M 326.160049 91.783958 
L 571.012494 91.783958 
" clip-path="url(#pe7833ca41c)" style="fill: none; stroke: #ffffff; stroke-opacity: 0.2; stroke-width: 1.5; stroke-linecap: round"/>
     </g>
     <g id="line2d_25">
      <g>
       <use xlink:href="#ma45364163f" x="571.012494" y="91.783958" style="fill: #262626; stroke: #262626; stroke-width: 1.875"/>
      </g>
     </g>
     <g id="text_21">
      <!-- 0.6 -->
      <g style="fill: #262626" transform="translate(583.512494 98.052669) scale(0.165 -0.165)">
       <use xlink:href="#DejaVuSans-30"/>
       <use xlink:href="#DejaVuSans-2e" transform="translate(63.623047 0)"/>
       <use xlink:href="#DejaVuSans-36" transform="translate(95.410156 0)"/>
      </g>
     </g>
    </g>
    <g id="ytick_13">
     <g id="line2d_26">
      <path d="M 326.160049 55.95239 
L 571.012494 55.95239 
" clip-path="url(#pe7833ca41c)" style="fill: none; stroke: #ffffff; stroke-opacity: 0.2; stroke-width: 1.5; stroke-linecap: round"/>
     </g>
     <g id="line2d_27">
      <g>
       <use xlink:href="#ma45364163f" x="571.012494" y="55.95239" style="fill: #262626; stroke: #262626; stroke-width: 1.875"/>
      </g>
     </g>
     <g id="text_22">
      <!-- 0.8 -->
      <g style="fill: #262626" transform="translate(583.512494 62.221101) scale(0.165 -0.165)">
       <defs>
        <path id="DejaVuSans-38" d="M 2034 2216 
Q 1584 2216 1326 1975 
Q 1069 1734 1069 1313 
Q 1069 891 1326 650 
Q 1584 409 2034 409 
Q 2484 409 2743 651 
Q 3003 894 3003 1313 
Q 3003 1734 2745 1975 
Q 2488 2216 2034 2216 
z
M 1403 2484 
Q 997 2584 770 2862 
Q 544 3141 544 3541 
Q 544 4100 942 4425 
Q 1341 4750 2034 4750 
Q 2731 4750 3128 4425 
Q 3525 4100 3525 3541 
Q 3525 3141 3298 2862 
Q 3072 2584 2669 2484 
Q 3125 2378 3379 2068 
Q 3634 1759 3634 1313 
Q 3634 634 3220 271 
Q 2806 -91 2034 -91 
Q 1263 -91 848 271 
Q 434 634 434 1313 
Q 434 1759 690 2068 
Q 947 2378 1403 2484 
z
M 1172 3481 
Q 1172 3119 1398 2916 
Q 1625 2713 2034 2713 
Q 2441 2713 2670 2916 
Q 2900 3119 2900 3481 
Q 2900 3844 2670 4047 
Q 2441 4250 2034 4250 
Q 1625 4250 1398 4047 
Q 1172 3844 1172 3481 
z
" transform="scale(0.015625)"/>
       </defs>
       <use xlink:href="#DejaVuSans-30"/>
       <use xlink:href="#DejaVuSans-2e" transform="translate(63.623047 0)"/>
       <use xlink:href="#DejaVuSans-38" transform="translate(95.410156 0)"/>
      </g>
     </g>
    </g>
    <g id="ytick_14">
     <g id="line2d_28">
      <path d="M 326.160049 20.120822 
L 571.012494 20.120822 
" clip-path="url(#pe7833ca41c)" style="fill: none; stroke: #ffffff; stroke-opacity: 0.2; stroke-width: 1.5; stroke-linecap: round"/>
     </g>
     <g id="line2d_29">
      <g>
       <use xlink:href="#ma45364163f" x="571.012494" y="20.120822" style="fill: #262626; stroke: #262626; stroke-width: 1.875"/>
      </g>
     </g>
     <g id="text_23">
      <!-- 1.0 -->
      <g style="fill: #262626" transform="translate(583.512494 26.389533) scale(0.165 -0.165)">
       <use xlink:href="#DejaVuSans-31"/>
       <use xlink:href="#DejaVuSans-2e" transform="translate(63.623047 0)"/>
       <use xlink:href="#DejaVuSans-30" transform="translate(95.410156 0)"/>
      </g>
     </g>
    </g>
    <g id="text_24">
     <!-- gain -->
     <g style="fill: #262626" transform="translate(641.256323 138.488203) rotate(-90) scale(0.18 -0.18)">
      <defs>
       <path id="DejaVuSans-67" d="M 2906 1791 
Q 2906 2416 2648 2759 
Q 2391 3103 1925 3103 
Q 1463 3103 1205 2759 
Q 947 2416 947 1791 
Q 947 1169 1205 825 
Q 1463 481 1925 481 
Q 2391 481 2648 825 
Q 2906 1169 2906 1791 
z
M 3481 434 
Q 3481 -459 3084 -895 
Q 2688 -1331 1869 -1331 
Q 1566 -1331 1297 -1286 
Q 1028 -1241 775 -1147 
L 775 -588 
Q 1028 -725 1275 -790 
Q 1522 -856 1778 -856 
Q 2344 -856 2625 -561 
Q 2906 -266 2906 331 
L 2906 616 
Q 2728 306 2450 153 
Q 2172 0 1784 0 
Q 1141 0 747 490 
Q 353 981 353 1791 
Q 353 2603 747 3093 
Q 1141 3584 1784 3584 
Q 2172 3584 2450 3431 
Q 2728 3278 2906 2969 
L 2906 3500 
L 3481 3500 
L 3481 434 
z
" transform="scale(0.015625)"/>
       <path id="DejaVuSans-61" d="M 2194 1759 
Q 1497 1759 1228 1600 
Q 959 1441 959 1056 
Q 959 750 1161 570 
Q 1363 391 1709 391 
Q 2188 391 2477 730 
Q 2766 1069 2766 1631 
L 2766 1759 
L 2194 1759 
z
M 3341 1997 
L 3341 0 
L 2766 0 
L 2766 531 
Q 2569 213 2275 61 
Q 1981 -91 1556 -91 
Q 1019 -91 701 211 
Q 384 513 384 1019 
Q 384 1609 779 1909 
Q 1175 2209 1959 2209 
L 2766 2209 
L 2766 2266 
Q 2766 2663 2505 2880 
Q 2244 3097 1772 3097 
Q 1472 3097 1187 3025 
Q 903 2953 641 2809 
L 641 3341 
Q 956 3463 1253 3523 
Q 1550 3584 1831 3584 
Q 2591 3584 2966 3190 
Q 3341 2797 3341 1997 
z
" transform="scale(0.015625)"/>
       <path id="DejaVuSans-69" d="M 603 3500 
L 1178 3500 
L 1178 0 
L 603 0 
L 603 3500 
z
M 603 4863 
L 1178 4863 
L 1178 4134 
L 603 4134 
L 603 4863 
z
" transform="scale(0.015625)"/>
      </defs>
      <use xlink:href="#DejaVuSans-67"/>
      <use xlink:href="#DejaVuSans-61" transform="translate(63.476562 0)"/>
      <use xlink:href="#DejaVuSans-69" transform="translate(124.755859 0)"/>
      <use xlink:href="#DejaVuSans-6e" transform="translate(152.539062 0)"/>
     </g>
    </g>
   </g>
   <g id="FillBetweenPolyCollection_1">
    <defs>
     <path id="ma224ae049a" d="M 337.289706 -88.721339 
L 337.289706 -267.879185 
L 340.07212 -267.878445 
L 342.854534 -267.879748 
L 345.636948 -267.87898 
L 348.419362 -267.87927 
L 351.201776 -267.879063 
L 353.984191 -267.879116 
L 356.766605 -267.878935 
L 359.549019 -267.879031 
L 362.331433 -267.879521 
L 365.113847 -267.87923 
L 367.896261 -267.879001 
L 370.678675 -267.879235 
L 373.46109 -267.87924 
L 376.243504 -267.878784 
L 379.025918 -267.879154 
L 381.808332 -267.878923 
L 384.590746 -267.878885 
L 387.37316 -267.879135 
L 390.155574 -267.879365 
L 392.937989 -267.879101 
L 395.720403 -267.879232 
L 398.502817 -267.879193 
L 401.285231 -267.879187 
L 404.067645 -267.879181 
L 406.850059 -267.879218 
L 409.632474 -267.879175 
L 412.414888 -267.879153 
L 415.197302 -267.879187 
L 417.979716 -267.879178 
L 420.76213 -267.879174 
L 423.544544 -267.879152 
L 426.326958 -267.879186 
L 429.109373 -267.879181 
L 431.891787 -267.879182 
L 434.674201 -267.879178 
L 437.456615 -267.879177 
L 440.239029 -267.879177 
L 443.021443 -267.879178 
L 445.803858 -267.879178 
L 448.586272 -267.879178 
L 451.368686 -267.879178 
L 454.1511 -267.879178 
L 456.933514 -267.879178 
L 459.715928 -267.879177 
L 462.498342 -267.879181 
L 465.280757 -267.87918 
L 468.063171 -267.879178 
L 470.845585 -267.879171 
L 473.627999 -267.879178 
L 476.410413 -267.879178 
L 479.192827 -267.879187 
L 481.975242 -267.879171 
L 484.757656 -267.879193 
L 487.54007 -267.879168 
L 490.322484 -267.879161 
L 493.104898 -267.879126 
L 495.887312 -267.879217 
L 498.669726 -267.879199 
L 501.452141 -267.879175 
L 504.234555 -267.879153 
L 507.016969 -267.879209 
L 509.799383 -267.879334 
L 512.581797 -267.87921 
L 515.364211 -267.879196 
L 518.146625 -267.878899 
L 520.92904 -267.878882 
L 523.711454 -267.878135 
L 526.493868 -267.879173 
L 529.276282 -267.879144 
L 532.058696 -267.879606 
L 534.84111 -267.879007 
L 537.623525 -267.879351 
L 540.405939 -267.879285 
L 543.188353 -267.878817 
L 545.970767 -267.879267 
L 548.753181 -267.879152 
L 551.535595 -267.879179 
L 554.318009 -267.87903 
L 557.100424 -267.879073 
L 559.882838 -267.879354 
L 559.882838 -88.721339 
L 559.882838 -88.721339 
L 557.100424 -88.721339 
L 554.318009 -88.721339 
L 551.535595 -88.721339 
L 548.753181 -88.721339 
L 545.970767 -88.721339 
L 543.188353 -88.721339 
L 540.405939 -88.721339 
L 537.623525 -88.721339 
L 534.84111 -88.721339 
L 532.058696 -88.721339 
L 529.276282 -88.721339 
L 526.493868 -88.721339 
L 523.711454 -88.721339 
L 520.92904 -88.721339 
L 518.146625 -88.721339 
L 515.364211 -88.721339 
L 512.581797 -88.721339 
L 509.799383 -88.721339 
L 507.016969 -88.721339 
L 504.234555 -88.721339 
L 501.452141 -88.721339 
L 498.669726 -88.721339 
L 495.887312 -88.721339 
L 493.104898 -88.721339 
L 490.322484 -88.721339 
L 487.54007 -88.721339 
L 484.757656 -88.721339 
L 481.975242 -88.721339 
L 479.192827 -88.721339 
L 476.410413 -88.721339 
L 473.627999 -88.721339 
L 470.845585 -88.721339 
L 468.063171 -88.721339 
L 465.280757 -88.721339 
L 462.498342 -88.721339 
L 459.715928 -88.721339 
L 456.933514 -88.721339 
L 454.1511 -88.721339 
L 451.368686 -88.721339 
L 448.586272 -88.721339 
L 445.803858 -88.721339 
L 443.021443 -88.721339 
L 440.239029 -88.721339 
L 437.456615 -88.721339 
L 434.674201 -88.721339 
L 431.891787 -88.721339 
L 429.109373 -88.721339 
L 426.326958 -88.721339 
L 423.544544 -88.721339 
L 420.76213 -88.721339 
L 417.979716 -88.721339 
L 415.197302 -88.721339 
L 412.414888 -88.721339 
L 409.632474 -88.721339 
L 406.850059 -88.721339 
L 404.067645 -88.721339 
L 401.285231 -88.721339 
L 398.502817 -88.721339 
L 395.720403 -88.721339 
L 392.937989 -88.721339 
L 390.155574 -88.721339 
L 387.37316 -88.721339 
L 384.590746 -88.721339 
L 381.808332 -88.721339 
L 379.025918 -88.721339 
L 376.243504 -88.721339 
L 373.46109 -88.721339 
L 370.678675 -88.721339 
L 367.896261 -88.721339 
L 365.113847 -88.721339 
L 362.331433 -88.721339 
L 359.549019 -88.721339 
L 356.766605 -88.721339 
L 353.984191 -88.721339 
L 351.201776 -88.721339 
L 348.419362 -88.721339 
L 345.636948 -88.721339 
L 342.854534 -88.721339 
L 340.07212 -88.721339 
L 337.289706 -88.721339 
z
" style="stroke: #59a590; stroke-opacity: 0.15; stroke-width: 1.5"/>
    </defs>
    <g clip-path="url(#pe7833ca41c)">
     <use xlink:href="#ma224ae049a" x="0" y="288" style="fill: #59a590; fill-opacity: 0.15; stroke: #59a590; stroke-opacity: 0.15; stroke-width: 1.5"/>
    </g>
   </g>
   <g id="FillBetweenPolyCollection_2">
    <defs>
     <path id="mcaa770d07f" d="M 439.682546 -88.721339 
L 439.682546 -94.312374 
L 440.239029 -103.063654 
L 440.795512 -112.499189 
L 441.351995 -122.663527 
L 441.908478 -133.592185 
L 442.464961 -145.304023 
L 443.021443 -157.790191 
L 443.577926 -170.998758 
L 444.134409 -184.814419 
L 444.690892 -199.033699 
L 445.247375 -213.338196 
L 445.803858 -227.272119 
L 446.36034 -240.235243 
L 446.916823 -251.506508 
L 447.473306 -260.31215 
L 448.029789 -265.940127 
L 448.586272 -267.879178 
L 449.142755 -265.937197 
L 449.699237 -260.289801 
L 450.25572 -251.436635 
L 450.812203 -240.085518 
L 451.368686 -227.012892 
L 451.925169 -212.946919 
L 452.481652 -198.496529 
L 453.038134 -184.125703 
L 453.594617 -170.159412 
L 454.1511 -156.80579 
L 454.707583 -144.183061 
L 455.264066 -132.344712 
L 455.820548 -121.300158 
L 456.377031 -111.030463 
L 456.933514 -101.49963 
L 457.489997 -92.662415 
L 457.489997 -88.721339 
L 457.489997 -88.721339 
L 456.933514 -88.721339 
L 456.377031 -88.721339 
L 455.820548 -88.721339 
L 455.264066 -88.721339 
L 454.707583 -88.721339 
L 454.1511 -88.721339 
L 453.594617 -88.721339 
L 453.038134 -88.721339 
L 452.481652 -88.721339 
L 451.925169 -88.721339 
L 451.368686 -88.721339 
L 450.812203 -88.721339 
L 450.25572 -88.721339 
L 449.699237 -88.721339 
L 449.142755 -88.721339 
L 448.586272 -88.721339 
L 448.029789 -88.721339 
L 447.473306 -88.721339 
L 446.916823 -88.721339 
L 446.36034 -88.721339 
L 445.803858 -88.721339 
L 445.247375 -88.721339 
L 444.690892 -88.721339 
L 444.134409 -88.721339 
L 443.577926 -88.721339 
L 443.021443 -88.721339 
L 442.464961 -88.721339 
L 441.908478 -88.721339 
L 441.351995 -88.721339 
L 440.795512 -88.721339 
L 440.239029 -88.721339 
L 439.682546 -88.721339 
z
" style="stroke: #254b7f; stroke-opacity: 0.25; stroke-width: 1.5"/>
    </defs>
    <g clip-path="url(#pe7833ca41c)">
     <use xlink:href="#mcaa770d07f" x="0" y="288" style="fill: #254b7f; fill-opacity: 0.25; stroke: #254b7f; stroke-opacity: 0.25; stroke-width: 1.5"/>
    </g>
   </g>
   <g id="line2d_30">
    <path d="M 337.289706 20.120815 
L 340.07212 20.121555 
L 342.854534 20.120252 
L 345.636948 20.12102 
L 348.419362 20.12073 
L 351.201776 20.120937 
L 353.984191 20.120884 
L 356.766605 20.121065 
L 359.549019 20.120969 
L 362.331433 20.120479 
L 365.113847 20.12077 
L 367.896261 20.120999 
L 370.678675 20.120765 
L 373.46109 20.12076 
L 376.243504 20.121216 
L 379.025918 20.120846 
L 381.808332 20.121077 
L 384.590746 20.121115 
L 387.37316 20.120865 
L 390.155574 20.120635 
L 392.937989 20.120899 
L 395.720403 20.120768 
L 398.502817 20.120807 
L 401.285231 20.120813 
L 404.067645 20.120819 
L 406.850059 20.120782 
L 409.632474 20.120825 
L 412.414888 20.120847 
L 415.197302 20.120813 
L 417.979716 20.120822 
L 420.76213 20.120826 
L 423.544544 20.120848 
L 426.326958 20.120814 
L 429.109373 20.120819 
L 431.891787 20.120818 
L 434.674201 20.120822 
L 437.456615 20.120823 
L 440.239029 20.120823 
L 443.021443 20.120822 
L 445.803858 20.120822 
L 448.586272 20.120822 
L 451.368686 20.120822 
L 454.1511 20.120822 
L 456.933514 20.120822 
L 459.715928 20.120823 
L 462.498342 20.120819 
L 465.280757 20.12082 
L 468.063171 20.120822 
L 470.845585 20.120829 
L 473.627999 20.120822 
L 476.410413 20.120822 
L 479.192827 20.120813 
L 481.975242 20.120829 
L 484.757656 20.120807 
L 487.54007 20.120832 
L 490.322484 20.120839 
L 493.104898 20.120874 
L 495.887312 20.120783 
L 498.669726 20.120801 
L 501.452141 20.120825 
L 504.234555 20.120847 
L 507.016969 20.120791 
L 509.799383 20.120666 
L 512.581797 20.12079 
L 515.364211 20.120804 
L 518.146625 20.121101 
L 520.92904 20.121118 
L 523.711454 20.121865 
L 526.493868 20.120827 
L 529.276282 20.120856 
L 532.058696 20.120394 
L 534.84111 20.120993 
L 537.623525 20.120649 
L 540.405939 20.120715 
L 543.188353 20.121183 
L 545.970767 20.120733 
L 548.753181 20.120848 
L 551.535595 20.120821 
L 554.318009 20.12097 
L 557.100424 20.120927 
L 559.882838 20.120646 
" clip-path="url(#pe7833ca41c)" style="fill: none; stroke: #59a590; stroke-width: 2; stroke-linecap: round"/>
   </g>
   <g id="line2d_31">
    <path d="M 427.623083 289 
L 429.109373 282.750814 
L 430.778821 274.615205 
L 432.44827 265.025309 
L 434.117718 253.584798 
L 435.230684 244.672322 
L 436.343649 234.499899 
L 437.456615 222.819489 
L 438.569581 209.332128 
L 439.682546 193.687626 
L 440.795512 175.500811 
L 441.908478 154.407815 
L 443.577926 117.001242 
L 446.916823 36.493492 
L 447.473306 27.68785 
L 448.029789 22.059873 
L 448.586272 20.120822 
L 449.142755 22.062803 
L 449.699237 27.710199 
L 450.25572 36.563365 
L 451.368686 60.987108 
L 454.707583 143.816939 
L 456.377031 176.969537 
L 457.489997 195.337585 
L 458.602963 211.129064 
L 459.715928 224.735502 
L 461.385377 241.812406 
L 463.054825 255.742281 
L 464.724274 267.260872 
L 466.393722 276.910989 
L 468.063171 285.093841 
L 468.965267 289 
L 468.965267 289 
" clip-path="url(#pe7833ca41c)" style="fill: none; stroke: #254b7f; stroke-width: 2; stroke-linecap: round"/>
   </g>
   <g id="LineCollection_1">
    <path d="M 326.160049 199.278661 
L 571.012494 199.278661 
" clip-path="url(#pe7833ca41c)" style="fill: none; stroke-dasharray: 8.325,3.6; stroke-dashoffset: 0; stroke: #1a1a1a; stroke-opacity: 0.7; stroke-width: 2.25"/>
   </g>
   <g id="patch_8">
    <path d="M 326.160049 235.110229 
L 326.160049 3.00024 
" style="fill: none; stroke: #ffffff; stroke-width: 1.875; stroke-linejoin: miter; stroke-linecap: square"/>
   </g>
   <g id="patch_9">
    <path d="M 571.012494 235.110229 
L 571.012494 3.00024 
" style="fill: none; stroke: #ffffff; stroke-width: 1.875; stroke-linejoin: miter; stroke-linecap: square"/>
   </g>
   <g id="patch_10">
    <path d="M 326.160049 235.110229 
L 571.012494 235.110229 
" style="fill: none; stroke: #ffffff; stroke-width: 1.875; stroke-linejoin: miter; stroke-linecap: square"/>
   </g>
   <g id="patch_11">
    <path d="M 326.160049 3.00024 
L 571.012494 3.00024 
" style="fill: none; stroke: #ffffff; stroke-width: 1.875; stroke-linejoin: miter; stroke-linecap: square"/>
   </g>
   <g id="text_25">
    <!-- Threshold -->
    <g style="fill: #262626" transform="translate(494.548962 193.356082) scale(0.11 -0.11)">
     <defs>
      <path id="DejaVuSans-54" d="M -19 4666 
L 3928 4666 
L 3928 4134 
L 2272 4134 
L 2272 0 
L 1638 0 
L 1638 4134 
L -19 4134 
L -19 4666 
z
" transform="scale(0.015625)"/>
      <path id="DejaVuSans-68" d="M 3513 2113 
L 3513 0 
L 2938 0 
L 2938 2094 
Q 2938 2591 2744 2837 
Q 2550 3084 2163 3084 
Q 1697 3084 1428 2787 
Q 1159 2491 1159 1978 
L 1159 0 
L 581 0 
L 581 4863 
L 1159 4863 
L 1159 2956 
Q 1366 3272 1645 3428 
Q 1925 3584 2291 3584 
Q 2894 3584 3203 3211 
Q 3513 2838 3513 2113 
z
" transform="scale(0.015625)"/>
      <path id="DejaVuSans-73" d="M 2834 3397 
L 2834 2853 
Q 2591 2978 2328 3040 
Q 2066 3103 1784 3103 
Q 1356 3103 1142 2972 
Q 928 2841 928 2578 
Q 928 2378 1081 2264 
Q 1234 2150 1697 2047 
L 1894 2003 
Q 2506 1872 2764 1633 
Q 3022 1394 3022 966 
Q 3022 478 2636 193 
Q 2250 -91 1575 -91 
Q 1294 -91 989 -36 
Q 684 19 347 128 
L 347 722 
Q 666 556 975 473 
Q 1284 391 1588 391 
Q 1994 391 2212 530 
Q 2431 669 2431 922 
Q 2431 1156 2273 1281 
Q 2116 1406 1581 1522 
L 1381 1569 
Q 847 1681 609 1914 
Q 372 2147 372 2553 
Q 372 3047 722 3315 
Q 1072 3584 1716 3584 
Q 2034 3584 2315 3537 
Q 2597 3491 2834 3397 
z
" transform="scale(0.015625)"/>
      <path id="DejaVuSans-6c" d="M 603 4863 
L 1178 4863 
L 1178 0 
L 603 0 
L 603 4863 
z
" transform="scale(0.015625)"/>
     </defs>
     <use xlink:href="#DejaVuSans-54"/>
     <use xlink:href="#DejaVuSans-68" transform="translate(61.083984 0)"/>
     <use xlink:href="#DejaVuSans-72" transform="translate(124.462891 0)"/>
     <use xlink:href="#DejaVuSans-65" transform="translate(163.326172 0)"/>
     <use xlink:href="#DejaVuSans-73" transform="translate(224.849609 0)"/>
     <use xlink:href="#DejaVuSans-68" transform="translate(276.949219 0)"/>
     <use xlink:href="#DejaVuSans-6f" transform="translate(340.328125 0)"/>
     <use xlink:href="#DejaVuSans-6c" transform="translate(401.509766 0)"/>
     <use xlink:href="#DejaVuSans-64" transform="translate(429.292969 0)"/>
    </g>
   </g>
  </g>
 </g>
 <defs>
  <clipPath id="pae00b2002d">
   <rect x="68.600396" y="3.00024" width="244.852445" height="232.109989"/>
  </clipPath>
  <clipPath id="pe7833ca41c">
   <rect x="326.160049" y="3.00024" width="244.852445" height="232.109989"/>
  </clipPath>
 </defs>
</svg>
