<?xml version="1.0" encoding="utf-8" standalone="no"?>
<!DOCTYPE svg PUBLIC "-//W3C//DTD SVG 1.1//EN"
  "http://www.w3.org/Graphics/SVG/1.1/DTD/svg11.dtd">
<svg xmlns:xlink="http://www.w3.org/1999/xlink" width="432pt" height="432pt" viewBox="0 0 432 432" xmlns="http://www.w3.org/2000/svg" version="1.1">
 <metadata>
  <rdf:RDF xmlns:dc="http://purl.org/dc/elements/1.1/" xmlns:cc="http://creativecommons.org/ns#" xmlns:rdf="http://www.w3.org/1999/02/22-rdf-syntax-ns#">
   <cc:Work>
    <dc:type rdf:resource="http://purl.org/dc/dcmitype/StillImage"/>
    <dc:date>2026-05-14T15:11:00.531035</dc:date>
    <dc:format>image/svg+xml</dc:format>
    <dc:creator>
     <cc:Agent>
      <dc:title>Matplotlib v3.10.1+dfsg1, https://matplotlib.org/</dc:title>
     </cc:Agent>
    </dc:creator>
   </cc:Work>
  </rdf:RDF>
 </metadata>
 <defs>
  <style type="text/css">*{stroke-linejoin: round; stroke-linecap: butt}</style>
 </defs>
 <g id="figure_1">
  <g id="patch_1">
   <path d="M 0 432 
L 432 432 
L 432 0 
L 0 0 
z
" style="fill: #ffffff"/>
  </g>
  <g id="axes_1">
   <g id="patch_2">
    <path d="M 54 384.48 
L 388.8 384.48 
L 388.8 51.84 
L 54 51.84 
z
" style="fill: #eaeaf2"/>
   </g>
   <g id="matplotlib.axis_1">
    <g id="xtick_1">
     <g id="line2d_1">
      <path d="M 69.218182 384.48 
L 69.218182 51.84 
" clip-path="url(#p09fa762b60)" style="fill: none; stroke: #ffffff; stroke-width: 1.5; stroke-linecap: round"/>
     </g>
     <g id="text_1">
      <!-- −20 -->
      <g style="fill: #262626" transform="translate(51.806815 409.517422) scale(0.165 -0.165)">
       <defs>
        <path id="DejaVuSans-2212" d="M 678 2272 
L 4684 2272 
L 4684 1741 
L 678 1741 
L 678 2272 
z
" transform="scale(0.015625)"/>
        <path id="DejaVuSans-32" d="M 1228 531 
L 3431 531 
L 3431 0 
L 469 0 
L 469 531 
Q 828 903 1448 1529 
Q 2069 2156 2228 2338 
Q 2531 2678 2651 2914 
Q 2772 3150 2772 3378 
Q 2772 3750 2511 3984 
Q 2250 4219 1831 4219 
Q 1534 4219 1204 4116 
Q 875 4013 500 3803 
L 500 4441 
Q 881 4594 1212 4672 
Q 1544 4750 1819 4750 
Q 2544 4750 2975 4387 
Q 3406 4025 3406 3419 
Q 3406 3131 3298 2873 
Q 3191 2616 2906 2266 
Q 2828 2175 2409 1742 
Q 1991 1309 1228 531 
z
" transform="scale(0.015625)"/>
        <path id="DejaVuSans-30" d="M 2034 4250 
Q 1547 4250 1301 3770 
Q 1056 3291 1056 2328 
Q 1056 1369 1301 889 
Q 1547 409 2034 409 
Q 2525 409 2770 889 
Q 3016 1369 3016 2328 
Q 3016 3291 2770 3770 
Q 2525 4250 2034 4250 
z
M 2034 4750 
Q 2819 4750 3233 4129 
Q 3647 3509 3647 2328 
Q 3647 1150 3233 529 
Q 2819 -91 2034 -91 
Q 1250 -91 836 529 
Q 422 1150 422 2328 
Q 422 3509 836 4129 
Q 1250 4750 2034 4750 
z
" transform="scale(0.015625)"/>
       </defs>
       <use xlink:href="#DejaVuSans-2212"/>
       <use xlink:href="#DejaVuSans-32" transform="translate(83.789062 0)"/>
       <use xlink:href="#DejaVuSans-30" transform="translate(147.412109 0)"/>
      </g>
     </g>
    </g>
    <g id="xtick_2">
     <g id="line2d_2">
      <path d="M 145.309091 384.48 
L 145.309091 51.84 
" clip-path="url(#p09fa762b60)" style="fill: none; stroke: #ffffff; stroke-width: 1.5; stroke-linecap: round"/>
     </g>
     <g id="text_2">
      <!-- −10 -->
      <g style="fill: #262626" transform="translate(127.897724 409.517422) scale(0.165 -0.165)">
       <defs>
        <path id="DejaVuSans-31" d="M 794 531 
L 1825 531 
L 1825 4091 
L 703 3866 
L 703 4441 
L 1819 4666 
L 2450 4666 
L 2450 531 
L 3481 531 
L 3481 0 
L 794 0 
L 794 531 
z
" transform="scale(0.015625)"/>
       </defs>
       <use xlink:href="#DejaVuSans-2212"/>
       <use xlink:href="#DejaVuSans-31" transform="translate(83.789062 0)"/>
       <use xlink:href="#DejaVuSans-30" transform="translate(147.412109 0)"/>
      </g>
     </g>
    </g>
    <g id="xtick_3">
     <g id="line2d_3">
      <path d="M 221.4 384.48 
L 221.4 51.84 
" clip-path="url(#p09fa762b60)" style="fill: none; stroke: #ffffff; stroke-width: 1.5; stroke-linecap: round"/>
     </g>
     <g id="text_3">
      <!-- 0 -->
      <g style="fill: #262626" transform="translate(216.150937 409.517422) scale(0.165 -0.165)">
       <use xlink:href="#DejaVuSans-30"/>
      </g>
     </g>
    </g>
    <g id="xtick_4">
     <g id="line2d_4">
      <path d="M 297.490909 384.48 
L 297.490909 51.84 
" clip-path="url(#p09fa762b60)" style="fill: none; stroke: #ffffff; stroke-width: 1.5; stroke-linecap: round"/>
     </g>
     <g id="text_4">
      <!-- 10 -->
      <g style="fill: #262626" transform="translate(286.992784 409.517422) scale(0.165 -0.165)">
       <use xlink:href="#DejaVuSans-31"/>
       <use xlink:href="#DejaVuSans-30" transform="translate(63.623047 0)"/>
      </g>
     </g>
    </g>
    <g id="xtick_5">
     <g id="line2d_5">
      <path d="M 373.581818 384.48 
L 373.581818 51.84 
" clip-path="url(#p09fa762b60)" style="fill: none; stroke: #ffffff; stroke-width: 1.5; stroke-linecap: round"/>
     </g>
     <g id="text_5">
      <!-- 20 -->
      <g style="fill: #262626" transform="translate(363.083693 409.517422) scale(0.165 -0.165)">
       <use xlink:href="#DejaVuSans-32"/>
       <use xlink:href="#DejaVuSans-30" transform="translate(63.623047 0)"/>
      </g>
     </g>
    </g>
    <g id="text_6">
     <!-- $\mu$ -->
     <g style="fill: #262626" transform="translate(215.64 430.589531) scale(0.18 -0.18)">
      <defs>
       <path id="DejaVuSans-Oblique-3bc" d="M -84 -1331 
L 856 3500 
L 1434 3500 
L 1009 1322 
Q 997 1256 987 1175 
Q 978 1094 978 1013 
Q 978 722 1161 565 
Q 1344 409 1684 409 
Q 2147 409 2431 671 
Q 2716 934 2816 1459 
L 3213 3500 
L 3788 3500 
L 3266 809 
Q 3253 750 3248 706 
Q 3244 663 3244 628 
Q 3244 531 3283 486 
Q 3322 441 3406 441 
Q 3438 441 3492 456 
Q 3547 472 3647 513 
L 3559 50 
Q 3422 -19 3297 -55 
Q 3172 -91 3053 -91 
Q 2847 -91 2730 40 
Q 2613 172 2613 403 
Q 2438 153 2195 31 
Q 1953 -91 1625 -91 
Q 1334 -91 1117 43 
Q 900 178 831 397 
L 494 -1331 
L -84 -1331 
z
" transform="scale(0.015625)"/>
      </defs>
      <use xlink:href="#DejaVuSans-Oblique-3bc" transform="translate(0 0.3125)"/>
     </g>
    </g>
   </g>
   <g id="matplotlib.axis_2">
    <g id="ytick_1">
     <g id="line2d_6">
      <path d="M 54 383.416643 
L 388.8 383.416643 
" clip-path="url(#p09fa762b60)" style="fill: none; stroke: #ffffff; stroke-width: 1.5; stroke-linecap: round"/>
     </g>
     <g id="text_7">
      <!-- −1.00 -->
      <g style="fill: #262626" transform="translate(-9.064766 389.685353) scale(0.165 -0.165)">
       <defs>
        <path id="DejaVuSans-2e" d="M 684 794 
L 1344 794 
L 1344 0 
L 684 0 
L 684 794 
z
" transform="scale(0.015625)"/>
       </defs>
       <use xlink:href="#DejaVuSans-2212"/>
       <use xlink:href="#DejaVuSans-31" transform="translate(83.789062 0)"/>
       <use xlink:href="#DejaVuSans-2e" transform="translate(147.412109 0)"/>
       <use xlink:href="#DejaVuSans-30" transform="translate(179.199219 0)"/>
       <use xlink:href="#DejaVuSans-30" transform="translate(242.822266 0)"/>
      </g>
     </g>
    </g>
    <g id="ytick_2">
     <g id="line2d_7">
      <path d="M 54 343.859625 
L 388.8 343.859625 
" clip-path="url(#p09fa762b60)" style="fill: none; stroke: #ffffff; stroke-width: 1.5; stroke-linecap: round"/>
     </g>
     <g id="text_8">
      <!-- −0.75 -->
      <g style="fill: #262626" transform="translate(-9.064766 350.128336) scale(0.165 -0.165)">
       <defs>
        <path id="DejaVuSans-37" d="M 525 4666 
L 3525 4666 
L 3525 4397 
L 1831 0 
L 1172 0 
L 2766 4134 
L 525 4134 
L 525 4666 
z
" transform="scale(0.015625)"/>
        <path id="DejaVuSans-35" d="M 691 4666 
L 3169 4666 
L 3169 4134 
L 1269 4134 
L 1269 2991 
Q 1406 3038 1543 3061 
Q 1681 3084 1819 3084 
Q 2600 3084 3056 2656 
Q 3513 2228 3513 1497 
Q 3513 744 3044 326 
Q 2575 -91 1722 -91 
Q 1428 -91 1123 -41 
Q 819 9 494 109 
L 494 744 
Q 775 591 1075 516 
Q 1375 441 1709 441 
Q 2250 441 2565 725 
Q 2881 1009 2881 1497 
Q 2881 1984 2565 2268 
Q 2250 2553 1709 2553 
Q 1456 2553 1204 2497 
Q 953 2441 691 2322 
L 691 4666 
z
" transform="scale(0.015625)"/>
       </defs>
       <use xlink:href="#DejaVuSans-2212"/>
       <use xlink:href="#DejaVuSans-30" transform="translate(83.789062 0)"/>
       <use xlink:href="#DejaVuSans-2e" transform="translate(147.412109 0)"/>
       <use xlink:href="#DejaVuSans-37" transform="translate(179.199219 0)"/>
       <use xlink:href="#DejaVuSans-35" transform="translate(242.822266 0)"/>
      </g>
     </g>
    </g>
    <g id="ytick_3">
     <g id="line2d_8">
      <path d="M 54 304.302608 
L 388.8 304.302608 
" clip-path="url(#p09fa762b60)" style="fill: none; stroke: #ffffff; stroke-width: 1.5; stroke-linecap: round"/>
     </g>
     <g id="text_9">
      <!-- −0.50 -->
      <g style="fill: #262626" transform="translate(-9.064766 310.571319) scale(0.165 -0.165)">
       <use xlink:href="#DejaVuSans-2212"/>
       <use xlink:href="#DejaVuSans-30" transform="translate(83.789062 0)"/>
       <use xlink:href="#DejaVuSans-2e" transform="translate(147.412109 0)"/>
       <use xlink:href="#DejaVuSans-35" transform="translate(179.199219 0)"/>
       <use xlink:href="#DejaVuSans-30" transform="translate(242.822266 0)"/>
      </g>
     </g>
    </g>
    <g id="ytick_4">
     <g id="line2d_9">
      <path d="M 54 264.74559 
L 388.8 264.74559 
" clip-path="url(#p09fa762b60)" style="fill: none; stroke: #ffffff; stroke-width: 1.5; stroke-linecap: round"/>
     </g>
     <g id="text_10">
      <!-- −0.25 -->
      <g style="fill: #262626" transform="translate(-9.064766 271.014301) scale(0.165 -0.165)">
       <use xlink:href="#DejaVuSans-2212"/>
       <use xlink:href="#DejaVuSans-30" transform="translate(83.789062 0)"/>
       <use xlink:href="#DejaVuSans-2e" transform="translate(147.412109 0)"/>
       <use xlink:href="#DejaVuSans-32" transform="translate(179.199219 0)"/>
       <use xlink:href="#DejaVuSans-35" transform="translate(242.822266 0)"/>
      </g>
     </g>
    </g>
    <g id="ytick_5">
     <g id="line2d_10">
      <path d="M 54 225.188573 
L 388.8 225.188573 
" clip-path="url(#p09fa762b60)" style="fill: none; stroke: #ffffff; stroke-width: 1.5; stroke-linecap: round"/>
     </g>
     <g id="text_11">
      <!-- 0.00 -->
      <g style="fill: #262626" transform="translate(4.761719 231.457284) scale(0.165 -0.165)">
       <use xlink:href="#DejaVuSans-30"/>
       <use xlink:href="#DejaVuSans-2e" transform="translate(63.623047 0)"/>
       <use xlink:href="#DejaVuSans-30" transform="translate(95.410156 0)"/>
       <use xlink:href="#DejaVuSans-30" transform="translate(159.033203 0)"/>
      </g>
     </g>
    </g>
    <g id="ytick_6">
     <g id="line2d_11">
      <path d="M 54 185.631556 
L 388.8 185.631556 
" clip-path="url(#p09fa762b60)" style="fill: none; stroke: #ffffff; stroke-width: 1.5; stroke-linecap: round"/>
     </g>
     <g id="text_12">
      <!-- 0.25 -->
      <g style="fill: #262626" transform="translate(4.761719 191.900266) scale(0.165 -0.165)">
       <use xlink:href="#DejaVuSans-30"/>
       <use xlink:href="#DejaVuSans-2e" transform="translate(63.623047 0)"/>
       <use xlink:href="#DejaVuSans-32" transform="translate(95.410156 0)"/>
       <use xlink:href="#DejaVuSans-35" transform="translate(159.033203 0)"/>
      </g>
     </g>
    </g>
    <g id="ytick_7">
     <g id="line2d_12">
      <path d="M 54 146.074538 
L 388.8 146.074538 
" clip-path="url(#p09fa762b60)" style="fill: none; stroke: #ffffff; stroke-width: 1.5; stroke-linecap: round"/>
     </g>
     <g id="text_13">
      <!-- 0.50 -->
      <g style="fill: #262626" transform="translate(4.761719 152.343249) scale(0.165 -0.165)">
       <use xlink:href="#DejaVuSans-30"/>
       <use xlink:href="#DejaVuSans-2e" transform="translate(63.623047 0)"/>
       <use xlink:href="#DejaVuSans-35" transform="translate(95.410156 0)"/>
       <use xlink:href="#DejaVuSans-30" transform="translate(159.033203 0)"/>
      </g>
     </g>
    </g>
    <g id="ytick_8">
     <g id="line2d_13">
      <path d="M 54 106.517521 
L 388.8 106.517521 
" clip-path="url(#p09fa762b60)" style="fill: none; stroke: #ffffff; stroke-width: 1.5; stroke-linecap: round"/>
     </g>
     <g id="text_14">
      <!-- 0.75 -->
      <g style="fill: #262626" transform="translate(4.761719 112.786232) scale(0.165 -0.165)">
       <use xlink:href="#DejaVuSans-30"/>
       <use xlink:href="#DejaVuSans-2e" transform="translate(63.623047 0)"/>
       <use xlink:href="#DejaVuSans-37" transform="translate(95.410156 0)"/>
       <use xlink:href="#DejaVuSans-35" transform="translate(159.033203 0)"/>
      </g>
     </g>
    </g>
    <g id="ytick_9">
     <g id="line2d_14">
      <path d="M 54 66.960503 
L 388.8 66.960503 
" clip-path="url(#p09fa762b60)" style="fill: none; stroke: #ffffff; stroke-width: 1.5; stroke-linecap: round"/>
     </g>
     <g id="text_15">
      <!-- 1.00 -->
      <g style="fill: #262626" transform="translate(4.761719 73.229214) scale(0.165 -0.165)">
       <use xlink:href="#DejaVuSans-31"/>
       <use xlink:href="#DejaVuSans-2e" transform="translate(63.623047 0)"/>
       <use xlink:href="#DejaVuSans-30" transform="translate(95.410156 0)"/>
       <use xlink:href="#DejaVuSans-30" transform="translate(159.033203 0)"/>
      </g>
     </g>
    </g>
    <g id="text_16">
     <!-- gain -->
     <g style="fill: #262626" transform="translate(-16.808203 237.592969) rotate(-90) scale(0.18 -0.18)">
      <defs>
       <path id="DejaVuSans-67" d="M 2906 1791 
Q 2906 2416 2648 2759 
Q 2391 3103 1925 3103 
Q 1463 3103 1205 2759 
Q 947 2416 947 1791 
Q 947 1169 1205 825 
Q 1463 481 1925 481 
Q 2391 481 2648 825 
Q 2906 1169 2906 1791 
z
M 3481 434 
Q 3481 -459 3084 -895 
Q 2688 -1331 1869 -1331 
Q 1566 -1331 1297 -1286 
Q 1028 -1241 775 -1147 
L 775 -588 
Q 1028 -725 1275 -790 
Q 1522 -856 1778 -856 
Q 2344 -856 2625 -561 
Q 2906 -266 2906 331 
L 2906 616 
Q 2728 306 2450 153 
Q 2172 0 1784 0 
Q 1141 0 747 490 
Q 353 981 353 1791 
Q 353 2603 747 3093 
Q 1141 3584 1784 3584 
Q 2172 3584 2450 3431 
Q 2728 3278 2906 2969 
L 2906 3500 
L 3481 3500 
L 3481 434 
z
" transform="scale(0.015625)"/>
       <path id="DejaVuSans-61" d="M 2194 1759 
Q 1497 1759 1228 1600 
Q 959 1441 959 1056 
Q 959 750 1161 570 
Q 1363 391 1709 391 
Q 2188 391 2477 730 
Q 2766 1069 2766 1631 
L 2766 1759 
L 2194 1759 
z
M 3341 1997 
L 3341 0 
L 2766 0 
L 2766 531 
Q 2569 213 2275 61 
Q 1981 -91 1556 -91 
Q 1019 -91 701 211 
Q 384 513 384 1019 
Q 384 1609 779 1909 
Q 1175 2209 1959 2209 
L 2766 2209 
L 2766 2266 
Q 2766 2663 2505 2880 
Q 2244 3097 1772 3097 
Q 1472 3097 1187 3025 
Q 903 2953 641 2809 
L 641 3341 
Q 956 3463 1253 3523 
Q 1550 3584 1831 3584 
Q 2591 3584 2966 3190 
Q 3341 2797 3341 1997 
z
" transform="scale(0.015625)"/>
       <path id="DejaVuSans-69" d="M 603 3500 
L 1178 3500 
L 1178 0 
L 603 0 
L 603 3500 
z
M 603 4863 
L 1178 4863 
L 1178 4134 
L 603 4134 
L 603 4863 
z
" transform="scale(0.015625)"/>
       <path id="DejaVuSans-6e" d="M 3513 2113 
L 3513 0 
L 2938 0 
L 2938 2094 
Q 2938 2591 2744 2837 
Q 2550 3084 2163 3084 
Q 1697 3084 1428 2787 
Q 1159 2491 1159 1978 
L 1159 0 
L 581 0 
L 581 3500 
L 1159 3500 
L 1159 2956 
Q 1366 3272 1645 3428 
Q 1925 3584 2291 3584 
Q 2894 3584 3203 3211 
Q 3513 2838 3513 2113 
z
" transform="scale(0.015625)"/>
      </defs>
      <use xlink:href="#DejaVuSans-67"/>
      <use xlink:href="#DejaVuSans-61" transform="translate(63.476562 0)"/>
      <use xlink:href="#DejaVuSans-69" transform="translate(124.755859 0)"/>
      <use xlink:href="#DejaVuSans-6e" transform="translate(152.539062 0)"/>
     </g>
    </g>
   </g>
   <g id="line2d_15">
    <path d="M 69.218182 66.960497 
L 73.022727 66.96115 
L 76.827273 66.96 
L 80.631818 66.960678 
L 84.436364 66.960422 
L 88.240909 66.960605 
L 92.045455 66.960558 
L 95.85 66.960718 
L 99.654545 66.960633 
L 103.459091 66.9602 
L 107.263636 66.960457 
L 111.068182 66.96066 
L 114.872727 66.960452 
L 118.677273 66.960448 
L 122.481818 66.960851 
L 126.286364 66.960524 
L 130.090909 66.960728 
L 133.895455 66.960762 
L 137.7 66.960541 
L 141.504545 66.960337 
L 145.309091 66.960571 
L 149.113636 66.960456 
L 152.918182 66.96049 
L 156.722727 66.960495 
L 160.527273 66.9605 
L 164.331818 66.960467 
L 168.136364 66.960506 
L 171.940909 66.960525 
L 175.745455 66.960495 
L 179.55 66.960503 
L 183.354545 66.960507 
L 187.159091 66.960526 
L 190.963636 66.960496 
L 194.768182 66.960501 
L 198.572727 66.9605 
L 202.377273 66.960503 
L 206.181818 66.960503 
L 209.986364 66.960504 
L 213.790909 66.960503 
L 217.595455 66.960503 
L 221.4 66.960503 
L 225.204545 66.960503 
L 229.009091 66.960503 
L 232.813636 66.960503 
L 236.618182 66.960504 
L 240.422727 66.960501 
L 244.227273 66.960501 
L 248.031818 66.960503 
L 251.836364 66.960509 
L 255.640909 66.960503 
L 259.445455 66.960503 
L 263.25 66.960495 
L 267.054545 66.960509 
L 270.859091 66.96049 
L 274.663636 66.960512 
L 278.468182 66.960518 
L 282.272727 66.960549 
L 286.077273 66.960468 
L 289.881818 66.960485 
L 293.686364 66.960506 
L 297.490909 66.960525 
L 301.295455 66.960475 
L 305.1 66.960366 
L 308.904545 66.960475 
L 312.709091 66.960487 
L 316.513636 66.960749 
L 320.318182 66.960765 
L 324.122727 66.961424 
L 327.927273 66.960507 
L 331.731818 66.960533 
L 335.536364 66.960125 
L 339.340909 66.960654 
L 343.145455 66.96035 
L 346.95 66.960408 
L 350.754545 66.960822 
L 354.559091 66.960424 
L 358.363636 66.960526 
L 362.168182 66.960503 
L 365.972727 66.960634 
L 369.777273 66.960596 
L 373.581818 66.960348 
" clip-path="url(#p09fa762b60)" style="fill: none; stroke: #59a590; stroke-width: 2.25; stroke-linecap: round"/>
   </g>
   <g id="line2d_16">
    <path d="M 69.218182 367.049289 
L 81.392727 365.746472 
L 92.806364 364.300598 
L 102.698182 362.822592 
L 111.068182 361.365348 
L 118.677273 359.835211 
L 125.525455 358.251498 
L 131.612727 356.642303 
L 137.7 354.801046 
L 143.026364 352.957755 
L 147.591818 351.168642 
L 152.157273 349.146995 
L 155.961818 347.250353 
L 159.766364 345.123979 
L 163.570909 342.723851 
L 166.614545 340.569581 
L 169.658182 338.168822 
L 172.701818 335.477263 
L 175.745455 332.439434 
L 178.028182 329.892234 
L 180.310909 327.074391 
L 182.593636 323.941207 
L 184.876364 320.437797 
L 187.159091 316.496099 
L 189.441818 312.030804 
L 191.724545 306.933745 
L 194.007273 301.066101 
L 195.529091 296.639252 
L 197.050909 291.72407 
L 198.572727 286.239847 
L 200.094545 280.088543 
L 201.616364 273.1505 
L 203.138182 265.279207 
L 204.66 256.295158 
L 206.181818 245.979289 
L 207.703636 234.067563 
L 209.225455 220.2507 
L 210.747273 204.188525 
L 212.269091 185.559677 
L 213.790909 164.188557 
L 216.073636 127.763242 
L 218.356364 91.374989 
L 219.117273 81.420468 
L 219.878182 73.643528 
L 220.639091 68.673028 
L 221.4 66.960503 
L 222.160909 68.675616 
L 222.921818 73.663266 
L 223.682727 81.482178 
L 224.443636 91.507222 
L 225.965455 115.475407 
L 229.009091 165.057957 
L 230.530909 186.661417 
L 232.052727 205.48567 
L 233.574545 221.707905 
L 235.096364 235.654576 
L 236.618182 247.671468 
L 238.14 258.072867 
L 239.661818 267.126919 
L 241.183636 275.055939 
L 242.705455 282.041969 
L 244.227273 288.23348 
L 245.749091 293.751654 
L 247.270909 298.695721 
L 249.553636 305.21001 
L 251.836364 310.831869 
L 254.119091 315.728103 
L 256.401818 320.027494 
L 258.684545 323.830738 
L 260.967273 327.217528 
L 263.25 330.251647 
L 265.532727 332.984681 
L 268.576364 336.232089 
L 271.62 339.098356 
L 274.663636 341.646216 
L 277.707273 343.925473 
L 281.511818 346.457034 
L 285.316364 348.692977 
L 289.120909 350.681896 
L 293.686364 352.796267 
L 298.251818 354.662593 
L 303.578182 356.580707 
L 308.904545 358.267448 
L 314.991818 359.961864 
L 321.84 361.624118 
L 329.449091 363.225154 
L 337.819091 364.74545 
L 346.95 366.173329 
L 357.602727 367.59753 
L 369.016364 368.895404 
L 373.581818 369.36 
L 373.581818 369.36 
" clip-path="url(#p09fa762b60)" style="fill: none; stroke: #254b7f; stroke-width: 2.25; stroke-linecap: round"/>
   </g>
   <g id="patch_3">
    <path d="M 54 384.48 
L 54 51.84 
" style="fill: none; stroke: #ffffff; stroke-width: 1.875; stroke-linejoin: miter; stroke-linecap: square"/>
   </g>
   <g id="patch_4">
    <path d="M 388.8 384.48 
L 388.8 51.84 
" style="fill: none; stroke: #ffffff; stroke-width: 1.875; stroke-linejoin: miter; stroke-linecap: square"/>
   </g>
   <g id="patch_5">
    <path d="M 54 384.48 
L 388.8 384.48 
" style="fill: none; stroke: #ffffff; stroke-width: 1.875; stroke-linejoin: miter; stroke-linecap: square"/>
   </g>
   <g id="patch_6">
    <path d="M 54 51.84 
L 388.8 51.84 
" style="fill: none; stroke: #ffffff; stroke-width: 1.875; stroke-linejoin: miter; stroke-linecap: square"/>
   </g>
  </g>
 </g>
 <defs>
  <clipPath id="p09fa762b60">
   <rect x="54" y="51.84" width="334.8" height="332.64"/>
  </clipPath>
 </defs>
</svg>
