<?xml version="1.0" encoding="utf-8" standalone="no"?>
<!DOCTYPE svg PUBLIC "-//W3C//DTD SVG 1.1//EN"
  "http://www.w3.org/Graphics/SVG/1.1/DTD/svg11.dtd">
<svg xmlns:xlink="http://www.w3.org/1999/xlink" width="1008pt" height="288pt" viewBox="0 0 1008 288" xmlns="http://www.w3.org/2000/svg" version="1.1">
 <metadata>
  <rdf:RDF xmlns:dc="http://purl.org/dc/elements/1.1/" xmlns:cc="http://creativecommons.org/ns#" xmlns:rdf="http://www.w3.org/1999/02/22-rdf-syntax-ns#">
   <cc:Work>
    <dc:type rdf:resource="http://purl.org/dc/dcmitype/StillImage"/>
    <dc:date>2026-05-15T09:27:42.106222</dc:date>
    <dc:format>image/svg+xml</dc:format>
    <dc:creator>
     <cc:Agent>
      <dc:title>Matplotlib v3.10.1+dfsg1, https://matplotlib.org/</dc:title>
     </cc:Agent>
    </dc:creator>
   </cc:Work>
  </rdf:RDF>
 </metadata>
 <defs>
  <style type="text/css">*{stroke-linejoin: round; stroke-linecap: butt}</style>
 </defs>
 <g id="figure_1">
  <g id="patch_1">
   <path d="M 0 288 
L 1008 288 
L 1008 0 
L 0 0 
z
" style="fill: #ffffff"/>
  </g>
  <g id="axes_1">
   <g id="patch_2">
    <path d="M 68.84 239.5 
L 988.56 239.5 
L 988.56 19.44 
L 68.84 19.44 
z
" style="fill: #eaeaf2"/>
   </g>
   <g id="LineCollection_1">
    <path clip-path="url(#p7e4ada930d)" style="fill: none; stroke-dasharray: 8.325,3.6; stroke-dashoffset: 0; stroke: #808080; stroke-width: 2.25"/>
   </g>
   <g id="LineCollection_2">
    <path clip-path="url(#p7e4ada930d)" style="fill: none; stroke-dasharray: 8.325,3.6; stroke-dashoffset: 0; stroke: #808080; stroke-width: 2.25"/>
   </g>
   <g id="LineCollection_3">
    <path d="M 97.58125 212.149284 
L 97.58125 29.442727 
" clip-path="url(#p7e4ada930d)" style="fill: none; stroke-dasharray: 8.325,3.6; stroke-dashoffset: 0; stroke: #808080; stroke-width: 2.25"/>
   </g>
   <g id="LineCollection_4">
    <path d="M 241.2875 212.149284 
L 241.2875 29.442727 
" clip-path="url(#p7e4ada930d)" style="fill: none; stroke-dasharray: 8.325,3.6; stroke-dashoffset: 0; stroke: #808080; stroke-width: 2.25"/>
   </g>
   <g id="LineCollection_5">
    <path d="M 384.99375 212.149284 
L 384.99375 29.442727 
" clip-path="url(#p7e4ada930d)" style="fill: none; stroke-dasharray: 8.325,3.6; stroke-dashoffset: 0; stroke: #808080; stroke-width: 2.25"/>
   </g>
   <g id="LineCollection_6">
    <path d="M 528.7 212.149284 
L 528.7 29.442727 
" clip-path="url(#p7e4ada930d)" style="fill: none; stroke-dasharray: 8.325,3.6; stroke-dashoffset: 0; stroke: #808080; stroke-width: 2.25"/>
   </g>
   <g id="LineCollection_7">
    <path d="M 672.40625 212.149284 
L 672.40625 29.442727 
" clip-path="url(#p7e4ada930d)" style="fill: none; stroke-dasharray: 8.325,3.6; stroke-dashoffset: 0; stroke: #808080; stroke-width: 2.25"/>
   </g>
   <g id="LineCollection_8">
    <path d="M 816.1125 212.149284 
L 816.1125 29.442727 
" clip-path="url(#p7e4ada930d)" style="fill: none; stroke-dasharray: 8.325,3.6; stroke-dashoffset: 0; stroke: #808080; stroke-width: 2.25"/>
   </g>
   <g id="LineCollection_9">
    <path d="M 959.81875 212.149284 
L 959.81875 29.442727 
" clip-path="url(#p7e4ada930d)" style="fill: none; stroke-dasharray: 8.325,3.6; stroke-dashoffset: 0; stroke: #808080; stroke-width: 2.25"/>
   </g>
   <g id="LineCollection_10">
    <path clip-path="url(#p7e4ada930d)" style="fill: none; stroke-dasharray: 8.325,3.6; stroke-dashoffset: 0; stroke: #808080; stroke-width: 2.25"/>
   </g>
   <g id="matplotlib.axis_1">
    <g id="xtick_1">
     <g id="line2d_1">
      <path d="M 102.115804 239.5 
L 102.115804 19.44 
" clip-path="url(#p7e4ada930d)" style="fill: none; stroke: #ffffff; stroke-width: 1.5; stroke-linecap: round"/>
     </g>
     <g id="text_1">
      <!-- 193.2 -->
      <g style="fill: #262626" transform="translate(78.497601 264.537422) scale(0.165 -0.165)">
       <defs>
        <path id="DejaVuSans-31" d="M 794 531 
L 1825 531 
L 1825 4091 
L 703 3866 
L 703 4441 
L 1819 4666 
L 2450 4666 
L 2450 531 
L 3481 531 
L 3481 0 
L 794 0 
L 794 531 
z
" transform="scale(0.015625)"/>
        <path id="DejaVuSans-39" d="M 703 97 
L 703 672 
Q 941 559 1184 500 
Q 1428 441 1663 441 
Q 2288 441 2617 861 
Q 2947 1281 2994 2138 
Q 2813 1869 2534 1725 
Q 2256 1581 1919 1581 
Q 1219 1581 811 2004 
Q 403 2428 403 3163 
Q 403 3881 828 4315 
Q 1253 4750 1959 4750 
Q 2769 4750 3195 4129 
Q 3622 3509 3622 2328 
Q 3622 1225 3098 567 
Q 2575 -91 1691 -91 
Q 1453 -91 1209 -44 
Q 966 3 703 97 
z
M 1959 2075 
Q 2384 2075 2632 2365 
Q 2881 2656 2881 3163 
Q 2881 3666 2632 3958 
Q 2384 4250 1959 4250 
Q 1534 4250 1286 3958 
Q 1038 3666 1038 3163 
Q 1038 2656 1286 2365 
Q 1534 2075 1959 2075 
z
" transform="scale(0.015625)"/>
        <path id="DejaVuSans-33" d="M 2597 2516 
Q 3050 2419 3304 2112 
Q 3559 1806 3559 1356 
Q 3559 666 3084 287 
Q 2609 -91 1734 -91 
Q 1441 -91 1130 -33 
Q 819 25 488 141 
L 488 750 
Q 750 597 1062 519 
Q 1375 441 1716 441 
Q 2309 441 2620 675 
Q 2931 909 2931 1356 
Q 2931 1769 2642 2001 
Q 2353 2234 1838 2234 
L 1294 2234 
L 1294 2753 
L 1863 2753 
Q 2328 2753 2575 2939 
Q 2822 3125 2822 3475 
Q 2822 3834 2567 4026 
Q 2313 4219 1838 4219 
Q 1578 4219 1281 4162 
Q 984 4106 628 3988 
L 628 4550 
Q 988 4650 1302 4700 
Q 1616 4750 1894 4750 
Q 2613 4750 3031 4423 
Q 3450 4097 3450 3541 
Q 3450 3153 3228 2886 
Q 3006 2619 2597 2516 
z
" transform="scale(0.015625)"/>
        <path id="DejaVuSans-2e" d="M 684 794 
L 1344 794 
L 1344 0 
L 684 0 
L 684 794 
z
" transform="scale(0.015625)"/>
        <path id="DejaVuSans-32" d="M 1228 531 
L 3431 531 
L 3431 0 
L 469 0 
L 469 531 
Q 828 903 1448 1529 
Q 2069 2156 2228 2338 
Q 2531 2678 2651 2914 
Q 2772 3150 2772 3378 
Q 2772 3750 2511 3984 
Q 2250 4219 1831 4219 
Q 1534 4219 1204 4116 
Q 875 4013 500 3803 
L 500 4441 
Q 881 4594 1212 4672 
Q 1544 4750 1819 4750 
Q 2544 4750 2975 4387 
Q 3406 4025 3406 3419 
Q 3406 3131 3298 2873 
Q 3191 2616 2906 2266 
Q 2828 2175 2409 1742 
Q 1991 1309 1228 531 
z
" transform="scale(0.015625)"/>
       </defs>
       <use xlink:href="#DejaVuSans-31"/>
       <use xlink:href="#DejaVuSans-39" transform="translate(63.623047 0)"/>
       <use xlink:href="#DejaVuSans-33" transform="translate(127.246094 0)"/>
       <use xlink:href="#DejaVuSans-2e" transform="translate(190.869141 0)"/>
       <use xlink:href="#DejaVuSans-32" transform="translate(222.65625 0)"/>
      </g>
     </g>
    </g>
    <g id="xtick_2">
     <g id="line2d_2">
      <path d="M 300.999724 239.5 
L 300.999724 19.44 
" clip-path="url(#p7e4ada930d)" style="fill: none; stroke: #ffffff; stroke-width: 1.5; stroke-linecap: round"/>
     </g>
     <g id="text_2">
      <!-- 193.3 -->
      <g style="fill: #262626" transform="translate(277.381521 264.537422) scale(0.165 -0.165)">
       <use xlink:href="#DejaVuSans-31"/>
       <use xlink:href="#DejaVuSans-39" transform="translate(63.623047 0)"/>
       <use xlink:href="#DejaVuSans-33" transform="translate(127.246094 0)"/>
       <use xlink:href="#DejaVuSans-2e" transform="translate(190.869141 0)"/>
       <use xlink:href="#DejaVuSans-33" transform="translate(222.65625 0)"/>
      </g>
     </g>
    </g>
    <g id="xtick_3">
     <g id="line2d_3">
      <path d="M 499.883645 239.5 
L 499.883645 19.44 
" clip-path="url(#p7e4ada930d)" style="fill: none; stroke: #ffffff; stroke-width: 1.5; stroke-linecap: round"/>
     </g>
     <g id="text_3">
      <!-- 193.4 -->
      <g style="fill: #262626" transform="translate(476.265441 264.537422) scale(0.165 -0.165)">
       <defs>
        <path id="DejaVuSans-34" d="M 2419 4116 
L 825 1625 
L 2419 1625 
L 2419 4116 
z
M 2253 4666 
L 3047 4666 
L 3047 1625 
L 3713 1625 
L 3713 1100 
L 3047 1100 
L 3047 0 
L 2419 0 
L 2419 1100 
L 313 1100 
L 313 1709 
L 2253 4666 
z
" transform="scale(0.015625)"/>
       </defs>
       <use xlink:href="#DejaVuSans-31"/>
       <use xlink:href="#DejaVuSans-39" transform="translate(63.623047 0)"/>
       <use xlink:href="#DejaVuSans-33" transform="translate(127.246094 0)"/>
       <use xlink:href="#DejaVuSans-2e" transform="translate(190.869141 0)"/>
       <use xlink:href="#DejaVuSans-34" transform="translate(222.65625 0)"/>
      </g>
     </g>
    </g>
    <g id="xtick_4">
     <g id="line2d_4">
      <path d="M 698.767565 239.5 
L 698.767565 19.44 
" clip-path="url(#p7e4ada930d)" style="fill: none; stroke: #ffffff; stroke-width: 1.5; stroke-linecap: round"/>
     </g>
     <g id="text_4">
      <!-- 193.5 -->
      <g style="fill: #262626" transform="translate(675.149362 264.537422) scale(0.165 -0.165)">
       <defs>
        <path id="DejaVuSans-35" d="M 691 4666 
L 3169 4666 
L 3169 4134 
L 1269 4134 
L 1269 2991 
Q 1406 3038 1543 3061 
Q 1681 3084 1819 3084 
Q 2600 3084 3056 2656 
Q 3513 2228 3513 1497 
Q 3513 744 3044 326 
Q 2575 -91 1722 -91 
Q 1428 -91 1123 -41 
Q 819 9 494 109 
L 494 744 
Q 775 591 1075 516 
Q 1375 441 1709 441 
Q 2250 441 2565 725 
Q 2881 1009 2881 1497 
Q 2881 1984 2565 2268 
Q 2250 2553 1709 2553 
Q 1456 2553 1204 2497 
Q 953 2441 691 2322 
L 691 4666 
z
" transform="scale(0.015625)"/>
       </defs>
       <use xlink:href="#DejaVuSans-31"/>
       <use xlink:href="#DejaVuSans-39" transform="translate(63.623047 0)"/>
       <use xlink:href="#DejaVuSans-33" transform="translate(127.246094 0)"/>
       <use xlink:href="#DejaVuSans-2e" transform="translate(190.869141 0)"/>
       <use xlink:href="#DejaVuSans-35" transform="translate(222.65625 0)"/>
      </g>
     </g>
    </g>
    <g id="xtick_5">
     <g id="line2d_5">
      <path d="M 897.651485 239.5 
L 897.651485 19.44 
" clip-path="url(#p7e4ada930d)" style="fill: none; stroke: #ffffff; stroke-width: 1.5; stroke-linecap: round"/>
     </g>
     <g id="text_5">
      <!-- 193.6 -->
      <g style="fill: #262626" transform="translate(874.033282 264.537422) scale(0.165 -0.165)">
       <defs>
        <path id="DejaVuSans-36" d="M 2113 2584 
Q 1688 2584 1439 2293 
Q 1191 2003 1191 1497 
Q 1191 994 1439 701 
Q 1688 409 2113 409 
Q 2538 409 2786 701 
Q 3034 994 3034 1497 
Q 3034 2003 2786 2293 
Q 2538 2584 2113 2584 
z
M 3366 4563 
L 3366 3988 
Q 3128 4100 2886 4159 
Q 2644 4219 2406 4219 
Q 1781 4219 1451 3797 
Q 1122 3375 1075 2522 
Q 1259 2794 1537 2939 
Q 1816 3084 2150 3084 
Q 2853 3084 3261 2657 
Q 3669 2231 3669 1497 
Q 3669 778 3244 343 
Q 2819 -91 2113 -91 
Q 1303 -91 875 529 
Q 447 1150 447 2328 
Q 447 3434 972 4092 
Q 1497 4750 2381 4750 
Q 2619 4750 2861 4703 
Q 3103 4656 3366 4563 
z
" transform="scale(0.015625)"/>
       </defs>
       <use xlink:href="#DejaVuSans-31"/>
       <use xlink:href="#DejaVuSans-39" transform="translate(63.623047 0)"/>
       <use xlink:href="#DejaVuSans-33" transform="translate(127.246094 0)"/>
       <use xlink:href="#DejaVuSans-2e" transform="translate(190.869141 0)"/>
       <use xlink:href="#DejaVuSans-36" transform="translate(222.65625 0)"/>
      </g>
     </g>
    </g>
   </g>
   <g id="matplotlib.axis_2">
    <g id="ytick_1">
     <g id="line2d_6">
      <path d="M 68.84 212.149284 
L 988.56 212.149284 
" clip-path="url(#p7e4ada930d)" style="fill: none; stroke: #ffffff; stroke-width: 1.5; stroke-linecap: round"/>
     </g>
     <g id="text_6">
      <!-- 0.00 -->
      <g style="fill: #262626" transform="translate(19.601719 218.417995) scale(0.165 -0.165)">
       <defs>
        <path id="DejaVuSans-30" d="M 2034 4250 
Q 1547 4250 1301 3770 
Q 1056 3291 1056 2328 
Q 1056 1369 1301 889 
Q 1547 409 2034 409 
Q 2525 409 2770 889 
Q 3016 1369 3016 2328 
Q 3016 3291 2770 3770 
Q 2525 4250 2034 4250 
z
M 2034 4750 
Q 2819 4750 3233 4129 
Q 3647 3509 3647 2328 
Q 3647 1150 3233 529 
Q 2819 -91 2034 -91 
Q 1250 -91 836 529 
Q 422 1150 422 2328 
Q 422 3509 836 4129 
Q 1250 4750 2034 4750 
z
" transform="scale(0.015625)"/>
       </defs>
       <use xlink:href="#DejaVuSans-30"/>
       <use xlink:href="#DejaVuSans-2e" transform="translate(63.623047 0)"/>
       <use xlink:href="#DejaVuSans-30" transform="translate(95.410156 0)"/>
       <use xlink:href="#DejaVuSans-30" transform="translate(159.033203 0)"/>
      </g>
     </g>
    </g>
    <g id="ytick_2">
     <g id="line2d_7">
      <path d="M 68.84 166.472645 
L 988.56 166.472645 
" clip-path="url(#p7e4ada930d)" style="fill: none; stroke: #ffffff; stroke-width: 1.5; stroke-linecap: round"/>
     </g>
     <g id="text_7">
      <!-- 0.25 -->
      <g style="fill: #262626" transform="translate(19.601719 172.741356) scale(0.165 -0.165)">
       <use xlink:href="#DejaVuSans-30"/>
       <use xlink:href="#DejaVuSans-2e" transform="translate(63.623047 0)"/>
       <use xlink:href="#DejaVuSans-32" transform="translate(95.410156 0)"/>
       <use xlink:href="#DejaVuSans-35" transform="translate(159.033203 0)"/>
      </g>
     </g>
    </g>
    <g id="ytick_3">
     <g id="line2d_8">
      <path d="M 68.84 120.796006 
L 988.56 120.796006 
" clip-path="url(#p7e4ada930d)" style="fill: none; stroke: #ffffff; stroke-width: 1.5; stroke-linecap: round"/>
     </g>
     <g id="text_8">
      <!-- 0.50 -->
      <g style="fill: #262626" transform="translate(19.601719 127.064717) scale(0.165 -0.165)">
       <use xlink:href="#DejaVuSans-30"/>
       <use xlink:href="#DejaVuSans-2e" transform="translate(63.623047 0)"/>
       <use xlink:href="#DejaVuSans-35" transform="translate(95.410156 0)"/>
       <use xlink:href="#DejaVuSans-30" transform="translate(159.033203 0)"/>
      </g>
     </g>
    </g>
    <g id="ytick_4">
     <g id="line2d_9">
      <path d="M 68.84 75.119367 
L 988.56 75.119367 
" clip-path="url(#p7e4ada930d)" style="fill: none; stroke: #ffffff; stroke-width: 1.5; stroke-linecap: round"/>
     </g>
     <g id="text_9">
      <!-- 0.75 -->
      <g style="fill: #262626" transform="translate(19.601719 81.388077) scale(0.165 -0.165)">
       <defs>
        <path id="DejaVuSans-37" d="M 525 4666 
L 3525 4666 
L 3525 4397 
L 1831 0 
L 1172 0 
L 2766 4134 
L 525 4134 
L 525 4666 
z
" transform="scale(0.015625)"/>
       </defs>
       <use xlink:href="#DejaVuSans-30"/>
       <use xlink:href="#DejaVuSans-2e" transform="translate(63.623047 0)"/>
       <use xlink:href="#DejaVuSans-37" transform="translate(95.410156 0)"/>
       <use xlink:href="#DejaVuSans-35" transform="translate(159.033203 0)"/>
      </g>
     </g>
    </g>
    <g id="ytick_5">
     <g id="line2d_10">
      <path d="M 68.84 29.442727 
L 988.56 29.442727 
" clip-path="url(#p7e4ada930d)" style="fill: none; stroke: #ffffff; stroke-width: 1.5; stroke-linecap: round"/>
     </g>
     <g id="text_10">
      <!-- 1.00 -->
      <g style="fill: #262626" transform="translate(19.601719 35.711438) scale(0.165 -0.165)">
       <use xlink:href="#DejaVuSans-31"/>
       <use xlink:href="#DejaVuSans-2e" transform="translate(63.623047 0)"/>
       <use xlink:href="#DejaVuSans-30" transform="translate(95.410156 0)"/>
       <use xlink:href="#DejaVuSans-30" transform="translate(159.033203 0)"/>
      </g>
     </g>
    </g>
   </g>
   <g id="line2d_11">
    <path clip-path="url(#p7e4ada930d)" style="fill: none; stroke: #23456f; stroke-width: 2.25; stroke-linecap: round"/>
   </g>
   <g id="line2d_12">
    <path d="M -1 29.804783 
L -0.672055 29.799983 
L 0.606868 29.782623 
L 1.885792 29.766497 
L 3.164715 29.751491 
L 4.443639 29.737503 
L 5.722563 29.724444 
L 7.001486 29.712233 
L 8.28041 29.700799 
L 9.559333 29.690076 
L 10.838257 29.680008 
L 12.117181 29.670541 
" clip-path="url(#p7e4ada930d)" style="fill: none; stroke: #23456f; stroke-width: 2.25; stroke-linecap: round"/>
   </g>
   <g id="line2d_13">
    <path d="M 31.42573 29.670541 
L 32.704653 29.680008 
L 33.983577 29.690076 
L 35.2625 29.700799 
L 36.541424 29.712233 
L 37.820348 29.724444 
L 39.099271 29.737503 
L 40.378195 29.751491 
L 41.657118 29.766497 
L 42.936042 29.782623 
L 44.214966 29.799983 
L 45.493889 29.818705 
L 46.772813 29.838936 
L 48.051736 29.860843 
L 49.33066 29.884615 
L 50.609584 29.91047 
L 51.888507 29.938658 
L 53.167431 29.969467 
L 54.446354 30.003234 
L 55.725278 30.040346 
L 57.004202 30.081262 
L 58.283125 30.126516 
L 59.562049 30.176743 
L 60.840972 30.232698 
L 62.119896 30.295282 
L 63.39882 30.365581 
L 64.677743 30.444913 
L 65.956667 30.534887 
L 67.23559 30.637486 
L 68.514514 30.755175 
L 69.793438 30.891048 
L 71.072361 31.049028 
L 72.351285 31.234147 
L 73.630208 31.452946 
L 74.909132 31.714039 
L 76.188056 32.028952 
L 77.466979 32.413366 
L 78.745903 32.889032 
L 80.024826 33.486763 
L 81.30375 34.251259 
L 82.582674 35.249132 
L 83.861597 36.58265 
L 85.140521 38.414115 
L 86.419444 41.010452 
L 87.698368 44.826543 
L 88.977291 50.659132 
L 90.256215 59.895892 
L 91.535139 74.660316 
L 92.814062 96.255165 
L 94.092986 117.213875 
L 95.371909 117.213875 
L 96.650833 96.255165 
L 97.929757 74.660316 
L 99.20868 59.895892 
L 100.487604 50.659132 
L 101.766527 44.826543 
L 103.045451 41.010452 
L 104.324375 38.414115 
L 105.603298 36.58265 
L 106.882222 35.249132 
L 108.161145 34.251259 
L 109.440069 33.486763 
L 110.718993 32.889032 
L 111.997916 32.413366 
L 113.27684 32.028952 
L 114.555763 31.714039 
L 115.834687 31.452946 
L 117.113611 31.234147 
L 118.392534 31.049028 
L 119.671458 30.891048 
L 120.950381 30.755175 
L 122.229305 30.637486 
L 123.508229 30.534887 
L 124.787152 30.444913 
L 126.066076 30.365581 
L 127.344999 30.295282 
L 128.623923 30.232698 
L 129.902847 30.176743 
L 131.18177 30.126516 
L 132.460694 30.081262 
L 133.739617 30.040346 
L 135.018541 30.003234 
L 136.297465 29.969467 
L 137.576388 29.938658 
L 138.855312 29.91047 
L 140.134235 29.884615 
L 141.413159 29.860843 
L 142.692083 29.838936 
L 143.971006 29.818705 
L 145.24993 29.799983 
L 146.528853 29.782623 
L 147.807777 29.766497 
L 149.086701 29.751491 
L 150.365624 29.737503 
L 151.644548 29.724444 
L 152.923471 29.712233 
L 154.202395 29.700799 
L 155.481319 29.690076 
L 156.760242 29.680008 
L 158.039166 29.670541 
" clip-path="url(#p7e4ada930d)" style="fill: none; stroke: #23456f; stroke-width: 2.25; stroke-linecap: round"/>
   </g>
   <g id="line2d_14">
    <path d="M 176.714648 29.670541 
L 177.993571 29.680008 
L 179.272495 29.690076 
L 180.551418 29.700799 
L 181.830342 29.712233 
L 183.109266 29.724444 
L 184.388189 29.737503 
L 185.667113 29.751491 
L 186.946036 29.766497 
L 188.22496 29.782623 
L 189.503884 29.799983 
L 190.782807 29.818705 
L 192.061731 29.838936 
L 193.340654 29.860843 
L 194.619578 29.884615 
L 195.898502 29.91047 
L 197.177425 29.938658 
L 198.456349 29.969467 
L 199.735272 30.003234 
L 201.014196 30.040346 
L 202.29312 30.081262 
L 203.572043 30.126516 
L 204.850967 30.176743 
L 206.12989 30.232698 
L 207.408814 30.295282 
L 208.687738 30.365581 
L 209.966661 30.444913 
L 211.245585 30.534887 
L 212.524508 30.637486 
L 213.803432 30.755175 
L 215.082355 30.891048 
L 216.361279 31.049028 
L 217.640203 31.234147 
L 218.919126 31.452946 
L 220.19805 31.714039 
L 221.476973 32.028952 
L 222.755897 32.413366 
L 224.034821 32.889032 
L 225.313744 33.486763 
L 226.592668 34.251259 
L 227.871591 35.249132 
L 229.150515 36.58265 
L 230.429439 38.414115 
L 231.708362 41.010452 
L 232.987286 44.826543 
L 234.266209 50.659132 
L 235.545133 59.895892 
L 236.824057 74.660316 
L 238.10298 96.255165 
L 239.381904 117.213875 
L 240.660827 117.213875 
L 241.939751 96.255165 
L 243.218675 74.660316 
L 244.497598 59.895892 
L 245.776522 50.659132 
L 247.055445 44.826543 
L 248.334369 41.010452 
L 249.613293 38.414115 
L 250.892216 36.58265 
L 252.17114 35.249132 
L 253.450063 34.251259 
L 254.728987 33.486763 
L 256.007911 32.889032 
L 257.286834 32.413366 
L 258.565758 32.028952 
L 259.844681 31.714039 
L 261.123605 31.452946 
L 262.402529 31.234147 
L 263.681452 31.049028 
L 264.960376 30.891048 
L 266.239299 30.755175 
L 267.518223 30.637486 
L 268.797147 30.534887 
L 270.07607 30.444913 
L 271.354994 30.365581 
L 272.633917 30.295282 
L 273.912841 30.232698 
L 275.191765 30.176743 
L 276.470688 30.126516 
L 277.749612 30.081262 
L 279.028535 30.040346 
L 280.307459 30.003234 
L 281.586383 29.969467 
L 282.865306 29.938658 
L 284.14423 29.91047 
L 285.423153 29.884615 
L 286.702077 29.860843 
L 287.981001 29.838936 
L 289.259924 29.818705 
L 290.538848 29.799983 
L 291.817771 29.782623 
L 293.096695 29.766497 
L 294.375619 29.751491 
L 295.654542 29.737503 
L 296.933466 29.724444 
L 298.212389 29.712233 
L 299.491313 29.700799 
L 300.770237 29.690076 
L 302.04916 29.680008 
L 303.328084 29.670541 
" clip-path="url(#p7e4ada930d)" style="fill: none; stroke: #23456f; stroke-width: 2.25; stroke-linecap: round"/>
   </g>
   <g id="line2d_15">
    <path d="M 321.370498 29.670541 
L 322.649422 29.680008 
L 323.928346 29.690076 
L 325.207269 29.700799 
L 326.486193 29.712233 
L 327.765116 29.724444 
L 329.04404 29.737503 
L 330.322964 29.751491 
L 331.601887 29.766497 
L 332.880811 29.782623 
L 334.159734 29.799983 
L 335.438658 29.818705 
L 336.717582 29.838936 
L 337.996505 29.860843 
L 339.275429 29.884615 
L 340.554352 29.91047 
L 341.833276 29.938658 
L 343.1122 29.969467 
L 344.391123 30.003234 
L 345.670047 30.040346 
L 346.94897 30.081262 
L 348.227894 30.126516 
L 349.506817 30.176743 
L 350.785741 30.232698 
L 352.064665 30.295282 
L 353.343588 30.365581 
L 354.622512 30.444913 
L 355.901435 30.534887 
L 357.180359 30.637486 
L 358.459283 30.755175 
L 359.738206 30.891048 
L 361.01713 31.049028 
L 362.296053 31.234147 
L 363.574977 31.452946 
L 364.853901 31.714039 
L 366.132824 32.028952 
L 367.411748 32.413366 
L 368.690671 32.889032 
L 369.969595 33.486763 
L 371.248519 34.251259 
L 372.527442 35.249132 
L 373.806366 36.58265 
L 375.085289 38.414115 
L 376.364213 41.010452 
L 377.643137 44.826543 
L 378.92206 50.659132 
L 380.200984 59.895892 
L 381.479907 74.660316 
L 382.758831 96.255165 
L 384.037755 117.213875 
L 385.316678 117.213875 
L 386.595602 96.255165 
L 387.874525 74.660316 
L 389.153449 59.895892 
L 390.432373 50.659132 
L 391.711296 44.826543 
L 392.99022 41.010452 
L 394.269143 38.414115 
L 395.548067 36.58265 
L 396.826991 35.249132 
L 398.105914 34.251259 
L 399.384838 33.486763 
L 400.663761 32.889032 
L 401.942685 32.413366 
L 403.221609 32.028952 
L 404.500532 31.714039 
L 405.779456 31.452946 
L 407.058379 31.234147 
L 408.337303 31.049028 
L 409.616227 30.891048 
L 410.89515 30.755175 
L 412.174074 30.637486 
L 413.452997 30.534887 
L 414.731921 30.444913 
L 416.010845 30.365581 
L 417.289768 30.295282 
L 418.568692 30.232698 
L 419.847615 30.176743 
L 421.126539 30.126516 
L 422.405463 30.081262 
L 423.684386 30.040346 
L 424.96331 30.003234 
L 426.242233 29.969467 
L 427.521157 29.938658 
L 428.800081 29.91047 
L 430.079004 29.884615 
L 431.357928 29.860843 
L 432.636851 29.838936 
L 433.915775 29.818705 
L 435.194698 29.799983 
L 436.473622 29.782623 
L 437.752546 29.766497 
L 439.031469 29.751491 
L 440.310393 29.737503 
L 441.589316 29.724444 
L 442.86824 29.712233 
L 444.147164 29.700799 
L 445.426087 29.690076 
L 446.705011 29.680008 
L 447.983934 29.670541 
" clip-path="url(#p7e4ada930d)" style="fill: none; stroke: #23456f; stroke-width: 2.25; stroke-linecap: round"/>
   </g>
   <g id="line2d_16">
    <path d="M 465.393282 29.670541 
L 466.672206 29.680008 
L 467.951129 29.690076 
L 469.230053 29.700799 
L 470.508976 29.712233 
L 471.7879 29.724444 
L 473.066824 29.737503 
L 474.345747 29.751491 
L 475.624671 29.766497 
L 476.903594 29.782623 
L 478.182518 29.799983 
L 479.461442 29.818705 
L 480.740365 29.838936 
L 482.019289 29.860843 
L 483.298212 29.884615 
L 484.577136 29.91047 
L 485.856059 29.938658 
L 487.134983 29.969467 
L 488.413907 30.003234 
L 489.69283 30.040346 
L 490.971754 30.081262 
L 492.250677 30.126516 
L 493.529601 30.176743 
L 494.808525 30.232698 
L 496.087448 30.295282 
L 497.366372 30.365581 
L 498.645295 30.444913 
L 499.924219 30.534887 
L 501.203143 30.637486 
L 502.482066 30.755175 
L 503.76099 30.891048 
L 505.039913 31.049028 
L 506.318837 31.234147 
L 507.597761 31.452946 
L 508.876684 31.714039 
L 510.155608 32.028952 
L 511.434531 32.413366 
L 512.713455 32.889032 
L 513.992379 33.486763 
L 515.271302 34.251259 
L 516.550226 35.249132 
L 517.829149 36.58265 
L 519.108073 38.414115 
L 520.386997 41.010452 
L 521.66592 44.826543 
L 522.944844 50.659132 
L 524.223767 59.895892 
L 525.502691 74.660316 
L 526.781615 96.255165 
L 528.060538 117.213875 
L 529.339462 117.213875 
L 530.618385 96.255165 
L 531.897309 74.660316 
L 533.176233 59.895892 
L 534.455156 50.659132 
L 535.73408 44.826543 
L 537.013003 41.010452 
L 538.291927 38.414115 
L 539.570851 36.58265 
L 540.849774 35.249132 
L 542.128698 34.251259 
L 543.407621 33.486763 
L 544.686545 32.889032 
L 545.965469 32.413366 
L 547.244392 32.028952 
L 548.523316 31.714039 
L 549.802239 31.452946 
L 551.081163 31.234147 
L 552.360087 31.049028 
L 553.63901 30.891048 
L 554.917934 30.755175 
L 556.196857 30.637486 
L 557.475781 30.534887 
L 558.754705 30.444913 
L 560.033628 30.365581 
L 561.312552 30.295282 
L 562.591475 30.232698 
L 563.870399 30.176743 
L 565.149323 30.126516 
L 566.428246 30.081262 
L 567.70717 30.040346 
L 568.986093 30.003234 
L 570.265017 29.969467 
L 571.543941 29.938658 
L 572.822864 29.91047 
L 574.101788 29.884615 
L 575.380711 29.860843 
L 576.659635 29.838936 
L 577.938558 29.818705 
L 579.217482 29.799983 
L 580.496406 29.782623 
L 581.775329 29.766497 
L 583.054253 29.751491 
L 584.333176 29.737503 
L 585.6121 29.724444 
L 586.891024 29.712233 
L 588.169947 29.700799 
L 589.448871 29.690076 
L 590.727794 29.680008 
L 592.006718 29.670541 
" clip-path="url(#p7e4ada930d)" style="fill: none; stroke: #23456f; stroke-width: 2.25; stroke-linecap: round"/>
   </g>
   <g id="line2d_17">
    <path d="M 608.782998 29.670541 
L 610.061922 29.680008 
L 611.340846 29.690076 
L 612.619769 29.700799 
L 613.898693 29.712233 
L 615.177616 29.724444 
L 616.45654 29.737503 
L 617.735464 29.751491 
L 619.014387 29.766497 
L 620.293311 29.782623 
L 621.572234 29.799983 
L 622.851158 29.818705 
L 624.130082 29.838936 
L 625.409005 29.860843 
L 626.687929 29.884615 
L 627.966852 29.91047 
L 629.245776 29.938658 
L 630.5247 29.969467 
L 631.803623 30.003234 
L 633.082547 30.040346 
L 634.36147 30.081262 
L 635.640394 30.126516 
L 636.919317 30.176743 
L 638.198241 30.232698 
L 639.477165 30.295282 
L 640.756088 30.365581 
L 642.035012 30.444913 
L 643.313935 30.534887 
L 644.592859 30.637486 
L 645.871783 30.755175 
L 647.150706 30.891048 
L 648.42963 31.049028 
L 649.708553 31.234147 
L 650.987477 31.452946 
L 652.266401 31.714039 
L 653.545324 32.028952 
L 654.824248 32.413366 
L 656.103171 32.889032 
L 657.382095 33.486763 
L 658.661019 34.251259 
L 659.939942 35.249132 
L 661.218866 36.58265 
L 662.497789 38.414115 
L 663.776713 41.010452 
L 665.055637 44.826543 
L 666.33456 50.659132 
L 667.613484 59.895892 
L 668.892407 74.660316 
L 670.171331 96.255165 
L 671.450255 117.213875 
L 672.729178 117.213875 
L 674.008102 96.255165 
L 675.287025 74.660316 
L 676.565949 59.895892 
L 677.844873 50.659132 
L 679.123796 44.826543 
L 680.40272 41.010452 
L 681.681643 38.414115 
L 682.960567 36.58265 
L 684.239491 35.249132 
L 685.518414 34.251259 
L 686.797338 33.486763 
L 688.076261 32.889032 
L 689.355185 32.413366 
L 690.634109 32.028952 
L 691.913032 31.714039 
L 693.191956 31.452946 
L 694.470879 31.234147 
L 695.749803 31.049028 
L 697.028727 30.891048 
L 698.30765 30.755175 
L 699.586574 30.637486 
L 700.865497 30.534887 
L 702.144421 30.444913 
L 703.423345 30.365581 
L 704.702268 30.295282 
L 705.981192 30.232698 
L 707.260115 30.176743 
L 708.539039 30.126516 
L 709.817963 30.081262 
L 711.096886 30.040346 
L 712.37581 30.003234 
L 713.654733 29.969467 
L 714.933657 29.938658 
L 716.212581 29.91047 
L 717.491504 29.884615 
L 718.770428 29.860843 
L 720.049351 29.838936 
L 721.328275 29.818705 
L 722.607198 29.799983 
L 723.886122 29.782623 
L 725.165046 29.766497 
L 726.443969 29.751491 
L 727.722893 29.737503 
L 729.001816 29.724444 
L 730.28074 29.712233 
L 731.559664 29.700799 
L 732.838587 29.690076 
L 734.117511 29.680008 
L 735.396434 29.670541 
" clip-path="url(#p7e4ada930d)" style="fill: none; stroke: #23456f; stroke-width: 2.25; stroke-linecap: round"/>
   </g>
   <g id="line2d_18">
    <path d="M 751.539648 29.670541 
L 752.818571 29.680008 
L 754.097495 29.690076 
L 755.376418 29.700799 
L 756.655342 29.712233 
L 757.934266 29.724444 
L 759.213189 29.737503 
L 760.492113 29.751491 
L 761.771036 29.766497 
L 763.04996 29.782623 
L 764.328884 29.799983 
L 765.607807 29.818705 
L 766.886731 29.838936 
L 768.165654 29.860843 
L 769.444578 29.884615 
L 770.723502 29.91047 
L 772.002425 29.938658 
L 773.281349 29.969467 
L 774.560272 30.003234 
L 775.839196 30.040346 
L 777.11812 30.081262 
L 778.397043 30.126516 
L 779.675967 30.176743 
L 780.95489 30.232698 
L 782.233814 30.295282 
L 783.512738 30.365581 
L 784.791661 30.444913 
L 786.070585 30.534887 
L 787.349508 30.637486 
L 788.628432 30.755175 
L 789.907355 30.891048 
L 791.186279 31.049028 
L 792.465203 31.234147 
L 793.744126 31.452946 
L 795.02305 31.714039 
L 796.301973 32.028952 
L 797.580897 32.413366 
L 798.859821 32.889032 
L 800.138744 33.486763 
L 801.417668 34.251259 
L 802.696591 35.249132 
L 803.975515 36.58265 
L 805.254439 38.414115 
L 806.533362 41.010452 
L 807.812286 44.826543 
L 809.091209 50.659132 
L 810.370133 59.895892 
L 811.649057 74.660316 
L 812.92798 96.255165 
L 814.206904 117.213875 
L 815.485827 117.213875 
L 816.764751 96.255165 
L 818.043675 74.660316 
L 819.322598 59.895892 
L 820.601522 50.659132 
L 821.880445 44.826543 
L 823.159369 41.010452 
L 824.438293 38.414115 
L 825.717216 36.58265 
L 826.99614 35.249132 
L 828.275063 34.251259 
L 829.553987 33.486763 
L 830.832911 32.889032 
L 832.111834 32.413366 
L 833.390758 32.028952 
L 834.669681 31.714039 
L 835.948605 31.452946 
L 837.227529 31.234147 
L 838.506452 31.049028 
L 839.785376 30.891048 
L 841.064299 30.755175 
L 842.343223 30.637486 
L 843.622147 30.534887 
L 844.90107 30.444913 
L 846.179994 30.365581 
L 847.458917 30.295282 
L 848.737841 30.232698 
L 850.016765 30.176743 
L 851.295688 30.126516 
L 852.574612 30.081262 
L 853.853535 30.040346 
L 855.132459 30.003234 
L 856.411383 29.969467 
L 857.690306 29.938658 
L 858.96923 29.91047 
L 860.248153 29.884615 
L 861.527077 29.860843 
L 862.806001 29.838936 
L 864.084924 29.818705 
L 865.363848 29.799983 
L 866.642771 29.782623 
L 867.921695 29.766497 
L 869.200619 29.751491 
L 870.479542 29.737503 
L 871.758466 29.724444 
L 873.037389 29.712233 
L 874.316313 29.700799 
L 875.595237 29.690076 
L 876.87416 29.680008 
L 878.153084 29.670541 
" clip-path="url(#p7e4ada930d)" style="fill: none; stroke: #23456f; stroke-width: 2.25; stroke-linecap: round"/>
   </g>
   <g id="line2d_19">
    <path d="M 893.66323 29.670541 
L 894.942153 29.680008 
L 896.221077 29.690076 
L 897.5 29.700799 
L 898.778924 29.712233 
L 900.057848 29.724444 
L 901.336771 29.737503 
L 902.615695 29.751491 
L 903.894618 29.766497 
L 905.173542 29.782623 
L 906.452466 29.799983 
L 907.731389 29.818705 
L 909.010313 29.838936 
L 910.289236 29.860843 
L 911.56816 29.884615 
L 912.847084 29.91047 
L 914.126007 29.938658 
L 915.404931 29.969467 
L 916.683854 30.003234 
L 917.962778 30.040346 
L 919.241702 30.081262 
L 920.520625 30.126516 
L 921.799549 30.176743 
L 923.078472 30.232698 
L 924.357396 30.295282 
L 925.63632 30.365581 
L 926.915243 30.444913 
L 928.194167 30.534887 
L 929.47309 30.637486 
L 930.752014 30.755175 
L 932.030938 30.891048 
L 933.309861 31.049028 
L 934.588785 31.234147 
L 935.867708 31.452946 
L 937.146632 31.714039 
L 938.425556 32.028952 
L 939.704479 32.413366 
L 940.983403 32.889032 
L 942.262326 33.486763 
L 943.54125 34.251259 
L 944.820174 35.249132 
L 946.099097 36.58265 
L 947.378021 38.414115 
L 948.656944 41.010452 
L 949.935868 44.826543 
L 951.214791 50.659132 
L 952.493715 59.895892 
L 953.772639 74.660316 
L 955.051562 96.255165 
L 956.330486 117.213875 
L 957.609409 117.213875 
L 958.888333 96.255165 
L 960.167257 74.660316 
L 961.44618 59.895892 
L 962.725104 50.659132 
L 964.004027 44.826543 
L 965.282951 41.010452 
L 966.561875 38.414115 
L 967.840798 36.58265 
L 969.119722 35.249132 
L 970.398645 34.251259 
L 971.677569 33.486763 
L 972.956493 32.889032 
L 974.235416 32.413366 
L 975.51434 32.028952 
L 976.793263 31.714039 
L 978.072187 31.452946 
L 979.351111 31.234147 
L 980.630034 31.049028 
L 981.908958 30.891048 
L 983.187881 30.755175 
L 984.466805 30.637486 
L 985.745729 30.534887 
L 987.024652 30.444913 
L 988.303576 30.365581 
L 989.582499 30.295282 
L 990.861423 30.232698 
L 992.140347 30.176743 
L 993.41927 30.126516 
L 994.698194 30.081262 
L 995.977117 30.040346 
L 997.256041 30.003234 
L 998.534965 29.969467 
L 999.813888 29.938658 
L 1001.092812 29.91047 
L 1002.371735 29.884615 
L 1003.650659 29.860843 
L 1004.929583 29.838936 
L 1006.208506 29.818705 
L 1007.48743 29.799983 
L 1008.766353 29.782623 
L 1009 29.779677 
" clip-path="url(#p7e4ada930d)" style="fill: none; stroke: #23456f; stroke-width: 2.25; stroke-linecap: round"/>
   </g>
   <g id="line2d_20">
    <path clip-path="url(#p7e4ada930d)" style="fill: none; stroke: #23456f; stroke-width: 2.25; stroke-linecap: round"/>
   </g>
   <g id="line2d_21">
    <path clip-path="url(#p7e4ada930d)" style="fill: none; stroke: #285c9d; stroke-width: 2.25; stroke-linecap: round"/>
   </g>
   <g id="line2d_22">
    <path clip-path="url(#p7e4ada930d)" style="fill: none; stroke: #285c9d; stroke-width: 2.25; stroke-linecap: round"/>
   </g>
   <g id="line2d_23">
    <path clip-path="url(#p7e4ada930d)" style="fill: none; stroke: #285c9d; stroke-width: 2.25; stroke-linecap: round"/>
   </g>
   <g id="line2d_24">
    <path clip-path="url(#p7e4ada930d)" style="fill: none; stroke: #285c9d; stroke-width: 2.25; stroke-linecap: round"/>
   </g>
   <g id="line2d_25">
    <path d="M -0.085181 139.971149 
L 0.55428 140.008444 
L 1.193742 140.048085 
L 1.833204 140.090272 
L 2.472666 140.135229 
L 3.112128 140.1832 
L 3.751589 140.234462 
L 4.391051 140.289319 
L 5.030513 140.348116 
L 5.669975 140.411236 
L 6.309437 140.479111 
L 6.948898 140.55223 
L 7.58836 140.631141 
L 8.227822 140.716471 
L 8.867284 140.80893 
L 9.506746 140.909328 
L 10.146207 141.018594 
L 10.785669 141.137796 
L 11.425131 141.268164 
L 12.064593 141.411126 
L 12.704055 141.568341 
L 13.343516 141.741746 
L 13.982978 141.933618 
L 14.62244 142.146642 
L 15.261902 142.384002 
L 15.901364 142.649494 
L 16.540825 142.947674 
L 17.180287 143.284039 
L 17.819749 143.665269 
L 18.459211 144.099536 
L 19.098673 144.596914 
L 19.738134 145.169916 
L 20.377596 145.83421 
L 21.017058 146.609593 
L 21.65652 147.521289 
L 22.295982 148.601741 
L 22.935443 149.893054 
L 23.574905 151.450356 
L 24.214367 153.346394 
L 24.853829 155.677735 
L 25.493291 158.572848 
L 26.132752 162.201813 
L 26.772214 166.785725 
L 27.411676 172.599244 
L 28.051138 179.948515 
L 28.6906 189.083615 
L 29.330061 199.970918 
L 29.969523 211.85371 
L 30.608985 222.736737 
L 31.248447 229.497273 
L 31.887909 229.497273 
L 32.52737 222.736737 
L 33.166832 211.85371 
L 33.806294 199.970918 
L 34.445756 189.083615 
L 35.085218 179.948515 
L 35.724679 172.599244 
L 36.364141 166.785725 
L 37.003603 162.201813 
L 37.643065 158.572848 
L 38.282526 155.677735 
L 38.921988 153.346394 
L 39.56145 151.450356 
L 40.200912 149.893054 
L 40.840374 148.601741 
L 41.479835 147.521289 
L 42.119297 146.609593 
L 42.758759 145.83421 
L 43.398221 145.169916 
L 44.037683 144.596914 
L 44.677144 144.099536 
L 45.316606 143.665269 
L 45.956068 143.284039 
L 46.59553 142.947674 
L 47.234992 142.649494 
L 47.874453 142.384002 
L 48.513915 142.146642 
L 49.153377 141.933618 
L 49.792839 141.741746 
L 50.432301 141.568341 
L 51.071762 141.411126 
L 51.711224 141.268164 
L 52.350686 141.137796 
L 52.990148 141.018594 
L 53.62961 140.909328 
L 54.269071 140.80893 
L 54.908533 140.716471 
L 55.547995 140.631141 
L 56.187457 140.55223 
L 56.826919 140.479111 
L 57.46638 140.411236 
L 58.105842 140.348116 
L 58.745304 140.289319 
L 59.384766 140.234462 
L 60.024228 140.1832 
L 60.663689 140.135229 
L 61.303151 140.090272 
L 61.942613 140.048085 
L 62.582075 140.008444 
L 63.221537 139.971149 
" clip-path="url(#p7e4ada930d)" style="fill: none; stroke: #285c9d; stroke-width: 2.25; stroke-linecap: round"/>
   </g>
   <g id="line2d_26">
    <path d="M 92.26613 139.971149 
L 92.905592 140.008444 
L 93.545054 140.048085 
L 94.184515 140.090272 
L 94.823977 140.135229 
L 95.463439 140.1832 
L 96.102901 140.234462 
L 96.742363 140.289319 
L 97.381824 140.348116 
L 98.021286 140.411236 
L 98.660748 140.479111 
L 99.30021 140.55223 
L 99.939672 140.631141 
L 100.579133 140.716471 
L 101.218595 140.80893 
L 101.858057 140.909328 
L 102.497519 141.018594 
L 103.136981 141.137796 
L 103.776442 141.268164 
L 104.415904 141.411126 
L 105.055366 141.568341 
L 105.694828 141.741746 
L 106.33429 141.933618 
L 106.973751 142.146642 
L 107.613213 142.384002 
L 108.252675 142.649494 
L 108.892137 142.947674 
L 109.531599 143.284039 
L 110.17106 143.665269 
L 110.810522 144.099536 
L 111.449984 144.596914 
L 112.089446 145.169916 
L 112.728908 145.83421 
L 113.368369 146.609593 
L 114.007831 147.521289 
L 114.647293 148.601741 
L 115.286755 149.893054 
L 115.926217 151.450356 
L 116.565678 153.346394 
L 117.20514 155.677735 
L 117.844602 158.572848 
L 118.484064 162.201813 
L 119.123526 166.785725 
L 119.762987 172.599244 
L 120.402449 179.948515 
L 121.041911 189.083615 
L 121.681373 199.970918 
L 122.320835 211.85371 
L 122.960296 222.736737 
L 123.599758 229.497273 
L 124.23922 229.497273 
L 124.878682 222.736737 
L 125.518144 211.85371 
L 126.157605 199.970918 
L 126.797067 189.083615 
L 127.436529 179.948515 
L 128.075991 172.599244 
L 128.715453 166.785725 
L 129.354914 162.201813 
L 129.994376 158.572848 
L 130.633838 155.677735 
L 131.2733 153.346394 
L 131.912762 151.450356 
L 132.552223 149.893054 
L 133.191685 148.601741 
L 133.831147 147.521289 
L 134.470609 146.609593 
L 135.110071 145.83421 
L 135.749532 145.169916 
L 136.388994 144.596914 
L 137.028456 144.099536 
L 137.667918 143.665269 
L 138.30738 143.284039 
L 138.946841 142.947674 
L 139.586303 142.649494 
L 140.225765 142.384002 
L 140.865227 142.146642 
L 141.504689 141.933618 
L 142.14415 141.741746 
L 142.783612 141.568341 
L 143.423074 141.411126 
L 144.062536 141.268164 
L 144.701998 141.137796 
L 145.341459 141.018594 
L 145.980921 140.909328 
L 146.620383 140.80893 
L 147.259845 140.716471 
L 147.899306 140.631141 
L 148.538768 140.55223 
L 149.17823 140.479111 
L 149.817692 140.411236 
L 150.457154 140.348116 
L 151.096615 140.289319 
L 151.736077 140.234462 
L 152.375539 140.1832 
L 153.015001 140.135229 
L 153.654463 140.090272 
L 154.293924 140.048085 
L 154.933386 140.008444 
L 155.572848 139.971149 
" clip-path="url(#p7e4ada930d)" style="fill: none; stroke: #285c9d; stroke-width: 2.25; stroke-linecap: round"/>
   </g>
   <g id="line2d_27">
    <path d="M 180.819038 139.971149 
L 181.4585 140.008444 
L 182.097962 140.048085 
L 182.737424 140.090272 
L 183.376886 140.135229 
L 184.016347 140.1832 
L 184.655809 140.234462 
L 185.295271 140.289319 
L 185.934733 140.348116 
L 186.574195 140.411236 
L 187.213656 140.479111 
L 187.853118 140.55223 
L 188.49258 140.631141 
L 189.132042 140.716471 
L 189.771504 140.80893 
L 190.410965 140.909328 
L 191.050427 141.018594 
L 191.689889 141.137796 
L 192.329351 141.268164 
L 192.968813 141.411126 
L 193.608274 141.568341 
L 194.247736 141.741746 
L 194.887198 141.933618 
L 195.52666 142.146642 
L 196.166122 142.384002 
L 196.805583 142.649494 
L 197.445045 142.947674 
L 198.084507 143.284039 
L 198.723969 143.665269 
L 199.363431 144.099536 
L 200.002892 144.596914 
L 200.642354 145.169916 
L 201.281816 145.83421 
L 201.921278 146.609593 
L 202.56074 147.521289 
L 203.200201 148.601741 
L 203.839663 149.893054 
L 204.479125 151.450356 
L 205.118587 153.346394 
L 205.758049 155.677735 
L 206.39751 158.572848 
L 207.036972 162.201813 
L 207.676434 166.785725 
L 208.315896 172.599244 
L 208.955358 179.948515 
L 209.594819 189.083615 
L 210.234281 199.970918 
L 210.873743 211.85371 
L 211.513205 222.736737 
L 212.152667 229.497273 
L 212.792128 229.497273 
L 213.43159 222.736737 
L 214.071052 211.85371 
L 214.710514 199.970918 
L 215.349976 189.083615 
L 215.989437 179.948515 
L 216.628899 172.599244 
L 217.268361 166.785725 
L 217.907823 162.201813 
L 218.547284 158.572848 
L 219.186746 155.677735 
L 219.826208 153.346394 
L 220.46567 151.450356 
L 221.105132 149.893054 
L 221.744593 148.601741 
L 222.384055 147.521289 
L 223.023517 146.609593 
L 223.662979 145.83421 
L 224.302441 145.169916 
L 224.941902 144.596914 
L 225.581364 144.099536 
L 226.220826 143.665269 
L 226.860288 143.284039 
L 227.49975 142.947674 
L 228.139211 142.649494 
L 228.778673 142.384002 
L 229.418135 142.146642 
L 230.057597 141.933618 
L 230.697059 141.741746 
L 231.33652 141.568341 
L 231.975982 141.411126 
L 232.615444 141.268164 
L 233.254906 141.137796 
L 233.894368 141.018594 
L 234.533829 140.909328 
L 235.173291 140.80893 
L 235.812753 140.716471 
L 236.452215 140.631141 
L 237.091677 140.55223 
L 237.731138 140.479111 
L 238.3706 140.411236 
L 239.010062 140.348116 
L 239.649524 140.289319 
L 240.288986 140.234462 
L 240.928447 140.1832 
L 241.567909 140.135229 
L 242.207371 140.090272 
L 242.846833 140.048085 
L 243.486295 140.008444 
L 244.125756 139.971149 
" clip-path="url(#p7e4ada930d)" style="fill: none; stroke: #285c9d; stroke-width: 2.25; stroke-linecap: round"/>
   </g>
   <g id="line2d_28">
    <path d="M 265.573544 139.971149 
L 266.213005 140.008444 
L 266.852467 140.048085 
L 267.491929 140.090272 
L 268.131391 140.135229 
L 268.770853 140.1832 
L 269.410314 140.234462 
L 270.049776 140.289319 
L 270.689238 140.348116 
L 271.3287 140.411236 
L 271.968162 140.479111 
L 272.607623 140.55223 
L 273.247085 140.631141 
L 273.886547 140.716471 
L 274.526009 140.80893 
L 275.165471 140.909328 
L 275.804932 141.018594 
L 276.444394 141.137796 
L 277.083856 141.268164 
L 277.723318 141.411126 
L 278.36278 141.568341 
L 279.002241 141.741746 
L 279.641703 141.933618 
L 280.281165 142.146642 
L 280.920627 142.384002 
L 281.560089 142.649494 
L 282.19955 142.947674 
L 282.839012 143.284039 
L 283.478474 143.665269 
L 284.117936 144.099536 
L 284.757398 144.596914 
L 285.396859 145.169916 
L 286.036321 145.83421 
L 286.675783 146.609593 
L 287.315245 147.521289 
L 287.954707 148.601741 
L 288.594168 149.893054 
L 289.23363 151.450356 
L 289.873092 153.346394 
L 290.512554 155.677735 
L 291.152016 158.572848 
L 291.791477 162.201813 
L 292.430939 166.785725 
L 293.070401 172.599244 
L 293.709863 179.948515 
L 294.349325 189.083615 
L 294.988786 199.970918 
L 295.628248 211.85371 
L 296.26771 222.736737 
L 296.907172 229.497273 
L 297.546634 229.497273 
L 298.186095 222.736737 
L 298.825557 211.85371 
L 299.465019 199.970918 
L 300.104481 189.083615 
L 300.743943 179.948515 
L 301.383404 172.599244 
L 302.022866 166.785725 
L 302.662328 162.201813 
L 303.30179 158.572848 
L 303.941252 155.677735 
L 304.580713 153.346394 
L 305.220175 151.450356 
L 305.859637 149.893054 
L 306.499099 148.601741 
L 307.138561 147.521289 
L 307.778022 146.609593 
L 308.417484 145.83421 
L 309.056946 145.169916 
L 309.696408 144.596914 
L 310.33587 144.099536 
L 310.975331 143.665269 
L 311.614793 143.284039 
L 312.254255 142.947674 
L 312.893717 142.649494 
L 313.533179 142.384002 
L 314.17264 142.146642 
L 314.812102 141.933618 
L 315.451564 141.741746 
L 316.091026 141.568341 
L 316.730488 141.411126 
L 317.369949 141.268164 
L 318.009411 141.137796 
L 318.648873 141.018594 
L 319.288335 140.909328 
L 319.927797 140.80893 
L 320.567258 140.716471 
L 321.20672 140.631141 
L 321.846182 140.55223 
L 322.485644 140.479111 
L 323.125106 140.411236 
L 323.764567 140.348116 
L 324.404029 140.289319 
L 325.043491 140.234462 
L 325.682953 140.1832 
L 326.322415 140.135229 
L 326.961876 140.090272 
L 327.601338 140.048085 
L 328.2408 140.008444 
L 328.880262 139.971149 
" clip-path="url(#p7e4ada930d)" style="fill: none; stroke: #285c9d; stroke-width: 2.25; stroke-linecap: round"/>
   </g>
   <g id="line2d_29">
    <path d="M 346.529646 139.971149 
L 347.169108 140.008444 
L 347.808569 140.048085 
L 348.448031 140.090272 
L 349.087493 140.135229 
L 349.726955 140.1832 
L 350.366417 140.234462 
L 351.005878 140.289319 
L 351.64534 140.348116 
L 352.284802 140.411236 
L 352.924264 140.479111 
L 353.563726 140.55223 
L 354.203187 140.631141 
L 354.842649 140.716471 
L 355.482111 140.80893 
L 356.121573 140.909328 
L 356.761035 141.018594 
L 357.400496 141.137796 
L 358.039958 141.268164 
L 358.67942 141.411126 
L 359.318882 141.568341 
L 359.958344 141.741746 
L 360.597805 141.933618 
L 361.237267 142.146642 
L 361.876729 142.384002 
L 362.516191 142.649494 
L 363.155653 142.947674 
L 363.795114 143.284039 
L 364.434576 143.665269 
L 365.074038 144.099536 
L 365.7135 144.596914 
L 366.352962 145.169916 
L 366.992423 145.83421 
L 367.631885 146.609593 
L 368.271347 147.521289 
L 368.910809 148.601741 
L 369.550271 149.893054 
L 370.189732 151.450356 
L 370.829194 153.346394 
L 371.468656 155.677735 
L 372.108118 158.572848 
L 372.74758 162.201813 
L 373.387041 166.785725 
L 374.026503 172.599244 
L 374.665965 179.948515 
L 375.305427 189.083615 
L 375.944889 199.970918 
L 376.58435 211.85371 
L 377.223812 222.736737 
L 377.863274 229.497273 
L 378.502736 229.497273 
L 379.142198 222.736737 
L 379.781659 211.85371 
L 380.421121 199.970918 
L 381.060583 189.083615 
L 381.700045 179.948515 
L 382.339507 172.599244 
L 382.978968 166.785725 
L 383.61843 162.201813 
L 384.257892 158.572848 
L 384.897354 155.677735 
L 385.536816 153.346394 
L 386.176277 151.450356 
L 386.815739 149.893054 
L 387.455201 148.601741 
L 388.094663 147.521289 
L 388.734125 146.609593 
L 389.373586 145.83421 
L 390.013048 145.169916 
L 390.65251 144.596914 
L 391.291972 144.099536 
L 391.931434 143.665269 
L 392.570895 143.284039 
L 393.210357 142.947674 
L 393.849819 142.649494 
L 394.489281 142.384002 
L 395.128743 142.146642 
L 395.768204 141.933618 
L 396.407666 141.741746 
L 397.047128 141.568341 
L 397.68659 141.411126 
L 398.326052 141.268164 
L 398.965513 141.137796 
L 399.604975 141.018594 
L 400.244437 140.909328 
L 400.883899 140.80893 
L 401.523361 140.716471 
L 402.162822 140.631141 
L 402.802284 140.55223 
L 403.441746 140.479111 
L 404.081208 140.411236 
L 404.72067 140.348116 
L 405.360131 140.289319 
L 405.999593 140.234462 
L 406.639055 140.1832 
L 407.278517 140.135229 
L 407.917979 140.090272 
L 408.55744 140.048085 
L 409.196902 140.008444 
L 409.836364 139.971149 
" clip-path="url(#p7e4ada930d)" style="fill: none; stroke: #285c9d; stroke-width: 2.25; stroke-linecap: round"/>
   </g>
   <g id="line2d_30">
    <path d="M 423.687345 139.971149 
L 424.326807 140.008444 
L 424.966269 140.048085 
L 425.60573 140.090272 
L 426.245192 140.135229 
L 426.884654 140.1832 
L 427.524116 140.234462 
L 428.163578 140.289319 
L 428.803039 140.348116 
L 429.442501 140.411236 
L 430.081963 140.479111 
L 430.721425 140.55223 
L 431.360887 140.631141 
L 432.000348 140.716471 
L 432.63981 140.80893 
L 433.279272 140.909328 
L 433.918734 141.018594 
L 434.558196 141.137796 
L 435.197657 141.268164 
L 435.837119 141.411126 
L 436.476581 141.568341 
L 437.116043 141.741746 
L 437.755505 141.933618 
L 438.394966 142.146642 
L 439.034428 142.384002 
L 439.67389 142.649494 
L 440.313352 142.947674 
L 440.952814 143.284039 
L 441.592275 143.665269 
L 442.231737 144.099536 
L 442.871199 144.596914 
L 443.510661 145.169916 
L 444.150123 145.83421 
L 444.789584 146.609593 
L 445.429046 147.521289 
L 446.068508 148.601741 
L 446.70797 149.893054 
L 447.347431 151.450356 
L 447.986893 153.346394 
L 448.626355 155.677735 
L 449.265817 158.572848 
L 449.905279 162.201813 
L 450.54474 166.785725 
L 451.184202 172.599244 
L 451.823664 179.948515 
L 452.463126 189.083615 
L 453.102588 199.970918 
L 453.742049 211.85371 
L 454.381511 222.736737 
L 455.020973 229.497273 
L 455.660435 229.497273 
L 456.299897 222.736737 
L 456.939358 211.85371 
L 457.57882 199.970918 
L 458.218282 189.083615 
L 458.857744 179.948515 
L 459.497206 172.599244 
L 460.136667 166.785725 
L 460.776129 162.201813 
L 461.415591 158.572848 
L 462.055053 155.677735 
L 462.694515 153.346394 
L 463.333976 151.450356 
L 463.973438 149.893054 
L 464.6129 148.601741 
L 465.252362 147.521289 
L 465.891824 146.609593 
L 466.531285 145.83421 
L 467.170747 145.169916 
L 467.810209 144.596914 
L 468.449671 144.099536 
L 469.089133 143.665269 
L 469.728594 143.284039 
L 470.368056 142.947674 
L 471.007518 142.649494 
L 471.64698 142.384002 
L 472.286442 142.146642 
L 472.925903 141.933618 
L 473.565365 141.741746 
L 474.204827 141.568341 
L 474.844289 141.411126 
L 475.483751 141.268164 
L 476.123212 141.137796 
L 476.762674 141.018594 
L 477.402136 140.909328 
L 478.041598 140.80893 
L 478.68106 140.716471 
L 479.320521 140.631141 
L 479.959983 140.55223 
L 480.599445 140.479111 
L 481.238907 140.411236 
L 481.878369 140.348116 
L 482.51783 140.289319 
L 483.157292 140.234462 
L 483.796754 140.1832 
L 484.436216 140.135229 
L 485.075678 140.090272 
L 485.715139 140.048085 
L 486.354601 140.008444 
L 486.994063 139.971149 
" clip-path="url(#p7e4ada930d)" style="fill: none; stroke: #285c9d; stroke-width: 2.25; stroke-linecap: round"/>
   </g>
   <g id="line2d_31">
    <path d="M 497.046641 139.971149 
L 497.686103 140.008444 
L 498.325565 140.048085 
L 498.965026 140.090272 
L 499.604488 140.135229 
L 500.24395 140.1832 
L 500.883412 140.234462 
L 501.522874 140.289319 
L 502.162335 140.348116 
L 502.801797 140.411236 
L 503.441259 140.479111 
L 504.080721 140.55223 
L 504.720183 140.631141 
L 505.359644 140.716471 
L 505.999106 140.80893 
L 506.638568 140.909328 
L 507.27803 141.018594 
L 507.917492 141.137796 
L 508.556953 141.268164 
L 509.196415 141.411126 
L 509.835877 141.568341 
L 510.475339 141.741746 
L 511.114801 141.933618 
L 511.754262 142.146642 
L 512.393724 142.384002 
L 513.033186 142.649494 
L 513.672648 142.947674 
L 514.31211 143.284039 
L 514.951571 143.665269 
L 515.591033 144.099536 
L 516.230495 144.596914 
L 516.869957 145.169916 
L 517.509419 145.83421 
L 518.14888 146.609593 
L 518.788342 147.521289 
L 519.427804 148.601741 
L 520.067266 149.893054 
L 520.706728 151.450356 
L 521.346189 153.346394 
L 521.985651 155.677735 
L 522.625113 158.572848 
L 523.264575 162.201813 
L 523.904037 166.785725 
L 524.543498 172.599244 
L 525.18296 179.948515 
L 525.822422 189.083615 
L 526.461884 199.970918 
L 527.101346 211.85371 
L 527.740807 222.736737 
L 528.380269 229.497273 
L 529.019731 229.497273 
L 529.659193 222.736737 
L 530.298654 211.85371 
L 530.938116 199.970918 
L 531.577578 189.083615 
L 532.21704 179.948515 
L 532.856502 172.599244 
L 533.495963 166.785725 
L 534.135425 162.201813 
L 534.774887 158.572848 
L 535.414349 155.677735 
L 536.053811 153.346394 
L 536.693272 151.450356 
L 537.332734 149.893054 
L 537.972196 148.601741 
L 538.611658 147.521289 
L 539.25112 146.609593 
L 539.890581 145.83421 
L 540.530043 145.169916 
L 541.169505 144.596914 
L 541.808967 144.099536 
L 542.448429 143.665269 
L 543.08789 143.284039 
L 543.727352 142.947674 
L 544.366814 142.649494 
L 545.006276 142.384002 
L 545.645738 142.146642 
L 546.285199 141.933618 
L 546.924661 141.741746 
L 547.564123 141.568341 
L 548.203585 141.411126 
L 548.843047 141.268164 
L 549.482508 141.137796 
L 550.12197 141.018594 
L 550.761432 140.909328 
L 551.400894 140.80893 
L 552.040356 140.716471 
L 552.679817 140.631141 
L 553.319279 140.55223 
L 553.958741 140.479111 
L 554.598203 140.411236 
L 555.237665 140.348116 
L 555.877126 140.289319 
L 556.516588 140.234462 
L 557.15605 140.1832 
L 557.795512 140.135229 
L 558.434974 140.090272 
L 559.074435 140.048085 
L 559.713897 140.008444 
L 560.353359 139.971149 
" clip-path="url(#p7e4ada930d)" style="fill: none; stroke: #285c9d; stroke-width: 2.25; stroke-linecap: round"/>
   </g>
   <g id="line2d_32">
    <path d="M 566.607534 139.971149 
L 567.246996 140.008444 
L 567.886458 140.048085 
L 568.525919 140.090272 
L 569.165381 140.135229 
L 569.804843 140.1832 
L 570.444305 140.234462 
L 571.083766 140.289319 
L 571.723228 140.348116 
L 572.36269 140.411236 
L 573.002152 140.479111 
L 573.641614 140.55223 
L 574.281075 140.631141 
L 574.920537 140.716471 
L 575.559999 140.80893 
L 576.199461 140.909328 
L 576.838923 141.018594 
L 577.478384 141.137796 
L 578.117846 141.268164 
L 578.757308 141.411126 
L 579.39677 141.568341 
L 580.036232 141.741746 
L 580.675693 141.933618 
L 581.315155 142.146642 
L 581.954617 142.384002 
L 582.594079 142.649494 
L 583.233541 142.947674 
L 583.873002 143.284039 
L 584.512464 143.665269 
L 585.151926 144.099536 
L 585.791388 144.596914 
L 586.43085 145.169916 
L 587.070311 145.83421 
L 587.709773 146.609593 
L 588.349235 147.521289 
L 588.988697 148.601741 
L 589.628159 149.893054 
L 590.26762 151.450356 
L 590.907082 153.346394 
L 591.546544 155.677735 
L 592.186006 158.572848 
L 592.825468 162.201813 
L 593.464929 166.785725 
L 594.104391 172.599244 
L 594.743853 179.948515 
L 595.383315 189.083615 
L 596.022777 199.970918 
L 596.662238 211.85371 
L 597.3017 222.736737 
L 597.941162 229.497273 
L 598.580624 229.497273 
L 599.220086 222.736737 
L 599.859547 211.85371 
L 600.499009 199.970918 
L 601.138471 189.083615 
L 601.777933 179.948515 
L 602.417395 172.599244 
L 603.056856 166.785725 
L 603.696318 162.201813 
L 604.33578 158.572848 
L 604.975242 155.677735 
L 605.614704 153.346394 
L 606.254165 151.450356 
L 606.893627 149.893054 
L 607.533089 148.601741 
L 608.172551 147.521289 
L 608.812013 146.609593 
L 609.451474 145.83421 
L 610.090936 145.169916 
L 610.730398 144.596914 
L 611.36986 144.099536 
L 612.009322 143.665269 
L 612.648783 143.284039 
L 613.288245 142.947674 
L 613.927707 142.649494 
L 614.567169 142.384002 
L 615.206631 142.146642 
L 615.846092 141.933618 
L 616.485554 141.741746 
L 617.125016 141.568341 
L 617.764478 141.411126 
L 618.40394 141.268164 
L 619.043401 141.137796 
L 619.682863 141.018594 
L 620.322325 140.909328 
L 620.961787 140.80893 
L 621.601249 140.716471 
L 622.24071 140.631141 
L 622.880172 140.55223 
L 623.519634 140.479111 
L 624.159096 140.411236 
L 624.798558 140.348116 
L 625.438019 140.289319 
L 626.077481 140.234462 
L 626.716943 140.1832 
L 627.356405 140.135229 
L 627.995867 140.090272 
L 628.635328 140.048085 
L 629.27479 140.008444 
L 629.914252 139.971149 
" clip-path="url(#p7e4ada930d)" style="fill: none; stroke: #285c9d; stroke-width: 2.25; stroke-linecap: round"/>
   </g>
   <g id="line2d_33">
    <path d="M 632.370024 139.971149 
L 633.009486 140.008444 
L 633.648947 140.048085 
L 634.288409 140.090272 
L 634.927871 140.135229 
L 635.567333 140.1832 
L 636.206795 140.234462 
L 636.846256 140.289319 
L 637.485718 140.348116 
L 638.12518 140.411236 
L 638.764642 140.479111 
L 639.404104 140.55223 
L 640.043565 140.631141 
L 640.683027 140.716471 
L 641.322489 140.80893 
L 641.961951 140.909328 
L 642.601413 141.018594 
L 643.240874 141.137796 
L 643.880336 141.268164 
L 644.519798 141.411126 
L 645.15926 141.568341 
L 645.798722 141.741746 
L 646.438183 141.933618 
L 647.077645 142.146642 
L 647.717107 142.384002 
L 648.356569 142.649494 
L 648.996031 142.947674 
L 649.635492 143.284039 
L 650.274954 143.665269 
L 650.914416 144.099536 
L 651.553878 144.596914 
L 652.19334 145.169916 
L 652.832801 145.83421 
L 653.472263 146.609593 
L 654.111725 147.521289 
L 654.751187 148.601741 
L 655.390649 149.893054 
L 656.03011 151.450356 
L 656.669572 153.346394 
L 657.309034 155.677735 
L 657.948496 158.572848 
L 658.587958 162.201813 
L 659.227419 166.785725 
L 659.866881 172.599244 
L 660.506343 179.948515 
L 661.145805 189.083615 
L 661.785266 199.970918 
L 662.424728 211.85371 
L 663.06419 222.736737 
L 663.703652 229.497273 
L 664.343114 229.497273 
L 664.982575 222.736737 
L 665.622037 211.85371 
L 666.261499 199.970918 
L 666.900961 189.083615 
L 667.540423 179.948515 
L 668.179884 172.599244 
L 668.819346 166.785725 
L 669.458808 162.201813 
L 670.09827 158.572848 
L 670.737732 155.677735 
L 671.377193 153.346394 
L 672.016655 151.450356 
L 672.656117 149.893054 
L 673.295579 148.601741 
L 673.935041 147.521289 
L 674.574502 146.609593 
L 675.213964 145.83421 
L 675.853426 145.169916 
L 676.492888 144.596914 
L 677.13235 144.099536 
L 677.771811 143.665269 
L 678.411273 143.284039 
L 679.050735 142.947674 
L 679.690197 142.649494 
L 680.329659 142.384002 
L 680.96912 142.146642 
L 681.608582 141.933618 
L 682.248044 141.741746 
L 682.887506 141.568341 
L 683.526968 141.411126 
L 684.166429 141.268164 
L 684.805891 141.137796 
L 685.445353 141.018594 
L 686.084815 140.909328 
L 686.724277 140.80893 
L 687.363738 140.716471 
L 688.0032 140.631141 
L 688.642662 140.55223 
L 689.282124 140.479111 
L 689.921586 140.411236 
L 690.561047 140.348116 
L 691.200509 140.289319 
L 691.839971 140.234462 
L 692.479433 140.1832 
L 693.118895 140.135229 
L 693.758356 140.090272 
L 694.397818 140.048085 
L 695.03728 140.008444 
L 695.676742 139.971149 
" clip-path="url(#p7e4ada930d)" style="fill: none; stroke: #285c9d; stroke-width: 2.25; stroke-linecap: round"/>
   </g>
   <g id="line2d_34">
    <path d="M 694.334111 139.971149 
L 694.973572 140.008444 
L 695.613034 140.048085 
L 696.252496 140.090272 
L 696.891958 140.135229 
L 697.53142 140.1832 
L 698.170881 140.234462 
L 698.810343 140.289319 
L 699.449805 140.348116 
L 700.089267 140.411236 
L 700.728729 140.479111 
L 701.36819 140.55223 
L 702.007652 140.631141 
L 702.647114 140.716471 
L 703.286576 140.80893 
L 703.926038 140.909328 
L 704.565499 141.018594 
L 705.204961 141.137796 
L 705.844423 141.268164 
L 706.483885 141.411126 
L 707.123347 141.568341 
L 707.762808 141.741746 
L 708.40227 141.933618 
L 709.041732 142.146642 
L 709.681194 142.384002 
L 710.320655 142.649494 
L 710.960117 142.947674 
L 711.599579 143.284039 
L 712.239041 143.665269 
L 712.878503 144.099536 
L 713.517964 144.596914 
L 714.157426 145.169916 
L 714.796888 145.83421 
L 715.43635 146.609593 
L 716.075812 147.521289 
L 716.715273 148.601741 
L 717.354735 149.893054 
L 717.994197 151.450356 
L 718.633659 153.346394 
L 719.273121 155.677735 
L 719.912582 158.572848 
L 720.552044 162.201813 
L 721.191506 166.785725 
L 721.830968 172.599244 
L 722.47043 179.948515 
L 723.109891 189.083615 
L 723.749353 199.970918 
L 724.388815 211.85371 
L 725.028277 222.736737 
L 725.667739 229.497273 
L 726.3072 229.497273 
L 726.946662 222.736737 
L 727.586124 211.85371 
L 728.225586 199.970918 
L 728.865048 189.083615 
L 729.504509 179.948515 
L 730.143971 172.599244 
L 730.783433 166.785725 
L 731.422895 162.201813 
L 732.062357 158.572848 
L 732.701818 155.677735 
L 733.34128 153.346394 
L 733.980742 151.450356 
L 734.620204 149.893054 
L 735.259666 148.601741 
L 735.899127 147.521289 
L 736.538589 146.609593 
L 737.178051 145.83421 
L 737.817513 145.169916 
L 738.456975 144.596914 
L 739.096436 144.099536 
L 739.735898 143.665269 
L 740.37536 143.284039 
L 741.014822 142.947674 
L 741.654284 142.649494 
L 742.293745 142.384002 
L 742.933207 142.146642 
L 743.572669 141.933618 
L 744.212131 141.741746 
L 744.851593 141.568341 
L 745.491054 141.411126 
L 746.130516 141.268164 
L 746.769978 141.137796 
L 747.40944 141.018594 
L 748.048902 140.909328 
L 748.688363 140.80893 
L 749.327825 140.716471 
L 749.967287 140.631141 
L 750.606749 140.55223 
L 751.246211 140.479111 
L 751.885672 140.411236 
L 752.525134 140.348116 
L 753.164596 140.289319 
L 753.804058 140.234462 
L 754.44352 140.1832 
L 755.082981 140.135229 
L 755.722443 140.090272 
L 756.361905 140.048085 
L 757.001367 140.008444 
L 757.640829 139.971149 
" clip-path="url(#p7e4ada930d)" style="fill: none; stroke: #285c9d; stroke-width: 2.25; stroke-linecap: round"/>
   </g>
   <g id="line2d_35">
    <path d="M 752.499794 139.971149 
L 753.139256 140.008444 
L 753.778718 140.048085 
L 754.41818 140.090272 
L 755.057641 140.135229 
L 755.697103 140.1832 
L 756.336565 140.234462 
L 756.976027 140.289319 
L 757.615489 140.348116 
L 758.25495 140.411236 
L 758.894412 140.479111 
L 759.533874 140.55223 
L 760.173336 140.631141 
L 760.812798 140.716471 
L 761.452259 140.80893 
L 762.091721 140.909328 
L 762.731183 141.018594 
L 763.370645 141.137796 
L 764.010107 141.268164 
L 764.649568 141.411126 
L 765.28903 141.568341 
L 765.928492 141.741746 
L 766.567954 141.933618 
L 767.207416 142.146642 
L 767.846877 142.384002 
L 768.486339 142.649494 
L 769.125801 142.947674 
L 769.765263 143.284039 
L 770.404725 143.665269 
L 771.044186 144.099536 
L 771.683648 144.596914 
L 772.32311 145.169916 
L 772.962572 145.83421 
L 773.602034 146.609593 
L 774.241495 147.521289 
L 774.880957 148.601741 
L 775.520419 149.893054 
L 776.159881 151.450356 
L 776.799343 153.346394 
L 777.438804 155.677735 
L 778.078266 158.572848 
L 778.717728 162.201813 
L 779.35719 166.785725 
L 779.996652 172.599244 
L 780.636113 179.948515 
L 781.275575 189.083615 
L 781.915037 199.970918 
L 782.554499 211.85371 
L 783.193961 222.736737 
L 783.833422 229.497273 
L 784.472884 229.497273 
L 785.112346 222.736737 
L 785.751808 211.85371 
L 786.39127 199.970918 
L 787.030731 189.083615 
L 787.670193 179.948515 
L 788.309655 172.599244 
L 788.949117 166.785725 
L 789.588579 162.201813 
L 790.22804 158.572848 
L 790.867502 155.677735 
L 791.506964 153.346394 
L 792.146426 151.450356 
L 792.785888 149.893054 
L 793.425349 148.601741 
L 794.064811 147.521289 
L 794.704273 146.609593 
L 795.343735 145.83421 
L 795.983197 145.169916 
L 796.622658 144.596914 
L 797.26212 144.099536 
L 797.901582 143.665269 
L 798.541044 143.284039 
L 799.180506 142.947674 
L 799.819967 142.649494 
L 800.459429 142.384002 
L 801.098891 142.146642 
L 801.738353 141.933618 
L 802.377815 141.741746 
L 803.017276 141.568341 
L 803.656738 141.411126 
L 804.2962 141.268164 
L 804.935662 141.137796 
L 805.575124 141.018594 
L 806.214585 140.909328 
L 806.854047 140.80893 
L 807.493509 140.716471 
L 808.132971 140.631141 
L 808.772432 140.55223 
L 809.411894 140.479111 
L 810.051356 140.411236 
L 810.690818 140.348116 
L 811.33028 140.289319 
L 811.969741 140.234462 
L 812.609203 140.1832 
L 813.248665 140.135229 
L 813.888127 140.090272 
L 814.527589 140.048085 
L 815.16705 140.008444 
L 815.806512 139.971149 
" clip-path="url(#p7e4ada930d)" style="fill: none; stroke: #285c9d; stroke-width: 2.25; stroke-linecap: round"/>
   </g>
   <g id="line2d_36">
    <path d="M 806.867075 139.971149 
L 807.506537 140.008444 
L 808.145998 140.048085 
L 808.78546 140.090272 
L 809.424922 140.135229 
L 810.064384 140.1832 
L 810.703846 140.234462 
L 811.343307 140.289319 
L 811.982769 140.348116 
L 812.622231 140.411236 
L 813.261693 140.479111 
L 813.901155 140.55223 
L 814.540616 140.631141 
L 815.180078 140.716471 
L 815.81954 140.80893 
L 816.459002 140.909328 
L 817.098464 141.018594 
L 817.737925 141.137796 
L 818.377387 141.268164 
L 819.016849 141.411126 
L 819.656311 141.568341 
L 820.295773 141.741746 
L 820.935234 141.933618 
L 821.574696 142.146642 
L 822.214158 142.384002 
L 822.85362 142.649494 
L 823.493082 142.947674 
L 824.132543 143.284039 
L 824.772005 143.665269 
L 825.411467 144.099536 
L 826.050929 144.596914 
L 826.690391 145.169916 
L 827.329852 145.83421 
L 827.969314 146.609593 
L 828.608776 147.521289 
L 829.248238 148.601741 
L 829.8877 149.893054 
L 830.527161 151.450356 
L 831.166623 153.346394 
L 831.806085 155.677735 
L 832.445547 158.572848 
L 833.085009 162.201813 
L 833.72447 166.785725 
L 834.363932 172.599244 
L 835.003394 179.948515 
L 835.642856 189.083615 
L 836.282318 199.970918 
L 836.921779 211.85371 
L 837.561241 222.736737 
L 838.200703 229.497273 
L 838.840165 229.497273 
L 839.479627 222.736737 
L 840.119088 211.85371 
L 840.75855 199.970918 
L 841.398012 189.083615 
L 842.037474 179.948515 
L 842.676936 172.599244 
L 843.316397 166.785725 
L 843.955859 162.201813 
L 844.595321 158.572848 
L 845.234783 155.677735 
L 845.874245 153.346394 
L 846.513706 151.450356 
L 847.153168 149.893054 
L 847.79263 148.601741 
L 848.432092 147.521289 
L 849.071554 146.609593 
L 849.711015 145.83421 
L 850.350477 145.169916 
L 850.989939 144.596914 
L 851.629401 144.099536 
L 852.268863 143.665269 
L 852.908324 143.284039 
L 853.547786 142.947674 
L 854.187248 142.649494 
L 854.82671 142.384002 
L 855.466172 142.146642 
L 856.105633 141.933618 
L 856.745095 141.741746 
L 857.384557 141.568341 
L 858.024019 141.411126 
L 858.663481 141.268164 
L 859.302942 141.137796 
L 859.942404 141.018594 
L 860.581866 140.909328 
L 861.221328 140.80893 
L 861.86079 140.716471 
L 862.500251 140.631141 
L 863.139713 140.55223 
L 863.779175 140.479111 
L 864.418637 140.411236 
L 865.058098 140.348116 
L 865.69756 140.289319 
L 866.337022 140.234462 
L 866.976484 140.1832 
L 867.615946 140.135229 
L 868.255407 140.090272 
L 868.894869 140.048085 
L 869.534331 140.008444 
L 870.173793 139.971149 
" clip-path="url(#p7e4ada930d)" style="fill: none; stroke: #285c9d; stroke-width: 2.25; stroke-linecap: round"/>
   </g>
   <g id="line2d_37">
    <path d="M 857.435952 139.971149 
L 858.075414 140.008444 
L 858.714876 140.048085 
L 859.354338 140.090272 
L 859.9938 140.135229 
L 860.633261 140.1832 
L 861.272723 140.234462 
L 861.912185 140.289319 
L 862.551647 140.348116 
L 863.191109 140.411236 
L 863.83057 140.479111 
L 864.470032 140.55223 
L 865.109494 140.631141 
L 865.748956 140.716471 
L 866.388418 140.80893 
L 867.027879 140.909328 
L 867.667341 141.018594 
L 868.306803 141.137796 
L 868.946265 141.268164 
L 869.585727 141.411126 
L 870.225188 141.568341 
L 870.86465 141.741746 
L 871.504112 141.933618 
L 872.143574 142.146642 
L 872.783036 142.384002 
L 873.422497 142.649494 
L 874.061959 142.947674 
L 874.701421 143.284039 
L 875.340883 143.665269 
L 875.980345 144.099536 
L 876.619806 144.596914 
L 877.259268 145.169916 
L 877.89873 145.83421 
L 878.538192 146.609593 
L 879.177653 147.521289 
L 879.817115 148.601741 
L 880.456577 149.893054 
L 881.096039 151.450356 
L 881.735501 153.346394 
L 882.374962 155.677735 
L 883.014424 158.572848 
L 883.653886 162.201813 
L 884.293348 166.785725 
L 884.93281 172.599244 
L 885.572271 179.948515 
L 886.211733 189.083615 
L 886.851195 199.970918 
L 887.490657 211.85371 
L 888.130119 222.736737 
L 888.76958 229.497273 
L 889.409042 229.497273 
L 890.048504 222.736737 
L 890.687966 211.85371 
L 891.327428 199.970918 
L 891.966889 189.083615 
L 892.606351 179.948515 
L 893.245813 172.599244 
L 893.885275 166.785725 
L 894.524737 162.201813 
L 895.164198 158.572848 
L 895.80366 155.677735 
L 896.443122 153.346394 
L 897.082584 151.450356 
L 897.722046 149.893054 
L 898.361507 148.601741 
L 899.000969 147.521289 
L 899.640431 146.609593 
L 900.279893 145.83421 
L 900.919355 145.169916 
L 901.558816 144.596914 
L 902.198278 144.099536 
L 902.83774 143.665269 
L 903.477202 143.284039 
L 904.116664 142.947674 
L 904.756125 142.649494 
L 905.395587 142.384002 
L 906.035049 142.146642 
L 906.674511 141.933618 
L 907.313973 141.741746 
L 907.953434 141.568341 
L 908.592896 141.411126 
L 909.232358 141.268164 
L 909.87182 141.137796 
L 910.511282 141.018594 
L 911.150743 140.909328 
L 911.790205 140.80893 
L 912.429667 140.716471 
L 913.069129 140.631141 
L 913.708591 140.55223 
L 914.348052 140.479111 
L 914.987514 140.411236 
L 915.626976 140.348116 
L 916.266438 140.289319 
L 916.9059 140.234462 
L 917.545361 140.1832 
L 918.184823 140.135229 
L 918.824285 140.090272 
L 919.463747 140.048085 
L 920.103209 140.008444 
L 920.74267 139.971149 
" clip-path="url(#p7e4ada930d)" style="fill: none; stroke: #285c9d; stroke-width: 2.25; stroke-linecap: round"/>
   </g>
   <g id="line2d_38">
    <path d="M 904.206427 139.971149 
L 904.845889 140.008444 
L 905.48535 140.048085 
L 906.124812 140.090272 
L 906.764274 140.135229 
L 907.403736 140.1832 
L 908.043198 140.234462 
L 908.682659 140.289319 
L 909.322121 140.348116 
L 909.961583 140.411236 
L 910.601045 140.479111 
L 911.240507 140.55223 
L 911.879968 140.631141 
L 912.51943 140.716471 
L 913.158892 140.80893 
L 913.798354 140.909328 
L 914.437816 141.018594 
L 915.077277 141.137796 
L 915.716739 141.268164 
L 916.356201 141.411126 
L 916.995663 141.568341 
L 917.635125 141.741746 
L 918.274586 141.933618 
L 918.914048 142.146642 
L 919.55351 142.384002 
L 920.192972 142.649494 
L 920.832434 142.947674 
L 921.471895 143.284039 
L 922.111357 143.665269 
L 922.750819 144.099536 
L 923.390281 144.596914 
L 924.029743 145.169916 
L 924.669204 145.83421 
L 925.308666 146.609593 
L 925.948128 147.521289 
L 926.58759 148.601741 
L 927.227052 149.893054 
L 927.866513 151.450356 
L 928.505975 153.346394 
L 929.145437 155.677735 
L 929.784899 158.572848 
L 930.424361 162.201813 
L 931.063822 166.785725 
L 931.703284 172.599244 
L 932.342746 179.948515 
L 932.982208 189.083615 
L 933.62167 199.970918 
L 934.261131 211.85371 
L 934.900593 222.736737 
L 935.540055 229.497273 
L 936.179517 229.497273 
L 936.818979 222.736737 
L 937.45844 211.85371 
L 938.097902 199.970918 
L 938.737364 189.083615 
L 939.376826 179.948515 
L 940.016288 172.599244 
L 940.655749 166.785725 
L 941.295211 162.201813 
L 941.934673 158.572848 
L 942.574135 155.677735 
L 943.213596 153.346394 
L 943.853058 151.450356 
L 944.49252 149.893054 
L 945.131982 148.601741 
L 945.771444 147.521289 
L 946.410905 146.609593 
L 947.050367 145.83421 
L 947.689829 145.169916 
L 948.329291 144.596914 
L 948.968753 144.099536 
L 949.608214 143.665269 
L 950.247676 143.284039 
L 950.887138 142.947674 
L 951.5266 142.649494 
L 952.166062 142.384002 
L 952.805523 142.146642 
L 953.444985 141.933618 
L 954.084447 141.741746 
L 954.723909 141.568341 
L 955.363371 141.411126 
L 956.002832 141.268164 
L 956.642294 141.137796 
L 957.281756 141.018594 
L 957.921218 140.909328 
L 958.56068 140.80893 
L 959.200141 140.716471 
L 959.839603 140.631141 
L 960.479065 140.55223 
L 961.118527 140.479111 
L 961.757989 140.411236 
L 962.39745 140.348116 
L 963.036912 140.289319 
L 963.676374 140.234462 
L 964.315836 140.1832 
L 964.955298 140.135229 
L 965.594759 140.090272 
L 966.234221 140.048085 
L 966.873683 140.008444 
L 967.513145 139.971149 
" clip-path="url(#p7e4ada930d)" style="fill: none; stroke: #285c9d; stroke-width: 2.25; stroke-linecap: round"/>
   </g>
   <g id="line2d_39">
    <path d="M 947.178498 139.971149 
L 947.81796 140.008444 
L 948.457422 140.048085 
L 949.096884 140.090272 
L 949.736345 140.135229 
L 950.375807 140.1832 
L 951.015269 140.234462 
L 951.654731 140.289319 
L 952.294193 140.348116 
L 952.933654 140.411236 
L 953.573116 140.479111 
L 954.212578 140.55223 
L 954.85204 140.631141 
L 955.491502 140.716471 
L 956.130963 140.80893 
L 956.770425 140.909328 
L 957.409887 141.018594 
L 958.049349 141.137796 
L 958.688811 141.268164 
L 959.328272 141.411126 
L 959.967734 141.568341 
L 960.607196 141.741746 
L 961.246658 141.933618 
L 961.88612 142.146642 
L 962.525581 142.384002 
L 963.165043 142.649494 
L 963.804505 142.947674 
L 964.443967 143.284039 
L 965.083428 143.665269 
L 965.72289 144.099536 
L 966.362352 144.596914 
L 967.001814 145.169916 
L 967.641276 145.83421 
L 968.280737 146.609593 
L 968.920199 147.521289 
L 969.559661 148.601741 
L 970.199123 149.893054 
L 970.838585 151.450356 
L 971.478046 153.346394 
L 972.117508 155.677735 
L 972.75697 158.572848 
L 973.396432 162.201813 
L 974.035894 166.785725 
L 974.675355 172.599244 
L 975.314817 179.948515 
L 975.954279 189.083615 
L 976.593741 199.970918 
L 977.233203 211.85371 
L 977.872664 222.736737 
L 978.512126 229.497273 
L 979.151588 229.497273 
L 979.79105 222.736737 
L 980.430512 211.85371 
L 981.069973 199.970918 
L 981.709435 189.083615 
L 982.348897 179.948515 
L 982.988359 172.599244 
L 983.627821 166.785725 
L 984.267282 162.201813 
L 984.906744 158.572848 
L 985.546206 155.677735 
L 986.185668 153.346394 
L 986.82513 151.450356 
L 987.464591 149.893054 
L 988.104053 148.601741 
L 988.743515 147.521289 
L 989.382977 146.609593 
L 990.022439 145.83421 
L 990.6619 145.169916 
L 991.301362 144.596914 
L 991.940824 144.099536 
L 992.580286 143.665269 
L 993.219748 143.284039 
L 993.859209 142.947674 
L 994.498671 142.649494 
L 995.138133 142.384002 
L 995.777595 142.146642 
L 996.417057 141.933618 
L 997.056518 141.741746 
L 997.69598 141.568341 
L 998.335442 141.411126 
L 998.974904 141.268164 
L 999.614366 141.137796 
L 1000.253827 141.018594 
L 1000.893289 140.909328 
L 1001.532751 140.80893 
L 1002.172213 140.716471 
L 1002.811675 140.631141 
L 1003.451136 140.55223 
L 1004.090598 140.479111 
L 1004.73006 140.411236 
L 1005.369522 140.348116 
L 1006.008984 140.289319 
L 1006.648445 140.234462 
L 1007.287907 140.1832 
L 1007.927369 140.135229 
L 1008.566831 140.090272 
L 1009 140.061695 
" clip-path="url(#p7e4ada930d)" style="fill: none; stroke: #285c9d; stroke-width: 2.25; stroke-linecap: round"/>
   </g>
   <g id="line2d_40">
    <path d="M 986.352166 139.971149 
L 986.991628 140.008444 
L 987.63109 140.048085 
L 988.270552 140.090272 
L 988.910014 140.135229 
L 989.549475 140.1832 
L 990.188937 140.234462 
L 990.828399 140.289319 
L 991.467861 140.348116 
L 992.107323 140.411236 
L 992.746784 140.479111 
L 993.386246 140.55223 
L 994.025708 140.631141 
L 994.66517 140.716471 
L 995.304632 140.80893 
L 995.944093 140.909328 
L 996.583555 141.018594 
L 997.223017 141.137796 
L 997.862479 141.268164 
L 998.501941 141.411126 
L 999.141402 141.568341 
L 999.780864 141.741746 
L 1000.420326 141.933618 
L 1001.059788 142.146642 
L 1001.69925 142.384002 
L 1002.338711 142.649494 
L 1002.978173 142.947674 
L 1003.617635 143.284039 
L 1004.257097 143.665269 
L 1004.896559 144.099536 
L 1005.53602 144.596914 
L 1006.175482 145.169916 
L 1006.814944 145.83421 
L 1007.454406 146.609593 
L 1008.093868 147.521289 
L 1008.733329 148.601741 
L 1009 149.140249 
" clip-path="url(#p7e4ada930d)" style="fill: none; stroke: #285c9d; stroke-width: 2.25; stroke-linecap: round"/>
   </g>
   <g id="patch_3">
    <path d="M 68.84 239.5 
L 68.84 19.44 
" style="fill: none; stroke: #ffffff; stroke-width: 1.875; stroke-linejoin: miter; stroke-linecap: square"/>
   </g>
   <g id="patch_4">
    <path d="M 988.56 239.5 
L 988.56 19.44 
" style="fill: none; stroke: #ffffff; stroke-width: 1.875; stroke-linejoin: miter; stroke-linecap: square"/>
   </g>
   <g id="patch_5">
    <path d="M 68.84 239.5 
L 988.56 239.5 
" style="fill: none; stroke: #ffffff; stroke-width: 1.875; stroke-linejoin: miter; stroke-linecap: square"/>
   </g>
   <g id="patch_6">
    <path d="M 68.84 19.44 
L 988.56 19.44 
" style="fill: none; stroke: #ffffff; stroke-width: 1.875; stroke-linejoin: miter; stroke-linecap: square"/>
   </g>
  </g>
 </g>
 <defs>
  <clipPath id="p7e4ada930d">
   <rect x="68.84" y="19.44" width="919.72" height="220.06"/>
  </clipPath>
 </defs>
</svg>
