<?xml version="1.0" encoding="utf-8" standalone="no"?>
<!DOCTYPE svg PUBLIC "-//W3C//DTD SVG 1.1//EN"
  "http://www.w3.org/Graphics/SVG/1.1/DTD/svg11.dtd">
<svg xmlns:xlink="http://www.w3.org/1999/xlink" width="792pt" height="360pt" viewBox="0 0 792 360" xmlns="http://www.w3.org/2000/svg" version="1.1">
 <metadata>
  <rdf:RDF xmlns:dc="http://purl.org/dc/elements/1.1/" xmlns:cc="http://creativecommons.org/ns#" xmlns:rdf="http://www.w3.org/1999/02/22-rdf-syntax-ns#">
   <cc:Work>
    <dc:type rdf:resource="http://purl.org/dc/dcmitype/StillImage"/>
    <dc:date>2026-05-15T12:28:27.611415</dc:date>
    <dc:format>image/svg+xml</dc:format>
    <dc:creator>
     <cc:Agent>
      <dc:title>Matplotlib v3.10.1+dfsg1, https://matplotlib.org/</dc:title>
     </cc:Agent>
    </dc:creator>
   </cc:Work>
  </rdf:RDF>
 </metadata>
 <defs>
  <style type="text/css">*{stroke-linejoin: round; stroke-linecap: butt}</style>
 </defs>
 <g id="figure_1">
  <g id="patch_1">
   <path d="M 0 360 
L 792 360 
L 792 0 
L 0 0 
z
" style="fill: #ffffff"/>
  </g>
  <g id="axes_1">
   <g id="patch_2">
    <path d="M 79.59 145.11 
L 772.56 145.11 
L 772.56 20.192727 
L 79.59 20.192727 
z
" style="fill: #eaeaf2"/>
   </g>
   <g id="LineCollection_1">
    <path clip-path="url(#pf425f8eb22)" style="fill: none; stroke-dasharray: 8.325,3.6; stroke-dashoffset: 0; stroke: #808080; stroke-width: 2.25"/>
   </g>
   <g id="LineCollection_2">
    <path clip-path="url(#pf425f8eb22)" style="fill: none; stroke-dasharray: 8.325,3.6; stroke-dashoffset: 0; stroke: #808080; stroke-width: 2.25"/>
   </g>
   <g id="LineCollection_3">
    <path d="M 10.293 129.58434 
L 10.293 25.870785 
" clip-path="url(#pf425f8eb22)" style="fill: none; stroke-dasharray: 8.325,3.6; stroke-dashoffset: 0; stroke: #808080; stroke-width: 2.25"/>
   </g>
   <g id="LineCollection_4">
    <path d="M 148.887 129.58434 
L 148.887 25.870785 
" clip-path="url(#pf425f8eb22)" style="fill: none; stroke-dasharray: 8.325,3.6; stroke-dashoffset: 0; stroke: #808080; stroke-width: 2.25"/>
   </g>
   <g id="LineCollection_5">
    <path d="M 287.481 129.58434 
L 287.481 25.870785 
" clip-path="url(#pf425f8eb22)" style="fill: none; stroke-dasharray: 8.325,3.6; stroke-dashoffset: 0; stroke: #808080; stroke-width: 2.25"/>
   </g>
   <g id="LineCollection_6">
    <path d="M 426.075 129.58434 
L 426.075 25.870785 
" clip-path="url(#pf425f8eb22)" style="fill: none; stroke-dasharray: 8.325,3.6; stroke-dashoffset: 0; stroke: #808080; stroke-width: 2.25"/>
   </g>
   <g id="LineCollection_7">
    <path d="M 564.669 129.58434 
L 564.669 25.870785 
" clip-path="url(#pf425f8eb22)" style="fill: none; stroke-dasharray: 8.325,3.6; stroke-dashoffset: 0; stroke: #808080; stroke-width: 2.25"/>
   </g>
   <g id="LineCollection_8">
    <path d="M 703.263 129.58434 
L 703.263 25.870785 
" clip-path="url(#pf425f8eb22)" style="fill: none; stroke-dasharray: 8.325,3.6; stroke-dashoffset: 0; stroke: #808080; stroke-width: 2.25"/>
   </g>
   <g id="LineCollection_9">
    <path clip-path="url(#pf425f8eb22)" style="fill: none; stroke-dasharray: 8.325,3.6; stroke-dashoffset: 0; stroke: #808080; stroke-width: 2.25"/>
   </g>
   <g id="LineCollection_10">
    <path clip-path="url(#pf425f8eb22)" style="fill: none; stroke-dasharray: 8.325,3.6; stroke-dashoffset: 0; stroke: #808080; stroke-width: 2.25"/>
   </g>
   <g id="matplotlib.axis_1">
    <g id="xtick_1">
     <g id="line2d_1">
      <path d="M 110.570622 145.11 
L 110.570622 20.192727 
" clip-path="url(#pf425f8eb22)" style="fill: none; stroke: #ffffff; stroke-width: 1.5; stroke-linecap: round"/>
     </g>
    </g>
    <g id="xtick_2">
     <g id="line2d_2">
      <path d="M 206.475003 145.11 
L 206.475003 20.192727 
" clip-path="url(#pf425f8eb22)" style="fill: none; stroke: #ffffff; stroke-width: 1.5; stroke-linecap: round"/>
     </g>
    </g>
    <g id="xtick_3">
     <g id="line2d_3">
      <path d="M 302.379385 145.11 
L 302.379385 20.192727 
" clip-path="url(#pf425f8eb22)" style="fill: none; stroke: #ffffff; stroke-width: 1.5; stroke-linecap: round"/>
     </g>
    </g>
    <g id="xtick_4">
     <g id="line2d_4">
      <path d="M 398.283766 145.11 
L 398.283766 20.192727 
" clip-path="url(#pf425f8eb22)" style="fill: none; stroke: #ffffff; stroke-width: 1.5; stroke-linecap: round"/>
     </g>
    </g>
    <g id="xtick_5">
     <g id="line2d_5">
      <path d="M 494.188148 145.11 
L 494.188148 20.192727 
" clip-path="url(#pf425f8eb22)" style="fill: none; stroke: #ffffff; stroke-width: 1.5; stroke-linecap: round"/>
     </g>
    </g>
    <g id="xtick_6">
     <g id="line2d_6">
      <path d="M 590.09253 145.11 
L 590.09253 20.192727 
" clip-path="url(#pf425f8eb22)" style="fill: none; stroke: #ffffff; stroke-width: 1.5; stroke-linecap: round"/>
     </g>
    </g>
    <g id="xtick_7">
     <g id="line2d_7">
      <path d="M 685.996911 145.11 
L 685.996911 20.192727 
" clip-path="url(#pf425f8eb22)" style="fill: none; stroke: #ffffff; stroke-width: 1.5; stroke-linecap: round"/>
     </g>
    </g>
   </g>
   <g id="matplotlib.axis_2">
    <g id="ytick_1">
     <g id="line2d_8">
      <path d="M 79.59 129.58434 
L 772.56 129.58434 
" clip-path="url(#pf425f8eb22)" style="fill: none; stroke: #ffffff; stroke-width: 1.5; stroke-linecap: round"/>
     </g>
     <g id="text_1">
      <!-- 0.0 -->
      <g style="fill: #262626" transform="translate(40.849844 135.853051) scale(0.165 -0.165)">
       <defs>
        <path id="DejaVuSans-30" d="M 2034 4250 
Q 1547 4250 1301 3770 
Q 1056 3291 1056 2328 
Q 1056 1369 1301 889 
Q 1547 409 2034 409 
Q 2525 409 2770 889 
Q 3016 1369 3016 2328 
Q 3016 3291 2770 3770 
Q 2525 4250 2034 4250 
z
M 2034 4750 
Q 2819 4750 3233 4129 
Q 3647 3509 3647 2328 
Q 3647 1150 3233 529 
Q 2819 -91 2034 -91 
Q 1250 -91 836 529 
Q 422 1150 422 2328 
Q 422 3509 836 4129 
Q 1250 4750 2034 4750 
z
" transform="scale(0.015625)"/>
        <path id="DejaVuSans-2e" d="M 684 794 
L 1344 794 
L 1344 0 
L 684 0 
L 684 794 
z
" transform="scale(0.015625)"/>
       </defs>
       <use xlink:href="#DejaVuSans-30"/>
       <use xlink:href="#DejaVuSans-2e" transform="translate(63.623047 0)"/>
       <use xlink:href="#DejaVuSans-30" transform="translate(95.410156 0)"/>
      </g>
     </g>
    </g>
    <g id="ytick_2">
     <g id="line2d_9">
      <path d="M 79.59 77.727562 
L 772.56 77.727562 
" clip-path="url(#pf425f8eb22)" style="fill: none; stroke: #ffffff; stroke-width: 1.5; stroke-linecap: round"/>
     </g>
     <g id="text_2">
      <!-- 0.5 -->
      <g style="fill: #262626" transform="translate(40.849844 83.996273) scale(0.165 -0.165)">
       <defs>
        <path id="DejaVuSans-35" d="M 691 4666 
L 3169 4666 
L 3169 4134 
L 1269 4134 
L 1269 2991 
Q 1406 3038 1543 3061 
Q 1681 3084 1819 3084 
Q 2600 3084 3056 2656 
Q 3513 2228 3513 1497 
Q 3513 744 3044 326 
Q 2575 -91 1722 -91 
Q 1428 -91 1123 -41 
Q 819 9 494 109 
L 494 744 
Q 775 591 1075 516 
Q 1375 441 1709 441 
Q 2250 441 2565 725 
Q 2881 1009 2881 1497 
Q 2881 1984 2565 2268 
Q 2250 2553 1709 2553 
Q 1456 2553 1204 2497 
Q 953 2441 691 2322 
L 691 4666 
z
" transform="scale(0.015625)"/>
       </defs>
       <use xlink:href="#DejaVuSans-30"/>
       <use xlink:href="#DejaVuSans-2e" transform="translate(63.623047 0)"/>
       <use xlink:href="#DejaVuSans-35" transform="translate(95.410156 0)"/>
      </g>
     </g>
    </g>
    <g id="ytick_3">
     <g id="line2d_10">
      <path d="M 79.59 25.870785 
L 772.56 25.870785 
" clip-path="url(#pf425f8eb22)" style="fill: none; stroke: #ffffff; stroke-width: 1.5; stroke-linecap: round"/>
     </g>
     <g id="text_3">
      <!-- 1.0 -->
      <g style="fill: #262626" transform="translate(40.849844 32.139496) scale(0.165 -0.165)">
       <defs>
        <path id="DejaVuSans-31" d="M 794 531 
L 1825 531 
L 1825 4091 
L 703 3866 
L 703 4441 
L 1819 4666 
L 2450 4666 
L 2450 531 
L 3481 531 
L 3481 0 
L 794 0 
L 794 531 
z
" transform="scale(0.015625)"/>
       </defs>
       <use xlink:href="#DejaVuSans-31"/>
       <use xlink:href="#DejaVuSans-2e" transform="translate(63.623047 0)"/>
       <use xlink:href="#DejaVuSans-30" transform="translate(95.410156 0)"/>
      </g>
     </g>
    </g>
   </g>
   <g id="line2d_11">
    <path d="M 0 0 
" clip-path="url(#pf425f8eb22)" style="fill: none; stroke: #23456f; stroke-width: 2.25; stroke-linecap: round"/>
   </g>
   <g id="line2d_12">
    <path d="M 0 0 
" clip-path="url(#pf425f8eb22)" style="fill: none; stroke: #23456f; stroke-width: 2.25; stroke-linecap: round"/>
   </g>
   <g id="line2d_13">
    <path d="M -1 31.740156 
L -0.093926 33.011115 
L 0.761695 34.603423 
L 1.617315 36.739633 
L 2.350704 39.181768 
L 3.084093 42.407435 
L 3.817482 46.685254 
L 4.550871 52.296995 
L 5.406491 60.651081 
L 6.873269 75.32899 
L 7.239963 77.213111 
L 7.484426 77.706786 
L 7.606658 77.706786 
L 7.851121 77.213111 
L 8.217815 75.32899 
L 8.706741 71.172842 
L 11.151371 47.521176 
L 12.006991 42.407435 
L 12.862611 38.726782 
L 13.718232 36.061614 
L 14.573852 34.101241 
L 15.551704 32.45314 
L 16.529556 31.238474 
L 17.629639 30.224176 
L 18.851954 29.394281 
L 20.318732 28.672734 
L 22.152204 28.041055 
L 24.352371 27.526991 
L 27.285926 27.081962 
L 31.319565 26.711938 
L 37.186676 26.415051 
L 46.598501 26.185726 
L 63.710908 26.023529 
L 68.600167 26.000104 
L 68.600167 26.000104 
" clip-path="url(#pf425f8eb22)" style="fill: none; stroke: #23456f; stroke-width: 2.25; stroke-linecap: round"/>
   </g>
   <g id="line2d_14">
    <path d="M 86.611282 26.000104 
L 110.079727 26.210622 
L 120.22494 26.504716 
L 125.969819 26.877498 
L 129.758995 27.335319 
L 132.448088 27.876844 
L 134.403792 28.480151 
L 135.992801 29.190335 
L 137.337347 30.036897 
L 138.437431 30.985537 
L 139.415282 32.115127 
L 140.270903 33.421134 
L 141.126523 35.149526 
L 141.859912 37.101928 
L 142.593301 39.658376 
L 143.32669 43.039409 
L 144.060079 47.521176 
L 144.793468 53.375615 
L 145.77132 63.307908 
L 146.871403 74.437852 
L 147.360329 77.213111 
L 147.604792 77.706786 
L 147.727023 77.706786 
L 147.971486 77.213111 
L 148.338181 75.32899 
L 148.827107 71.172842 
L 151.271736 47.521176 
L 152.127357 42.407435 
L 152.982977 38.726782 
L 153.838597 36.061614 
L 154.694218 34.101241 
L 155.67207 32.45314 
L 156.649921 31.238474 
L 157.750005 30.224176 
L 158.97232 29.394281 
L 160.439097 28.672734 
L 162.27257 28.041055 
L 164.472736 27.526991 
L 167.406292 27.081962 
L 171.439931 26.711938 
L 177.307042 26.415051 
L 186.718866 26.185726 
L 203.831274 26.023529 
L 208.720533 26.000104 
L 208.720533 26.000104 
" clip-path="url(#pf425f8eb22)" style="fill: none; stroke: #23456f; stroke-width: 2.25; stroke-linecap: round"/>
   </g>
   <g id="line2d_15">
    <path d="M 226.121101 26.000104 
L 249.589546 26.210622 
L 259.734759 26.504716 
L 265.479639 26.877498 
L 269.268815 27.335319 
L 271.957907 27.876844 
L 273.913611 28.480151 
L 275.50262 29.190335 
L 276.847167 30.036897 
L 277.94725 30.985537 
L 278.925102 32.115127 
L 279.780722 33.421134 
L 280.636343 35.149526 
L 281.369731 37.101928 
L 282.10312 39.658376 
L 282.836509 43.039409 
L 283.569898 47.521176 
L 284.303287 53.375615 
L 285.281139 63.307908 
L 286.381222 74.437852 
L 286.870148 77.213111 
L 287.114611 77.706786 
L 287.236843 77.706786 
L 287.481306 77.213111 
L 287.848 75.32899 
L 288.336926 71.172842 
L 290.781556 47.521176 
L 291.637176 42.407435 
L 292.492796 38.726782 
L 293.348417 36.061614 
L 294.204037 34.101241 
L 295.181889 32.45314 
L 296.159741 31.238474 
L 297.259824 30.224176 
L 298.482139 29.394281 
L 299.948917 28.672734 
L 301.782389 28.041055 
L 303.982556 27.526991 
L 306.916111 27.081962 
L 310.94975 26.711938 
L 316.816861 26.415051 
L 326.228686 26.185726 
L 343.341093 26.023529 
L 348.230352 26.000104 
L 348.230352 26.000104 
" clip-path="url(#pf425f8eb22)" style="fill: none; stroke: #23456f; stroke-width: 2.25; stroke-linecap: round"/>
   </g>
   <g id="line2d_16">
    <path d="M 365.020374 26.000104 
L 388.488819 26.210622 
L 398.634032 26.504716 
L 404.378912 26.877498 
L 408.168088 27.335319 
L 410.85718 27.876844 
L 412.812884 28.480151 
L 414.401893 29.190335 
L 415.74644 30.036897 
L 416.846523 30.985537 
L 417.824375 32.115127 
L 418.679995 33.421134 
L 419.535616 35.149526 
L 420.269005 37.101928 
L 421.002393 39.658376 
L 421.735782 43.039409 
L 422.469171 47.521176 
L 423.20256 53.375615 
L 424.180412 63.307908 
L 425.280495 74.437852 
L 425.769421 77.213111 
L 426.013884 77.706786 
L 426.136116 77.706786 
L 426.380579 77.213111 
L 426.747273 75.32899 
L 427.236199 71.172842 
L 429.680829 47.521176 
L 430.536449 42.407435 
L 431.392069 38.726782 
L 432.24769 36.061614 
L 433.10331 34.101241 
L 434.081162 32.45314 
L 435.059014 31.238474 
L 436.159097 30.224176 
L 437.381412 29.394281 
L 438.84819 28.672734 
L 440.681662 28.041055 
L 442.881829 27.526991 
L 445.815384 27.081962 
L 449.849023 26.711938 
L 455.716135 26.415051 
L 465.127959 26.185726 
L 482.240366 26.023529 
L 487.129626 26.000104 
L 487.129626 26.000104 
" clip-path="url(#pf425f8eb22)" style="fill: none; stroke: #23456f; stroke-width: 2.25; stroke-linecap: round"/>
   </g>
   <g id="line2d_17">
    <path d="M 503.309101 26.000104 
L 526.777546 26.210622 
L 536.922759 26.504716 
L 542.667639 26.877498 
L 546.456815 27.335319 
L 549.145907 27.876844 
L 551.101611 28.480151 
L 552.69062 29.190335 
L 554.035167 30.036897 
L 555.13525 30.985537 
L 556.113102 32.115127 
L 556.968722 33.421134 
L 557.824343 35.149526 
L 558.557731 37.101928 
L 559.29112 39.658376 
L 560.024509 43.039409 
L 560.757898 47.521176 
L 561.491287 53.375615 
L 562.469139 63.307908 
L 563.569222 74.437852 
L 564.058148 77.213111 
L 564.302611 77.706786 
L 564.424843 77.706786 
L 564.669306 77.213111 
L 565.036 75.32899 
L 565.524926 71.172842 
L 567.969556 47.521176 
L 568.825176 42.407435 
L 569.680796 38.726782 
L 570.536417 36.061614 
L 571.392037 34.101241 
L 572.369889 32.45314 
L 573.347741 31.238474 
L 574.447824 30.224176 
L 575.670139 29.394281 
L 577.136917 28.672734 
L 578.970389 28.041055 
L 581.170556 27.526991 
L 584.104111 27.081962 
L 588.13775 26.711938 
L 594.004861 26.415051 
L 603.416686 26.185726 
L 620.529093 26.023529 
L 625.418352 26.000104 
L 625.418352 26.000104 
" clip-path="url(#pf425f8eb22)" style="fill: none; stroke: #23456f; stroke-width: 2.25; stroke-linecap: round"/>
   </g>
   <g id="line2d_18">
    <path d="M 640.987282 26.000104 
L 664.455727 26.210622 
L 674.60094 26.504716 
L 680.345819 26.877498 
L 684.134995 27.335319 
L 686.824088 27.876844 
L 688.779792 28.480151 
L 690.368801 29.190335 
L 691.713347 30.036897 
L 692.813431 30.985537 
L 693.791282 32.115127 
L 694.646903 33.421134 
L 695.502523 35.149526 
L 696.235912 37.101928 
L 696.969301 39.658376 
L 697.70269 43.039409 
L 698.436079 47.521176 
L 699.169468 53.375615 
L 700.14732 63.307908 
L 701.247403 74.437852 
L 701.736329 77.213111 
L 701.980792 77.706786 
L 702.103023 77.706786 
L 702.347486 77.213111 
L 702.714181 75.32899 
L 703.203107 71.172842 
L 705.647736 47.521176 
L 706.503357 42.407435 
L 707.358977 38.726782 
L 708.214597 36.061614 
L 709.070218 34.101241 
L 710.04807 32.45314 
L 711.025921 31.238474 
L 712.126005 30.224176 
L 713.34832 29.394281 
L 714.815097 28.672734 
L 716.64857 28.041055 
L 718.848736 27.526991 
L 721.782292 27.081962 
L 725.815931 26.711938 
L 731.683042 26.415051 
L 741.094866 26.185726 
L 758.207274 26.023529 
L 763.096533 26.000104 
L 763.096533 26.000104 
" clip-path="url(#pf425f8eb22)" style="fill: none; stroke: #23456f; stroke-width: 2.25; stroke-linecap: round"/>
   </g>
   <g id="line2d_19">
    <path d="M 778.054916 26.000104 
L 793 26.097095 
L 793 26.097095 
" clip-path="url(#pf425f8eb22)" style="fill: none; stroke: #23456f; stroke-width: 2.25; stroke-linecap: round"/>
   </g>
   <g id="line2d_20">
    <path d="M 0 0 
" clip-path="url(#pf425f8eb22)" style="fill: none; stroke: #23456f; stroke-width: 2.25; stroke-linecap: round"/>
   </g>
   <g id="line2d_21">
    <path clip-path="url(#pf425f8eb22)" style="fill: none; stroke: #285c9d; stroke-width: 2.25; stroke-linecap: round"/>
   </g>
   <g id="line2d_22">
    <path clip-path="url(#pf425f8eb22)" style="fill: none; stroke: #285c9d; stroke-width: 2.25; stroke-linecap: round"/>
   </g>
   <g id="line2d_23">
    <path clip-path="url(#pf425f8eb22)" style="fill: none; stroke: #285c9d; stroke-width: 2.25; stroke-linecap: round"/>
   </g>
   <g id="line2d_24">
    <path clip-path="url(#pf425f8eb22)" style="fill: none; stroke: #285c9d; stroke-width: 2.25; stroke-linecap: round"/>
   </g>
   <g id="line2d_25">
    <path clip-path="url(#pf425f8eb22)" style="fill: none; stroke: #285c9d; stroke-width: 2.25; stroke-linecap: round"/>
   </g>
   <g id="line2d_26">
    <path d="M 5.166962 88.612351 
L 5.783675 88.633522 
L 6.400389 88.656024 
L 7.017102 88.679972 
L 7.633815 88.705491 
L 8.250529 88.732722 
L 8.867242 88.761821 
L 9.483955 88.792961 
L 10.100669 88.826337 
L 10.717382 88.862167 
L 11.334096 88.900696 
L 11.950809 88.942202 
L 12.567522 88.986996 
L 13.184236 89.035434 
L 13.800949 89.087918 
L 14.417663 89.144909 
L 15.034376 89.206934 
L 15.651089 89.274599 
L 16.267803 89.348603 
L 16.884516 89.429756 
L 17.50123 89.518998 
L 18.117943 89.617432 
L 18.734656 89.726349 
L 19.35137 89.847272 
L 19.968083 89.982009 
L 20.584796 90.132716 
L 21.20151 90.301978 
L 21.818223 90.492916 
L 22.434937 90.709322 
L 23.05165 90.955834 
L 23.668363 91.238171 
L 24.285077 91.563436 
L 24.90179 91.940524 
L 25.518504 92.38067 
L 26.135217 92.898195 
L 26.75193 93.511515 
L 27.368644 94.24453 
L 27.985357 95.128534 
L 28.602071 96.204822 
L 29.218784 97.52821 
L 29.835497 99.171624 
L 30.452211 101.231609 
L 31.068924 103.833671 
L 31.685637 107.133721 
L 32.302351 111.305542 
L 32.919064 116.49109 
L 33.535778 122.671278 
L 34.152491 129.416557 
L 34.769204 135.594318 
L 35.385918 139.431942 
L 36.002631 139.431942 
L 36.619345 135.594318 
L 37.236058 129.416557 
L 37.852771 122.671278 
L 38.469485 116.49109 
L 39.086198 111.305542 
L 39.702912 107.133721 
L 40.319625 103.833671 
L 40.936338 101.231609 
L 41.553052 99.171624 
L 42.169765 97.52821 
L 42.786478 96.204822 
L 43.403192 95.128534 
L 44.019905 94.24453 
L 44.636619 93.511515 
L 45.253332 92.898195 
L 45.870045 92.38067 
L 46.486759 91.940524 
L 47.103472 91.563436 
L 47.720186 91.238171 
L 48.336899 90.955834 
L 48.953612 90.709322 
L 49.570326 90.492916 
L 50.187039 90.301978 
L 50.803753 90.132716 
L 51.420466 89.982009 
L 52.037179 89.847272 
L 52.653893 89.726349 
L 53.270606 89.617432 
L 53.887319 89.518998 
L 54.504033 89.429756 
L 55.120746 89.348603 
L 55.73746 89.274599 
L 56.354173 89.206934 
L 56.970886 89.144909 
L 57.5876 89.087918 
L 58.204313 89.035434 
L 58.821027 88.986996 
L 59.43774 88.942202 
L 60.054453 88.900696 
L 60.671167 88.862167 
L 61.28788 88.826337 
L 61.904594 88.792961 
L 62.521307 88.761821 
L 63.13802 88.732722 
L 63.754734 88.705491 
L 64.371447 88.679972 
L 64.98816 88.656024 
L 65.604874 88.633522 
L 66.221587 88.612351 
" clip-path="url(#pf425f8eb22)" style="fill: none; stroke: #285c9d; stroke-width: 2.25; stroke-linecap: round"/>
   </g>
   <g id="line2d_27">
    <path d="M 90.569662 88.612351 
L 91.186375 88.633522 
L 91.803089 88.656024 
L 92.419802 88.679972 
L 93.036515 88.705491 
L 93.653229 88.732722 
L 94.269942 88.761821 
L 94.886656 88.792961 
L 95.503369 88.826337 
L 96.120082 88.862167 
L 96.736796 88.900696 
L 97.353509 88.942202 
L 97.970223 88.986996 
L 98.586936 89.035434 
L 99.203649 89.087918 
L 99.820363 89.144909 
L 100.437076 89.206934 
L 101.05379 89.274599 
L 101.670503 89.348603 
L 102.287216 89.429756 
L 102.90393 89.518998 
L 103.520643 89.617432 
L 104.137356 89.726349 
L 104.75407 89.847272 
L 105.370783 89.982009 
L 105.987497 90.132716 
L 106.60421 90.301978 
L 107.220923 90.492916 
L 107.837637 90.709322 
L 108.45435 90.955834 
L 109.071064 91.238171 
L 109.687777 91.563436 
L 110.30449 91.940524 
L 110.921204 92.38067 
L 111.537917 92.898195 
L 112.154631 93.511515 
L 112.771344 94.24453 
L 113.388057 95.128534 
L 114.004771 96.204822 
L 114.621484 97.52821 
L 115.238197 99.171624 
L 115.854911 101.231609 
L 116.471624 103.833671 
L 117.088338 107.133721 
L 117.705051 111.305542 
L 118.321764 116.49109 
L 118.938478 122.671278 
L 119.555191 129.416557 
L 120.171905 135.594318 
L 120.788618 139.431942 
L 121.405331 139.431942 
L 122.022045 135.594318 
L 122.638758 129.416557 
L 123.255472 122.671278 
L 123.872185 116.49109 
L 124.488898 111.305542 
L 125.105612 107.133721 
L 125.722325 103.833671 
L 126.339038 101.231609 
L 126.955752 99.171624 
L 127.572465 97.52821 
L 128.189179 96.204822 
L 128.805892 95.128534 
L 129.422605 94.24453 
L 130.039319 93.511515 
L 130.656032 92.898195 
L 131.272746 92.38067 
L 131.889459 91.940524 
L 132.506172 91.563436 
L 133.122886 91.238171 
L 133.739599 90.955834 
L 134.356313 90.709322 
L 134.973026 90.492916 
L 135.589739 90.301978 
L 136.206453 90.132716 
L 136.823166 89.982009 
L 137.439879 89.847272 
L 138.056593 89.726349 
L 138.673306 89.617432 
L 139.29002 89.518998 
L 139.906733 89.429756 
L 140.523446 89.348603 
L 141.14016 89.274599 
L 141.756873 89.206934 
L 142.373587 89.144909 
L 142.9903 89.087918 
L 143.607013 89.035434 
L 144.223727 88.986996 
L 144.84044 88.942202 
L 145.457154 88.900696 
L 146.073867 88.862167 
L 146.69058 88.826337 
L 147.307294 88.792961 
L 147.924007 88.761821 
L 148.54072 88.732722 
L 149.157434 88.705491 
L 149.774147 88.679972 
L 150.390861 88.656024 
L 151.007574 88.633522 
L 151.624287 88.612351 
" clip-path="url(#pf425f8eb22)" style="fill: none; stroke: #285c9d; stroke-width: 2.25; stroke-linecap: round"/>
   </g>
   <g id="line2d_28">
    <path d="M 172.309085 88.612351 
L 172.925798 88.633522 
L 173.542511 88.656024 
L 174.159225 88.679972 
L 174.775938 88.705491 
L 175.392651 88.732722 
L 176.009365 88.761821 
L 176.626078 88.792961 
L 177.242792 88.826337 
L 177.859505 88.862167 
L 178.476218 88.900696 
L 179.092932 88.942202 
L 179.709645 88.986996 
L 180.326359 89.035434 
L 180.943072 89.087918 
L 181.559785 89.144909 
L 182.176499 89.206934 
L 182.793212 89.274599 
L 183.409926 89.348603 
L 184.026639 89.429756 
L 184.643352 89.518998 
L 185.260066 89.617432 
L 185.876779 89.726349 
L 186.493492 89.847272 
L 187.110206 89.982009 
L 187.726919 90.132716 
L 188.343633 90.301978 
L 188.960346 90.492916 
L 189.577059 90.709322 
L 190.193773 90.955834 
L 190.810486 91.238171 
L 191.4272 91.563436 
L 192.043913 91.940524 
L 192.660626 92.38067 
L 193.27734 92.898195 
L 193.894053 93.511515 
L 194.510767 94.24453 
L 195.12748 95.128534 
L 195.744193 96.204822 
L 196.360907 97.52821 
L 196.97762 99.171624 
L 197.594333 101.231609 
L 198.211047 103.833671 
L 198.82776 107.133721 
L 199.444474 111.305542 
L 200.061187 116.49109 
L 200.6779 122.671278 
L 201.294614 129.416557 
L 201.911327 135.594318 
L 202.528041 139.431942 
L 203.144754 139.431942 
L 203.761467 135.594318 
L 204.378181 129.416557 
L 204.994894 122.671278 
L 205.611608 116.49109 
L 206.228321 111.305542 
L 206.845034 107.133721 
L 207.461748 103.833671 
L 208.078461 101.231609 
L 208.695174 99.171624 
L 209.311888 97.52821 
L 209.928601 96.204822 
L 210.545315 95.128534 
L 211.162028 94.24453 
L 211.778741 93.511515 
L 212.395455 92.898195 
L 213.012168 92.38067 
L 213.628882 91.940524 
L 214.245595 91.563436 
L 214.862308 91.238171 
L 215.479022 90.955834 
L 216.095735 90.709322 
L 216.712449 90.492916 
L 217.329162 90.301978 
L 217.945875 90.132716 
L 218.562589 89.982009 
L 219.179302 89.847272 
L 219.796016 89.726349 
L 220.412729 89.617432 
L 221.029442 89.518998 
L 221.646156 89.429756 
L 222.262869 89.348603 
L 222.879582 89.274599 
L 223.496296 89.206934 
L 224.113009 89.144909 
L 224.729723 89.087918 
L 225.346436 89.035434 
L 225.963149 88.986996 
L 226.579863 88.942202 
L 227.196576 88.900696 
L 227.81329 88.862167 
L 228.430003 88.826337 
L 229.046716 88.792961 
L 229.66343 88.761821 
L 230.280143 88.732722 
L 230.896857 88.705491 
L 231.51357 88.679972 
L 232.130283 88.656024 
L 232.746997 88.633522 
L 233.36371 88.612351 
" clip-path="url(#pf425f8eb22)" style="fill: none; stroke: #285c9d; stroke-width: 2.25; stroke-linecap: round"/>
   </g>
   <g id="line2d_29">
    <path d="M 250.38523 88.612351 
L 251.001943 88.633522 
L 251.618656 88.656024 
L 252.23537 88.679972 
L 252.852083 88.705491 
L 253.468797 88.732722 
L 254.08551 88.761821 
L 254.702223 88.792961 
L 255.318937 88.826337 
L 255.93565 88.862167 
L 256.552364 88.900696 
L 257.169077 88.942202 
L 257.78579 88.986996 
L 258.402504 89.035434 
L 259.019217 89.087918 
L 259.63593 89.144909 
L 260.252644 89.206934 
L 260.869357 89.274599 
L 261.486071 89.348603 
L 262.102784 89.429756 
L 262.719497 89.518998 
L 263.336211 89.617432 
L 263.952924 89.726349 
L 264.569638 89.847272 
L 265.186351 89.982009 
L 265.803064 90.132716 
L 266.419778 90.301978 
L 267.036491 90.492916 
L 267.653205 90.709322 
L 268.269918 90.955834 
L 268.886631 91.238171 
L 269.503345 91.563436 
L 270.120058 91.940524 
L 270.736771 92.38067 
L 271.353485 92.898195 
L 271.970198 93.511515 
L 272.586912 94.24453 
L 273.203625 95.128534 
L 273.820338 96.204822 
L 274.437052 97.52821 
L 275.053765 99.171624 
L 275.670479 101.231609 
L 276.287192 103.833671 
L 276.903905 107.133721 
L 277.520619 111.305542 
L 278.137332 116.49109 
L 278.754046 122.671278 
L 279.370759 129.416557 
L 279.987472 135.594318 
L 280.604186 139.431942 
L 281.220899 139.431942 
L 281.837612 135.594318 
L 282.454326 129.416557 
L 283.071039 122.671278 
L 283.687753 116.49109 
L 284.304466 111.305542 
L 284.921179 107.133721 
L 285.537893 103.833671 
L 286.154606 101.231609 
L 286.77132 99.171624 
L 287.388033 97.52821 
L 288.004746 96.204822 
L 288.62146 95.128534 
L 289.238173 94.24453 
L 289.854887 93.511515 
L 290.4716 92.898195 
L 291.088313 92.38067 
L 291.705027 91.940524 
L 292.32174 91.563436 
L 292.938453 91.238171 
L 293.555167 90.955834 
L 294.17188 90.709322 
L 294.788594 90.492916 
L 295.405307 90.301978 
L 296.02202 90.132716 
L 296.638734 89.982009 
L 297.255447 89.847272 
L 297.872161 89.726349 
L 298.488874 89.617432 
L 299.105587 89.518998 
L 299.722301 89.429756 
L 300.339014 89.348603 
L 300.955728 89.274599 
L 301.572441 89.206934 
L 302.189154 89.144909 
L 302.805868 89.087918 
L 303.422581 89.035434 
L 304.039295 88.986996 
L 304.656008 88.942202 
L 305.272721 88.900696 
L 305.889435 88.862167 
L 306.506148 88.826337 
L 307.122861 88.792961 
L 307.739575 88.761821 
L 308.356288 88.732722 
L 308.973002 88.705491 
L 309.589715 88.679972 
L 310.206428 88.656024 
L 310.823142 88.633522 
L 311.439855 88.612351 
" clip-path="url(#pf425f8eb22)" style="fill: none; stroke: #285c9d; stroke-width: 2.25; stroke-linecap: round"/>
   </g>
   <g id="line2d_30">
    <path d="M 324.798097 88.612351 
L 325.414811 88.633522 
L 326.031524 88.656024 
L 326.648237 88.679972 
L 327.264951 88.705491 
L 327.881664 88.732722 
L 328.498378 88.761821 
L 329.115091 88.792961 
L 329.731804 88.826337 
L 330.348518 88.862167 
L 330.965231 88.900696 
L 331.581944 88.942202 
L 332.198658 88.986996 
L 332.815371 89.035434 
L 333.432085 89.087918 
L 334.048798 89.144909 
L 334.665511 89.206934 
L 335.282225 89.274599 
L 335.898938 89.348603 
L 336.515652 89.429756 
L 337.132365 89.518998 
L 337.749078 89.617432 
L 338.365792 89.726349 
L 338.982505 89.847272 
L 339.599219 89.982009 
L 340.215932 90.132716 
L 340.832645 90.301978 
L 341.449359 90.492916 
L 342.066072 90.709322 
L 342.682785 90.955834 
L 343.299499 91.238171 
L 343.916212 91.563436 
L 344.532926 91.940524 
L 345.149639 92.38067 
L 345.766352 92.898195 
L 346.383066 93.511515 
L 346.999779 94.24453 
L 347.616493 95.128534 
L 348.233206 96.204822 
L 348.849919 97.52821 
L 349.466633 99.171624 
L 350.083346 101.231609 
L 350.70006 103.833671 
L 351.316773 107.133721 
L 351.933486 111.305542 
L 352.5502 116.49109 
L 353.166913 122.671278 
L 353.783626 129.416557 
L 354.40034 135.594318 
L 355.017053 139.431942 
L 355.633767 139.431942 
L 356.25048 135.594318 
L 356.867193 129.416557 
L 357.483907 122.671278 
L 358.10062 116.49109 
L 358.717334 111.305542 
L 359.334047 107.133721 
L 359.95076 103.833671 
L 360.567474 101.231609 
L 361.184187 99.171624 
L 361.800901 97.52821 
L 362.417614 96.204822 
L 363.034327 95.128534 
L 363.651041 94.24453 
L 364.267754 93.511515 
L 364.884468 92.898195 
L 365.501181 92.38067 
L 366.117894 91.940524 
L 366.734608 91.563436 
L 367.351321 91.238171 
L 367.968034 90.955834 
L 368.584748 90.709322 
L 369.201461 90.492916 
L 369.818175 90.301978 
L 370.434888 90.132716 
L 371.051601 89.982009 
L 371.668315 89.847272 
L 372.285028 89.726349 
L 372.901742 89.617432 
L 373.518455 89.518998 
L 374.135168 89.429756 
L 374.751882 89.348603 
L 375.368595 89.274599 
L 375.985309 89.206934 
L 376.602022 89.144909 
L 377.218735 89.087918 
L 377.835449 89.035434 
L 378.452162 88.986996 
L 379.068875 88.942202 
L 379.685589 88.900696 
L 380.302302 88.862167 
L 380.919016 88.826337 
L 381.535729 88.792961 
L 382.152442 88.761821 
L 382.769156 88.732722 
L 383.385869 88.705491 
L 384.002583 88.679972 
L 384.619296 88.656024 
L 385.236009 88.633522 
L 385.852723 88.612351 
" clip-path="url(#pf425f8eb22)" style="fill: none; stroke: #285c9d; stroke-width: 2.25; stroke-linecap: round"/>
   </g>
   <g id="line2d_31">
    <path d="M 395.547687 88.612351 
L 396.164401 88.633522 
L 396.781114 88.656024 
L 397.397827 88.679972 
L 398.014541 88.705491 
L 398.631254 88.732722 
L 399.247968 88.761821 
L 399.864681 88.792961 
L 400.481394 88.826337 
L 401.098108 88.862167 
L 401.714821 88.900696 
L 402.331535 88.942202 
L 402.948248 88.986996 
L 403.564961 89.035434 
L 404.181675 89.087918 
L 404.798388 89.144909 
L 405.415101 89.206934 
L 406.031815 89.274599 
L 406.648528 89.348603 
L 407.265242 89.429756 
L 407.881955 89.518998 
L 408.498668 89.617432 
L 409.115382 89.726349 
L 409.732095 89.847272 
L 410.348809 89.982009 
L 410.965522 90.132716 
L 411.582235 90.301978 
L 412.198949 90.492916 
L 412.815662 90.709322 
L 413.432376 90.955834 
L 414.049089 91.238171 
L 414.665802 91.563436 
L 415.282516 91.940524 
L 415.899229 92.38067 
L 416.515942 92.898195 
L 417.132656 93.511515 
L 417.749369 94.24453 
L 418.366083 95.128534 
L 418.982796 96.204822 
L 419.599509 97.52821 
L 420.216223 99.171624 
L 420.832936 101.231609 
L 421.44965 103.833671 
L 422.066363 107.133721 
L 422.683076 111.305542 
L 423.29979 116.49109 
L 423.916503 122.671278 
L 424.533217 129.416557 
L 425.14993 135.594318 
L 425.766643 139.431942 
L 426.383357 139.431942 
L 427.00007 135.594318 
L 427.616783 129.416557 
L 428.233497 122.671278 
L 428.85021 116.49109 
L 429.466924 111.305542 
L 430.083637 107.133721 
L 430.70035 103.833671 
L 431.317064 101.231609 
L 431.933777 99.171624 
L 432.550491 97.52821 
L 433.167204 96.204822 
L 433.783917 95.128534 
L 434.400631 94.24453 
L 435.017344 93.511515 
L 435.634058 92.898195 
L 436.250771 92.38067 
L 436.867484 91.940524 
L 437.484198 91.563436 
L 438.100911 91.238171 
L 438.717624 90.955834 
L 439.334338 90.709322 
L 439.951051 90.492916 
L 440.567765 90.301978 
L 441.184478 90.132716 
L 441.801191 89.982009 
L 442.417905 89.847272 
L 443.034618 89.726349 
L 443.651332 89.617432 
L 444.268045 89.518998 
L 444.884758 89.429756 
L 445.501472 89.348603 
L 446.118185 89.274599 
L 446.734899 89.206934 
L 447.351612 89.144909 
L 447.968325 89.087918 
L 448.585039 89.035434 
L 449.201752 88.986996 
L 449.818465 88.942202 
L 450.435179 88.900696 
L 451.051892 88.862167 
L 451.668606 88.826337 
L 452.285319 88.792961 
L 452.902032 88.761821 
L 453.518746 88.732722 
L 454.135459 88.705491 
L 454.752173 88.679972 
L 455.368886 88.656024 
L 455.985599 88.633522 
L 456.602313 88.612351 
" clip-path="url(#pf425f8eb22)" style="fill: none; stroke: #285c9d; stroke-width: 2.25; stroke-linecap: round"/>
   </g>
   <g id="line2d_32">
    <path d="M 462.634 88.612351 
L 463.250713 88.633522 
L 463.867427 88.656024 
L 464.48414 88.679972 
L 465.100853 88.705491 
L 465.717567 88.732722 
L 466.33428 88.761821 
L 466.950993 88.792961 
L 467.567707 88.826337 
L 468.18442 88.862167 
L 468.801134 88.900696 
L 469.417847 88.942202 
L 470.03456 88.986996 
L 470.651274 89.035434 
L 471.267987 89.087918 
L 471.884701 89.144909 
L 472.501414 89.206934 
L 473.118127 89.274599 
L 473.734841 89.348603 
L 474.351554 89.429756 
L 474.968268 89.518998 
L 475.584981 89.617432 
L 476.201694 89.726349 
L 476.818408 89.847272 
L 477.435121 89.982009 
L 478.051834 90.132716 
L 478.668548 90.301978 
L 479.285261 90.492916 
L 479.901975 90.709322 
L 480.518688 90.955834 
L 481.135401 91.238171 
L 481.752115 91.563436 
L 482.368828 91.940524 
L 482.985542 92.38067 
L 483.602255 92.898195 
L 484.218968 93.511515 
L 484.835682 94.24453 
L 485.452395 95.128534 
L 486.069109 96.204822 
L 486.685822 97.52821 
L 487.302535 99.171624 
L 487.919249 101.231609 
L 488.535962 103.833671 
L 489.152675 107.133721 
L 489.769389 111.305542 
L 490.386102 116.49109 
L 491.002816 122.671278 
L 491.619529 129.416557 
L 492.236242 135.594318 
L 492.852956 139.431942 
L 493.469669 139.431942 
L 494.086383 135.594318 
L 494.703096 129.416557 
L 495.319809 122.671278 
L 495.936523 116.49109 
L 496.553236 111.305542 
L 497.16995 107.133721 
L 497.786663 103.833671 
L 498.403376 101.231609 
L 499.02009 99.171624 
L 499.636803 97.52821 
L 500.253516 96.204822 
L 500.87023 95.128534 
L 501.486943 94.24453 
L 502.103657 93.511515 
L 502.72037 92.898195 
L 503.337083 92.38067 
L 503.953797 91.940524 
L 504.57051 91.563436 
L 505.187224 91.238171 
L 505.803937 90.955834 
L 506.42065 90.709322 
L 507.037364 90.492916 
L 507.654077 90.301978 
L 508.270791 90.132716 
L 508.887504 89.982009 
L 509.504217 89.847272 
L 510.120931 89.726349 
L 510.737644 89.617432 
L 511.354357 89.518998 
L 511.971071 89.429756 
L 512.587784 89.348603 
L 513.204498 89.274599 
L 513.821211 89.206934 
L 514.437924 89.144909 
L 515.054638 89.087918 
L 515.671351 89.035434 
L 516.288065 88.986996 
L 516.904778 88.942202 
L 517.521491 88.900696 
L 518.138205 88.862167 
L 518.754918 88.826337 
L 519.371632 88.792961 
L 519.988345 88.761821 
L 520.605058 88.732722 
L 521.221772 88.705491 
L 521.838485 88.679972 
L 522.455198 88.656024 
L 523.071912 88.633522 
L 523.688625 88.612351 
" clip-path="url(#pf425f8eb22)" style="fill: none; stroke: #285c9d; stroke-width: 2.25; stroke-linecap: round"/>
   </g>
   <g id="line2d_33">
    <path d="M 526.057035 88.612351 
L 526.673748 88.633522 
L 527.290461 88.656024 
L 527.907175 88.679972 
L 528.523888 88.705491 
L 529.140602 88.732722 
L 529.757315 88.761821 
L 530.374028 88.792961 
L 530.990742 88.826337 
L 531.607455 88.862167 
L 532.224169 88.900696 
L 532.840882 88.942202 
L 533.457595 88.986996 
L 534.074309 89.035434 
L 534.691022 89.087918 
L 535.307736 89.144909 
L 535.924449 89.206934 
L 536.541162 89.274599 
L 537.157876 89.348603 
L 537.774589 89.429756 
L 538.391302 89.518998 
L 539.008016 89.617432 
L 539.624729 89.726349 
L 540.241443 89.847272 
L 540.858156 89.982009 
L 541.474869 90.132716 
L 542.091583 90.301978 
L 542.708296 90.492916 
L 543.32501 90.709322 
L 543.941723 90.955834 
L 544.558436 91.238171 
L 545.17515 91.563436 
L 545.791863 91.940524 
L 546.408577 92.38067 
L 547.02529 92.898195 
L 547.642003 93.511515 
L 548.258717 94.24453 
L 548.87543 95.128534 
L 549.492143 96.204822 
L 550.108857 97.52821 
L 550.72557 99.171624 
L 551.342284 101.231609 
L 551.958997 103.833671 
L 552.57571 107.133721 
L 553.192424 111.305542 
L 553.809137 116.49109 
L 554.425851 122.671278 
L 555.042564 129.416557 
L 555.659277 135.594318 
L 556.275991 139.431942 
L 556.892704 139.431942 
L 557.509418 135.594318 
L 558.126131 129.416557 
L 558.742844 122.671278 
L 559.359558 116.49109 
L 559.976271 111.305542 
L 560.592985 107.133721 
L 561.209698 103.833671 
L 561.826411 101.231609 
L 562.443125 99.171624 
L 563.059838 97.52821 
L 563.676551 96.204822 
L 564.293265 95.128534 
L 564.909978 94.24453 
L 565.526692 93.511515 
L 566.143405 92.898195 
L 566.760118 92.38067 
L 567.376832 91.940524 
L 567.993545 91.563436 
L 568.610259 91.238171 
L 569.226972 90.955834 
L 569.843685 90.709322 
L 570.460399 90.492916 
L 571.077112 90.301978 
L 571.693826 90.132716 
L 572.310539 89.982009 
L 572.927252 89.847272 
L 573.543966 89.726349 
L 574.160679 89.617432 
L 574.777392 89.518998 
L 575.394106 89.429756 
L 576.010819 89.348603 
L 576.627533 89.274599 
L 577.244246 89.206934 
L 577.860959 89.144909 
L 578.477673 89.087918 
L 579.094386 89.035434 
L 579.7111 88.986996 
L 580.327813 88.942202 
L 580.944526 88.900696 
L 581.56124 88.862167 
L 582.177953 88.826337 
L 582.794667 88.792961 
L 583.41138 88.761821 
L 584.028093 88.732722 
L 584.644807 88.705491 
L 585.26152 88.679972 
L 585.878233 88.656024 
L 586.494947 88.633522 
L 587.11166 88.612351 
" clip-path="url(#pf425f8eb22)" style="fill: none; stroke: #285c9d; stroke-width: 2.25; stroke-linecap: round"/>
   </g>
   <g id="line2d_34">
    <path d="M 585.816792 88.612351 
L 586.433506 88.633522 
L 587.050219 88.656024 
L 587.666932 88.679972 
L 588.283646 88.705491 
L 588.900359 88.732722 
L 589.517072 88.761821 
L 590.133786 88.792961 
L 590.750499 88.826337 
L 591.367213 88.862167 
L 591.983926 88.900696 
L 592.600639 88.942202 
L 593.217353 88.986996 
L 593.834066 89.035434 
L 594.45078 89.087918 
L 595.067493 89.144909 
L 595.684206 89.206934 
L 596.30092 89.274599 
L 596.917633 89.348603 
L 597.534347 89.429756 
L 598.15106 89.518998 
L 598.767773 89.617432 
L 599.384487 89.726349 
L 600.0012 89.847272 
L 600.617913 89.982009 
L 601.234627 90.132716 
L 601.85134 90.301978 
L 602.468054 90.492916 
L 603.084767 90.709322 
L 603.70148 90.955834 
L 604.318194 91.238171 
L 604.934907 91.563436 
L 605.551621 91.940524 
L 606.168334 92.38067 
L 606.785047 92.898195 
L 607.401761 93.511515 
L 608.018474 94.24453 
L 608.635188 95.128534 
L 609.251901 96.204822 
L 609.868614 97.52821 
L 610.485328 99.171624 
L 611.102041 101.231609 
L 611.718754 103.833671 
L 612.335468 107.133721 
L 612.952181 111.305542 
L 613.568895 116.49109 
L 614.185608 122.671278 
L 614.802321 129.416557 
L 615.419035 135.594318 
L 616.035748 139.431942 
L 616.652462 139.431942 
L 617.269175 135.594318 
L 617.885888 129.416557 
L 618.502602 122.671278 
L 619.119315 116.49109 
L 619.736029 111.305542 
L 620.352742 107.133721 
L 620.969455 103.833671 
L 621.586169 101.231609 
L 622.202882 99.171624 
L 622.819595 97.52821 
L 623.436309 96.204822 
L 624.053022 95.128534 
L 624.669736 94.24453 
L 625.286449 93.511515 
L 625.903162 92.898195 
L 626.519876 92.38067 
L 627.136589 91.940524 
L 627.753303 91.563436 
L 628.370016 91.238171 
L 628.986729 90.955834 
L 629.603443 90.709322 
L 630.220156 90.492916 
L 630.83687 90.301978 
L 631.453583 90.132716 
L 632.070296 89.982009 
L 632.68701 89.847272 
L 633.303723 89.726349 
L 633.920437 89.617432 
L 634.53715 89.518998 
L 635.153863 89.429756 
L 635.770577 89.348603 
L 636.38729 89.274599 
L 637.004003 89.206934 
L 637.620717 89.144909 
L 638.23743 89.087918 
L 638.854144 89.035434 
L 639.470857 88.986996 
L 640.08757 88.942202 
L 640.704284 88.900696 
L 641.320997 88.862167 
L 641.937711 88.826337 
L 642.554424 88.792961 
L 643.171137 88.761821 
L 643.787851 88.732722 
L 644.404564 88.705491 
L 645.021278 88.679972 
L 645.637991 88.656024 
L 646.254704 88.633522 
L 646.871418 88.612351 
" clip-path="url(#pf425f8eb22)" style="fill: none; stroke: #285c9d; stroke-width: 2.25; stroke-linecap: round"/>
   </g>
   <g id="line2d_35">
    <path d="M 641.913272 88.612351 
L 642.529985 88.633522 
L 643.146699 88.656024 
L 643.763412 88.679972 
L 644.380126 88.705491 
L 644.996839 88.732722 
L 645.613552 88.761821 
L 646.230266 88.792961 
L 646.846979 88.826337 
L 647.463693 88.862167 
L 648.080406 88.900696 
L 648.697119 88.942202 
L 649.313833 88.986996 
L 649.930546 89.035434 
L 650.547259 89.087918 
L 651.163973 89.144909 
L 651.780686 89.206934 
L 652.3974 89.274599 
L 653.014113 89.348603 
L 653.630826 89.429756 
L 654.24754 89.518998 
L 654.864253 89.617432 
L 655.480967 89.726349 
L 656.09768 89.847272 
L 656.714393 89.982009 
L 657.331107 90.132716 
L 657.94782 90.301978 
L 658.564534 90.492916 
L 659.181247 90.709322 
L 659.79796 90.955834 
L 660.414674 91.238171 
L 661.031387 91.563436 
L 661.6481 91.940524 
L 662.264814 92.38067 
L 662.881527 92.898195 
L 663.498241 93.511515 
L 664.114954 94.24453 
L 664.731667 95.128534 
L 665.348381 96.204822 
L 665.965094 97.52821 
L 666.581808 99.171624 
L 667.198521 101.231609 
L 667.815234 103.833671 
L 668.431948 107.133721 
L 669.048661 111.305542 
L 669.665375 116.49109 
L 670.282088 122.671278 
L 670.898801 129.416557 
L 671.515515 135.594318 
L 672.132228 139.431942 
L 672.748942 139.431942 
L 673.365655 135.594318 
L 673.982368 129.416557 
L 674.599082 122.671278 
L 675.215795 116.49109 
L 675.832508 111.305542 
L 676.449222 107.133721 
L 677.065935 103.833671 
L 677.682649 101.231609 
L 678.299362 99.171624 
L 678.916075 97.52821 
L 679.532789 96.204822 
L 680.149502 95.128534 
L 680.766216 94.24453 
L 681.382929 93.511515 
L 681.999642 92.898195 
L 682.616356 92.38067 
L 683.233069 91.940524 
L 683.849783 91.563436 
L 684.466496 91.238171 
L 685.083209 90.955834 
L 685.699923 90.709322 
L 686.316636 90.492916 
L 686.933349 90.301978 
L 687.550063 90.132716 
L 688.166776 89.982009 
L 688.78349 89.847272 
L 689.400203 89.726349 
L 690.016916 89.617432 
L 690.63363 89.518998 
L 691.250343 89.429756 
L 691.867057 89.348603 
L 692.48377 89.274599 
L 693.100483 89.206934 
L 693.717197 89.144909 
L 694.33391 89.087918 
L 694.950624 89.035434 
L 695.567337 88.986996 
L 696.18405 88.942202 
L 696.800764 88.900696 
L 697.417477 88.862167 
L 698.03419 88.826337 
L 698.650904 88.792961 
L 699.267617 88.761821 
L 699.884331 88.732722 
L 700.501044 88.705491 
L 701.117757 88.679972 
L 701.734471 88.656024 
L 702.351184 88.633522 
L 702.967898 88.612351 
" clip-path="url(#pf425f8eb22)" style="fill: none; stroke: #285c9d; stroke-width: 2.25; stroke-linecap: round"/>
   </g>
   <g id="line2d_36">
    <path d="M 694.346474 88.612351 
L 694.963188 88.633522 
L 695.579901 88.656024 
L 696.196615 88.679972 
L 696.813328 88.705491 
L 697.430041 88.732722 
L 698.046755 88.761821 
L 698.663468 88.792961 
L 699.280182 88.826337 
L 699.896895 88.862167 
L 700.513608 88.900696 
L 701.130322 88.942202 
L 701.747035 88.986996 
L 702.363748 89.035434 
L 702.980462 89.087918 
L 703.597175 89.144909 
L 704.213889 89.206934 
L 704.830602 89.274599 
L 705.447315 89.348603 
L 706.064029 89.429756 
L 706.680742 89.518998 
L 707.297456 89.617432 
L 707.914169 89.726349 
L 708.530882 89.847272 
L 709.147596 89.982009 
L 709.764309 90.132716 
L 710.381023 90.301978 
L 710.997736 90.492916 
L 711.614449 90.709322 
L 712.231163 90.955834 
L 712.847876 91.238171 
L 713.464589 91.563436 
L 714.081303 91.940524 
L 714.698016 92.38067 
L 715.31473 92.898195 
L 715.931443 93.511515 
L 716.548156 94.24453 
L 717.16487 95.128534 
L 717.781583 96.204822 
L 718.398297 97.52821 
L 719.01501 99.171624 
L 719.631723 101.231609 
L 720.248437 103.833671 
L 720.86515 107.133721 
L 721.481864 111.305542 
L 722.098577 116.49109 
L 722.71529 122.671278 
L 723.332004 129.416557 
L 723.948717 135.594318 
L 724.56543 139.431942 
L 725.182144 139.431942 
L 725.798857 135.594318 
L 726.415571 129.416557 
L 727.032284 122.671278 
L 727.648997 116.49109 
L 728.265711 111.305542 
L 728.882424 107.133721 
L 729.499138 103.833671 
L 730.115851 101.231609 
L 730.732564 99.171624 
L 731.349278 97.52821 
L 731.965991 96.204822 
L 732.582705 95.128534 
L 733.199418 94.24453 
L 733.816131 93.511515 
L 734.432845 92.898195 
L 735.049558 92.38067 
L 735.666271 91.940524 
L 736.282985 91.563436 
L 736.899698 91.238171 
L 737.516412 90.955834 
L 738.133125 90.709322 
L 738.749838 90.492916 
L 739.366552 90.301978 
L 739.983265 90.132716 
L 740.599979 89.982009 
L 741.216692 89.847272 
L 741.833405 89.726349 
L 742.450119 89.617432 
L 743.066832 89.518998 
L 743.683546 89.429756 
L 744.300259 89.348603 
L 744.916972 89.274599 
L 745.533686 89.206934 
L 746.150399 89.144909 
L 746.767113 89.087918 
L 747.383826 89.035434 
L 748.000539 88.986996 
L 748.617253 88.942202 
L 749.233966 88.900696 
L 749.850679 88.862167 
L 750.467393 88.826337 
L 751.084106 88.792961 
L 751.70082 88.761821 
L 752.317533 88.732722 
L 752.934246 88.705491 
L 753.55096 88.679972 
L 754.167673 88.656024 
L 754.784387 88.633522 
L 755.4011 88.612351 
" clip-path="url(#pf425f8eb22)" style="fill: none; stroke: #285c9d; stroke-width: 2.25; stroke-linecap: round"/>
   </g>
   <g id="line2d_37">
    <path d="M 743.116399 88.612351 
L 743.733113 88.633522 
L 744.349826 88.656024 
L 744.966539 88.679972 
L 745.583253 88.705491 
L 746.199966 88.732722 
L 746.81668 88.761821 
L 747.433393 88.792961 
L 748.050106 88.826337 
L 748.66682 88.862167 
L 749.283533 88.900696 
L 749.900247 88.942202 
L 750.51696 88.986996 
L 751.133673 89.035434 
L 751.750387 89.087918 
L 752.3671 89.144909 
L 752.983813 89.206934 
L 753.600527 89.274599 
L 754.21724 89.348603 
L 754.833954 89.429756 
L 755.450667 89.518998 
L 756.06738 89.617432 
L 756.684094 89.726349 
L 757.300807 89.847272 
L 757.917521 89.982009 
L 758.534234 90.132716 
L 759.150947 90.301978 
L 759.767661 90.492916 
L 760.384374 90.709322 
L 761.001088 90.955834 
L 761.617801 91.238171 
L 762.234514 91.563436 
L 762.851228 91.940524 
L 763.467941 92.38067 
L 764.084654 92.898195 
L 764.701368 93.511515 
L 765.318081 94.24453 
L 765.934795 95.128534 
L 766.551508 96.204822 
L 767.168221 97.52821 
L 767.784935 99.171624 
L 768.401648 101.231609 
L 769.018362 103.833671 
L 769.635075 107.133721 
L 770.251788 111.305542 
L 770.868502 116.49109 
L 771.485215 122.671278 
L 772.101929 129.416557 
L 772.718642 135.594318 
L 773.335355 139.431942 
L 773.952069 139.431942 
L 774.568782 135.594318 
L 775.185495 129.416557 
L 775.802209 122.671278 
L 776.418922 116.49109 
L 777.035636 111.305542 
L 777.652349 107.133721 
L 778.269062 103.833671 
L 778.885776 101.231609 
L 779.502489 99.171624 
L 780.119203 97.52821 
L 780.735916 96.204822 
L 781.352629 95.128534 
L 781.969343 94.24453 
L 782.586056 93.511515 
L 783.20277 92.898195 
L 783.819483 92.38067 
L 784.436196 91.940524 
L 785.05291 91.563436 
L 785.669623 91.238171 
L 786.286336 90.955834 
L 786.90305 90.709322 
L 787.519763 90.492916 
L 788.136477 90.301978 
L 788.75319 90.132716 
L 789.369903 89.982009 
L 789.986617 89.847272 
L 790.60333 89.726349 
L 791.220044 89.617432 
L 791.836757 89.518998 
L 792.45347 89.429756 
L 793 89.357839 
" clip-path="url(#pf425f8eb22)" style="fill: none; stroke: #285c9d; stroke-width: 2.25; stroke-linecap: round"/>
   </g>
   <g id="line2d_38">
    <path d="M 788.223047 88.612351 
L 788.83976 88.633522 
L 789.456473 88.656024 
L 790.073187 88.679972 
L 790.6899 88.705491 
L 791.306613 88.732722 
L 791.923327 88.761821 
L 792.54004 88.792961 
L 793 88.817853 
" clip-path="url(#pf425f8eb22)" style="fill: none; stroke: #285c9d; stroke-width: 2.25; stroke-linecap: round"/>
   </g>
   <g id="line2d_39">
    <path clip-path="url(#pf425f8eb22)" style="fill: none; stroke: #285c9d; stroke-width: 2.25; stroke-linecap: round"/>
   </g>
   <g id="line2d_40">
    <path clip-path="url(#pf425f8eb22)" style="fill: none; stroke: #285c9d; stroke-width: 2.25; stroke-linecap: round"/>
   </g>
   <g id="patch_3">
    <path d="M 79.59 145.11 
L 79.59 20.192727 
" style="fill: none; stroke: #ffffff; stroke-width: 1.875; stroke-linejoin: miter; stroke-linecap: square"/>
   </g>
   <g id="patch_4">
    <path d="M 772.56 145.11 
L 772.56 20.192727 
" style="fill: none; stroke: #ffffff; stroke-width: 1.875; stroke-linejoin: miter; stroke-linecap: square"/>
   </g>
   <g id="patch_5">
    <path d="M 79.59 145.11 
L 772.56 145.11 
" style="fill: none; stroke: #ffffff; stroke-width: 1.875; stroke-linejoin: miter; stroke-linecap: square"/>
   </g>
   <g id="patch_6">
    <path d="M 79.59 20.192727 
L 772.56 20.192727 
" style="fill: none; stroke: #ffffff; stroke-width: 1.875; stroke-linejoin: miter; stroke-linecap: square"/>
   </g>
  </g>
  <g id="axes_2">
   <g id="patch_7">
    <path d="M 79.59 290.22 
L 772.56 290.22 
L 772.56 165.302727 
L 79.59 165.302727 
z
" style="fill: #eaeaf2"/>
   </g>
   <g id="matplotlib.axis_3">
    <g id="xtick_8">
     <g id="line2d_41">
      <path d="M 110.570622 290.22 
L 110.570622 165.302727 
" clip-path="url(#pf5c62aca7b)" style="fill: none; stroke: #ffffff; stroke-width: 1.5; stroke-linecap: round"/>
     </g>
     <g id="text_4">
      <!-- 193.25 -->
      <g style="fill: #262626" transform="translate(81.703356 315.257422) scale(0.165 -0.165)">
       <defs>
        <path id="DejaVuSans-39" d="M 703 97 
L 703 672 
Q 941 559 1184 500 
Q 1428 441 1663 441 
Q 2288 441 2617 861 
Q 2947 1281 2994 2138 
Q 2813 1869 2534 1725 
Q 2256 1581 1919 1581 
Q 1219 1581 811 2004 
Q 403 2428 403 3163 
Q 403 3881 828 4315 
Q 1253 4750 1959 4750 
Q 2769 4750 3195 4129 
Q 3622 3509 3622 2328 
Q 3622 1225 3098 567 
Q 2575 -91 1691 -91 
Q 1453 -91 1209 -44 
Q 966 3 703 97 
z
M 1959 2075 
Q 2384 2075 2632 2365 
Q 2881 2656 2881 3163 
Q 2881 3666 2632 3958 
Q 2384 4250 1959 4250 
Q 1534 4250 1286 3958 
Q 1038 3666 1038 3163 
Q 1038 2656 1286 2365 
Q 1534 2075 1959 2075 
z
" transform="scale(0.015625)"/>
        <path id="DejaVuSans-33" d="M 2597 2516 
Q 3050 2419 3304 2112 
Q 3559 1806 3559 1356 
Q 3559 666 3084 287 
Q 2609 -91 1734 -91 
Q 1441 -91 1130 -33 
Q 819 25 488 141 
L 488 750 
Q 750 597 1062 519 
Q 1375 441 1716 441 
Q 2309 441 2620 675 
Q 2931 909 2931 1356 
Q 2931 1769 2642 2001 
Q 2353 2234 1838 2234 
L 1294 2234 
L 1294 2753 
L 1863 2753 
Q 2328 2753 2575 2939 
Q 2822 3125 2822 3475 
Q 2822 3834 2567 4026 
Q 2313 4219 1838 4219 
Q 1578 4219 1281 4162 
Q 984 4106 628 3988 
L 628 4550 
Q 988 4650 1302 4700 
Q 1616 4750 1894 4750 
Q 2613 4750 3031 4423 
Q 3450 4097 3450 3541 
Q 3450 3153 3228 2886 
Q 3006 2619 2597 2516 
z
" transform="scale(0.015625)"/>
        <path id="DejaVuSans-32" d="M 1228 531 
L 3431 531 
L 3431 0 
L 469 0 
L 469 531 
Q 828 903 1448 1529 
Q 2069 2156 2228 2338 
Q 2531 2678 2651 2914 
Q 2772 3150 2772 3378 
Q 2772 3750 2511 3984 
Q 2250 4219 1831 4219 
Q 1534 4219 1204 4116 
Q 875 4013 500 3803 
L 500 4441 
Q 881 4594 1212 4672 
Q 1544 4750 1819 4750 
Q 2544 4750 2975 4387 
Q 3406 4025 3406 3419 
Q 3406 3131 3298 2873 
Q 3191 2616 2906 2266 
Q 2828 2175 2409 1742 
Q 1991 1309 1228 531 
z
" transform="scale(0.015625)"/>
       </defs>
       <use xlink:href="#DejaVuSans-31"/>
       <use xlink:href="#DejaVuSans-39" transform="translate(63.623047 0)"/>
       <use xlink:href="#DejaVuSans-33" transform="translate(127.246094 0)"/>
       <use xlink:href="#DejaVuSans-2e" transform="translate(190.869141 0)"/>
       <use xlink:href="#DejaVuSans-32" transform="translate(222.65625 0)"/>
       <use xlink:href="#DejaVuSans-35" transform="translate(286.279297 0)"/>
      </g>
     </g>
    </g>
    <g id="xtick_9">
     <g id="line2d_42">
      <path d="M 206.475003 290.22 
L 206.475003 165.302727 
" clip-path="url(#pf5c62aca7b)" style="fill: none; stroke: #ffffff; stroke-width: 1.5; stroke-linecap: round"/>
     </g>
     <g id="text_5">
      <!-- 193.30 -->
      <g style="fill: #262626" transform="translate(177.607738 315.257422) scale(0.165 -0.165)">
       <use xlink:href="#DejaVuSans-31"/>
       <use xlink:href="#DejaVuSans-39" transform="translate(63.623047 0)"/>
       <use xlink:href="#DejaVuSans-33" transform="translate(127.246094 0)"/>
       <use xlink:href="#DejaVuSans-2e" transform="translate(190.869141 0)"/>
       <use xlink:href="#DejaVuSans-33" transform="translate(222.65625 0)"/>
       <use xlink:href="#DejaVuSans-30" transform="translate(286.279297 0)"/>
      </g>
     </g>
    </g>
    <g id="xtick_10">
     <g id="line2d_43">
      <path d="M 302.379385 290.22 
L 302.379385 165.302727 
" clip-path="url(#pf5c62aca7b)" style="fill: none; stroke: #ffffff; stroke-width: 1.5; stroke-linecap: round"/>
     </g>
     <g id="text_6">
      <!-- 193.35 -->
      <g style="fill: #262626" transform="translate(273.512119 315.257422) scale(0.165 -0.165)">
       <use xlink:href="#DejaVuSans-31"/>
       <use xlink:href="#DejaVuSans-39" transform="translate(63.623047 0)"/>
       <use xlink:href="#DejaVuSans-33" transform="translate(127.246094 0)"/>
       <use xlink:href="#DejaVuSans-2e" transform="translate(190.869141 0)"/>
       <use xlink:href="#DejaVuSans-33" transform="translate(222.65625 0)"/>
       <use xlink:href="#DejaVuSans-35" transform="translate(286.279297 0)"/>
      </g>
     </g>
    </g>
    <g id="xtick_11">
     <g id="line2d_44">
      <path d="M 398.283766 290.22 
L 398.283766 165.302727 
" clip-path="url(#pf5c62aca7b)" style="fill: none; stroke: #ffffff; stroke-width: 1.5; stroke-linecap: round"/>
     </g>
     <g id="text_7">
      <!-- 193.40 -->
      <g style="fill: #262626" transform="translate(369.416501 315.257422) scale(0.165 -0.165)">
       <defs>
        <path id="DejaVuSans-34" d="M 2419 4116 
L 825 1625 
L 2419 1625 
L 2419 4116 
z
M 2253 4666 
L 3047 4666 
L 3047 1625 
L 3713 1625 
L 3713 1100 
L 3047 1100 
L 3047 0 
L 2419 0 
L 2419 1100 
L 313 1100 
L 313 1709 
L 2253 4666 
z
" transform="scale(0.015625)"/>
       </defs>
       <use xlink:href="#DejaVuSans-31"/>
       <use xlink:href="#DejaVuSans-39" transform="translate(63.623047 0)"/>
       <use xlink:href="#DejaVuSans-33" transform="translate(127.246094 0)"/>
       <use xlink:href="#DejaVuSans-2e" transform="translate(190.869141 0)"/>
       <use xlink:href="#DejaVuSans-34" transform="translate(222.65625 0)"/>
       <use xlink:href="#DejaVuSans-30" transform="translate(286.279297 0)"/>
      </g>
     </g>
    </g>
    <g id="xtick_12">
     <g id="line2d_45">
      <path d="M 494.188148 290.22 
L 494.188148 165.302727 
" clip-path="url(#pf5c62aca7b)" style="fill: none; stroke: #ffffff; stroke-width: 1.5; stroke-linecap: round"/>
     </g>
     <g id="text_8">
      <!-- 193.45 -->
      <g style="fill: #262626" transform="translate(465.320882 315.257422) scale(0.165 -0.165)">
       <use xlink:href="#DejaVuSans-31"/>
       <use xlink:href="#DejaVuSans-39" transform="translate(63.623047 0)"/>
       <use xlink:href="#DejaVuSans-33" transform="translate(127.246094 0)"/>
       <use xlink:href="#DejaVuSans-2e" transform="translate(190.869141 0)"/>
       <use xlink:href="#DejaVuSans-34" transform="translate(222.65625 0)"/>
       <use xlink:href="#DejaVuSans-35" transform="translate(286.279297 0)"/>
      </g>
     </g>
    </g>
    <g id="xtick_13">
     <g id="line2d_46">
      <path d="M 590.09253 290.22 
L 590.09253 165.302727 
" clip-path="url(#pf5c62aca7b)" style="fill: none; stroke: #ffffff; stroke-width: 1.5; stroke-linecap: round"/>
     </g>
     <g id="text_9">
      <!-- 193.50 -->
      <g style="fill: #262626" transform="translate(561.225264 315.257422) scale(0.165 -0.165)">
       <use xlink:href="#DejaVuSans-31"/>
       <use xlink:href="#DejaVuSans-39" transform="translate(63.623047 0)"/>
       <use xlink:href="#DejaVuSans-33" transform="translate(127.246094 0)"/>
       <use xlink:href="#DejaVuSans-2e" transform="translate(190.869141 0)"/>
       <use xlink:href="#DejaVuSans-35" transform="translate(222.65625 0)"/>
       <use xlink:href="#DejaVuSans-30" transform="translate(286.279297 0)"/>
      </g>
     </g>
    </g>
    <g id="xtick_14">
     <g id="line2d_47">
      <path d="M 685.996911 290.22 
L 685.996911 165.302727 
" clip-path="url(#pf5c62aca7b)" style="fill: none; stroke: #ffffff; stroke-width: 1.5; stroke-linecap: round"/>
     </g>
     <g id="text_10">
      <!-- 193.55 -->
      <g style="fill: #262626" transform="translate(657.129645 315.257422) scale(0.165 -0.165)">
       <use xlink:href="#DejaVuSans-31"/>
       <use xlink:href="#DejaVuSans-39" transform="translate(63.623047 0)"/>
       <use xlink:href="#DejaVuSans-33" transform="translate(127.246094 0)"/>
       <use xlink:href="#DejaVuSans-2e" transform="translate(190.869141 0)"/>
       <use xlink:href="#DejaVuSans-35" transform="translate(222.65625 0)"/>
       <use xlink:href="#DejaVuSans-35" transform="translate(286.279297 0)"/>
      </g>
     </g>
    </g>
    <g id="text_11">
     <!-- Frequency -->
     <g style="fill: #262626" transform="translate(379.581563 336.366094) scale(0.18 -0.18)">
      <defs>
       <path id="DejaVuSans-46" d="M 628 4666 
L 3309 4666 
L 3309 4134 
L 1259 4134 
L 1259 2759 
L 3109 2759 
L 3109 2228 
L 1259 2228 
L 1259 0 
L 628 0 
L 628 4666 
z
" transform="scale(0.015625)"/>
       <path id="DejaVuSans-72" d="M 2631 2963 
Q 2534 3019 2420 3045 
Q 2306 3072 2169 3072 
Q 1681 3072 1420 2755 
Q 1159 2438 1159 1844 
L 1159 0 
L 581 0 
L 581 3500 
L 1159 3500 
L 1159 2956 
Q 1341 3275 1631 3429 
Q 1922 3584 2338 3584 
Q 2397 3584 2469 3576 
Q 2541 3569 2628 3553 
L 2631 2963 
z
" transform="scale(0.015625)"/>
       <path id="DejaVuSans-65" d="M 3597 1894 
L 3597 1613 
L 953 1613 
Q 991 1019 1311 708 
Q 1631 397 2203 397 
Q 2534 397 2845 478 
Q 3156 559 3463 722 
L 3463 178 
Q 3153 47 2828 -22 
Q 2503 -91 2169 -91 
Q 1331 -91 842 396 
Q 353 884 353 1716 
Q 353 2575 817 3079 
Q 1281 3584 2069 3584 
Q 2775 3584 3186 3129 
Q 3597 2675 3597 1894 
z
M 3022 2063 
Q 3016 2534 2758 2815 
Q 2500 3097 2075 3097 
Q 1594 3097 1305 2825 
Q 1016 2553 972 2059 
L 3022 2063 
z
" transform="scale(0.015625)"/>
       <path id="DejaVuSans-71" d="M 947 1747 
Q 947 1113 1208 752 
Q 1469 391 1925 391 
Q 2381 391 2643 752 
Q 2906 1113 2906 1747 
Q 2906 2381 2643 2742 
Q 2381 3103 1925 3103 
Q 1469 3103 1208 2742 
Q 947 2381 947 1747 
z
M 2906 525 
Q 2725 213 2448 61 
Q 2172 -91 1784 -91 
Q 1150 -91 751 415 
Q 353 922 353 1747 
Q 353 2572 751 3078 
Q 1150 3584 1784 3584 
Q 2172 3584 2448 3432 
Q 2725 3281 2906 2969 
L 2906 3500 
L 3481 3500 
L 3481 -1331 
L 2906 -1331 
L 2906 525 
z
" transform="scale(0.015625)"/>
       <path id="DejaVuSans-75" d="M 544 1381 
L 544 3500 
L 1119 3500 
L 1119 1403 
Q 1119 906 1312 657 
Q 1506 409 1894 409 
Q 2359 409 2629 706 
Q 2900 1003 2900 1516 
L 2900 3500 
L 3475 3500 
L 3475 0 
L 2900 0 
L 2900 538 
Q 2691 219 2414 64 
Q 2138 -91 1772 -91 
Q 1169 -91 856 284 
Q 544 659 544 1381 
z
M 1991 3584 
L 1991 3584 
z
" transform="scale(0.015625)"/>
       <path id="DejaVuSans-6e" d="M 3513 2113 
L 3513 0 
L 2938 0 
L 2938 2094 
Q 2938 2591 2744 2837 
Q 2550 3084 2163 3084 
Q 1697 3084 1428 2787 
Q 1159 2491 1159 1978 
L 1159 0 
L 581 0 
L 581 3500 
L 1159 3500 
L 1159 2956 
Q 1366 3272 1645 3428 
Q 1925 3584 2291 3584 
Q 2894 3584 3203 3211 
Q 3513 2838 3513 2113 
z
" transform="scale(0.015625)"/>
       <path id="DejaVuSans-63" d="M 3122 3366 
L 3122 2828 
Q 2878 2963 2633 3030 
Q 2388 3097 2138 3097 
Q 1578 3097 1268 2742 
Q 959 2388 959 1747 
Q 959 1106 1268 751 
Q 1578 397 2138 397 
Q 2388 397 2633 464 
Q 2878 531 3122 666 
L 3122 134 
Q 2881 22 2623 -34 
Q 2366 -91 2075 -91 
Q 1284 -91 818 406 
Q 353 903 353 1747 
Q 353 2603 823 3093 
Q 1294 3584 2113 3584 
Q 2378 3584 2631 3529 
Q 2884 3475 3122 3366 
z
" transform="scale(0.015625)"/>
       <path id="DejaVuSans-79" d="M 2059 -325 
Q 1816 -950 1584 -1140 
Q 1353 -1331 966 -1331 
L 506 -1331 
L 506 -850 
L 844 -850 
Q 1081 -850 1212 -737 
Q 1344 -625 1503 -206 
L 1606 56 
L 191 3500 
L 800 3500 
L 1894 763 
L 2988 3500 
L 3597 3500 
L 2059 -325 
z
" transform="scale(0.015625)"/>
      </defs>
      <use xlink:href="#DejaVuSans-46"/>
      <use xlink:href="#DejaVuSans-72" transform="translate(50.269531 0)"/>
      <use xlink:href="#DejaVuSans-65" transform="translate(89.132812 0)"/>
      <use xlink:href="#DejaVuSans-71" transform="translate(150.65625 0)"/>
      <use xlink:href="#DejaVuSans-75" transform="translate(214.132812 0)"/>
      <use xlink:href="#DejaVuSans-65" transform="translate(277.511719 0)"/>
      <use xlink:href="#DejaVuSans-6e" transform="translate(339.035156 0)"/>
      <use xlink:href="#DejaVuSans-63" transform="translate(402.414062 0)"/>
      <use xlink:href="#DejaVuSans-79" transform="translate(457.394531 0)"/>
     </g>
    </g>
   </g>
   <g id="matplotlib.axis_4">
    <g id="ytick_4">
     <g id="line2d_48">
      <path d="M 79.59 274.69434 
L 772.56 274.69434 
" clip-path="url(#pf5c62aca7b)" style="fill: none; stroke: #ffffff; stroke-width: 1.5; stroke-linecap: round"/>
     </g>
     <g id="text_12">
      <!-- 0.0 -->
      <g style="fill: #262626" transform="translate(40.849844 280.963051) scale(0.165 -0.165)">
       <use xlink:href="#DejaVuSans-30"/>
       <use xlink:href="#DejaVuSans-2e" transform="translate(63.623047 0)"/>
       <use xlink:href="#DejaVuSans-30" transform="translate(95.410156 0)"/>
      </g>
     </g>
    </g>
    <g id="ytick_5">
     <g id="line2d_49">
      <path d="M 79.59 222.837562 
L 772.56 222.837562 
" clip-path="url(#pf5c62aca7b)" style="fill: none; stroke: #ffffff; stroke-width: 1.5; stroke-linecap: round"/>
     </g>
     <g id="text_13">
      <!-- 0.5 -->
      <g style="fill: #262626" transform="translate(40.849844 229.106273) scale(0.165 -0.165)">
       <use xlink:href="#DejaVuSans-30"/>
       <use xlink:href="#DejaVuSans-2e" transform="translate(63.623047 0)"/>
       <use xlink:href="#DejaVuSans-35" transform="translate(95.410156 0)"/>
      </g>
     </g>
    </g>
    <g id="ytick_6">
     <g id="line2d_50">
      <path d="M 79.59 170.980785 
L 772.56 170.980785 
" clip-path="url(#pf5c62aca7b)" style="fill: none; stroke: #ffffff; stroke-width: 1.5; stroke-linecap: round"/>
     </g>
     <g id="text_14">
      <!-- 1.0 -->
      <g style="fill: #262626" transform="translate(40.849844 177.249496) scale(0.165 -0.165)">
       <use xlink:href="#DejaVuSans-31"/>
       <use xlink:href="#DejaVuSans-2e" transform="translate(63.623047 0)"/>
       <use xlink:href="#DejaVuSans-30" transform="translate(95.410156 0)"/>
      </g>
     </g>
    </g>
    <g id="text_15">
     <!-- Transmission (arb. units) -->
     <g style="fill: #262626" transform="translate(33.106406 338.549957) rotate(-90) scale(0.18 -0.18)">
      <defs>
       <path id="DejaVuSans-54" d="M -19 4666 
L 3928 4666 
L 3928 4134 
L 2272 4134 
L 2272 0 
L 1638 0 
L 1638 4134 
L -19 4134 
L -19 4666 
z
" transform="scale(0.015625)"/>
       <path id="DejaVuSans-61" d="M 2194 1759 
Q 1497 1759 1228 1600 
Q 959 1441 959 1056 
Q 959 750 1161 570 
Q 1363 391 1709 391 
Q 2188 391 2477 730 
Q 2766 1069 2766 1631 
L 2766 1759 
L 2194 1759 
z
M 3341 1997 
L 3341 0 
L 2766 0 
L 2766 531 
Q 2569 213 2275 61 
Q 1981 -91 1556 -91 
Q 1019 -91 701 211 
Q 384 513 384 1019 
Q 384 1609 779 1909 
Q 1175 2209 1959 2209 
L 2766 2209 
L 2766 2266 
Q 2766 2663 2505 2880 
Q 2244 3097 1772 3097 
Q 1472 3097 1187 3025 
Q 903 2953 641 2809 
L 641 3341 
Q 956 3463 1253 3523 
Q 1550 3584 1831 3584 
Q 2591 3584 2966 3190 
Q 3341 2797 3341 1997 
z
" transform="scale(0.015625)"/>
       <path id="DejaVuSans-73" d="M 2834 3397 
L 2834 2853 
Q 2591 2978 2328 3040 
Q 2066 3103 1784 3103 
Q 1356 3103 1142 2972 
Q 928 2841 928 2578 
Q 928 2378 1081 2264 
Q 1234 2150 1697 2047 
L 1894 2003 
Q 2506 1872 2764 1633 
Q 3022 1394 3022 966 
Q 3022 478 2636 193 
Q 2250 -91 1575 -91 
Q 1294 -91 989 -36 
Q 684 19 347 128 
L 347 722 
Q 666 556 975 473 
Q 1284 391 1588 391 
Q 1994 391 2212 530 
Q 2431 669 2431 922 
Q 2431 1156 2273 1281 
Q 2116 1406 1581 1522 
L 1381 1569 
Q 847 1681 609 1914 
Q 372 2147 372 2553 
Q 372 3047 722 3315 
Q 1072 3584 1716 3584 
Q 2034 3584 2315 3537 
Q 2597 3491 2834 3397 
z
" transform="scale(0.015625)"/>
       <path id="DejaVuSans-6d" d="M 3328 2828 
Q 3544 3216 3844 3400 
Q 4144 3584 4550 3584 
Q 5097 3584 5394 3201 
Q 5691 2819 5691 2113 
L 5691 0 
L 5113 0 
L 5113 2094 
Q 5113 2597 4934 2840 
Q 4756 3084 4391 3084 
Q 3944 3084 3684 2787 
Q 3425 2491 3425 1978 
L 3425 0 
L 2847 0 
L 2847 2094 
Q 2847 2600 2669 2842 
Q 2491 3084 2119 3084 
Q 1678 3084 1418 2786 
Q 1159 2488 1159 1978 
L 1159 0 
L 581 0 
L 581 3500 
L 1159 3500 
L 1159 2956 
Q 1356 3278 1631 3431 
Q 1906 3584 2284 3584 
Q 2666 3584 2933 3390 
Q 3200 3197 3328 2828 
z
" transform="scale(0.015625)"/>
       <path id="DejaVuSans-69" d="M 603 3500 
L 1178 3500 
L 1178 0 
L 603 0 
L 603 3500 
z
M 603 4863 
L 1178 4863 
L 1178 4134 
L 603 4134 
L 603 4863 
z
" transform="scale(0.015625)"/>
       <path id="DejaVuSans-6f" d="M 1959 3097 
Q 1497 3097 1228 2736 
Q 959 2375 959 1747 
Q 959 1119 1226 758 
Q 1494 397 1959 397 
Q 2419 397 2687 759 
Q 2956 1122 2956 1747 
Q 2956 2369 2687 2733 
Q 2419 3097 1959 3097 
z
M 1959 3584 
Q 2709 3584 3137 3096 
Q 3566 2609 3566 1747 
Q 3566 888 3137 398 
Q 2709 -91 1959 -91 
Q 1206 -91 779 398 
Q 353 888 353 1747 
Q 353 2609 779 3096 
Q 1206 3584 1959 3584 
z
" transform="scale(0.015625)"/>
       <path id="DejaVuSans-20" transform="scale(0.015625)"/>
       <path id="DejaVuSans-28" d="M 1984 4856 
Q 1566 4138 1362 3434 
Q 1159 2731 1159 2009 
Q 1159 1288 1364 580 
Q 1569 -128 1984 -844 
L 1484 -844 
Q 1016 -109 783 600 
Q 550 1309 550 2009 
Q 550 2706 781 3412 
Q 1013 4119 1484 4856 
L 1984 4856 
z
" transform="scale(0.015625)"/>
       <path id="DejaVuSans-62" d="M 3116 1747 
Q 3116 2381 2855 2742 
Q 2594 3103 2138 3103 
Q 1681 3103 1420 2742 
Q 1159 2381 1159 1747 
Q 1159 1113 1420 752 
Q 1681 391 2138 391 
Q 2594 391 2855 752 
Q 3116 1113 3116 1747 
z
M 1159 2969 
Q 1341 3281 1617 3432 
Q 1894 3584 2278 3584 
Q 2916 3584 3314 3078 
Q 3713 2572 3713 1747 
Q 3713 922 3314 415 
Q 2916 -91 2278 -91 
Q 1894 -91 1617 61 
Q 1341 213 1159 525 
L 1159 0 
L 581 0 
L 581 4863 
L 1159 4863 
L 1159 2969 
z
" transform="scale(0.015625)"/>
       <path id="DejaVuSans-74" d="M 1172 4494 
L 1172 3500 
L 2356 3500 
L 2356 3053 
L 1172 3053 
L 1172 1153 
Q 1172 725 1289 603 
Q 1406 481 1766 481 
L 2356 481 
L 2356 0 
L 1766 0 
Q 1100 0 847 248 
Q 594 497 594 1153 
L 594 3053 
L 172 3053 
L 172 3500 
L 594 3500 
L 594 4494 
L 1172 4494 
z
" transform="scale(0.015625)"/>
       <path id="DejaVuSans-29" d="M 513 4856 
L 1013 4856 
Q 1481 4119 1714 3412 
Q 1947 2706 1947 2009 
Q 1947 1309 1714 600 
Q 1481 -109 1013 -844 
L 513 -844 
Q 928 -128 1133 580 
Q 1338 1288 1338 2009 
Q 1338 2731 1133 3434 
Q 928 4138 513 4856 
z
" transform="scale(0.015625)"/>
      </defs>
      <use xlink:href="#DejaVuSans-54"/>
      <use xlink:href="#DejaVuSans-72" transform="translate(46.333984 0)"/>
      <use xlink:href="#DejaVuSans-61" transform="translate(87.447266 0)"/>
      <use xlink:href="#DejaVuSans-6e" transform="translate(148.726562 0)"/>
      <use xlink:href="#DejaVuSans-73" transform="translate(212.105469 0)"/>
      <use xlink:href="#DejaVuSans-6d" transform="translate(264.205078 0)"/>
      <use xlink:href="#DejaVuSans-69" transform="translate(361.617188 0)"/>
      <use xlink:href="#DejaVuSans-73" transform="translate(389.400391 0)"/>
      <use xlink:href="#DejaVuSans-73" transform="translate(441.5 0)"/>
      <use xlink:href="#DejaVuSans-69" transform="translate(493.599609 0)"/>
      <use xlink:href="#DejaVuSans-6f" transform="translate(521.382812 0)"/>
      <use xlink:href="#DejaVuSans-6e" transform="translate(582.564453 0)"/>
      <use xlink:href="#DejaVuSans-20" transform="translate(645.943359 0)"/>
      <use xlink:href="#DejaVuSans-28" transform="translate(677.730469 0)"/>
      <use xlink:href="#DejaVuSans-61" transform="translate(716.744141 0)"/>
      <use xlink:href="#DejaVuSans-72" transform="translate(778.023438 0)"/>
      <use xlink:href="#DejaVuSans-62" transform="translate(819.136719 0)"/>
      <use xlink:href="#DejaVuSans-2e" transform="translate(882.613281 0)"/>
      <use xlink:href="#DejaVuSans-20" transform="translate(914.400391 0)"/>
      <use xlink:href="#DejaVuSans-75" transform="translate(946.1875 0)"/>
      <use xlink:href="#DejaVuSans-6e" transform="translate(1009.566406 0)"/>
      <use xlink:href="#DejaVuSans-69" transform="translate(1072.945312 0)"/>
      <use xlink:href="#DejaVuSans-74" transform="translate(1100.728516 0)"/>
      <use xlink:href="#DejaVuSans-73" transform="translate(1139.9375 0)"/>
      <use xlink:href="#DejaVuSans-29" transform="translate(1192.037109 0)"/>
     </g>
    </g>
   </g>
   <g id="line2d_51">
    <path d="M 0 0 
" clip-path="url(#pf5c62aca7b)" style="fill: none; stroke: #8c0800; stroke-width: 2.25; stroke-linecap: round"/>
   </g>
   <g id="line2d_52">
    <path d="M 0 0 
" clip-path="url(#pf5c62aca7b)" style="fill: none; stroke: #12711c; stroke-width: 2.25; stroke-linecap: round"/>
   </g>
   <g id="line2d_53">
    <path d="M 0 0 
" clip-path="url(#pf5c62aca7b)" style="fill: none; stroke: #001c7f; stroke-width: 2.25; stroke-linecap: round"/>
   </g>
   <g id="line2d_54">
    <path d="M 0 0 
" clip-path="url(#pf5c62aca7b)" style="fill: none; stroke: #8c0800; stroke-width: 2.25; stroke-linecap: round"/>
   </g>
   <g id="line2d_55">
    <path d="M 0 0 
" clip-path="url(#pf5c62aca7b)" style="fill: none; stroke: #12711c; stroke-width: 2.25; stroke-linecap: round"/>
   </g>
   <g id="line2d_56">
    <path d="M 0 0 
" clip-path="url(#pf5c62aca7b)" style="fill: none; stroke: #001c7f; stroke-width: 2.25; stroke-linecap: round"/>
   </g>
   <g id="line2d_57">
    <path d="M -1 170.990214 
L 68.600167 170.982569 
L 68.600167 170.982569 
" clip-path="url(#pf5c62aca7b)" style="fill: none; stroke: #8c0800; stroke-width: 2.25; stroke-linecap: round"/>
   </g>
   <g id="line2d_58">
    <path d="M -1 171.349545 
L 1.128389 171.632072 
L 2.472935 172.017506 
L 3.328556 172.47137 
L 3.939713 173.004198 
L 4.428639 173.663485 
L 4.917565 174.698681 
L 5.284259 175.91368 
L 5.650954 177.810947 
L 6.017648 180.977246 
L 6.384343 186.704385 
L 6.751037 197.935523 
L 7.117732 219.6732 
L 7.484426 242.860041 
L 7.606658 242.860041 
L 7.851121 229.037118 
L 8.340046 197.935523 
L 8.706741 186.704385 
L 9.073435 180.977246 
L 9.562361 177.075532 
L 10.051287 175.049426 
L 10.540213 173.878032 
L 11.151371 173.004198 
L 11.884759 172.390184 
L 12.74038 171.96995 
L 13.962695 171.632072 
L 15.796167 171.376175 
L 18.974185 171.187391 
L 25.574686 171.063947 
L 44.642797 171.000444 
L 68.600167 170.988044 
L 68.600167 170.988044 
" clip-path="url(#pf5c62aca7b)" style="fill: none; stroke: #12711c; stroke-width: 2.25; stroke-linecap: round"/>
   </g>
   <g id="line2d_59">
    <path d="M -1 171.264635 
L 1.739546 171.527953 
L 3.328556 171.891414 
L 4.306408 172.328497 
L 5.039796 172.899199 
L 5.650954 173.700521 
L 6.13988 174.758756 
L 6.506574 176.004824 
L 6.873269 177.95764 
L 7.239963 181.231271 
L 7.606658 187.18327 
L 7.973352 198.899086 
L 8.340046 221.343503 
L 8.706741 243.285238 
L 8.828972 242.255726 
L 9.073435 227.343754 
L 9.562361 197.011738 
L 9.929056 186.244569 
L 10.29575 180.73207 
L 10.784676 176.954858 
L 11.273602 174.982455 
L 11.762528 173.837376 
L 12.373685 172.980282 
L 13.107074 172.376201 
L 13.962695 171.961695 
L 15.18501 171.627646 
L 17.018482 171.374075 
L 20.1965 171.186596 
L 26.797 171.063743 
L 45.987343 171.000292 
L 68.600167 170.988338 
L 68.600167 170.988338 
" clip-path="url(#pf5c62aca7b)" style="fill: none; stroke: #001c7f; stroke-width: 2.25; stroke-linecap: round"/>
   </g>
   <g id="line2d_60">
    <path d="M 86.611282 171.007326 
L 105.923856 171.150482 
L 110.32419 171.379756 
L 112.402125 171.692668 
L 113.62444 172.08489 
L 114.48006 172.588252 
L 115.091217 173.190047 
L 115.580143 173.948594 
L 116.069069 175.166212 
L 116.435764 176.630527 
L 116.802458 178.98005 
L 117.169153 183.034634 
L 117.535847 190.647281 
L 117.902541 205.857969 
L 118.513699 243.47009 
L 118.63593 241.741235 
L 119.002625 216.919361 
L 119.369319 196.399238 
L 119.736014 185.939181 
L 120.102708 180.568516 
L 120.591634 176.873937 
L 121.08056 174.937369 
L 121.569486 173.809925 
L 122.180643 172.96409 
L 122.914032 172.366711 
L 123.769653 171.956081 
L 124.991967 171.62463 
L 126.947671 171.361394 
L 130.247921 171.177595 
L 137.215116 171.058278 
L 157.994468 170.998164 
L 208.720533 170.984112 
L 208.720533 170.984112 
" clip-path="url(#pf5c62aca7b)" style="fill: none; stroke: #8c0800; stroke-width: 2.25; stroke-linecap: round"/>
   </g>
   <g id="line2d_61">
    <path d="M 86.611282 170.988044 
L 133.181477 171.10955 
L 138.681894 171.314541 
L 141.126523 171.608161 
L 142.471069 171.96995 
L 143.32669 172.390184 
L 144.060079 173.004198 
L 144.549005 173.663485 
L 145.037931 174.698681 
L 145.404625 175.91368 
L 145.77132 177.810947 
L 146.138014 180.977246 
L 146.504708 186.704385 
L 146.871403 197.935523 
L 147.238097 219.6732 
L 147.604792 242.860041 
L 147.727023 242.860041 
L 147.971486 229.037118 
L 148.460412 197.935523 
L 148.827107 186.704385 
L 149.193801 180.977246 
L 149.682727 177.075532 
L 150.171653 175.049426 
L 150.660579 173.878032 
L 151.271736 173.004198 
L 152.005125 172.390184 
L 152.860745 171.96995 
L 154.08306 171.632072 
L 155.916533 171.376175 
L 159.094551 171.187391 
L 165.695051 171.063947 
L 184.763162 171.000444 
L 208.720533 170.988044 
L 208.720533 170.988044 
" clip-path="url(#pf5c62aca7b)" style="fill: none; stroke: #12711c; stroke-width: 2.25; stroke-linecap: round"/>
   </g>
   <g id="line2d_62">
    <path d="M 86.611282 170.987472 
L 135.626106 171.107536 
L 141.248755 171.315088 
L 143.693384 171.609569 
L 145.037931 171.972732 
L 145.893551 172.394902 
L 146.62694 173.012283 
L 147.115866 173.675776 
L 147.604792 174.718595 
L 147.971486 175.943861 
L 148.338181 177.859458 
L 148.704875 181.061115 
L 149.07157 186.862218 
L 149.438264 198.252963 
L 149.804958 220.228551 
L 150.171653 243.022407 
L 150.293884 242.677659 
L 150.538347 228.473429 
L 151.027273 197.622523 
L 151.393968 186.548679 
L 151.760662 180.894366 
L 152.249588 177.034823 
L 152.738514 175.026868 
L 153.22744 173.864354 
L 153.838597 172.99616 
L 154.571986 172.385489 
L 155.427607 171.96718 
L 156.649921 171.630588 
L 158.483394 171.375471 
L 161.661412 171.187125 
L 168.261912 171.063879 
L 187.330024 171.000437 
L 208.720533 170.988693 
L 208.720533 170.988693 
" clip-path="url(#pf5c62aca7b)" style="fill: none; stroke: #001c7f; stroke-width: 2.25; stroke-linecap: round"/>
   </g>
   <g id="line2d_63">
    <path d="M 226.121101 170.992176 
L 260.834842 171.118118 
L 266.090796 171.331064 
L 268.413194 171.626276 
L 269.757741 172.005917 
L 270.613361 172.451486 
L 271.224518 172.972916 
L 271.713444 173.616031 
L 272.20237 174.621998 
L 272.569065 175.797762 
L 272.935759 177.625226 
L 273.302454 180.657423 
L 273.669148 186.105053 
L 274.035842 196.731803 
L 274.402537 217.524407 
L 274.769231 242.032197 
L 274.891463 243.380021 
L 275.013694 239.219542 
L 275.869315 190.411338 
L 276.236009 182.913448 
L 276.602704 178.912311 
L 277.09163 176.033726 
L 277.580555 174.460302 
L 278.191713 173.338697 
L 278.80287 172.680265 
L 279.536259 172.197292 
L 280.514111 171.817368 
L 281.980889 171.510501 
L 284.303287 171.282957 
L 288.581389 171.124227 
L 298.60437 171.028752 
L 336.49613 170.987908 
L 348.230352 170.985812 
L 348.230352 170.985812 
" clip-path="url(#pf5c62aca7b)" style="fill: none; stroke: #8c0800; stroke-width: 2.25; stroke-linecap: round"/>
   </g>
   <g id="line2d_64">
    <path d="M 226.121101 170.988044 
L 272.691296 171.10955 
L 278.191713 171.314541 
L 280.636343 171.608161 
L 281.980889 171.96995 
L 282.836509 172.390184 
L 283.569898 173.004198 
L 284.058824 173.663485 
L 284.54775 174.698681 
L 284.914444 175.91368 
L 285.281139 177.810947 
L 285.647833 180.977246 
L 286.014528 186.704385 
L 286.381222 197.935523 
L 286.747917 219.6732 
L 287.114611 242.860041 
L 287.236843 242.860041 
L 287.481306 229.037118 
L 287.970232 197.935523 
L 288.336926 186.704385 
L 288.70362 180.977246 
L 289.192546 177.075532 
L 289.681472 175.049426 
L 290.170398 173.878032 
L 290.781556 173.004198 
L 291.514945 172.390184 
L 292.370565 171.96995 
L 293.59288 171.632072 
L 295.426352 171.376175 
L 298.60437 171.187391 
L 305.204871 171.063947 
L 324.272982 171.000444 
L 348.230352 170.988044 
L 348.230352 170.988044 
" clip-path="url(#pf5c62aca7b)" style="fill: none; stroke: #12711c; stroke-width: 2.25; stroke-linecap: round"/>
   </g>
   <g id="line2d_65">
    <path d="M 226.121101 170.986794 
L 278.558407 171.10631 
L 284.181056 171.309868 
L 286.625685 171.59619 
L 287.970232 171.946394 
L 288.948083 172.428119 
L 289.681472 173.069417 
L 290.170398 173.762921 
L 290.659324 174.860421 
L 291.026019 176.159723 
L 291.392713 178.208273 
L 291.759407 181.668103 
L 292.126102 188.012405 
L 292.492796 200.569138 
L 292.859491 224.123838 
L 293.226185 243.578821 
L 293.348417 240.901672 
L 294.326269 188.142203 
L 294.692963 181.736163 
L 295.181889 177.444488 
L 295.670815 175.252286 
L 296.159741 174.000331 
L 296.770898 173.075678 
L 297.504287 172.431745 
L 298.359908 171.994375 
L 299.582222 171.645107 
L 301.415695 171.382332 
L 304.593713 171.189713 
L 311.071982 171.065688 
L 329.651167 171.00118 
L 348.230352 170.98973 
L 348.230352 170.98973 
" clip-path="url(#pf5c62aca7b)" style="fill: none; stroke: #001c7f; stroke-width: 2.25; stroke-linecap: round"/>
   </g>
   <g id="line2d_66">
    <path d="M 365.020374 170.990632 
L 403.278828 171.115474 
L 408.657014 171.329874 
L 410.979412 171.623309 
L 412.323958 171.999999 
L 413.179579 172.441356 
L 413.790736 172.957018 
L 414.401893 173.797955 
L 414.890819 174.917743 
L 415.257514 176.247423 
L 415.624208 178.350906 
L 415.990903 181.918257 
L 416.357597 188.490263 
L 416.724292 201.531617 
L 417.090986 225.655381 
L 417.335449 241.489992 
L 417.45768 243.523313 
L 417.579912 239.98612 
L 418.435532 190.840198 
L 418.802227 183.133569 
L 419.168921 179.035254 
L 419.657847 176.097497 
L 420.146773 174.497112 
L 420.635699 173.538306 
L 421.246856 172.801891 
L 421.980245 172.270626 
L 422.958097 171.858991 
L 424.302644 171.550996 
L 426.50281 171.30883 
L 430.414218 171.141215 
L 439.214884 171.03782 
L 469.650524 170.990712 
L 487.129626 170.986357 
L 487.129626 170.986357 
" clip-path="url(#pf5c62aca7b)" style="fill: none; stroke: #8c0800; stroke-width: 2.25; stroke-linecap: round"/>
   </g>
   <g id="line2d_67">
    <path d="M 365.020374 170.988044 
L 411.590569 171.10955 
L 417.090986 171.314541 
L 419.535616 171.608161 
L 420.880162 171.96995 
L 421.735782 172.390184 
L 422.469171 173.004198 
L 422.958097 173.663485 
L 423.447023 174.698681 
L 423.813718 175.91368 
L 424.180412 177.810947 
L 424.547106 180.977246 
L 424.913801 186.704385 
L 425.280495 197.935523 
L 425.64719 219.6732 
L 426.013884 242.860041 
L 426.136116 242.860041 
L 426.380579 229.037118 
L 426.869505 197.935523 
L 427.236199 186.704385 
L 427.602894 180.977246 
L 428.091819 177.075532 
L 428.580745 175.049426 
L 429.069671 173.878032 
L 429.680829 173.004198 
L 430.414218 172.390184 
L 431.269838 171.96995 
L 432.492153 171.632072 
L 434.325625 171.376175 
L 437.503644 171.187391 
L 444.104144 171.063947 
L 463.172255 171.000444 
L 487.129626 170.988044 
L 487.129626 170.988044 
" clip-path="url(#pf5c62aca7b)" style="fill: none; stroke: #12711c; stroke-width: 2.25; stroke-linecap: round"/>
   </g>
   <g id="line2d_68">
    <path d="M 365.020374 170.986357 
L 420.024542 171.106064 
L 425.64719 171.30883 
L 428.091819 171.593541 
L 429.436366 171.941205 
L 430.414218 172.418637 
L 431.147607 173.05307 
L 431.636532 173.737935 
L 432.125458 174.819644 
L 432.492153 176.097497 
L 432.858847 178.107388 
L 433.225542 181.491847 
L 433.592236 187.677027 
L 433.958931 199.893498 
L 434.325625 223.017246 
L 434.69232 243.523313 
L 434.814551 241.489992 
L 435.181245 216.435356 
L 435.54794 196.135031 
L 435.914634 185.807298 
L 436.281329 180.497701 
L 436.770255 176.838794 
L 437.259181 174.917743 
L 437.748107 173.797955 
L 438.359264 172.957018 
L 439.092653 172.362561 
L 440.070505 171.91033 
L 441.415051 171.577692 
L 443.492986 171.329874 
L 447.159931 171.154947 
L 455.104977 171.045785 
L 480.89582 170.993469 
L 487.129626 170.990632 
L 487.129626 170.990632 
" clip-path="url(#pf5c62aca7b)" style="fill: none; stroke: #001c7f; stroke-width: 2.25; stroke-linecap: round"/>
   </g>
   <g id="line2d_69">
    <path d="M 503.309101 170.99268 
L 537.044991 171.119408 
L 542.178713 171.326602 
L 544.501111 171.615175 
L 545.845657 171.983831 
L 546.701278 172.413769 
L 547.434667 173.044689 
L 547.923592 173.725141 
L 548.412518 174.7988 
L 548.779213 176.065738 
L 549.145907 178.056003 
L 549.512602 181.40229 
L 549.879296 187.507046 
L 550.245991 199.551096 
L 550.612685 222.44687 
L 550.97938 243.463128 
L 551.101611 241.768154 
L 551.468305 216.973178 
L 551.835 196.428714 
L 552.201694 185.953889 
L 552.568389 180.576406 
L 553.057315 176.877849 
L 553.546241 174.939552 
L 554.035167 173.811255 
L 554.646324 172.964875 
L 555.379713 172.367172 
L 556.235333 171.956354 
L 557.457648 171.624777 
L 559.413352 171.36146 
L 562.713602 171.17762 
L 569.680796 171.058285 
L 590.460148 170.998165 
L 625.418352 170.985672 
L 625.418352 170.985672 
" clip-path="url(#pf5c62aca7b)" style="fill: none; stroke: #8c0800; stroke-width: 2.25; stroke-linecap: round"/>
   </g>
   <g id="line2d_70">
    <path d="M 503.309101 170.988044 
L 549.879296 171.10955 
L 555.379713 171.314541 
L 557.824343 171.608161 
L 559.168889 171.96995 
L 560.024509 172.390184 
L 560.757898 173.004198 
L 561.246824 173.663485 
L 561.73575 174.698681 
L 562.102444 175.91368 
L 562.469139 177.810947 
L 562.835833 180.977246 
L 563.202528 186.704385 
L 563.569222 197.935523 
L 563.935917 219.6732 
L 564.302611 242.860041 
L 564.424843 242.860041 
L 564.669306 229.037118 
L 565.158232 197.935523 
L 565.524926 186.704385 
L 565.89162 180.977246 
L 566.380546 177.075532 
L 566.869472 175.049426 
L 567.358398 173.878032 
L 567.969556 173.004198 
L 568.702945 172.390184 
L 569.558565 171.96995 
L 570.78088 171.632072 
L 572.614352 171.376175 
L 575.79237 171.187391 
L 582.392871 171.063947 
L 601.460982 171.000444 
L 625.418352 170.988044 
L 625.418352 170.988044 
" clip-path="url(#pf5c62aca7b)" style="fill: none; stroke: #12711c; stroke-width: 2.25; stroke-linecap: round"/>
   </g>
   <g id="line2d_71">
    <path d="M 503.309101 170.986879 
L 555.257481 171.106034 
L 560.88013 171.308701 
L 563.324759 171.593214 
L 564.669306 171.940565 
L 565.647157 172.417468 
L 566.380546 173.051057 
L 566.869472 173.734861 
L 567.358398 174.814634 
L 567.725093 176.08986 
L 568.091787 178.095026 
L 568.458482 181.470288 
L 568.825176 187.636081 
L 569.19187 199.811015 
L 569.558565 222.880426 
L 569.925259 243.510841 
L 570.047491 241.558301 
L 570.414185 216.563854 
L 570.78088 196.205021 
L 571.147574 185.842244 
L 571.514269 180.516477 
L 572.003195 176.848118 
L 572.49212 174.922953 
L 572.981046 173.801133 
L 573.592204 172.958897 
L 574.325593 172.363664 
L 575.303445 171.91094 
L 576.647991 171.578007 
L 578.725926 171.330015 
L 582.392871 171.154997 
L 590.337917 171.045796 
L 616.12876 170.99347 
L 625.418352 170.989578 
L 625.418352 170.989578 
" clip-path="url(#pf5c62aca7b)" style="fill: none; stroke: #001c7f; stroke-width: 2.25; stroke-linecap: round"/>
   </g>
   <g id="line2d_72">
    <path d="M 640.987282 171.012688 
L 657.855227 171.160655 
L 662.011097 171.391435 
L 663.966801 171.691766 
L 665.189115 172.083153 
L 666.044736 172.58521 
L 666.655893 173.185168 
L 667.144819 173.941041 
L 667.633745 175.153678 
L 668.00044 176.611088 
L 668.367134 178.947891 
L 668.733828 182.977072 
L 669.100523 190.535161 
L 669.467217 205.634344 
L 670.078375 243.430775 
L 670.200606 241.881821 
L 670.567301 217.205067 
L 670.933995 196.555953 
L 671.30069 186.017363 
L 671.667384 180.610443 
L 672.15631 176.894714 
L 672.645236 174.948959 
L 673.134162 173.816987 
L 673.745319 172.968259 
L 674.478708 172.369156 
L 675.334329 171.957529 
L 676.556643 171.625408 
L 678.512347 171.361748 
L 681.812597 171.177727 
L 688.779792 171.058311 
L 709.559144 170.998167 
L 763.096533 170.983915 
L 763.096533 170.983915 
" clip-path="url(#pf5c62aca7b)" style="fill: none; stroke: #8c0800; stroke-width: 2.25; stroke-linecap: round"/>
   </g>
   <g id="line2d_73">
    <path d="M 640.987282 170.988044 
L 687.557477 171.10955 
L 693.057894 171.314541 
L 695.502523 171.608161 
L 696.847069 171.96995 
L 697.70269 172.390184 
L 698.436079 173.004198 
L 698.925005 173.663485 
L 699.413931 174.698681 
L 699.780625 175.91368 
L 700.14732 177.810947 
L 700.514014 180.977246 
L 700.880708 186.704385 
L 701.247403 197.935523 
L 701.614097 219.6732 
L 701.980792 242.860041 
L 702.103023 242.860041 
L 702.347486 229.037118 
L 702.836412 197.935523 
L 703.203107 186.704385 
L 703.569801 180.977246 
L 704.058727 177.075532 
L 704.547653 175.049426 
L 705.036579 173.878032 
L 705.647736 173.004198 
L 706.381125 172.390184 
L 707.236745 171.96995 
L 708.45906 171.632072 
L 710.292533 171.376175 
L 713.470551 171.187391 
L 720.071051 171.063947 
L 739.139162 171.000444 
L 763.096533 170.988044 
L 763.096533 170.988044 
" clip-path="url(#pf5c62aca7b)" style="fill: none; stroke: #12711c; stroke-width: 2.25; stroke-linecap: round"/>
   </g>
   <g id="line2d_74">
    <path d="M 640.987282 170.98752 
L 689.757643 171.107199 
L 695.380292 171.313649 
L 697.824921 171.60587 
L 699.169468 171.965429 
L 700.025088 172.382521 
L 700.758477 172.991084 
L 701.247403 173.643573 
L 701.736329 174.666465 
L 702.103023 175.864922 
L 702.469718 177.732713 
L 702.836412 180.842278 
L 703.203107 186.450962 
L 703.569801 197.426182 
L 703.936495 218.772071 
L 704.30319 242.551684 
L 704.425421 243.114931 
L 704.669884 229.952466 
L 705.15881 198.456728 
L 705.525505 186.963494 
L 705.892199 181.114854 
L 706.381125 177.142937 
L 706.870051 175.086698 
L 707.358977 173.900598 
L 707.970134 173.017439 
L 708.703523 172.397908 
L 709.559144 171.974503 
L 710.781458 171.634508 
L 712.614931 171.377329 
L 715.792949 171.187828 
L 722.271218 171.065198 
L 740.972635 171.000986 
L 763.096533 170.988633 
L 763.096533 170.988633 
" clip-path="url(#pf5c62aca7b)" style="fill: none; stroke: #001c7f; stroke-width: 2.25; stroke-linecap: round"/>
   </g>
   <g id="line2d_75">
    <path d="M 778.054916 171.85481 
L 779.399463 171.548803 
L 781.599629 171.30787 
L 785.511037 171.140886 
L 793 171.045277 
L 793 171.045277 
" clip-path="url(#pf5c62aca7b)" style="fill: none; stroke: #8c0800; stroke-width: 2.25; stroke-linecap: round"/>
   </g>
   <g id="line2d_76">
    <path d="M 778.054916 170.988044 
L 793 170.993512 
L 793 170.993512 
" clip-path="url(#pf5c62aca7b)" style="fill: none; stroke: #12711c; stroke-width: 2.25; stroke-linecap: round"/>
   </g>
   <g id="line2d_77">
    <path d="M 778.054916 170.987785 
L 793 170.992916 
L 793 170.992916 
" clip-path="url(#pf5c62aca7b)" style="fill: none; stroke: #001c7f; stroke-width: 2.25; stroke-linecap: round"/>
   </g>
   <g id="line2d_78">
    <path d="M 0 0 
" clip-path="url(#pf5c62aca7b)" style="fill: none; stroke: #8c0800; stroke-width: 2.25; stroke-linecap: round"/>
   </g>
   <g id="line2d_79">
    <path d="M 0 0 
" clip-path="url(#pf5c62aca7b)" style="fill: none; stroke: #12711c; stroke-width: 2.25; stroke-linecap: round"/>
   </g>
   <g id="line2d_80">
    <path d="M 0 0 
" clip-path="url(#pf5c62aca7b)" style="fill: none; stroke: #001c7f; stroke-width: 2.25; stroke-linecap: round"/>
   </g>
   <g id="patch_8">
    <path d="M 79.59 290.22 
L 79.59 165.302727 
" style="fill: none; stroke: #ffffff; stroke-width: 1.875; stroke-linejoin: miter; stroke-linecap: square"/>
   </g>
   <g id="patch_9">
    <path d="M 772.56 290.22 
L 772.56 165.302727 
" style="fill: none; stroke: #ffffff; stroke-width: 1.875; stroke-linejoin: miter; stroke-linecap: square"/>
   </g>
   <g id="patch_10">
    <path d="M 79.59 290.22 
L 772.56 290.22 
" style="fill: none; stroke: #ffffff; stroke-width: 1.875; stroke-linejoin: miter; stroke-linecap: square"/>
   </g>
   <g id="patch_11">
    <path d="M 79.59 165.302727 
L 772.56 165.302727 
" style="fill: none; stroke: #ffffff; stroke-width: 1.875; stroke-linejoin: miter; stroke-linecap: square"/>
   </g>
  </g>
 </g>
 <defs>
  <clipPath id="pf425f8eb22">
   <rect x="79.59" y="20.192727" width="692.97" height="124.917273"/>
  </clipPath>
  <clipPath id="pf5c62aca7b">
   <rect x="79.59" y="165.302727" width="692.97" height="124.917273"/>
  </clipPath>
 </defs>
</svg>
