<?xml version="1.0" encoding="UTF-8" standalone="no"?>
<svg
   width="765.42365pt"
   height="258.83026pt"
   viewBox="0 0 765.42364 258.83026"
   version="1.1"
   id="svg181"
   sodipodi:docname="Ring coupling spectra_edit.svg"
   inkscape:version="1.4 (e7c3feb100, 2024-10-09)"
   inkscape:export-filename="Ring coupling spectra_edit.png"
   inkscape:export-xdpi="200"
   inkscape:export-ydpi="200"
   xmlns:inkscape="http://www.inkscape.org/namespaces/inkscape"
   xmlns:sodipodi="http://sodipodi.sourceforge.net/DTD/sodipodi-0.dtd"
   xmlns:xlink="http://www.w3.org/1999/xlink"
   xmlns="http://www.w3.org/2000/svg"
   xmlns:svg="http://www.w3.org/2000/svg"
   xmlns:rdf="http://www.w3.org/1999/02/22-rdf-syntax-ns#"
   xmlns:cc="http://creativecommons.org/ns#"
   xmlns:dc="http://purl.org/dc/elements/1.1/">
  <sodipodi:namedview
     id="namedview181"
     pagecolor="#ffffff"
     bordercolor="#000000"
     borderopacity="0.25"
     inkscape:showpageshadow="2"
     inkscape:pageopacity="0.0"
     inkscape:pagecheckerboard="0"
     inkscape:deskcolor="#d1d1d1"
     inkscape:document-units="pt"
     inkscape:zoom="0.84564394"
     inkscape:cx="593.03919"
     inkscape:cy="147.81635"
     inkscape:window-width="1920"
     inkscape:window-height="1011"
     inkscape:window-x="0"
     inkscape:window-y="0"
     inkscape:window-maximized="1"
     inkscape:current-layer="matplotlib.axis_4" />
  <metadata
     id="metadata1">
    <rdf:RDF>
      <cc:Work>
        <dc:type
           rdf:resource="http://purl.org/dc/dcmitype/StillImage" />
        <dc:date>2026-05-15T12:28:27.611415</dc:date>
        <dc:format>image/svg+xml</dc:format>
        <dc:creator>
          <cc:Agent>
            <dc:title>Matplotlib v3.10.1+dfsg1, https://matplotlib.org/</dc:title>
          </cc:Agent>
        </dc:creator>
      </cc:Work>
    </rdf:RDF>
  </metadata>
  <defs
     id="defs1">
    <style
       type="text/css"
       id="style1">*{stroke-linejoin: round; stroke-linecap: butt}</style>
  </defs>
  <g
     id="axes_1"
     transform="translate(-57.565836,-19.255227)">
    <g
       id="patch_2">
      <path
         d="M 79.59,145.11 H 772.56 V 20.192727 H 79.59 Z"
         style="fill:#eaeaf2"
         id="path2" />
    </g>
    <g
       id="LineCollection_1">
      <path
         clip-path="url(#pf425f8eb22)"
         style="fill:none;stroke:#808080;stroke-width:2.25;stroke-dasharray:8.325, 3.6;stroke-dashoffset:0"
         id="path3"
         d="" />
    </g>
    <g
       id="LineCollection_2">
      <path
         clip-path="url(#pf425f8eb22)"
         style="fill:none;stroke:#808080;stroke-width:2.25;stroke-dasharray:8.325, 3.6;stroke-dashoffset:0"
         id="path4"
         d="" />
    </g>
    <g
       id="LineCollection_3">
      <path
         d="M 10.293,129.58434 V 25.870785"
         clip-path="url(#pf425f8eb22)"
         style="fill:none;stroke:#808080;stroke-width:2.25;stroke-dasharray:8.325, 3.6;stroke-dashoffset:0"
         id="path5" />
    </g>
    <g
       id="LineCollection_9">
      <path
         clip-path="url(#pf425f8eb22)"
         style="fill:none;stroke:#808080;stroke-width:2.25;stroke-dasharray:8.325, 3.6;stroke-dashoffset:0"
         id="path11"
         d="" />
    </g>
    <g
       id="LineCollection_10">
      <path
         clip-path="url(#pf425f8eb22)"
         style="fill:none;stroke:#808080;stroke-width:2.25;stroke-dasharray:8.325, 3.6;stroke-dashoffset:0"
         id="path12"
         d="" />
    </g>
    <g
       id="matplotlib.axis_1">
      <g
         id="xtick_1">
        <g
           id="line2d_1">
          <path
             d="M 110.57062,145.11 V 20.192727"
             clip-path="url(#pf425f8eb22)"
             style="fill:none;stroke:#ffffff;stroke-width:1.5;stroke-linecap:round"
             id="path13" />
        </g>
      </g>
      <g
         id="xtick_2">
        <g
           id="line2d_2">
          <path
             d="M 206.475,145.11 V 20.192727"
             clip-path="url(#pf425f8eb22)"
             style="fill:none;stroke:#ffffff;stroke-width:1.5;stroke-linecap:round"
             id="path14" />
        </g>
      </g>
      <g
         id="xtick_3">
        <g
           id="line2d_3">
          <path
             d="M 302.37939,145.11 V 20.192727"
             clip-path="url(#pf425f8eb22)"
             style="fill:none;stroke:#ffffff;stroke-width:1.5;stroke-linecap:round"
             id="path15" />
        </g>
      </g>
      <g
         id="xtick_4">
        <g
           id="line2d_4">
          <path
             d="M 398.28377,145.11 V 20.192727"
             clip-path="url(#pf425f8eb22)"
             style="fill:none;stroke:#ffffff;stroke-width:1.5;stroke-linecap:round"
             id="path16" />
        </g>
      </g>
      <g
         id="xtick_5">
        <g
           id="line2d_5">
          <path
             d="M 494.18815,145.11 V 20.192727"
             clip-path="url(#pf425f8eb22)"
             style="fill:none;stroke:#ffffff;stroke-width:1.5;stroke-linecap:round"
             id="path17" />
        </g>
      </g>
      <g
         id="xtick_6">
        <g
           id="line2d_6">
          <path
             d="M 590.09253,145.11 V 20.192727"
             clip-path="url(#pf425f8eb22)"
             style="fill:none;stroke:#ffffff;stroke-width:1.5;stroke-linecap:round"
             id="path18" />
        </g>
      </g>
      <g
         id="xtick_7">
        <g
           id="line2d_7">
          <path
             d="M 685.99691,145.11 V 20.192727"
             clip-path="url(#pf425f8eb22)"
             style="fill:none;stroke:#ffffff;stroke-width:1.5;stroke-linecap:round"
             id="path19" />
        </g>
      </g>
    </g>
    <g
       id="matplotlib.axis_2">
      <g
         id="ytick_1">
        <g
           id="line2d_8">
          <path
             d="M 79.59,129.58434 H 772.56"
             clip-path="url(#pf425f8eb22)"
             style="fill:none;stroke:#ffffff;stroke-width:1.5;stroke-linecap:round"
             id="path20" />
        </g>
      </g>
      <g
         id="ytick_2">
        <g
           id="line2d_9">
          <path
             d="M 79.59,77.727562 H 772.56"
             clip-path="url(#pf425f8eb22)"
             style="fill:none;stroke:#ffffff;stroke-width:1.5;stroke-linecap:round"
             id="path22" />
        </g>
      </g>
      <g
         id="ytick_3">
        <g
           id="line2d_10">
          <path
             d="M 79.59,25.870785 H 772.56"
             clip-path="url(#pf425f8eb22)"
             style="fill:none;stroke:#ffffff;stroke-width:1.5;stroke-linecap:round"
             id="path25" />
        </g>
      </g>
    </g>
    <g
       id="line2d_11">
      <path
         d="M 0,0"
         clip-path="url(#pf425f8eb22)"
         style="fill:none;stroke:#23456f;stroke-width:2.25;stroke-linecap:round"
         id="path28" />
    </g>
    <g
       id="line2d_12">
      <path
         d="M 0,0"
         clip-path="url(#pf425f8eb22)"
         style="fill:none;stroke:#23456f;stroke-width:2.25;stroke-linecap:round"
         id="path29" />
    </g>
    <g
       id="line2d_13">
      <path
         d="m -1,31.740156 0.906074,1.270959 0.855621,1.592308 0.85562,2.13621 0.733389,2.442135 0.733389,3.225667 0.733389,4.277819 0.733389,5.611741 0.85562,8.354086 1.466778,14.677909 0.366694,1.884121 0.244463,0.493675 h 0.122232 l 0.244463,-0.493675 0.366694,-1.884121 0.488926,-4.156148 2.44463,-23.651666 0.85562,-5.113741 0.85562,-3.680653 0.855621,-2.665168 0.85562,-1.960373 0.977852,-1.648101 0.977852,-1.214666 1.100083,-1.014298 1.222315,-0.829895 1.466778,-0.721547 1.833472,-0.631679 2.200167,-0.514064 2.933555,-0.445029 4.033639,-0.370024 5.867111,-0.296887 9.411825,-0.229325 17.112407,-0.162197 4.889259,-0.02342 v 0"
         clip-path="url(#pf425f8eb22)"
         style="fill:none;stroke:#23456f;stroke-width:2.25;stroke-linecap:round"
         id="path30" />
    </g>
    <g
       id="line2d_14">
      <path
         d="m 86.611282,26.000104 23.468448,0.210518 10.14521,0.294094 5.74488,0.372782 3.78917,0.457821 2.6891,0.541525 1.9557,0.603307 1.58901,0.710184 1.34455,0.846562 1.10008,0.94864 0.97785,1.12959 0.85562,1.306007 0.85562,1.728392 0.73339,1.952402 0.73339,2.556448 0.73339,3.381033 0.73339,4.481767 0.73339,5.854439 0.97785,9.932293 1.10008,11.129944 0.48893,2.775259 0.24446,0.493675 h 0.12223 l 0.24447,-0.493675 0.36669,-1.884121 0.48893,-4.156148 2.44463,-23.651666 0.85562,-5.113741 0.85562,-3.680653 0.85562,-2.665168 0.85562,-1.960373 0.97785,-1.648101 0.97785,-1.214666 1.10008,-1.014298 1.22232,-0.829895 1.46678,-0.721547 1.83347,-0.631679 2.20017,-0.514064 2.93355,-0.445029 4.03364,-0.370024 5.86711,-0.296887 9.41183,-0.229325 17.1124,-0.162197 4.88926,-0.02342 v 0"
         clip-path="url(#pf425f8eb22)"
         style="fill:none;stroke:#23456f;stroke-width:2.25;stroke-linecap:round"
         id="path31" />
    </g>
    <g
       id="line2d_15">
      <path
         d="m 226.1211,26.000104 23.46845,0.210518 10.14521,0.294094 5.74488,0.372782 3.78918,0.457821 2.68909,0.541525 1.9557,0.603307 1.58901,0.710184 1.34455,0.846562 1.10008,0.94864 0.97785,1.12959 0.85562,1.306007 0.85562,1.728392 0.73339,1.952402 0.73339,2.556448 0.73339,3.381033 0.73339,4.481767 0.73339,5.854439 0.97785,9.932293 1.10008,11.129944 0.48893,2.775259 0.24446,0.493675 h 0.12223 l 0.24447,-0.493675 0.36669,-1.884121 0.48893,-4.156148 2.44463,-23.651666 0.85562,-5.113741 0.85562,-3.680653 0.85562,-2.665168 0.85562,-1.960373 0.97785,-1.648101 0.97785,-1.214666 1.10008,-1.014298 1.22232,-0.829895 1.46678,-0.721547 1.83347,-0.631679 2.20017,-0.514064 2.93355,-0.445029 4.03364,-0.370024 5.86711,-0.296887 9.41183,-0.229325 17.1124,-0.162197 4.88926,-0.02342 v 0"
         clip-path="url(#pf425f8eb22)"
         style="fill:none;stroke:#23456f;stroke-width:2.25;stroke-linecap:round"
         id="path32" />
    </g>
    <g
       id="line2d_16">
      <path
         d="m 365.02037,26.000104 23.46845,0.210518 10.14521,0.294094 5.74488,0.372782 3.78918,0.457821 2.68909,0.541525 1.9557,0.603307 1.58901,0.710184 1.34455,0.846562 1.10008,0.94864 0.97785,1.12959 0.85563,1.306007 0.85562,1.728392 0.73338,1.952402 0.73339,2.556448 0.73339,3.381033 0.73339,4.481767 0.73339,5.854439 0.97785,9.932293 1.10008,11.129944 0.48893,2.775259 0.24446,0.493675 h 0.12224 l 0.24446,-0.493675 0.36669,-1.884121 0.48893,-4.156148 2.44463,-23.651666 0.85562,-5.113741 0.85562,-3.680653 0.85562,-2.665168 0.85562,-1.960373 0.97785,-1.648101 0.97785,-1.214666 1.10009,-1.014298 1.22231,-0.829895 1.46678,-0.721547 1.83347,-0.631679 2.20017,-0.514064 2.93355,-0.445029 4.03364,-0.370024 5.86711,-0.296887 9.41183,-0.229325 17.11241,-0.162197 4.88926,-0.02342 v 0"
         clip-path="url(#pf425f8eb22)"
         style="fill:none;stroke:#23456f;stroke-width:2.25;stroke-linecap:round"
         id="path33" />
    </g>
    <g
       id="line2d_17">
      <path
         d="m 503.3091,26.000104 23.46845,0.210518 10.14521,0.294094 5.74488,0.372782 3.78917,0.457821 2.6891,0.541525 1.9557,0.603307 1.58901,0.710184 1.34455,0.846562 1.10008,0.94864 0.97785,1.12959 0.85562,1.306007 0.85562,1.728392 0.73339,1.952402 0.73339,2.556448 0.73339,3.381033 0.73339,4.481767 0.73339,5.854439 0.97785,9.932293 1.10008,11.129944 0.48893,2.775259 0.24446,0.493675 h 0.12223 l 0.24447,-0.493675 0.36669,-1.884121 0.48893,-4.156148 2.44463,-23.651666 0.85562,-5.113741 0.85562,-3.680653 0.85562,-2.665168 0.85562,-1.960373 0.97785,-1.648101 0.97785,-1.214666 1.10008,-1.014298 1.22232,-0.829895 1.46678,-0.721547 1.83347,-0.631679 2.20017,-0.514064 2.93355,-0.445029 4.03364,-0.370024 5.86711,-0.296887 9.41183,-0.229325 17.1124,-0.162197 4.88926,-0.02342 v 0"
         clip-path="url(#pf425f8eb22)"
         style="fill:none;stroke:#23456f;stroke-width:2.25;stroke-linecap:round"
         id="path34" />
    </g>
    <g
       id="line2d_18">
      <path
         d="m 640.98728,26.000104 23.46845,0.210518 10.14521,0.294094 5.74488,0.372782 3.78917,0.457821 2.6891,0.541525 1.9557,0.603307 1.58901,0.710184 1.34455,0.846562 1.10008,0.94864 0.97785,1.12959 0.85562,1.306007 0.85562,1.728392 0.73339,1.952402 0.73339,2.556448 0.73339,3.381033 0.73339,4.481767 0.73339,5.854439 0.97785,9.932293 1.10008,11.129944 0.48893,2.775259 0.24446,0.493675 h 0.12223 l 0.24447,-0.493675 0.36669,-1.884121 0.48893,-4.156148 2.44463,-23.651666 0.85562,-5.113741 0.85562,-3.680653 0.85562,-2.665168 0.85562,-1.960373 0.97785,-1.648101 0.97785,-1.214666 1.10008,-1.014298 1.22232,-0.829895 1.46678,-0.721547 1.83347,-0.631679 2.20017,-0.514064 2.93355,-0.445029 4.03364,-0.370024 5.86711,-0.296887 9.41183,-0.229325 17.1124,-0.162197 4.88926,-0.02342 v 0"
         clip-path="url(#pf425f8eb22)"
         style="fill:none;stroke:#23456f;stroke-width:2.25;stroke-linecap:round"
         id="path35" />
    </g>
    <g
       id="line2d_19">
      <path
         d="M 778.05492,26.000104 793,26.097095 v 0"
         clip-path="url(#pf425f8eb22)"
         style="fill:none;stroke:#23456f;stroke-width:2.25;stroke-linecap:round"
         id="path36" />
    </g>
    <g
       id="line2d_20">
      <path
         d="M 0,0"
         clip-path="url(#pf425f8eb22)"
         style="fill:none;stroke:#23456f;stroke-width:2.25;stroke-linecap:round"
         id="path37" />
    </g>
    <g
       id="line2d_21">
      <path
         clip-path="url(#pf425f8eb22)"
         style="fill:none;stroke:#285c9d;stroke-width:2.25;stroke-linecap:round"
         id="path38"
         d="" />
    </g>
    <g
       id="line2d_22">
      <path
         clip-path="url(#pf425f8eb22)"
         style="fill:none;stroke:#285c9d;stroke-width:2.25;stroke-linecap:round"
         id="path39"
         d="" />
    </g>
    <g
       id="line2d_23">
      <path
         clip-path="url(#pf425f8eb22)"
         style="fill:none;stroke:#285c9d;stroke-width:2.25;stroke-linecap:round"
         id="path40"
         d="" />
    </g>
    <g
       id="line2d_24">
      <path
         clip-path="url(#pf425f8eb22)"
         style="fill:none;stroke:#285c9d;stroke-width:2.25;stroke-linecap:round"
         id="path41"
         d="" />
    </g>
    <g
       id="line2d_25">
      <path
         clip-path="url(#pf425f8eb22)"
         style="fill:none;stroke:#285c9d;stroke-width:2.25;stroke-linecap:round"
         id="path42"
         d="" />
    </g>
    <g
       id="line2d_26">
      <path
         d="m 5.166962,88.612351 0.616713,0.02117 0.616714,0.0225 0.616713,0.02395 0.616713,0.02552 0.616714,0.02723 0.616713,0.0291 0.616713,0.03114 0.616714,0.03338 0.616713,0.03583 0.616714,0.03853 0.616713,0.04151 0.616713,0.04479 0.616714,0.04844 0.616713,0.05248 0.616714,0.05699 0.616713,0.06203 0.616713,0.06766 0.616714,0.074 0.616713,0.08115 0.616714,0.08924 0.616713,0.09843 0.616713,0.108917 0.616714,0.120923 0.616713,0.134737 0.616713,0.150707 0.616714,0.169262 0.616713,0.190938 0.616714,0.216406 0.616713,0.246512 0.616713,0.282337 0.616714,0.325265 0.616713,0.377088 0.616714,0.440146 0.616713,0.517525 0.616713,0.61332 0.616714,0.733015 0.616713,0.884004 0.616714,1.076288 0.616713,1.323388 0.616713,1.643414 0.616714,2.059987 0.616713,2.60206 0.616713,3.30005 0.616714,4.17182 0.616713,5.18555 0.616714,6.18019 0.616713,6.74528 0.616713,6.17776 0.616714,3.83762 h 0.616713 l 0.616714,-3.83762 0.616713,-6.17776 0.616713,-6.74528 0.616714,-6.18019 0.616713,-5.18555 0.616714,-4.17182 0.616713,-3.30005 0.616713,-2.60206 0.616714,-2.059987 0.616713,-1.643414 0.616713,-1.323388 0.616714,-1.076288 0.616713,-0.884004 0.616714,-0.733015 0.616713,-0.61332 0.616713,-0.517525 0.616714,-0.440146 0.616713,-0.377088 0.616714,-0.325265 0.616713,-0.282337 0.616713,-0.246512 0.616714,-0.216406 0.616713,-0.190938 0.616714,-0.169262 0.616713,-0.150707 0.616713,-0.134737 0.616714,-0.120923 0.616713,-0.108917 0.616713,-0.09843 0.616714,-0.08924 0.616713,-0.08115 0.616714,-0.074 0.616713,-0.06766 0.616713,-0.06203 0.616714,-0.05699 0.616713,-0.05248 0.616714,-0.04844 0.616713,-0.04479 0.616713,-0.04151 0.616714,-0.03853 0.616713,-0.03583 0.616714,-0.03338 0.616713,-0.03114 0.616713,-0.0291 0.616714,-0.02723 0.616713,-0.02552 0.616713,-0.02395 0.616714,-0.0225 0.616713,-0.02117"
         clip-path="url(#pf425f8eb22)"
         style="fill:none;stroke:#285c9d;stroke-width:2.25;stroke-linecap:round"
         id="path43" />
    </g>
    <g
       id="line2d_27">
      <path
         d="m 90.569662,88.612351 0.616713,0.02117 0.616714,0.0225 0.616713,0.02395 0.616713,0.02552 0.616714,0.02723 0.616713,0.0291 0.616714,0.03114 0.616713,0.03338 0.616713,0.03583 0.616714,0.03853 0.616713,0.04151 0.616714,0.04479 0.616713,0.04844 0.616713,0.05248 0.616714,0.05699 0.616717,0.06203 0.61671,0.06766 0.61671,0.074 0.61672,0.08115 0.61671,0.08924 0.61671,0.09843 0.61672,0.108917 0.61671,0.120923 0.61671,0.134737 0.61672,0.150707 0.61671,0.169262 0.61671,0.190938 0.61672,0.216406 0.61671,0.246512 0.61671,0.282337 0.61672,0.325265 0.61671,0.377088 0.61671,0.440146 0.61672,0.517525 0.61671,0.61332 0.61671,0.733015 0.61672,0.884004 0.61671,1.076288 0.61671,1.323388 0.61672,1.643414 0.61671,2.059987 0.61671,2.60206 0.61672,3.30005 0.61671,4.17182 0.61671,5.18555 0.61672,6.18019 0.61671,6.74528 0.61671,6.17776 0.61672,3.83762 h 0.61671 l 0.61672,-3.83762 0.61671,-6.17776 0.61671,-6.74528 0.61672,-6.18019 0.61671,-5.18555 0.61671,-4.17182 0.61671,-3.30005 0.61672,-2.60206 0.61671,-2.059987 0.61671,-1.643414 0.61672,-1.323388 0.61671,-1.076288 0.61671,-0.884004 0.61672,-0.733015 0.61671,-0.61332 0.61672,-0.517525 0.61671,-0.440146 0.61671,-0.377088 0.61672,-0.325265 0.61671,-0.282337 0.61671,-0.246512 0.61672,-0.216406 0.61671,-0.190938 0.61671,-0.169262 0.61672,-0.150707 0.61671,-0.134737 0.61671,-0.120923 0.61672,-0.108917 0.61671,-0.09843 0.61671,-0.08924 0.61672,-0.08115 0.61671,-0.074 0.61671,-0.06766 0.61672,-0.06203 0.61671,-0.05699 0.61671,-0.05248 0.61672,-0.04844 0.61671,-0.04479 0.61671,-0.04151 0.61672,-0.03853 0.61671,-0.03583 0.61671,-0.03338 0.61672,-0.03114 0.61671,-0.0291 0.61671,-0.02723 0.61672,-0.02552 0.61671,-0.02395 0.61671,-0.0225 0.61672,-0.02117"
         clip-path="url(#pf425f8eb22)"
         style="fill:none;stroke:#285c9d;stroke-width:2.25;stroke-linecap:round"
         id="path44" />
    </g>
    <g
       id="line2d_28">
      <path
         d="m 172.30908,88.612351 0.61672,0.02117 0.61671,0.0225 0.61671,0.02395 0.61672,0.02552 0.61671,0.02723 0.61671,0.0291 0.61672,0.03114 0.61671,0.03338 0.61672,0.03583 0.61671,0.03853 0.61671,0.04151 0.61671,0.04479 0.61672,0.04844 0.61671,0.05248 0.61671,0.05699 0.61672,0.06203 0.61671,0.06766 0.61672,0.074 0.61671,0.08115 0.61671,0.08924 0.61672,0.09843 0.61671,0.108917 0.61671,0.120923 0.61672,0.134737 0.61671,0.150707 0.61671,0.169262 0.61672,0.190938 0.61671,0.216406 0.61671,0.246512 0.61672,0.282337 0.61671,0.325265 0.61671,0.377088 0.61672,0.440146 0.61671,0.517525 0.61671,0.61332 0.61672,0.733015 0.61671,0.884004 0.61671,1.076288 0.61672,1.323388 0.61671,1.643414 0.61671,2.059987 0.61672,2.60206 0.61671,3.30005 0.61671,4.17182 0.61672,5.18555 0.61671,6.18019 0.61671,6.74528 0.61672,6.17776 0.61671,3.83762 h 0.61671 l 0.61672,-3.83762 0.61671,-6.17776 0.61671,-6.74528 0.61672,-6.18019 0.61671,-5.18555 0.61671,-4.17182 0.61672,-3.30005 0.61671,-2.60206 0.61671,-2.059987 0.61672,-1.643414 0.61671,-1.323388 0.61671,-1.076288 0.61672,-0.884004 0.61671,-0.733015 0.61671,-0.61332 0.61672,-0.517525 0.61671,-0.440146 0.61671,-0.377088 0.61672,-0.325265 0.61671,-0.282337 0.61671,-0.246512 0.61672,-0.216406 0.61671,-0.190938 0.61671,-0.169262 0.61672,-0.150707 0.61671,-0.134737 0.61672,-0.120923 0.61671,-0.108917 0.61671,-0.09843 0.61672,-0.08924 0.61671,-0.08115 0.61671,-0.074 0.61672,-0.06766 0.61671,-0.06203 0.61671,-0.05699 0.61672,-0.05248 0.61671,-0.04844 0.61671,-0.04479 0.61672,-0.04151 0.61671,-0.03853 0.61671,-0.03583 0.61672,-0.03338 0.61671,-0.03114 0.61671,-0.0291 0.61672,-0.02723 0.61671,-0.02552 0.61671,-0.02395 0.61672,-0.0225 0.61671,-0.02117"
         clip-path="url(#pf425f8eb22)"
         style="fill:none;stroke:#285c9d;stroke-width:2.25;stroke-linecap:round"
         id="path45" />
    </g>
    <g
       id="line2d_29">
      <path
         d="m 250.38523,88.612351 0.61671,0.02117 0.61672,0.0225 0.61671,0.02395 0.61671,0.02552 0.61672,0.02723 0.61671,0.0291 0.61671,0.03114 0.61672,0.03338 0.61671,0.03583 0.61671,0.03853 0.61672,0.04151 0.61671,0.04479 0.61671,0.04844 0.61672,0.05248 0.61671,0.05699 0.61671,0.06203 0.61672,0.06766 0.61671,0.074 0.61671,0.08115 0.61672,0.08924 0.61671,0.09843 0.61671,0.108917 0.61672,0.120923 0.61671,0.134737 0.61671,0.150707 0.61672,0.169262 0.61671,0.190938 0.61672,0.216406 0.61671,0.246512 0.61671,0.282337 0.61672,0.325265 0.61671,0.377088 0.61671,0.440146 0.61671,0.517525 0.61672,0.61332 0.61671,0.733015 0.61671,0.884004 0.61672,1.076288 0.61671,1.323388 0.61671,1.643414 0.61672,2.059987 0.61671,2.60206 0.61671,3.30005 0.61672,4.17182 0.61671,5.18555 0.61672,6.18019 0.61671,6.74528 0.61671,6.17776 0.61672,3.83762 h 0.61671 l 0.61671,-3.83762 0.61672,-6.17776 0.61671,-6.74528 0.61671,-6.18019 0.61672,-5.18555 0.61671,-4.17182 0.61671,-3.30005 0.61672,-2.60206 0.61671,-2.059987 0.61671,-1.643414 0.61672,-1.323388 0.61671,-1.076288 0.61671,-0.884004 0.61672,-0.733015 0.61671,-0.61332 0.61671,-0.517525 0.61672,-0.440146 0.61671,-0.377088 0.61671,-0.325265 0.61672,-0.282337 0.61671,-0.246512 0.61671,-0.216406 0.61672,-0.190938 0.61671,-0.169262 0.61671,-0.150707 0.61672,-0.134737 0.61671,-0.120923 0.61671,-0.108917 0.61672,-0.09843 0.61671,-0.08924 0.61671,-0.08115 0.61672,-0.074 0.61671,-0.06766 0.61671,-0.06203 0.61672,-0.05699 0.61671,-0.05248 0.61671,-0.04844 0.61672,-0.04479 0.61671,-0.04151 0.61671,-0.03853 0.61672,-0.03583 0.61671,-0.03338 0.61671,-0.03114 0.61672,-0.0291 0.61671,-0.02723 0.61671,-0.02552 0.61672,-0.02395 0.61671,-0.0225 0.61672,-0.02117"
         clip-path="url(#pf425f8eb22)"
         style="fill:none;stroke:#285c9d;stroke-width:2.25;stroke-linecap:round"
         id="path46" />
    </g>
    <g
       id="line2d_30">
      <path
         d="m 324.7981,88.612351 0.61671,0.02117 0.61671,0.0225 0.61672,0.02395 0.61671,0.02552 0.61671,0.02723 0.61672,0.0291 0.61671,0.03114 0.61671,0.03338 0.61672,0.03583 0.61671,0.03853 0.61671,0.04151 0.61672,0.04479 0.61671,0.04844 0.61671,0.05248 0.61672,0.05699 0.61671,0.06203 0.61671,0.06766 0.61672,0.074 0.61671,0.08115 0.61671,0.08924 0.61672,0.09843 0.61671,0.108917 0.61671,0.120923 0.61672,0.134737 0.61671,0.150707 0.61672,0.169262 0.61671,0.190938 0.61671,0.216406 0.61672,0.246512 0.61671,0.282337 0.61671,0.325265 0.61672,0.377088 0.61671,0.440146 0.61671,0.517525 0.61672,0.61332 0.61671,0.733015 0.61671,0.884004 0.61672,1.076288 0.61671,1.323388 0.61671,1.643414 0.61672,2.059987 0.61671,2.60206 0.61671,3.30005 0.61672,4.17182 0.61671,5.18555 0.61671,6.18019 0.61672,6.74528 0.61671,6.17776 0.61671,3.83762 h 0.61672 l 0.61671,-3.83762 0.61671,-6.17776 0.61672,-6.74528 0.61671,-6.18019 0.61671,-5.18555 0.61672,-4.17182 0.61671,-3.30005 0.61671,-2.60206 0.61672,-2.059987 0.61671,-1.643414 0.61671,-1.323388 0.61672,-1.076288 0.61671,-0.884004 0.61671,-0.733015 0.61672,-0.61332 0.61671,-0.517525 0.61671,-0.440146 0.61672,-0.377088 0.61671,-0.325265 0.61671,-0.282337 0.61672,-0.246512 0.61671,-0.216406 0.61671,-0.190938 0.61672,-0.169262 0.61671,-0.150707 0.61671,-0.134737 0.61672,-0.120923 0.61671,-0.108917 0.61672,-0.09843 0.61671,-0.08924 0.61671,-0.08115 0.61672,-0.074 0.61671,-0.06766 0.61671,-0.06203 0.61671,-0.05699 0.61672,-0.05248 0.61671,-0.04844 0.61671,-0.04479 0.61672,-0.04151 0.61671,-0.03853 0.61672,-0.03583 0.61671,-0.03338 0.61671,-0.03114 0.61672,-0.0291 0.61671,-0.02723 0.61671,-0.02552 0.61672,-0.02395 0.61671,-0.0225 0.61671,-0.02117"
         clip-path="url(#pf425f8eb22)"
         style="fill:none;stroke:#285c9d;stroke-width:2.25;stroke-linecap:round"
         id="path47" />
    </g>
    <g
       id="line2d_31">
      <path
         d="m 395.54769,88.612351 0.61671,0.02117 0.61671,0.0225 0.61672,0.02395 0.61671,0.02552 0.61671,0.02723 0.61672,0.0291 0.61671,0.03114 0.61671,0.03338 0.61672,0.03583 0.61671,0.03853 0.61671,0.04151 0.61672,0.04479 0.61671,0.04844 0.61671,0.05248 0.61672,0.05699 0.61671,0.06203 0.61671,0.06766 0.61672,0.074 0.61671,0.08115 0.61671,0.08924 0.61672,0.09843 0.61671,0.108917 0.61672,0.120923 0.61671,0.134737 0.61671,0.150707 0.61672,0.169262 0.61671,0.190938 0.61671,0.216406 0.61672,0.246512 0.61671,0.282337 0.61671,0.325265 0.61672,0.377088 0.61671,0.440146 0.61671,0.517525 0.61672,0.61332 0.61671,0.733015 0.61671,0.884004 0.61672,1.076288 0.61671,1.323388 0.61671,1.643414 0.61672,2.059987 0.61671,2.60206 0.61671,3.30005 0.61672,4.17182 0.61671,5.18555 0.61671,6.18019 0.61672,6.74528 0.61671,6.17776 0.61671,3.83762 h 0.61672 l 0.61671,-3.83762 0.61671,-6.17776 0.61672,-6.74528 0.61671,-6.18019 0.61671,-5.18555 0.61672,-4.17182 0.61671,-3.30005 0.61671,-2.60206 0.61672,-2.059987 0.61671,-1.643414 0.61671,-1.323388 0.61672,-1.076288 0.61671,-0.884004 0.61671,-0.733015 0.61672,-0.61332 0.61671,-0.517525 0.61671,-0.440146 0.61672,-0.377088 0.61671,-0.325265 0.61671,-0.282337 0.61672,-0.246512 0.61671,-0.216406 0.61671,-0.190938 0.61672,-0.169262 0.61671,-0.150707 0.61672,-0.134737 0.61671,-0.120923 0.61671,-0.108917 0.61671,-0.09843 0.61672,-0.08924 0.61671,-0.08115 0.61671,-0.074 0.61672,-0.06766 0.61671,-0.06203 0.61671,-0.05699 0.61672,-0.05248 0.61671,-0.04844 0.61671,-0.04479 0.61672,-0.04151 0.61671,-0.03853 0.61672,-0.03583 0.61671,-0.03338 0.61671,-0.03114 0.61672,-0.0291 0.61671,-0.02723 0.61671,-0.02552 0.61672,-0.02395 0.61671,-0.0225 0.61671,-0.02117"
         clip-path="url(#pf425f8eb22)"
         style="fill:none;stroke:#285c9d;stroke-width:2.25;stroke-linecap:round"
         id="path48" />
    </g>
    <g
       id="line2d_32">
      <path
         d="m 462.634,88.612351 0.61671,0.02117 0.61672,0.0225 0.61671,0.02395 0.61671,0.02552 0.61672,0.02723 0.61671,0.0291 0.61671,0.03114 0.61672,0.03338 0.61671,0.03583 0.61671,0.03853 0.61672,0.04151 0.61671,0.04479 0.61671,0.04844 0.61672,0.05248 0.61671,0.05699 0.61671,0.06203 0.61672,0.06766 0.61671,0.074 0.61671,0.08115 0.61672,0.08924 0.61671,0.09843 0.61671,0.108917 0.61672,0.120923 0.61671,0.134737 0.61671,0.150707 0.61672,0.169262 0.61671,0.190938 0.61671,0.216406 0.61672,0.246512 0.61671,0.282337 0.61671,0.325265 0.61672,0.377088 0.61671,0.440146 0.61672,0.517525 0.61671,0.61332 0.61671,0.733015 0.61672,0.884004 0.61671,1.076288 0.61671,1.323388 0.61671,1.643414 0.61672,2.059987 0.61671,2.60206 0.61671,3.30005 0.61672,4.17182 0.61671,5.18555 0.61672,6.18019 0.61671,6.74528 0.61671,6.17776 0.61672,3.83762 h 0.61671 l 0.61671,-3.83762 0.61672,-6.17776 0.61671,-6.74528 0.61671,-6.18019 0.61672,-5.18555 0.61671,-4.17182 0.61671,-3.30005 0.61672,-2.60206 0.61671,-2.059987 0.61671,-1.643414 0.61672,-1.323388 0.61671,-1.076288 0.61671,-0.884004 0.61672,-0.733015 0.61671,-0.61332 0.61671,-0.517525 0.61672,-0.440146 0.61671,-0.377088 0.61671,-0.325265 0.61672,-0.282337 0.61671,-0.246512 0.61671,-0.216406 0.61672,-0.190938 0.61671,-0.169262 0.61671,-0.150707 0.61672,-0.134737 0.61671,-0.120923 0.61671,-0.108917 0.61672,-0.09843 0.61671,-0.08924 0.61671,-0.08115 0.61672,-0.074 0.61671,-0.06766 0.61671,-0.06203 0.61672,-0.05699 0.61671,-0.05248 0.61671,-0.04844 0.61672,-0.04479 0.61671,-0.04151 0.61671,-0.03853 0.61672,-0.03583 0.61671,-0.03338 0.61671,-0.03114 0.61672,-0.0291 0.61671,-0.02723 0.61671,-0.02552 0.61672,-0.02395 0.61671,-0.0225 0.61671,-0.02117"
         clip-path="url(#pf425f8eb22)"
         style="fill:none;stroke:#285c9d;stroke-width:2.25;stroke-linecap:round"
         id="path49" />
    </g>
    <g
       id="line2d_33">
      <path
         d="m 526.05704,88.612351 0.61671,0.02117 0.61671,0.0225 0.61672,0.02395 0.61671,0.02552 0.61671,0.02723 0.61671,0.0291 0.61672,0.03114 0.61671,0.03338 0.61671,0.03583 0.61672,0.03853 0.61671,0.04151 0.61671,0.04479 0.61672,0.04844 0.61671,0.05248 0.61672,0.05699 0.61671,0.06203 0.61671,0.06766 0.61672,0.074 0.61671,0.08115 0.61671,0.08924 0.61672,0.09843 0.61671,0.108917 0.61671,0.120923 0.61672,0.134737 0.61671,0.150707 0.61671,0.169262 0.61672,0.190938 0.61671,0.216406 0.61671,0.246512 0.61672,0.282337 0.61671,0.325265 0.61671,0.377088 0.61672,0.440146 0.61671,0.517525 0.61671,0.61332 0.61672,0.733015 0.61671,0.884004 0.61671,1.076288 0.61672,1.323388 0.61671,1.643414 0.61671,2.059987 0.61672,2.60206 0.61671,3.30005 0.61671,4.17182 0.61672,5.18555 0.61671,6.18019 0.61671,6.74528 0.61672,6.17776 0.61671,3.83762 h 0.61671 l 0.61672,-3.83762 0.61671,-6.17776 0.61671,-6.74528 0.61672,-6.18019 0.61671,-5.18555 0.61671,-4.17182 0.61672,-3.30005 0.61671,-2.60206 0.61671,-2.059987 0.61672,-1.643414 0.61671,-1.323388 0.61672,-1.076288 0.61671,-0.884004 0.61671,-0.733015 0.61672,-0.61332 0.61671,-0.517525 0.61671,-0.440146 0.61672,-0.377088 0.61671,-0.325265 0.61671,-0.282337 0.61672,-0.246512 0.61671,-0.216406 0.61671,-0.190938 0.61672,-0.169262 0.61671,-0.150707 0.61671,-0.134737 0.61672,-0.120923 0.61671,-0.108917 0.61671,-0.09843 0.61672,-0.08924 0.61671,-0.08115 0.61671,-0.074 0.61672,-0.06766 0.61671,-0.06203 0.61671,-0.05699 0.61672,-0.05248 0.61671,-0.04844 0.61671,-0.04479 0.61672,-0.04151 0.61671,-0.03853 0.61671,-0.03583 0.61672,-0.03338 0.61671,-0.03114 0.61671,-0.0291 0.61672,-0.02723 0.61671,-0.02552 0.61671,-0.02395 0.61672,-0.0225 0.61671,-0.02117"
         clip-path="url(#pf425f8eb22)"
         style="fill:none;stroke:#285c9d;stroke-width:2.25;stroke-linecap:round"
         id="path50" />
    </g>
    <g
       id="line2d_34">
      <path
         d="m 585.81679,88.612351 0.61672,0.02117 0.61671,0.0225 0.61671,0.02395 0.61672,0.02552 0.61671,0.02723 0.61671,0.0291 0.61672,0.03114 0.61671,0.03338 0.61671,0.03583 0.61672,0.03853 0.61671,0.04151 0.61671,0.04479 0.61672,0.04844 0.61671,0.05248 0.61671,0.05699 0.61672,0.06203 0.61671,0.06766 0.61671,0.074 0.61672,0.08115 0.61671,0.08924 0.61671,0.09843 0.61672,0.108917 0.61671,0.120923 0.61671,0.134737 0.61672,0.150707 0.61671,0.169262 0.61671,0.190938 0.61672,0.216406 0.61671,0.246512 0.61671,0.282337 0.61672,0.325265 0.61671,0.377088 0.61671,0.440146 0.61672,0.517525 0.61671,0.61332 0.61671,0.733015 0.61672,0.884004 0.61671,1.076288 0.61671,1.323388 0.61672,1.643414 0.61671,2.059987 0.61671,2.60206 0.61672,3.30005 0.61671,4.17182 0.61671,5.18555 0.61672,6.18019 0.61671,6.74528 0.61671,6.17776 0.61672,3.83762 h 0.61671 l 0.61672,-3.83762 0.61671,-6.17776 0.61671,-6.74528 0.61672,-6.18019 0.61671,-5.18555 0.61671,-4.17182 0.61672,-3.30005 0.61671,-2.60206 0.61671,-2.059987 0.61672,-1.643414 0.61671,-1.323388 0.61671,-1.076288 0.61672,-0.884004 0.61671,-0.733015 0.61671,-0.61332 0.61672,-0.517525 0.61671,-0.440146 0.61671,-0.377088 0.61672,-0.325265 0.61671,-0.282337 0.61671,-0.246512 0.61672,-0.216406 0.61671,-0.190938 0.61671,-0.169262 0.61672,-0.150707 0.61671,-0.134737 0.61671,-0.120923 0.61672,-0.108917 0.61671,-0.09843 0.61671,-0.08924 0.61672,-0.08115 0.61671,-0.074 0.61671,-0.06766 0.61672,-0.06203 0.61671,-0.05699 0.61671,-0.05248 0.61672,-0.04844 0.61671,-0.04479 0.61671,-0.04151 0.61672,-0.03853 0.61671,-0.03583 0.61671,-0.03338 0.61672,-0.03114 0.61671,-0.0291 0.61671,-0.02723 0.61672,-0.02552 0.61671,-0.02395 0.61671,-0.0225 0.61672,-0.02117"
         clip-path="url(#pf425f8eb22)"
         style="fill:none;stroke:#285c9d;stroke-width:2.25;stroke-linecap:round"
         id="path51" />
    </g>
    <g
       id="line2d_35">
      <path
         d="m 641.91327,88.612351 0.61671,0.02117 0.61672,0.0225 0.61671,0.02395 0.61672,0.02552 0.61671,0.02723 0.61671,0.0291 0.61672,0.03114 0.61671,0.03338 0.61671,0.03583 0.61672,0.03853 0.61671,0.04151 0.61671,0.04479 0.61672,0.04844 0.61671,0.05248 0.61671,0.05699 0.61672,0.06203 0.61671,0.06766 0.61671,0.074 0.61672,0.08115 0.61671,0.08924 0.61671,0.09843 0.61672,0.108917 0.61671,0.120923 0.61671,0.134737 0.61672,0.150707 0.61671,0.169262 0.61671,0.190938 0.61672,0.216406 0.61671,0.246512 0.61671,0.282337 0.61672,0.325265 0.61671,0.377088 0.61671,0.440146 0.61672,0.517525 0.61671,0.61332 0.61671,0.733015 0.61672,0.884004 0.61671,1.076288 0.61671,1.323388 0.61672,1.643414 0.61671,2.059987 0.61671,2.60206 0.61672,3.30005 0.61671,4.17182 0.61672,5.18555 0.61671,6.18019 0.61671,6.74528 0.61672,6.17776 0.61671,3.83762 h 0.61671 l 0.61671,-3.83762 0.61672,-6.17776 0.61671,-6.74528 0.61671,-6.18019 0.61672,-5.18555 0.61671,-4.17182 0.61671,-3.30005 0.61672,-2.60206 0.61671,-2.059987 0.61671,-1.643414 0.61672,-1.323388 0.61671,-1.076288 0.61672,-0.884004 0.61671,-0.733015 0.61671,-0.61332 0.61672,-0.517525 0.61671,-0.440146 0.61671,-0.377088 0.61672,-0.325265 0.61671,-0.282337 0.61671,-0.246512 0.61672,-0.216406 0.61671,-0.190938 0.61671,-0.169262 0.61672,-0.150707 0.61671,-0.134737 0.61671,-0.120923 0.61672,-0.108917 0.61671,-0.09843 0.61671,-0.08924 0.61672,-0.08115 0.61671,-0.074 0.61671,-0.06766 0.61672,-0.06203 0.61671,-0.05699 0.61671,-0.05248 0.61672,-0.04844 0.61671,-0.04479 0.61671,-0.04151 0.61672,-0.03853 0.61671,-0.03583 0.61671,-0.03338 0.61672,-0.03114 0.61671,-0.0291 0.61671,-0.02723 0.61672,-0.02552 0.61671,-0.02395 0.61671,-0.0225 0.61672,-0.02117"
         clip-path="url(#pf425f8eb22)"
         style="fill:none;stroke:#285c9d;stroke-width:2.25;stroke-linecap:round"
         id="path52" />
    </g>
    <g
       id="line2d_36">
      <path
         d="m 694.34647,88.612351 0.61672,0.02117 0.61671,0.0225 0.61671,0.02395 0.61672,0.02552 0.61671,0.02723 0.61671,0.0291 0.61672,0.03114 0.61671,0.03338 0.61671,0.03583 0.61672,0.03853 0.61671,0.04151 0.61671,0.04479 0.61672,0.04844 0.61671,0.05248 0.61671,0.05699 0.61672,0.06203 0.61671,0.06766 0.61671,0.074 0.61672,0.08115 0.61671,0.08924 0.61672,0.09843 0.61671,0.108917 0.61671,0.120923 0.61672,0.134737 0.61671,0.150707 0.61671,0.169262 0.61672,0.190938 0.61671,0.216406 0.61671,0.246512 0.61672,0.282337 0.61671,0.325265 0.61671,0.377088 0.61672,0.440146 0.61671,0.517525 0.61671,0.61332 0.61672,0.733015 0.61671,0.884004 0.61671,1.076288 0.61672,1.323388 0.61671,1.643414 0.61671,2.059987 0.61672,2.60206 0.61671,3.30005 0.61671,4.17182 0.61672,5.18555 0.61671,6.18019 0.61671,6.74528 0.61672,6.17776 0.61671,3.83762 h 0.61671 l 0.61672,-3.83762 0.61671,-6.17776 0.61671,-6.74528 0.61672,-6.18019 0.61671,-5.18555 0.61671,-4.17182 0.61672,-3.30005 0.61671,-2.60206 0.61671,-2.059987 0.61672,-1.643414 0.61671,-1.323388 0.61672,-1.076288 0.61671,-0.884004 0.61671,-0.733015 0.61672,-0.61332 0.61671,-0.517525 0.61671,-0.440146 0.61672,-0.377088 0.61671,-0.325265 0.61671,-0.282337 0.61671,-0.246512 0.61672,-0.216406 0.61671,-0.190938 0.61671,-0.169262 0.61672,-0.150707 0.61671,-0.134737 0.61671,-0.120923 0.61672,-0.108917 0.61671,-0.09843 0.61672,-0.08924 0.61671,-0.08115 0.61671,-0.074 0.61672,-0.06766 0.61671,-0.06203 0.61671,-0.05699 0.61672,-0.05248 0.61671,-0.04844 0.61671,-0.04479 0.61672,-0.04151 0.61671,-0.03853 0.61671,-0.03583 0.61672,-0.03338 0.61671,-0.03114 0.61671,-0.0291 0.61672,-0.02723 0.61671,-0.02552 0.61671,-0.02395 0.61672,-0.0225 0.61671,-0.02117"
         clip-path="url(#pf425f8eb22)"
         style="fill:none;stroke:#285c9d;stroke-width:2.25;stroke-linecap:round"
         id="path53" />
    </g>
    <g
       id="line2d_37">
      <path
         d="m 743.1164,88.612351 0.61671,0.02117 0.61672,0.0225 0.61671,0.02395 0.61671,0.02552 0.61672,0.02723 0.61671,0.0291 0.61671,0.03114 0.61672,0.03338 0.61671,0.03583 0.61671,0.03853 0.61672,0.04151 0.61671,0.04479 0.61671,0.04844 0.61672,0.05248 0.61671,0.05699 0.61671,0.06203 0.61672,0.06766 0.61671,0.074 0.61671,0.08115 0.61672,0.08924 0.61671,0.09843 0.61671,0.108917 0.61672,0.120923 0.61671,0.134737 0.61671,0.150707 0.61672,0.169262 0.61671,0.190938 0.61671,0.216406 0.61672,0.246512 0.61671,0.282337 0.61671,0.325265 0.61672,0.377088 0.61671,0.440146 0.61671,0.517525 0.61672,0.61332 0.61671,0.733015 0.61671,0.884004 0.61672,1.076288 0.61671,1.323388 0.61672,1.643414 0.61671,2.059987 0.61671,2.60206 0.61672,3.30005 0.61671,4.17182 0.61671,5.18555 0.61672,6.18019 0.61671,6.74528 0.61671,6.17776 0.61672,3.83762 h 0.61671 l 0.61671,-3.83762 0.61671,-6.17776 0.61672,-6.74528 0.61671,-6.18019 0.61672,-5.18555 0.61671,-4.17182 0.61671,-3.30005 0.61672,-2.60206 0.61671,-2.059987 0.61671,-1.643414 0.61672,-1.323388 0.61671,-1.076288 0.61671,-0.884004 0.61672,-0.733015 0.61671,-0.61332 0.61671,-0.517525 0.61672,-0.440146 0.61671,-0.377088 0.61671,-0.325265 0.61672,-0.282337 0.61671,-0.246512 0.61671,-0.216406 0.61672,-0.190938 0.61671,-0.169262 0.61671,-0.150707 0.61672,-0.134737 0.61671,-0.120923 0.61671,-0.108917 0.61672,-0.09843 0.61671,-0.08924 L 793,89.357839"
         clip-path="url(#pf425f8eb22)"
         style="fill:none;stroke:#285c9d;stroke-width:2.25;stroke-linecap:round"
         id="path54" />
    </g>
    <g
       id="line2d_38">
      <path
         d="m 788.22305,88.612351 0.61671,0.02117 0.61671,0.0225 0.61672,0.02395 0.61671,0.02552 0.61671,0.02723 0.61672,0.0291 0.61671,0.03114 0.45996,0.02489"
         clip-path="url(#pf425f8eb22)"
         style="fill:none;stroke:#285c9d;stroke-width:2.25;stroke-linecap:round"
         id="path55" />
    </g>
    <g
       id="line2d_39">
      <path
         clip-path="url(#pf425f8eb22)"
         style="fill:none;stroke:#285c9d;stroke-width:2.25;stroke-linecap:round"
         id="path56"
         d="" />
    </g>
    <g
       id="line2d_40">
      <path
         clip-path="url(#pf425f8eb22)"
         style="fill:none;stroke:#285c9d;stroke-width:2.25;stroke-linecap:round"
         id="path57"
         d="" />
    </g>
    <g
       id="patch_3">
      <path
         d="M 79.59,145.11 V 20.192727"
         style="fill:none;stroke:#ffffff;stroke-width:1.875;stroke-linecap:square;stroke-linejoin:miter"
         id="path58" />
    </g>
    <g
       id="patch_4">
      <path
         d="M 772.56,145.11 V 20.192727"
         style="fill:none;stroke:#ffffff;stroke-width:1.875;stroke-linecap:square;stroke-linejoin:miter"
         id="path59" />
    </g>
    <g
       id="patch_5">
      <path
         d="M 79.59,145.11 H 772.56"
         style="fill:none;stroke:#ffffff;stroke-width:1.875;stroke-linecap:square;stroke-linejoin:miter"
         id="path60" />
    </g>
    <g
       id="patch_6">
      <path
         d="M 79.59,20.192727 H 772.56"
         style="fill:none;stroke:#ffffff;stroke-width:1.875;stroke-linecap:square;stroke-linejoin:miter"
         id="path61" />
    </g>
  </g>
  <g
     id="axes_2"
     transform="translate(-57.565836,-19.255227)"
     style="display:inline">
    <g
       id="patch_7"
       transform="translate(0,-15)">
      <path
         d="M 79.59,273.72 H 772.56 V 165.30273 H 79.59 Z"
         style="fill:#eaeaf2"
         id="path62"
         sodipodi:nodetypes="ccccc" />
    </g>
    <g
       id="matplotlib.axis_3"
       transform="translate(0,-15)">
      <g
         id="xtick_8">
        <g
           id="line2d_41">
          <path
             d="M 110.57062,290.22 V 165.30273"
             clip-path="url(#pf5c62aca7b)"
             style="fill:none;stroke:#ffffff;stroke-width:1.5;stroke-linecap:round"
             id="path63" />
        </g>
      </g>
      <g
         id="xtick_9">
        <g
           id="line2d_42">
          <path
             d="M 206.475,290.22 V 165.30273"
             clip-path="url(#pf5c62aca7b)"
             style="fill:none;stroke:#ffffff;stroke-width:1.5;stroke-linecap:round"
             id="path68" />
        </g>
      </g>
      <g
         id="xtick_10">
        <g
           id="line2d_43">
          <path
             d="M 302.37939,290.22 V 165.30273"
             clip-path="url(#pf5c62aca7b)"
             style="fill:none;stroke:#ffffff;stroke-width:1.5;stroke-linecap:round"
             id="path74" />
        </g>
      </g>
      <g
         id="xtick_11">
        <g
           id="line2d_44">
          <path
             d="M 398.28377,290.22 V 165.30273"
             clip-path="url(#pf5c62aca7b)"
             style="fill:none;stroke:#ffffff;stroke-width:1.5;stroke-linecap:round"
             id="path80" />
        </g>
      </g>
      <g
         id="xtick_12">
        <g
           id="line2d_45">
          <path
             d="M 494.18815,290.22 V 165.30273"
             clip-path="url(#pf5c62aca7b)"
             style="fill:none;stroke:#ffffff;stroke-width:1.5;stroke-linecap:round"
             id="path86" />
        </g>
      </g>
      <g
         id="xtick_13">
        <g
           id="line2d_46">
          <path
             d="M 590.09253,290.22 V 165.30273"
             clip-path="url(#pf5c62aca7b)"
             style="fill:none;stroke:#ffffff;stroke-width:1.5;stroke-linecap:round"
             id="path92" />
        </g>
      </g>
      <g
         id="xtick_14">
        <g
           id="line2d_47">
          <path
             d="M 685.99691,290.22 V 165.30273"
             clip-path="url(#pf5c62aca7b)"
             style="fill:none;stroke:#ffffff;stroke-width:1.5;stroke-linecap:round"
             id="path98" />
        </g>
      </g>
      <g
         id="text_11"
         transform="translate(0,-17.001077)">
        <!-- Frequency -->
        <g
           style="fill:#262626"
           transform="matrix(0.18,0,0,-0.18,378.96809,306.34312)"
           id="g113">
          <defs
             id="defs104">
            <path
               id="DejaVuSans-46"
               d="M 628,4666 H 3309 V 4134 H 1259 V 2759 H 3109 V 2228 H 1259 V 0 H 628 Z"
               transform="scale(0.015625)" />
            <path
               id="DejaVuSans-72"
               d="m 2631,2963 q -97,56 -211,82 -114,27 -251,27 -488,0 -749,-317 -261,-317 -261,-911 V 0 H 581 v 3500 h 578 v -544 q 182,319 472,473 291,155 707,155 59,0 131,-8 72,-7 159,-23 z"
               transform="scale(0.015625)" />
            <path
               id="DejaVuSans-65"
               d="M 3597,1894 V 1613 H 953 q 38,-594 358,-905 320,-311 892,-311 331,0 642,81 311,81 618,244 V 178 Q 3153,47 2828,-22 2503,-91 2169,-91 1331,-91 842,396 353,884 353,1716 q 0,859 464,1363 464,505 1252,505 706,0 1117,-455 411,-454 411,-1235 z m -575,169 q -6,471 -264,752 -258,282 -683,282 -481,0 -770,-272 -289,-272 -333,-766 z"
               transform="scale(0.015625)" />
            <path
               id="DejaVuSans-71"
               d="m 947,1747 q 0,-634 261,-995 261,-361 717,-361 456,0 718,361 263,361 263,995 0,634 -263,995 -262,361 -718,361 -456,0 -717,-361 Q 947,2381 947,1747 Z M 2906,525 Q 2725,213 2448,61 2172,-91 1784,-91 1150,-91 751,415 353,922 353,1747 q 0,825 398,1331 399,506 1033,506 388,0 664,-152 277,-151 458,-463 v 531 h 575 v -4831 h -575 z"
               transform="scale(0.015625)" />
            <path
               id="DejaVuSans-75"
               d="m 544,1381 v 2119 h 575 V 1403 q 0,-497 193,-746 194,-248 582,-248 465,0 735,297 271,297 271,810 v 1984 h 575 V 0 H 2900 V 538 Q 2691,219 2414,64 2138,-91 1772,-91 1169,-91 856,284 544,659 544,1381 Z m 1447,2203 z"
               transform="scale(0.015625)" />
            <path
               id="DejaVuSans-6e"
               d="M 3513,2113 V 0 h -575 v 2094 q 0,497 -194,743 -194,247 -581,247 -466,0 -735,-297 -269,-296 -269,-809 V 0 H 581 v 3500 h 578 v -544 q 207,316 486,472 280,156 646,156 603,0 912,-373 310,-373 310,-1098 z"
               transform="scale(0.015625)" />
            <path
               id="DejaVuSans-63"
               d="m 3122,3366 v -538 q -244,135 -489,202 -245,67 -495,67 -560,0 -870,-355 -309,-354 -309,-995 0,-641 309,-996 310,-354 870,-354 250,0 495,67 245,67 489,202 V 134 Q 2881,22 2623,-34 2366,-91 2075,-91 1284,-91 818,406 353,903 353,1747 q 0,856 470,1346 471,491 1290,491 265,0 518,-55 253,-54 491,-163 z"
               transform="scale(0.015625)" />
            <path
               id="DejaVuSans-79"
               d="m 2059,-325 q -243,-625 -475,-815 -231,-191 -618,-191 H 506 v 481 h 338 q 237,0 368,113 132,112 291,531 L 1606,56 191,3500 H 800 L 1894,763 2988,3500 h 609 z"
               transform="scale(0.015625)" />
          </defs>
          <use
             xlink:href="#DejaVuSans-46"
             id="use105" />
          <use
             xlink:href="#DejaVuSans-72"
             transform="translate(50.269531)"
             id="use106" />
          <use
             xlink:href="#DejaVuSans-65"
             transform="translate(89.132812)"
             id="use107" />
          <use
             xlink:href="#DejaVuSans-71"
             transform="translate(150.65625)"
             id="use108" />
          <use
             xlink:href="#DejaVuSans-75"
             transform="translate(214.13281)"
             id="use109" />
          <use
             xlink:href="#DejaVuSans-65"
             transform="translate(277.51172)"
             id="use110" />
          <use
             xlink:href="#DejaVuSans-6e"
             transform="translate(339.03516)"
             id="use111" />
          <use
             xlink:href="#DejaVuSans-63"
             transform="translate(402.41406)"
             id="use112" />
          <use
             xlink:href="#DejaVuSans-79"
             transform="translate(457.39453)"
             id="use113" />
        </g>
      </g>
    </g>
    <g
       id="matplotlib.axis_4"
       transform="translate(0,-6.0000003)">
      <g
         id="ytick_4"
         transform="translate(0,-15)">
        <g
           id="line2d_48">
          <path
             d="M 79.59,274.69434 H 772.56"
             clip-path="url(#pf5c62aca7b)"
             style="fill:none;stroke:#ffffff;stroke-width:1.5;stroke-linecap:round"
             id="path113" />
        </g>
      </g>
      <g
         id="ytick_5"
         transform="translate(0,-15)">
        <g
           id="line2d_49">
          <path
             d="M 79.59,222.83756 H 772.56"
             clip-path="url(#pf5c62aca7b)"
             style="fill:none;stroke:#ffffff;stroke-width:1.5;stroke-linecap:round"
             id="path116" />
        </g>
      </g>
      <g
         id="ytick_6"
         transform="translate(0,-15)">
        <g
           id="line2d_50">
          <path
             d="M 79.59,170.98078 H 772.56"
             clip-path="url(#pf5c62aca7b)"
             style="fill:none;stroke:#ffffff;stroke-width:1.5;stroke-linecap:round"
             id="path119" />
        </g>
      </g>
      <g
         id="text_15"
         transform="translate(38.136618,-73.885013)">
        <!-- Transmission (arb. units) -->
        <g
           style="fill:#262626"
           transform="matrix(0,-0.18,-0.18,0,33.106406,338.54996)"
           id="g147">
          <defs
             id="defs122">
            <path
               id="DejaVuSans-54"
               d="M -19,4666 H 3928 V 4134 H 2272 V 0 H 1638 V 4134 H -19 Z"
               transform="scale(0.015625)" />
            <path
               id="DejaVuSans-61"
               d="m 2194,1759 q -697,0 -966,-159 -269,-159 -269,-544 0,-306 202,-486 202,-179 548,-179 479,0 768,339 289,339 289,901 v 128 z m 1147,238 V 0 H 2766 V 531 Q 2569,213 2275,61 1981,-91 1556,-91 q -537,0 -855,302 -317,302 -317,808 0,590 395,890 396,300 1180,300 h 807 v 57 q 0,397 -261,614 -261,217 -733,217 -300,0 -585,-72 -284,-72 -546,-216 v 532 q 315,122 612,182 297,61 578,61 760,0 1135,-394 375,-393 375,-1193 z"
               transform="scale(0.015625)" />
            <path
               id="DejaVuSans-73"
               d="m 2834,3397 v -544 q -243,125 -506,187 -262,63 -544,63 -428,0 -642,-131 -214,-131 -214,-394 0,-200 153,-314 153,-114 616,-217 l 197,-44 q 612,-131 870,-370 258,-239 258,-667 0,-488 -386,-773 Q 2250,-91 1575,-91 1294,-91 989,-36 684,19 347,128 v 594 q 319,-166 628,-249 309,-82 613,-82 406,0 624,139 219,139 219,392 0,234 -158,359 -157,125 -692,241 l -200,47 q -534,112 -772,345 -237,233 -237,639 0,494 350,762 350,269 994,269 318,0 599,-47 282,-46 519,-140 z"
               transform="scale(0.015625)" />
            <path
               id="DejaVuSans-6d"
               d="m 3328,2828 q 216,388 516,572 300,184 706,184 547,0 844,-383 297,-382 297,-1088 V 0 h -578 v 2094 q 0,503 -179,746 -178,244 -543,244 -447,0 -707,-297 -259,-296 -259,-809 V 0 h -578 v 2094 q 0,506 -178,748 -178,242 -550,242 -441,0 -701,-298 -259,-298 -259,-808 V 0 H 581 v 3500 h 578 v -544 q 197,322 472,475 275,153 653,153 382,0 649,-194 267,-193 395,-562 z"
               transform="scale(0.015625)" />
            <path
               id="DejaVuSans-69"
               d="m 603,3500 h 575 V 0 H 603 Z m 0,1363 h 575 V 4134 H 603 Z"
               transform="scale(0.015625)" />
            <path
               id="DejaVuSans-6f"
               d="m 1959,3097 q -462,0 -731,-361 -269,-361 -269,-989 0,-628 267,-989 268,-361 733,-361 460,0 728,362 269,363 269,988 0,622 -269,986 -268,364 -728,364 z m 0,487 q 750,0 1178,-488 429,-487 429,-1349 Q 3566,888 3137,398 2709,-91 1959,-91 1206,-91 779,398 353,888 353,1747 q 0,862 426,1349 427,488 1180,488 z"
               transform="scale(0.015625)" />
            <path
               id="DejaVuSans-20"
               transform="scale(0.015625)"
               d="" />
            <path
               id="DejaVuSans-28"
               d="m 1984,4856 q -418,-718 -622,-1422 -203,-703 -203,-1425 0,-721 205,-1429 205,-708 620,-1424 h -500 q -468,735 -701,1444 -233,709 -233,1409 0,697 231,1403 232,707 703,1444 z"
               transform="scale(0.015625)" />
            <path
               id="DejaVuSans-62"
               d="m 3116,1747 q 0,634 -261,995 -261,361 -717,361 -457,0 -718,-361 -261,-361 -261,-995 0,-634 261,-995 261,-361 718,-361 456,0 717,361 261,361 261,995 z M 1159,2969 q 182,312 458,463 277,152 661,152 638,0 1036,-506 399,-506 399,-1331 Q 3713,922 3314,415 2916,-91 2278,-91 1894,-91 1617,61 1341,213 1159,525 V 0 H 581 v 4863 h 578 z"
               transform="scale(0.015625)" />
            <path
               id="DejaVuSans-74"
               d="M 1172,4494 V 3500 H 2356 V 3053 H 1172 V 1153 q 0,-428 117,-550 117,-122 477,-122 h 590 V 0 H 1766 Q 1100,0 847,248 594,497 594,1153 V 3053 H 172 v 447 h 422 v 994 z"
               transform="scale(0.015625)" />
            <path
               id="DejaVuSans-29"
               d="m 513,4856 h 500 q 468,-737 701,-1444 233,-706 233,-1403 0,-700 -233,-1409 -233,-709 -701,-1444 H 513 q 415,716 620,1424 205,708 205,1429 0,722 -205,1425 -205,704 -620,1422 z"
               transform="scale(0.015625)" />
          </defs>
          <use
             xlink:href="#DejaVuSans-54"
             id="use123" />
          <use
             xlink:href="#DejaVuSans-72"
             transform="translate(46.333984)"
             id="use124" />
          <use
             xlink:href="#DejaVuSans-61"
             transform="translate(87.447266)"
             id="use125" />
          <use
             xlink:href="#DejaVuSans-6e"
             transform="translate(148.72656)"
             id="use126" />
          <use
             xlink:href="#DejaVuSans-73"
             transform="translate(212.10547)"
             id="use127" />
          <use
             xlink:href="#DejaVuSans-6d"
             transform="translate(264.20508)"
             id="use128" />
          <use
             xlink:href="#DejaVuSans-69"
             transform="translate(361.61719)"
             id="use129" />
          <use
             xlink:href="#DejaVuSans-73"
             transform="translate(389.40039)"
             id="use130" />
          <use
             xlink:href="#DejaVuSans-73"
             transform="translate(441.5)"
             id="use131" />
          <use
             xlink:href="#DejaVuSans-69"
             transform="translate(493.59961)"
             id="use132" />
          <use
             xlink:href="#DejaVuSans-6f"
             transform="translate(521.38281)"
             id="use133" />
          <use
             xlink:href="#DejaVuSans-6e"
             transform="translate(582.56445)"
             id="use134" />
          <use
             xlink:href="#DejaVuSans-20"
             transform="translate(645.94336)"
             id="use135" />
          <use
             xlink:href="#DejaVuSans-28"
             transform="translate(677.73047)"
             id="use136" />
          <use
             xlink:href="#DejaVuSans-61"
             transform="translate(716.74414)"
             id="use137" />
          <use
             xlink:href="#DejaVuSans-72"
             transform="translate(778.02344)"
             id="use138" />
          <use
             xlink:href="#DejaVuSans-62"
             transform="translate(819.13672)"
             id="use139" />
          <path
             id="use140"
             d="m 893.30078,12.40625 h 10.3125 V 0 h -10.3125 z"
             style="stroke-width:0.015625" />
          <use
             xlink:href="#DejaVuSans-20"
             transform="translate(914.40039)"
             id="use141" />
          <use
             xlink:href="#DejaVuSans-75"
             transform="translate(946.1875)"
             id="use142" />
          <use
             xlink:href="#DejaVuSans-6e"
             transform="translate(1009.5664)"
             id="use143" />
          <use
             xlink:href="#DejaVuSans-69"
             transform="translate(1072.9453)"
             id="use144" />
          <use
             xlink:href="#DejaVuSans-74"
             transform="translate(1100.7285)"
             id="use145" />
          <use
             xlink:href="#DejaVuSans-73"
             transform="translate(1139.9375)"
             id="use146" />
          <use
             xlink:href="#DejaVuSans-29"
             transform="translate(1192.0371)"
             id="use147" />
        </g>
      </g>
    </g>
    <g
       id="line2d_51">
      <path
         d="M 0,0"
         clip-path="url(#pf5c62aca7b)"
         style="fill:none;stroke:#8c0800;stroke-width:2.25;stroke-linecap:round"
         id="path147" />
    </g>
    <g
       id="line2d_52">
      <path
         d="M 0,0"
         clip-path="url(#pf5c62aca7b)"
         style="fill:none;stroke:#12711c;stroke-width:2.25;stroke-linecap:round"
         id="path148" />
    </g>
    <g
       id="line2d_53">
      <path
         d="M 0,0"
         clip-path="url(#pf5c62aca7b)"
         style="fill:none;stroke:#001c7f;stroke-width:2.25;stroke-linecap:round"
         id="path149" />
    </g>
    <g
       id="line2d_54">
      <path
         d="M 0,0"
         clip-path="url(#pf5c62aca7b)"
         style="fill:none;stroke:#8c0800;stroke-width:2.25;stroke-linecap:round"
         id="path150" />
    </g>
    <g
       id="line2d_55">
      <path
         d="M 0,0"
         clip-path="url(#pf5c62aca7b)"
         style="fill:none;stroke:#12711c;stroke-width:2.25;stroke-linecap:round"
         id="path151" />
    </g>
    <g
       id="line2d_56">
      <path
         d="M 0,0"
         clip-path="url(#pf5c62aca7b)"
         style="fill:none;stroke:#001c7f;stroke-width:2.25;stroke-linecap:round"
         id="path152" />
    </g>
    <g
       id="line2d_57">
      <path
         d="m -1,170.99021 69.600167,-0.008 v 0"
         clip-path="url(#pf5c62aca7b)"
         style="fill:none;stroke:#8c0800;stroke-width:2.25;stroke-linecap:round"
         id="path153" />
    </g>
    <g
       id="line2d_58">
      <path
         d="m -1,171.34954 2.128389,0.28253 1.344546,0.38544 0.855621,0.45386 0.611157,0.53283 0.488926,0.65928 0.488926,1.0352 0.366694,1.215 0.366695,1.89727 0.366694,3.1663 0.366695,5.72713 0.366694,11.23114 0.366695,21.73768 0.366694,23.18684 h 0.122232 l 0.244463,-13.82292 0.488925,-31.1016 0.366695,-11.23114 0.366694,-5.72713 0.488926,-3.90172 0.488926,-2.0261 0.488926,-1.1714 0.611158,-0.87383 0.733388,-0.61402 0.855621,-0.42023 1.222315,-0.33788 1.833472,-0.2559 3.178018,-0.18878 6.600501,-0.12344 19.068111,-0.0635 23.95737,-0.0124 v 0"
         clip-path="url(#pf5c62aca7b)"
         style="fill:none;stroke:#12711c;stroke-width:2.25;stroke-linecap:round"
         id="path154" />
    </g>
    <g
       id="line2d_59">
      <path
         d="m -1,171.26463 2.739546,0.26332 1.58901,0.36346 0.977852,0.43709 0.733388,0.5707 0.611158,0.80132 0.488926,1.05824 0.366694,1.24606 0.366695,1.95282 0.366694,3.27363 0.366695,5.952 0.366694,11.71582 0.366694,22.44441 0.366695,21.94174 0.122231,-1.02951 0.244463,-14.91198 0.488926,-30.33201 0.366695,-10.76717 0.366694,-5.5125 0.488926,-3.77721 0.488926,-1.97241 0.488926,-1.14507 0.611157,-0.8571 0.733389,-0.60408 0.855621,-0.41451 1.222315,-0.33404 1.833472,-0.25358 3.178018,-0.18747 6.6005,-0.12286 19.190343,-0.0634 22.612824,-0.012 v 0"
         clip-path="url(#pf5c62aca7b)"
         style="fill:none;stroke:#001c7f;stroke-width:2.25;stroke-linecap:round"
         id="path155" />
    </g>
    <g
       id="line2d_60"
       transform="translate(0,-15)">
      <path
         d="m 86.611282,171.00733 19.312578,0.14315 4.40033,0.22928 2.07793,0.31291 1.22232,0.39222 0.85562,0.50336 0.61116,0.6018 0.48892,0.75854 0.48893,1.21762 0.36669,1.46432 0.3667,2.34952 0.36669,4.05458 0.3667,7.61265 0.36669,15.21069 0.61116,37.61212 0.12223,-1.72886 0.36669,-24.82187 0.3667,-20.52012 0.36669,-10.46006 0.3667,-5.37066 0.48892,-3.69458 0.48893,-1.93657 0.48893,-1.12745 0.61115,-0.84583 0.73339,-0.59738 0.85562,-0.41063 1.22232,-0.33145 1.9557,-0.26324 3.30025,-0.1838 6.9672,-0.11931 20.77935,-0.0601 50.72606,-0.0141 v 0"
         clip-path="url(#pf5c62aca7b)"
         style="fill:none;stroke:#8c0800;stroke-width:2.25;stroke-linecap:round"
         id="path156" />
    </g>
    <g
       id="line2d_61"
       transform="translate(0,-15)">
      <path
         d="m 86.611282,170.98804 46.570198,0.12151 5.50041,0.20499 2.44463,0.29362 1.34455,0.36179 0.85562,0.42023 0.73339,0.61402 0.48892,0.65928 0.48893,1.0352 0.36669,1.215 0.3667,1.89727 0.36669,3.1663 0.3667,5.72713 0.36669,11.23114 0.3667,21.73768 0.36669,23.18684 h 0.12223 l 0.24447,-13.82292 0.48892,-31.1016 0.3667,-11.23114 0.36669,-5.72713 0.48893,-3.90172 0.48892,-2.0261 0.48893,-1.1714 0.61116,-0.87383 0.73338,-0.61402 0.85562,-0.42023 1.22232,-0.33788 1.83347,-0.2559 3.17802,-0.18878 6.6005,-0.12344 19.06811,-0.0635 23.95737,-0.0124 v 0"
         clip-path="url(#pf5c62aca7b)"
         style="fill:none;stroke:#12711c;stroke-width:2.25;stroke-linecap:round"
         id="path157" />
    </g>
    <g
       id="line2d_62"
       transform="translate(0,-15)">
      <path
         d="m 86.611282,170.98747 49.014828,0.12007 5.62264,0.20755 2.44463,0.29448 1.34455,0.36316 0.85562,0.42217 0.73339,0.61738 0.48893,0.6635 0.48892,1.04281 0.3667,1.22527 0.36669,1.9156 0.36669,3.20165 0.3667,5.80111 0.36669,11.39074 0.3667,21.97559 0.36669,22.79386 0.12223,-0.34475 0.24447,-14.20423 0.48892,-30.85091 0.3667,-11.07384 0.36669,-5.65431 0.48893,-3.85955 0.48892,-2.00795 0.48893,-1.16252 0.61116,-0.86819 0.73339,-0.61067 0.85562,-0.41831 1.22231,-0.33659 1.83347,-0.25512 3.17802,-0.18835 6.6005,-0.12324 19.06811,-0.0634 21.39051,-0.0118 v 0"
         clip-path="url(#pf5c62aca7b)"
         style="fill:none;stroke:#001c7f;stroke-width:2.25;stroke-linecap:round"
         id="path158"
         sodipodi:nodetypes="cccccccccccccccccccccccccccccccccc" />
    </g>
    <g
       id="line2d_63"
       transform="translate(0,-15)">
      <path
         d="m 226.1211,170.99218 34.71374,0.12594 5.25596,0.21294 2.32239,0.29522 1.34455,0.37964 0.85562,0.44557 0.61116,0.52143 0.48892,0.64311 0.48893,1.00597 0.3667,1.17576 0.36669,1.82747 0.36669,3.03219 0.3667,5.44763 0.36669,10.62675 0.3667,20.79261 0.36669,24.50779 0.12223,1.34782 0.12223,-4.16048 0.85562,-48.8082 0.3667,-7.49789 0.36669,-4.00114 0.48893,-2.87858 0.48892,-1.57343 0.61116,-1.1216 0.61116,-0.65844 0.73339,-0.48297 0.97785,-0.37992 1.46678,-0.30687 2.3224,-0.22754 4.2781,-0.15873 10.02298,-0.0955 37.89176,-0.0408 11.73422,-0.002 v 0"
         clip-path="url(#pf5c62aca7b)"
         style="fill:none;stroke:#8c0800;stroke-width:2.25;stroke-linecap:round"
         id="path159" />
    </g>
    <g
       id="line2d_64"
       transform="translate(0,-15)">
      <path
         d="m 226.1211,170.98804 46.5702,0.12151 5.50041,0.20499 2.44463,0.29362 1.34455,0.36179 0.85562,0.42023 0.73339,0.61402 0.48892,0.65928 0.48893,1.0352 0.36669,1.215 0.3667,1.89727 0.36669,3.1663 0.3667,5.72713 0.36669,11.23114 0.3667,21.73768 0.36669,23.18684 h 0.12223 l 0.24447,-13.82292 0.48892,-31.1016 0.3667,-11.23114 0.36669,-5.72713 0.48893,-3.90172 0.48892,-2.0261 0.48893,-1.1714 0.61116,-0.87383 0.73338,-0.61402 0.85562,-0.42023 1.22232,-0.33788 1.83347,-0.2559 3.17802,-0.18878 6.6005,-0.12344 19.06811,-0.0635 23.95737,-0.0124 v 0"
         clip-path="url(#pf5c62aca7b)"
         style="fill:none;stroke:#12711c;stroke-width:2.25;stroke-linecap:round"
         id="path160" />
    </g>
    <g
       id="line2d_65"
       transform="translate(0,-15)">
      <path
         d="m 226.1211,170.98679 52.43731,0.11952 5.62265,0.20356 2.44462,0.28632 1.34455,0.3502 0.97785,0.48173 0.73339,0.6413 0.48893,0.6935 0.48892,1.0975 0.3667,1.2993 0.36669,2.04855 0.3667,3.45983 0.36669,6.3443 0.3667,12.55674 0.36669,23.5547 0.36669,19.45498 0.12224,-2.67715 0.97785,-52.75947 0.36669,-6.40604 0.48893,-4.29167 0.48892,-2.1922 0.48893,-1.25196 0.61116,-0.92465 0.73339,-0.64394 0.85562,-0.43737 1.22231,-0.34926 1.83348,-0.26278 3.17801,-0.19262 6.47827,-0.12402 18.57919,-0.0645 18.57918,-0.0114 v 0"
         clip-path="url(#pf5c62aca7b)"
         style="fill:none;stroke:#001c7f;stroke-width:2.25;stroke-linecap:round"
         id="path161" />
    </g>
    <g
       id="line2d_66"
       transform="translate(0,-15)">
      <path
         d="m 365.02037,170.99063 38.25846,0.12484 5.37818,0.2144 2.3224,0.29344 1.34455,0.37669 0.85562,0.44136 0.61116,0.51566 0.61115,0.84093 0.48893,1.11979 0.36669,1.32968 0.3667,2.10349 0.36669,3.56735 0.3667,6.572 0.36669,13.04136 0.3667,24.12376 0.24446,15.83461 0.12223,2.03332 0.12223,-3.53719 0.85562,-49.14592 0.3667,-7.70663 0.36669,-4.09832 0.48893,-2.93775 0.48892,-1.60039 0.48893,-0.9588 0.61116,-0.73642 0.73339,-0.53126 0.97785,-0.41164 1.34454,-0.30799 2.20017,-0.24217 3.91141,-0.16762 8.80066,-0.10339 30.43564,-0.0471 17.47911,-0.004 v 0"
         clip-path="url(#pf5c62aca7b)"
         style="fill:none;stroke:#8c0800;stroke-width:2.25;stroke-linecap:round"
         id="path162" />
    </g>
    <g
       id="line2d_67"
       transform="translate(0,-15)">
      <path
         d="m 365.02037,170.98804 46.5702,0.12151 5.50042,0.20499 2.44463,0.29362 1.34454,0.36179 0.85562,0.42023 0.73339,0.61402 0.48893,0.65928 0.48892,1.0352 0.3667,1.215 0.36669,1.89727 0.3667,3.1663 0.36669,5.72713 0.36669,11.23114 0.3667,21.73768 0.36669,23.18684 h 0.12224 l 0.24446,-13.82292 0.48892,-31.1016 0.3667,-11.23114 0.36669,-5.72713 0.48893,-3.90172 0.48892,-2.0261 0.48893,-1.1714 0.61116,-0.87383 0.73339,-0.61402 0.85562,-0.42023 1.22231,-0.33788 1.83347,-0.2559 3.17802,-0.18878 6.6005,-0.12344 19.06811,-0.0635 23.95738,-0.0124 v 0"
         clip-path="url(#pf5c62aca7b)"
         style="fill:none;stroke:#12711c;stroke-width:2.25;stroke-linecap:round"
         id="path163" />
    </g>
    <g
       id="line2d_68"
       transform="translate(0,-15)">
      <path
         d="m 365.02037,170.98636 55.00417,0.1197 5.62265,0.20277 2.44463,0.28471 1.34455,0.34766 0.97785,0.47744 0.73339,0.63443 0.48892,0.68486 0.48893,1.08171 0.36669,1.27786 0.3667,2.00989 0.36669,3.38446 0.3667,6.18518 0.36669,12.21647 0.36669,23.12375 0.3667,20.50606 0.12223,-2.03332 0.36669,-25.05463 0.3667,-20.30033 0.36669,-10.32773 0.3667,-5.3096 0.48893,-3.65891 0.48892,-1.92105 0.48893,-1.11979 0.61115,-0.84093 0.73339,-0.59446 0.97786,-0.45223 1.34454,-0.33264 2.07794,-0.24782 3.66694,-0.17492 7.94505,-0.10917 25.79084,-0.0523 6.23381,-0.003 v 0"
         clip-path="url(#pf5c62aca7b)"
         style="fill:none;stroke:#001c7f;stroke-width:2.25;stroke-linecap:round"
         id="path164" />
    </g>
    <g
       id="line2d_69"
       transform="translate(0,-15)">
      <path
         d="m 503.3091,170.99268 33.73589,0.12673 5.13372,0.20719 2.3224,0.28857 1.34455,0.36866 0.85562,0.42994 0.73339,0.63092 0.48892,0.68045 0.48893,1.07366 0.36669,1.26694 0.3667,1.99026 0.36669,3.34629 0.3667,6.10476 0.36669,12.04405 0.3667,22.89577 0.36669,21.01626 0.12223,-1.69498 0.36669,-24.79497 0.3667,-20.54447 0.36669,-10.47482 0.3667,-5.37748 0.48893,-3.69856 0.48892,-1.9383 0.48893,-1.1283 0.61115,-0.84638 0.73339,-0.5977 0.85562,-0.41082 1.22232,-0.33157 1.9557,-0.26332 3.30025,-0.18384 6.9672,-0.11934 20.77935,-0.0601 34.9582,-0.0125 v 0"
         clip-path="url(#pf5c62aca7b)"
         style="fill:none;stroke:#8c0800;stroke-width:2.25;stroke-linecap:round"
         id="path165" />
    </g>
    <g
       id="line2d_70"
       transform="translate(0,-15)">
      <path
         d="m 503.3091,170.98804 46.5702,0.12151 5.50041,0.20499 2.44463,0.29362 1.34455,0.36179 0.85562,0.42023 0.73339,0.61402 0.48892,0.65928 0.48893,1.0352 0.36669,1.215 0.3667,1.89727 0.36669,3.1663 0.3667,5.72713 0.36669,11.23114 0.3667,21.73768 0.36669,23.18684 h 0.12223 l 0.24447,-13.82292 0.48892,-31.1016 0.3667,-11.23114 0.36669,-5.72713 0.48893,-3.90172 0.48892,-2.0261 0.48893,-1.1714 0.61116,-0.87383 0.73338,-0.61402 0.85563,-0.42023 1.22231,-0.33788 1.83347,-0.2559 3.17802,-0.18878 6.6005,-0.12344 19.06811,-0.0635 23.95737,-0.0124 v 0"
         clip-path="url(#pf5c62aca7b)"
         style="fill:none;stroke:#12711c;stroke-width:2.25;stroke-linecap:round"
         id="path166" />
    </g>
    <g
       id="line2d_71"
       transform="translate(0,-15)">
      <path
         d="m 503.3091,170.98688 51.94838,0.11915 5.62265,0.20267 2.44463,0.28451 1.34455,0.34735 0.97785,0.47691 0.73339,0.63359 0.48892,0.6838 0.48893,1.07977 0.36669,1.27523 0.3667,2.00517 0.36669,3.37526 0.3667,6.16579 0.36669,12.17493 0.3667,23.06942 0.36669,20.63041 0.12223,-1.95254 0.36669,-24.99445 0.3667,-20.35883 0.36669,-10.36278 0.3667,-5.32576 0.48892,-3.66836 0.48893,-1.92517 0.48893,-1.12182 0.61115,-0.84223 0.73339,-0.59524 0.97785,-0.45272 1.34455,-0.33293 2.07794,-0.248 3.66694,-0.17501 7.94505,-0.1092 25.79084,-0.0523 9.28959,-0.004 v 0"
         clip-path="url(#pf5c62aca7b)"
         style="fill:none;stroke:#001c7f;stroke-width:2.25;stroke-linecap:round"
         id="path167" />
    </g>
    <g
       id="line2d_72"
       transform="translate(0,-15)">
      <path
         d="m 640.98728,171.01269 16.86795,0.14796 4.15587,0.23078 1.9557,0.30034 1.22232,0.39138 0.85562,0.50206 0.61115,0.59996 0.48893,0.75587 0.48892,1.21264 0.3667,1.45741 0.36669,2.3368 0.3667,4.02918 0.36669,7.55809 0.3667,15.09918 0.61116,37.79643 0.12223,-1.54895 0.36669,-24.67675 0.36669,-20.64912 0.3667,-10.53859 0.36669,-5.40692 0.48893,-3.71573 0.48893,-1.94575 0.48892,-1.13197 0.61116,-0.84873 0.73339,-0.5991 0.85562,-0.41163 1.22231,-0.33212 1.95571,-0.26366 3.30025,-0.18402 6.96719,-0.11942 20.77935,-0.0601 53.53739,-0.0143 v 0"
         clip-path="url(#pf5c62aca7b)"
         style="fill:none;stroke:#8c0800;stroke-width:2.25;stroke-linecap:round"
         id="path168" />
    </g>
    <g
       id="line2d_73"
       transform="translate(0,-15)">
      <path
         d="m 640.98728,170.98804 46.5702,0.12151 5.50041,0.20499 2.44463,0.29362 1.34455,0.36179 0.85562,0.42023 0.73339,0.61402 0.48893,0.65928 0.48892,1.0352 0.36669,1.215 0.3667,1.89727 0.36669,3.1663 0.3667,5.72713 0.36669,11.23114 0.3667,21.73768 0.36669,23.18684 h 0.12223 l 0.24447,-13.82292 0.48892,-31.1016 0.3667,-11.23114 0.36669,-5.72713 0.48893,-3.90172 0.48892,-2.0261 0.48893,-1.1714 0.61116,-0.87383 0.73338,-0.61402 0.85563,-0.42023 1.22231,-0.33788 1.83347,-0.2559 3.17802,-0.18878 6.6005,-0.12344 19.06811,-0.0635 23.95737,-0.0124 v 0"
         clip-path="url(#pf5c62aca7b)"
         style="fill:none;stroke:#12711c;stroke-width:2.25;stroke-linecap:round"
         id="path169" />
    </g>
    <g
       id="line2d_74"
       transform="translate(0,-15)">
      <path
         d="m 640.98728,170.98752 48.77036,0.11968 5.62265,0.20645 2.44463,0.29222 1.34455,0.35956 0.85562,0.41709 0.73339,0.60856 0.48892,0.65249 0.48893,1.02289 0.36669,1.19846 0.3667,1.86779 0.36669,3.10957 0.3667,5.60868 0.36669,10.97522 0.3667,21.34589 0.36669,23.77961 0.12223,0.56325 0.24446,-13.16246 0.48893,-31.49574 0.36669,-11.49324 0.3667,-5.84864 0.48892,-3.97191 0.48893,-2.05624 0.48893,-1.1861 0.61115,-0.88316 0.73339,-0.61953 0.85562,-0.42341 1.22232,-0.33999 1.83347,-0.25718 3.17802,-0.1895 6.47827,-0.12263 18.70141,-0.0642 22.1239,-0.0124 v 0"
         clip-path="url(#pf5c62aca7b)"
         style="fill:none;stroke:#001c7f;stroke-width:2.25;stroke-linecap:round"
         id="path170" />
    </g>
    <g
       id="line2d_75">
      <path
         d="m 778.05492,171.85481 1.34454,-0.30601 2.20017,-0.24093 3.91141,-0.16698 7.48896,-0.0956 v 0"
         clip-path="url(#pf5c62aca7b)"
         style="fill:none;stroke:#8c0800;stroke-width:2.25;stroke-linecap:round"
         id="path171" />
    </g>
    <g
       id="line2d_76">
      <path
         d="M 778.05492,170.98804 793,170.99351 v 0"
         clip-path="url(#pf5c62aca7b)"
         style="fill:none;stroke:#12711c;stroke-width:2.25;stroke-linecap:round"
         id="path172" />
    </g>
    <g
       id="line2d_77">
      <path
         d="M 778.05492,170.98778 793,170.99292 v 0"
         clip-path="url(#pf5c62aca7b)"
         style="fill:none;stroke:#001c7f;stroke-width:2.25;stroke-linecap:round"
         id="path173" />
    </g>
    <g
       id="line2d_78">
      <path
         d="M 0,0"
         clip-path="url(#pf5c62aca7b)"
         style="fill:none;stroke:#8c0800;stroke-width:2.25;stroke-linecap:round"
         id="path174" />
    </g>
    <g
       id="line2d_79">
      <path
         d="M 0,0"
         clip-path="url(#pf5c62aca7b)"
         style="fill:none;stroke:#12711c;stroke-width:2.25;stroke-linecap:round"
         id="path175" />
    </g>
    <g
       id="line2d_80">
      <path
         d="M 0,0"
         clip-path="url(#pf5c62aca7b)"
         style="fill:none;stroke:#001c7f;stroke-width:2.25;stroke-linecap:round"
         id="path176" />
    </g>
    <g
       id="patch_8"
       transform="translate(0,-15)">
      <path
         d="M 79.59,290.22 V 165.30273"
         style="fill:none;stroke:#ffffff;stroke-width:1.875;stroke-linecap:square;stroke-linejoin:miter"
         id="path177" />
    </g>
    <g
       id="patch_9"
       transform="translate(0,-15)">
      <path
         d="M 772.56,290.22 V 165.30273"
         style="fill:none;stroke:#ffffff;stroke-width:1.875;stroke-linecap:square;stroke-linejoin:miter"
         id="path178" />
    </g>
    <g
       id="patch_10"
       transform="translate(0,-15)" />
    <g
       id="patch_11"
       transform="translate(0,-15)">
      <path
         d="M 79.59,165.30273 H 772.56"
         style="fill:none;stroke:#ffffff;stroke-width:1.875;stroke-linecap:square;stroke-linejoin:miter"
         id="path180" />
    </g>
  </g>
  <defs
     id="defs181">
    <clipPath
       id="pf425f8eb22">
      <rect
         x="79.589996"
         y="20.192726"
         width="692.96997"
         height="124.91727"
         id="rect180" />
    </clipPath>
    <clipPath
       id="pf5c62aca7b">
      <rect
         x="79.589996"
         y="165.30273"
         width="692.96997"
         height="124.91727"
         id="rect181" />
    </clipPath>
  </defs>
  <g
     id="g186"
     transform="translate(3,12.073977)">
    <circle
       style="fill:none;stroke:#23456f;stroke-width:2.5;stroke-linecap:butt;stroke-linejoin:round;stroke-dasharray:none;stroke-dashoffset:3.06668;stroke-opacity:1"
       id="path90"
       cx="740.39594"
       cy="22.259928"
       r="10.935642" />
    <path
       style="fill:none;stroke:#23456f;stroke-width:2.5;stroke-linecap:butt;stroke-linejoin:round;stroke-dasharray:none;stroke-dashoffset:3.06668;stroke-opacity:1"
       d="M 729.38155,7.8529117 H 751.4104"
       id="path91" />
  </g>
  <g
     id="g185"
     transform="translate(5.2172241,-11.895432)">
    <circle
       style="fill:none;stroke:#285c9d;stroke-width:2.5;stroke-linecap:butt;stroke-linejoin:round;stroke-dasharray:none;stroke-dashoffset:3.06668;stroke-opacity:1"
       id="circle90"
       cx="738.17871"
       cy="108.39803"
       r="20.777718" />
    <path
       style="fill:none;stroke:#285c9d;stroke-width:2.5;stroke-linecap:butt;stroke-linejoin:round;stroke-dasharray:none;stroke-dashoffset:3.06668;stroke-opacity:1"
       d="m 718.59754,84.14894 h 39.16238"
       id="path93" />
  </g>
  <g
     id="g187"
     transform="translate(-15.685242,-47.318944)">
    <circle
       style="fill:none;stroke:#333333;stroke-width:2.5;stroke-linecap:butt;stroke-linejoin:round;stroke-dasharray:none;stroke-dashoffset:3.06668;stroke-opacity:1"
       id="circle90-6"
       cx="759.08118"
       cy="235.11452"
       r="20.777718" />
    <circle
       style="fill:none;stroke:#333333;stroke-width:2.5;stroke-linecap:butt;stroke-linejoin:round;stroke-dasharray:none;stroke-dashoffset:3.06668;stroke-opacity:1"
       id="path90-7"
       cx="759.08118"
       cy="200.0434"
       r="10.935642" />
    <circle
       style="fill:none;stroke:#333333;stroke-width:2.5;stroke-linecap:butt;stroke-linejoin:round;stroke-dasharray:none;stroke-dashoffset:3.06668;stroke-opacity:1"
       id="path90-3"
       cx="759.08118"
       cy="270.18564"
       r="10.935642" />
    <path
       style="display:none;fill:none;stroke:#285c9d;stroke-width:2.5;stroke-linecap:butt;stroke-linejoin:round;stroke-dasharray:none;stroke-dashoffset:3.06668;stroke-opacity:1"
       d="m 739.49999,185.75 h 39.16238"
       id="path93-9" />
  </g>
</svg>
