<?xml version="1.0" encoding="UTF-8" standalone="no"?>
<svg
   width="410.32635pt"
   height="215.00267pt"
   viewBox="0 0 410.32636 215.00267"
   version="1.1"
   id="svg49"
   sodipodi:docname="Theoretical_Dispersion_Symmetric_edit.svg"
   inkscape:version="1.4 (e7c3feb100, 2024-10-09)"
   inkscape:export-filename="Theoretical_Dispersion_Symmetric_edit.png"
   inkscape:export-xdpi="200"
   inkscape:export-ydpi="200"
   xmlns:inkscape="http://www.inkscape.org/namespaces/inkscape"
   xmlns:sodipodi="http://sodipodi.sourceforge.net/DTD/sodipodi-0.dtd"
   xmlns:xlink="http://www.w3.org/1999/xlink"
   xmlns="http://www.w3.org/2000/svg"
   xmlns:svg="http://www.w3.org/2000/svg"
   xmlns:rdf="http://www.w3.org/1999/02/22-rdf-syntax-ns#"
   xmlns:cc="http://creativecommons.org/ns#"
   xmlns:dc="http://purl.org/dc/elements/1.1/">
  <sodipodi:namedview
     id="namedview49"
     pagecolor="#ffffff"
     bordercolor="#000000"
     borderopacity="0.25"
     inkscape:showpageshadow="2"
     inkscape:pageopacity="0.0"
     inkscape:pagecheckerboard="0"
     inkscape:deskcolor="#d1d1d1"
     inkscape:document-units="pt"
     inkscape:zoom="1.5905077"
     inkscape:cx="312.47883"
     inkscape:cy="94.309506"
     inkscape:window-width="1920"
     inkscape:window-height="1011"
     inkscape:window-x="0"
     inkscape:window-y="0"
     inkscape:window-maximized="1"
     inkscape:current-layer="line2d_11" />
  <metadata
     id="metadata1">
    <rdf:RDF>
      <cc:Work>
        <dc:type
           rdf:resource="http://purl.org/dc/dcmitype/StillImage" />
        <dc:date>2026-05-14T11:47:10.184170</dc:date>
        <dc:format>image/svg+xml</dc:format>
        <dc:creator>
          <cc:Agent>
            <dc:title>Matplotlib v3.10.1+dfsg1, https://matplotlib.org/</dc:title>
          </cc:Agent>
        </dc:creator>
      </cc:Work>
    </rdf:RDF>
  </metadata>
  <defs
     id="defs1">
    <style
       type="text/css"
       id="style1">*{stroke-linejoin: round; stroke-linecap: butt}</style>
  </defs>
  <g
     id="patch_2"
     transform="translate(14.746172,-23.639355)">
    <path
       d="M 54,192.24 H 388.8 V 25.92 H 54 Z"
       style="fill:#eaeaf2"
       id="path2" />
  </g>
  <g
     id="matplotlib.axis_1"
     transform="translate(14.746172,-23.639355)">
    <g
       id="xtick_1">
      <g
         id="line2d_1">
        <path
           d="M 99.654545,192.24 V 25.92"
           clip-path="url(#pabb04694f8)"
           style="fill:none;stroke:#ffffff;stroke-width:1.5;stroke-linecap:round"
           id="path3" />
      </g>
      <g
         id="text_1">
        <!-- −20 -->
        <g
           style="fill:#262626"
           transform="matrix(0.165,0,0,-0.165,82.243178,217.27742)"
           id="g5">
          <defs
             id="defs3">
            <path
               id="DejaVuSans-2212"
               d="M 678,2272 H 4684 V 1741 H 678 Z"
               transform="scale(0.015625)" />
            <path
               id="DejaVuSans-32"
               d="M 1228,531 H 3431 V 0 H 469 v 531 q 359,372 979,998 621,627 780,809 303,340 423,576 121,236 121,464 0,372 -261,606 -261,235 -680,235 -297,0 -627,-103 -329,-103 -704,-313 v 638 q 381,153 712,231 332,78 607,78 725,0 1156,-363 431,-362 431,-968 0,-288 -108,-546 -107,-257 -392,-607 -78,-91 -497,-524 Q 1991,1309 1228,531 Z"
               transform="scale(0.015625)" />
            <path
               id="DejaVuSans-30"
               d="m 2034,4250 q -487,0 -733,-480 -245,-479 -245,-1442 0,-959 245,-1439 246,-480 733,-480 491,0 736,480 246,480 246,1439 0,963 -246,1442 -245,480 -736,480 z m 0,500 q 785,0 1199,-621 414,-620 414,-1801 0,-1178 -414,-1799 -414,-620 -1199,-620 -784,0 -1198,620 -414,621 -414,1799 0,1181 414,1801 414,621 1198,621 z"
               transform="scale(0.015625)" />
          </defs>
          <use
             xlink:href="#DejaVuSans-2212"
             id="use3" />
          <use
             xlink:href="#DejaVuSans-32"
             transform="translate(83.789062)"
             id="use4" />
          <use
             xlink:href="#DejaVuSans-30"
             transform="translate(147.41211)"
             id="use5" />
        </g>
      </g>
    </g>
    <g
       id="xtick_2">
      <g
         id="line2d_2">
        <path
           d="M 160.52727,192.24 V 25.92"
           clip-path="url(#pabb04694f8)"
           style="fill:none;stroke:#ffffff;stroke-width:1.5;stroke-linecap:round"
           id="path5" />
      </g>
      <g
         id="text_2">
        <!-- −10 -->
        <g
           style="fill:#262626"
           transform="matrix(0.165,0,0,-0.165,143.11591,217.27742)"
           id="g8">
          <defs
             id="defs5">
            <path
               id="DejaVuSans-31"
               d="M 794,531 H 1825 V 4091 L 703,3866 v 575 l 1116,225 h 631 V 531 H 3481 V 0 H 794 Z"
               transform="scale(0.015625)" />
          </defs>
          <use
             xlink:href="#DejaVuSans-2212"
             id="use6" />
          <use
             xlink:href="#DejaVuSans-31"
             transform="translate(83.789062)"
             id="use7" />
          <use
             xlink:href="#DejaVuSans-30"
             transform="translate(147.41211)"
             id="use8" />
        </g>
      </g>
    </g>
    <g
       id="xtick_3">
      <g
         id="line2d_3">
        <path
           d="M 221.4,192.24 V 25.92"
           clip-path="url(#pabb04694f8)"
           style="fill:none;stroke:#ffffff;stroke-width:1.5;stroke-linecap:round"
           id="path8" />
      </g>
      <g
         id="text_3">
        <!-- 0 -->
        <g
           style="fill:#262626"
           transform="matrix(0.165,0,0,-0.165,216.15094,217.27742)"
           id="g9">
          <use
             xlink:href="#DejaVuSans-30"
             id="use9" />
        </g>
      </g>
    </g>
    <g
       id="xtick_4">
      <g
         id="line2d_4">
        <path
           d="M 282.27273,192.24 V 25.92"
           clip-path="url(#pabb04694f8)"
           style="fill:none;stroke:#ffffff;stroke-width:1.5;stroke-linecap:round"
           id="path9" />
      </g>
      <g
         id="text_4">
        <!-- 10 -->
        <g
           style="fill:#262626"
           transform="matrix(0.165,0,0,-0.165,271.7746,217.27742)"
           id="g11">
          <use
             xlink:href="#DejaVuSans-31"
             id="use10" />
          <use
             xlink:href="#DejaVuSans-30"
             transform="translate(63.623047)"
             id="use11" />
        </g>
      </g>
    </g>
    <g
       id="xtick_5">
      <g
         id="line2d_5">
        <path
           d="M 343.14546,192.24 V 25.92"
           clip-path="url(#pabb04694f8)"
           style="fill:none;stroke:#ffffff;stroke-width:1.5;stroke-linecap:round"
           id="path11" />
      </g>
      <g
         id="text_5">
        <!-- 20 -->
        <g
           style="fill:#262626"
           transform="matrix(0.165,0,0,-0.165,332.64733,217.27742)"
           id="g13">
          <use
             xlink:href="#DejaVuSans-32"
             id="use12" />
          <use
             xlink:href="#DejaVuSans-30"
             transform="translate(63.623047)"
             id="use13" />
        </g>
      </g>
    </g>
    <g
       id="text_6">
      <!-- Mode number -->
      <g
         style="fill:#262626"
         transform="matrix(0.18,0,0,-0.18,158.89078,238.38609)"
         id="g24">
        <defs
           id="defs13">
          <path
             id="DejaVuSans-4d"
             d="m 628,4666 h 941 L 2759,1491 3956,4666 h 941 V 0 H 4281 V 4097 L 3078,897 H 2444 L 1241,4097 V 0 H 628 Z"
             transform="scale(0.015625)" />
          <path
             id="DejaVuSans-6f"
             d="m 1959,3097 q -462,0 -731,-361 -269,-361 -269,-989 0,-628 267,-989 268,-361 733,-361 460,0 728,362 269,363 269,988 0,622 -269,986 -268,364 -728,364 z m 0,487 q 750,0 1178,-488 429,-487 429,-1349 Q 3566,888 3137,398 2709,-91 1959,-91 1206,-91 779,398 353,888 353,1747 q 0,862 426,1349 427,488 1180,488 z"
             transform="scale(0.015625)" />
          <path
             id="DejaVuSans-64"
             d="m 2906,2969 v 1894 h 575 V 0 H 2906 V 525 Q 2725,213 2448,61 2172,-91 1784,-91 1150,-91 751,415 353,922 353,1747 q 0,825 398,1331 399,506 1033,506 388,0 664,-152 277,-151 458,-463 z M 947,1747 q 0,-634 261,-995 261,-361 717,-361 456,0 718,361 263,361 263,995 0,634 -263,995 -262,361 -718,361 -456,0 -717,-361 -261,-361 -261,-995 z"
             transform="scale(0.015625)" />
          <path
             id="DejaVuSans-65"
             d="M 3597,1894 V 1613 H 953 q 38,-594 358,-905 320,-311 892,-311 331,0 642,81 311,81 618,244 V 178 Q 3153,47 2828,-22 2503,-91 2169,-91 1331,-91 842,396 353,884 353,1716 q 0,859 464,1363 464,505 1252,505 706,0 1117,-455 411,-454 411,-1235 z m -575,169 q -6,471 -264,752 -258,282 -683,282 -481,0 -770,-272 -289,-272 -333,-766 z"
             transform="scale(0.015625)" />
          <path
             id="DejaVuSans-20"
             transform="scale(0.015625)"
             d="" />
          <path
             id="DejaVuSans-6e"
             d="M 3513,2113 V 0 h -575 v 2094 q 0,497 -194,743 -194,247 -581,247 -466,0 -735,-297 -269,-296 -269,-809 V 0 H 581 v 3500 h 578 v -544 q 207,316 486,472 280,156 646,156 603,0 912,-373 310,-373 310,-1098 z"
             transform="scale(0.015625)" />
          <path
             id="DejaVuSans-75"
             d="m 544,1381 v 2119 h 575 V 1403 q 0,-497 193,-746 194,-248 582,-248 465,0 735,297 271,297 271,810 v 1984 h 575 V 0 H 2900 V 538 Q 2691,219 2414,64 2138,-91 1772,-91 1169,-91 856,284 544,659 544,1381 Z m 1447,2203 z"
             transform="scale(0.015625)" />
          <path
             id="DejaVuSans-6d"
             d="m 3328,2828 q 216,388 516,572 300,184 706,184 547,0 844,-383 297,-382 297,-1088 V 0 h -578 v 2094 q 0,503 -179,746 -178,244 -543,244 -447,0 -707,-297 -259,-296 -259,-809 V 0 h -578 v 2094 q 0,506 -178,748 -178,242 -550,242 -441,0 -701,-298 -259,-298 -259,-808 V 0 H 581 v 3500 h 578 v -544 q 197,322 472,475 275,153 653,153 382,0 649,-194 267,-193 395,-562 z"
             transform="scale(0.015625)" />
          <path
             id="DejaVuSans-62"
             d="m 3116,1747 q 0,634 -261,995 -261,361 -717,361 -457,0 -718,-361 -261,-361 -261,-995 0,-634 261,-995 261,-361 718,-361 456,0 717,361 261,361 261,995 z M 1159,2969 q 182,312 458,463 277,152 661,152 638,0 1036,-506 399,-506 399,-1331 Q 3713,922 3314,415 2916,-91 2278,-91 1894,-91 1617,61 1341,213 1159,525 V 0 H 581 v 4863 h 578 z"
             transform="scale(0.015625)" />
          <path
             id="DejaVuSans-72"
             d="m 2631,2963 q -97,56 -211,82 -114,27 -251,27 -488,0 -749,-317 -261,-317 -261,-911 V 0 H 581 v 3500 h 578 v -544 q 182,319 472,473 291,155 707,155 59,0 131,-8 72,-7 159,-23 z"
             transform="scale(0.015625)" />
        </defs>
        <use
           xlink:href="#DejaVuSans-4d"
           id="use14" />
        <use
           xlink:href="#DejaVuSans-6f"
           transform="translate(86.279297)"
           id="use15" />
        <use
           xlink:href="#DejaVuSans-64"
           transform="translate(147.46094)"
           id="use16" />
        <use
           xlink:href="#DejaVuSans-65"
           transform="translate(210.9375)"
           id="use17" />
        <use
           xlink:href="#DejaVuSans-20"
           transform="translate(272.46094)"
           id="use18" />
        <use
           xlink:href="#DejaVuSans-6e"
           transform="translate(304.24805)"
           id="use19" />
        <use
           xlink:href="#DejaVuSans-75"
           transform="translate(367.62695)"
           id="use20" />
        <use
           xlink:href="#DejaVuSans-6d"
           transform="translate(431.00586)"
           id="use21" />
        <use
           xlink:href="#DejaVuSans-62"
           transform="translate(528.41797)"
           id="use22" />
        <use
           xlink:href="#DejaVuSans-65"
           transform="translate(591.89453)"
           id="use23" />
        <use
           xlink:href="#DejaVuSans-72"
           transform="translate(653.41797)"
           id="use24" />
      </g>
    </g>
  </g>
  <g
     id="matplotlib.axis_2"
     transform="translate(14.746172,-23.639355)">
    <g
       id="ytick_1">
      <g
         id="line2d_6">
        <path
           d="M 54,158.36672 H 388.8"
           clip-path="url(#pabb04694f8)"
           style="fill:none;stroke:#ffffff;stroke-width:1.5;stroke-linecap:round"
           id="path24" />
      </g>
      <g
         id="text_7">
        <!-- −10 -->
        <g
           style="fill:#262626"
           transform="matrix(0.165,0,0,-0.165,6.677266,164.63543)"
           id="g27">
          <use
             xlink:href="#DejaVuSans-2212"
             id="use25" />
          <use
             xlink:href="#DejaVuSans-31"
             transform="translate(83.789062)"
             id="use26" />
          <use
             xlink:href="#DejaVuSans-30"
             transform="translate(147.41211)"
             id="use27" />
        </g>
      </g>
    </g>
    <g
       id="ytick_2">
      <g
         id="line2d_7">
        <path
           d="M 54,93.99173 H 388.8"
           clip-path="url(#pabb04694f8)"
           style="fill:none;stroke:#ffffff;stroke-width:1.5;stroke-linecap:round"
           id="path27" />
      </g>
      <g
         id="text_8">
        <!-- 0 -->
        <g
           style="fill:#262626"
           transform="matrix(0.165,0,0,-0.165,31.001875,100.26044)"
           id="g28">
          <use
             xlink:href="#DejaVuSans-30"
             id="use28" />
        </g>
      </g>
    </g>
    <g
       id="ytick_3">
      <g
         id="line2d_8">
        <path
           d="M 54,29.616738 H 388.8"
           clip-path="url(#pabb04694f8)"
           style="fill:none;stroke:#ffffff;stroke-width:1.5;stroke-linecap:round"
           id="path28" />
      </g>
      <g
         id="text_9">
        <!-- 10 -->
        <g
           style="fill:#262626"
           transform="matrix(0.165,0,0,-0.165,20.50375,35.885449)"
           id="g30">
          <use
             xlink:href="#DejaVuSans-31"
             id="use29" />
          <use
             xlink:href="#DejaVuSans-30"
             transform="translate(63.623047)"
             id="use30" />
        </g>
      </g>
    </g>
    <g
       id="text_10">
      <!-- D$_{\text{int}}$/2π (GHz) -->
      <g
         style="fill:#262626"
         transform="matrix(0,-0.18,-0.18,0,-1.066172,166.77)"
         id="g43">
        <defs
           id="defs30">
          <path
             id="DejaVuSans-44"
             d="M 1259,4147 V 519 h 763 q 966,0 1414,437 448,438 448,1382 0,937 -448,1373 -448,436 -1414,436 z m -631,519 h 1297 q 1356,0 1990,-564 635,-564 635,-1764 Q 4550,1131 3912,565 3275,0 1925,0 H 628 Z"
             transform="scale(0.015625)" />
          <path
             id="DejaVuSans-69"
             d="m 603,3500 h 575 V 0 H 603 Z m 0,1363 h 575 V 4134 H 603 Z"
             transform="scale(0.015625)" />
          <path
             id="DejaVuSans-74"
             d="M 1172,4494 V 3500 H 2356 V 3053 H 1172 V 1153 q 0,-428 117,-550 117,-122 477,-122 h 590 V 0 H 1766 Q 1100,0 847,248 594,497 594,1153 V 3053 H 172 v 447 h 422 v 994 z"
             transform="scale(0.015625)" />
          <path
             id="DejaVuSans-2f"
             d="m 1625,4666 h 531 L 531,-594 H 0 Z"
             transform="scale(0.015625)" />
          <path
             id="DejaVuSans-3c0"
             d="M 231,3500 H 3584 V 2925 H 3144 V 775 q 0,-225 76,-324 77,-98 249,-98 47,0 115,8 69,8 91,11 V -44 q -109,-40 -225,-59 -116,-19 -231,-19 -375,0 -519,205 -144,205 -144,755 V 2925 H 1266 V 0 H 678 V 2925 H 231 Z"
             transform="scale(0.015625)" />
          <path
             id="DejaVuSans-28"
             d="m 1984,4856 q -418,-718 -622,-1422 -203,-703 -203,-1425 0,-721 205,-1429 205,-708 620,-1424 h -500 q -468,735 -701,1444 -233,709 -233,1409 0,697 231,1403 232,707 703,1444 z"
             transform="scale(0.015625)" />
          <path
             id="DejaVuSans-47"
             d="M 3809,666 V 1919 H 2778 v 519 H 4434 V 434 Q 4069,175 3628,42 3188,-91 2688,-91 1594,-91 976,548 359,1188 359,2328 q 0,1144 617,1783 618,639 1712,639 456,0 867,-113 411,-112 758,-331 v -672 q -350,297 -744,447 -394,150 -828,150 -857,0 -1287,-478 -429,-478 -429,-1425 0,-944 429,-1422 430,-478 1287,-478 334,0 596,58 263,58 472,180 z"
             transform="scale(0.015625)" />
          <path
             id="DejaVuSans-48"
             d="m 628,4666 h 631 V 2753 h 2294 v 1913 h 631 V 0 H 3553 V 2222 H 1259 V 0 H 628 Z"
             transform="scale(0.015625)" />
          <path
             id="DejaVuSans-7a"
             d="M 353,3500 H 3084 V 2975 L 922,459 H 3084 V 0 H 275 V 525 L 2438,3041 H 353 Z"
             transform="scale(0.015625)" />
          <path
             id="DejaVuSans-29"
             d="m 513,4856 h 500 q 468,-737 701,-1444 233,-706 233,-1403 0,-700 -233,-1409 -233,-709 -701,-1444 H 513 q 415,716 620,1424 205,708 205,1429 0,722 -205,1425 -205,704 -620,1422 z"
             transform="scale(0.015625)" />
        </defs>
        <use
           xlink:href="#DejaVuSans-44"
           transform="translate(0,0.125)"
           id="use31" />
        <use
           xlink:href="#DejaVuSans-69"
           transform="matrix(0.7,0,0,0.7,77.958984,-16.28125)"
           id="use32" />
        <use
           xlink:href="#DejaVuSans-6e"
           transform="matrix(0.7,0,0,0.7,97.407227,-16.28125)"
           id="use33" />
        <use
           xlink:href="#DejaVuSans-74"
           transform="matrix(0.7,0,0,0.7,141.77246,-16.28125)"
           id="use34" />
        <use
           xlink:href="#DejaVuSans-2f"
           transform="translate(171.95312,0.125)"
           id="use35" />
        <use
           xlink:href="#DejaVuSans-32"
           transform="translate(202.01953,0.125)"
           id="use36" />
        <use
           xlink:href="#DejaVuSans-3c0"
           transform="translate(265.64258,0.125)"
           id="use37" />
        <use
           xlink:href="#DejaVuSans-20"
           transform="translate(325.84766,0.125)"
           id="use38" />
        <use
           xlink:href="#DejaVuSans-28"
           transform="translate(357.63477,0.125)"
           id="use39" />
        <use
           xlink:href="#DejaVuSans-47"
           transform="translate(396.64844,0.125)"
           id="use40" />
        <use
           xlink:href="#DejaVuSans-48"
           transform="translate(474.13867,0.125)"
           id="use41" />
        <use
           xlink:href="#DejaVuSans-7a"
           transform="translate(549.33398,0.125)"
           id="use42" />
        <use
           xlink:href="#DejaVuSans-29"
           transform="translate(601.82422,0.125)"
           id="use43" />
      </g>
    </g>
  </g>
  <g
     id="line2d_9"
     transform="translate(14.746172,-23.639355)"
     inkscape:label="S">
    <path
       d="m 69.218182,184.68 9.176793,-3.52956 9.176793,-3.31011 9.176793,-3.09065 9.176789,-2.8712 9.1768,-2.65175 9.17679,-2.43229 9.17679,-2.21283 9.1768,-1.99338 9.17679,-1.77392 9.17679,-1.55447 9.17679,-1.33502 9.1768,-1.11556 9.17679,-0.89611 9.17679,-0.67665 9.1768,-0.4572 9.17679,-0.23774 9.17679,-0.0183 9.1768,0.20117 9.17679,0.42062 9.17679,0.64008 9.1768,0.85953 9.17679,1.07898 9.17679,1.29844 9.17679,1.5179 9.1768,1.73735 9.17679,1.9568 9.17679,2.17626 9.1768,2.39571 9.17679,2.61517 9.17679,2.83462 9.1768,3.05408 c 6.67254,2.33402 13.30724,4.77533 19.88305,7.37002"
       clip-path="url(#pabb04694f8)"
       style="fill:none;stroke:#8c0800;stroke-width:3;stroke-linecap:round"
       id="path43"
       sodipodi:nodetypes="ccccccccccccccccccccccccccccccccc" />
    <circle
       style="display:inline;fill:#8c0800;fill-opacity:0.7;stroke:none;stroke-width:1.56;stroke-linecap:butt;stroke-linejoin:round;stroke-dasharray:none;stroke-opacity:1"
       id="path61"
       cx="208.75508"
       cy="-386.73676"
       r="8.5855036"
       transform="rotate(90)" />
    <circle
       style="display:inline;fill:#8c0800;fill-opacity:0.7;stroke:none;stroke-width:0.845702;stroke-linecap:butt;stroke-linejoin:round;stroke-dasharray:none;stroke-opacity:1"
       id="circle61"
       cx="189.89246"
       cy="-386.73676"
       r="8.8432493"
       transform="rotate(90)" />
    <circle
       style="display:inline;fill:#8c0800;fill-opacity:0.7;stroke:none;stroke-width:1.56;stroke-linecap:butt;stroke-linejoin:round;stroke-dasharray:none;stroke-opacity:1"
       id="circle62"
       cx="171.02986"
       cy="-386.73676"
       r="8.5855036"
       transform="rotate(90)" />
  </g>
  <g
     id="line2d_10"
     transform="translate(14.746172,-23.639355)"
     inkscape:label="C">
    <path
       d="m 69.218182,124.16751 9.176793,-3.52956 9.176793,-3.31011 9.176793,-3.09066 9.176789,-2.87119 9.1768,-2.65175 9.17679,-2.43229 9.17679,-2.21283 9.1768,-1.99338 9.17679,-1.77393 9.17679,-1.554467 9.17679,-1.335016 9.1768,-1.115561 9.17679,-0.896106 9.17679,-0.676652 9.1768,-0.457197 9.17679,-0.237743 9.17679,-0.01829 9.1768,0.201167 9.17679,0.420621 9.17679,0.640076 9.1768,0.859531 9.17679,1.078986 9.17679,1.29844 9.17679,1.517901 9.1768,1.73734 9.17679,1.95681 9.17679,2.17626 9.1768,2.39571 9.17679,2.61517 9.17679,2.83462 9.1768,3.05408 9.17679,3.27353 9.17679,3.49299 1.52947,0.6035 v 0"
       clip-path="url(#pabb04694f8)"
       style="fill:none;stroke:#12711c;stroke-width:3;stroke-linecap:round"
       id="path44" />
    <circle
       style="display:inline;fill:#12711c;fill-opacity:0.7;stroke:none;stroke-width:1.56;stroke-linecap:butt;stroke-linejoin:round;stroke-dasharray:none;stroke-opacity:1"
       id="circle66"
       cx="143.2648"
       cy="-386.73676"
       r="8.5855026"
       transform="rotate(90)" />
    <circle
       style="display:inline;fill:none;fill-opacity:1;stroke:#4c4c4c;stroke-width:1.3;stroke-linecap:butt;stroke-linejoin:round;stroke-dasharray:7.8, 2.59999;stroke-dashoffset:2.99001;stroke-opacity:1"
       id="circle67"
       cx="124.40134"
       cy="-386.73676"
       r="8.1934366"
       transform="rotate(90)" />
    <circle
       style="display:inline;fill:#12711c;fill-opacity:1;stroke:none;stroke-width:1.56;stroke-linecap:butt;stroke-linejoin:round;stroke-dasharray:none;stroke-opacity:1"
       id="circle68"
       cx="105.5396"
       cy="-386.73676"
       r="8.5855026"
       transform="rotate(90)" />
  </g>
  <g
     id="line2d_11"
     transform="translate(14.746172,-23.639355)"
     inkscape:label="AS">
    <path
       d="m 69.218182,63.655015 9.176793,-3.529562 9.176793,-3.310108 9.176793,-3.090653 9.176789,-2.871198 9.1768,-2.651744 9.17679,-2.432289 9.17679,-2.212835 9.1768,-1.993379 9.17679,-1.773926 9.17679,-1.55447 9.17679,-1.335016 9.1768,-1.115561 9.17679,-0.896107 9.17679,-0.676651 9.1768,-0.457198 9.17679,-0.237742 9.17679,-0.01829 9.1768,0.201167 9.17679,0.420621 9.17679,0.640076 9.1768,0.859531 9.17679,1.078985 9.17679,1.29844 9.17679,1.517895 9.1768,1.737349 9.17679,1.956804 9.17679,2.176259 9.1768,2.395714 9.17679,2.615168 9.17679,2.834622 9.1768,3.054077 9.17679,3.273532 9.17679,3.492987 1.52947,0.6035 v 0"
       clip-path="url(#pabb04694f8)"
       style="fill:none;stroke:#001c7f;stroke-width:3;stroke-linecap:round"
       id="path45" />
    <circle
       style="display:inline;fill:#001c7f;fill-opacity:0.7;stroke:none;stroke-width:1.55995;stroke-linecap:butt;stroke-linejoin:round;stroke-dasharray:none;stroke-opacity:1"
       id="circle63"
       cx="77.364265"
       cy="-386.73676"
       r="8.5852003"
       transform="rotate(90)" />
    <circle
       style="display:inline;fill:#001c7f;fill-opacity:0.7;stroke:none;stroke-width:1.55995;stroke-linecap:butt;stroke-linejoin:round;stroke-dasharray:none;stroke-opacity:1"
       id="circle65"
       cx="39.640388"
       cy="-386.73676"
       r="8.5852003"
       transform="rotate(90)" />
    <circle
       style="display:inline;fill:#001c7f;fill-opacity:1;stroke:none;stroke-width:1.55995;stroke-linecap:butt;stroke-linejoin:round;stroke-dasharray:none;stroke-opacity:1"
       id="circle49"
       cx="58.502327"
       cy="-386.73676"
       r="8.5852003"
       transform="rotate(90)" />
  </g>
  <defs
     id="defs49">
    <clipPath
       id="pabb04694f8">
      <rect
         x="54"
         y="25.92"
         width="334.79999"
         height="166.32001"
         id="rect49" />
    </clipPath>
  </defs>
</svg>
