<?xml version="1.0" encoding="UTF-8" standalone="no"?>
<svg
   width="357.245pt"
   height="227.455pt"
   viewBox="0 0 357.245 227.455"
   version="1.1"
   id="svg91"
   sodipodi:docname="Triplet -2.svg"
   inkscape:version="1.4 (e7c3feb100, 2024-10-09)"
   inkscape:export-filename="Triplet -2.png"
   inkscape:export-xdpi="200"
   inkscape:export-ydpi="200"
   xmlns:inkscape="http://www.inkscape.org/namespaces/inkscape"
   xmlns:sodipodi="http://sodipodi.sourceforge.net/DTD/sodipodi-0.dtd"
   xmlns:xlink="http://www.w3.org/1999/xlink"
   xmlns="http://www.w3.org/2000/svg"
   xmlns:svg="http://www.w3.org/2000/svg"
   xmlns:rdf="http://www.w3.org/1999/02/22-rdf-syntax-ns#"
   xmlns:cc="http://creativecommons.org/ns#"
   xmlns:dc="http://purl.org/dc/elements/1.1/">
  <sodipodi:namedview
     id="namedview91"
     pagecolor="#ffffff"
     bordercolor="#000000"
     borderopacity="0.25"
     inkscape:showpageshadow="2"
     inkscape:pageopacity="0.0"
     inkscape:pagecheckerboard="0"
     inkscape:deskcolor="#d1d1d1"
     inkscape:document-units="pt"
     inkscape:zoom="1.3381014"
     inkscape:cx="187.95287"
     inkscape:cy="198.0418"
     inkscape:window-width="1920"
     inkscape:window-height="1011"
     inkscape:window-x="0"
     inkscape:window-y="0"
     inkscape:window-maximized="1"
     inkscape:current-layer="svg91" />
  <metadata
     id="metadata1">
    <rdf:RDF>
      <cc:Work>
        <dc:type
           rdf:resource="http://purl.org/dc/dcmitype/StillImage" />
        <dc:date>2026-05-15T12:47:18.046536</dc:date>
        <dc:format>image/svg+xml</dc:format>
        <dc:creator>
          <cc:Agent>
            <dc:title>Matplotlib v3.10.1+dfsg1, https://matplotlib.org/</dc:title>
          </cc:Agent>
        </dc:creator>
      </cc:Work>
    </rdf:RDF>
  </metadata>
  <defs
     id="defs1">
    <style
       type="text/css"
       id="style1">*{stroke-linejoin: round; stroke-linecap: butt}</style>
  </defs>
  <g
     id="g94"
     transform="translate(-57.002659,-18.50242)">
    <g
       id="patch_2">
      <path
         d="M 79.59,218.22 H 412.56 V 19.44 H 79.59 Z"
         style="fill:#eaeaf2"
         id="path2" />
    </g>
    <g
       id="matplotlib.axis_1">
      <g
         id="xtick_1">
        <g
           id="line2d_1">
          <path
             d="M 134.94956,218.22 V 19.44"
             clip-path="url(#p9421630c6c)"
             style="fill:none;stroke:#ffffff;stroke-width:1.5;stroke-linecap:round"
             id="path3" />
        </g>
      </g>
      <g
         id="xtick_2">
        <g
           id="line2d_2">
          <path
             d="M 230.95324,218.22 V 19.44"
             clip-path="url(#p9421630c6c)"
             style="fill:none;stroke:#ffffff;stroke-width:1.5;stroke-linecap:round"
             id="path7" />
        </g>
      </g>
      <g
         id="xtick_3">
        <g
           id="line2d_3">
          <path
             d="M 326.95693,218.22 V 19.44"
             clip-path="url(#p9421630c6c)"
             style="fill:none;stroke:#ffffff;stroke-width:1.5;stroke-linecap:round"
             id="path12" />
        </g>
      </g>
      <g
         id="text_4"
         transform="matrix(1.5,0,0,1.5,-123.95771,-156.20695)">
        <!-- Frequency -->
        <g
           style="fill:#262626"
           transform="matrix(0.18,0,0,-0.18,199.58156,264.36609)"
           id="g26">
          <defs
             id="defs17">
            <path
               id="DejaVuSans-46"
               d="M 628,4666 H 3309 V 4134 H 1259 V 2759 H 3109 V 2228 H 1259 V 0 H 628 Z"
               transform="scale(0.015625)" />
            <path
               id="DejaVuSans-72"
               d="m 2631,2963 q -97,56 -211,82 -114,27 -251,27 -488,0 -749,-317 -261,-317 -261,-911 V 0 H 581 v 3500 h 578 v -544 q 182,319 472,473 291,155 707,155 59,0 131,-8 72,-7 159,-23 z"
               transform="scale(0.015625)" />
            <path
               id="DejaVuSans-65"
               d="M 3597,1894 V 1613 H 953 q 38,-594 358,-905 320,-311 892,-311 331,0 642,81 311,81 618,244 V 178 Q 3153,47 2828,-22 2503,-91 2169,-91 1331,-91 842,396 353,884 353,1716 q 0,859 464,1363 464,505 1252,505 706,0 1117,-455 411,-454 411,-1235 z m -575,169 q -6,471 -264,752 -258,282 -683,282 -481,0 -770,-272 -289,-272 -333,-766 z"
               transform="scale(0.015625)" />
            <path
               id="DejaVuSans-71"
               d="m 947,1747 q 0,-634 261,-995 261,-361 717,-361 456,0 718,361 263,361 263,995 0,634 -263,995 -262,361 -718,361 -456,0 -717,-361 Q 947,2381 947,1747 Z M 2906,525 Q 2725,213 2448,61 2172,-91 1784,-91 1150,-91 751,415 353,922 353,1747 q 0,825 398,1331 399,506 1033,506 388,0 664,-152 277,-151 458,-463 v 531 h 575 v -4831 h -575 z"
               transform="scale(0.015625)" />
            <path
               id="DejaVuSans-75"
               d="m 544,1381 v 2119 h 575 V 1403 q 0,-497 193,-746 194,-248 582,-248 465,0 735,297 271,297 271,810 v 1984 h 575 V 0 H 2900 V 538 Q 2691,219 2414,64 2138,-91 1772,-91 1169,-91 856,284 544,659 544,1381 Z m 1447,2203 z"
               transform="scale(0.015625)" />
            <path
               id="DejaVuSans-6e"
               d="M 3513,2113 V 0 h -575 v 2094 q 0,497 -194,743 -194,247 -581,247 -466,0 -735,-297 -269,-296 -269,-809 V 0 H 581 v 3500 h 578 v -544 q 207,316 486,472 280,156 646,156 603,0 912,-373 310,-373 310,-1098 z"
               transform="scale(0.015625)" />
            <path
               id="DejaVuSans-63"
               d="m 3122,3366 v -538 q -244,135 -489,202 -245,67 -495,67 -560,0 -870,-355 -309,-354 -309,-995 0,-641 309,-996 310,-354 870,-354 250,0 495,67 245,67 489,202 V 134 Q 2881,22 2623,-34 2366,-91 2075,-91 1284,-91 818,406 353,903 353,1747 q 0,856 470,1346 471,491 1290,491 265,0 518,-55 253,-54 491,-163 z"
               transform="scale(0.015625)" />
            <path
               id="DejaVuSans-79"
               d="m 2059,-325 q -243,-625 -475,-815 -231,-191 -618,-191 H 506 v 481 h 338 q 237,0 368,113 132,112 291,531 L 1606,56 191,3500 H 800 L 1894,763 2988,3500 h 609 z"
               transform="scale(0.015625)" />
          </defs>
          <use
             xlink:href="#DejaVuSans-46"
             id="use18" />
          <use
             xlink:href="#DejaVuSans-72"
             transform="translate(50.269531)"
             id="use19" />
          <use
             xlink:href="#DejaVuSans-65"
             transform="translate(89.132812)"
             id="use20" />
          <use
             xlink:href="#DejaVuSans-71"
             transform="translate(150.65625)"
             id="use21" />
          <use
             xlink:href="#DejaVuSans-75"
             transform="translate(214.13281)"
             id="use22" />
          <use
             xlink:href="#DejaVuSans-65"
             transform="translate(277.51172)"
             id="use23" />
          <use
             xlink:href="#DejaVuSans-6e"
             transform="translate(339.03516)"
             id="use24" />
          <use
             xlink:href="#DejaVuSans-63"
             transform="translate(402.41406)"
             id="use25" />
          <use
             xlink:href="#DejaVuSans-79"
             transform="translate(457.39453)"
             id="use26" />
        </g>
      </g>
    </g>
    <g
       id="matplotlib.axis_2">
      <g
         id="ytick_1">
        <g
           id="line2d_4">
          <path
             d="M 79.59,183.37188 H 412.56"
             clip-path="url(#p9421630c6c)"
             style="fill:none;stroke:#ffffff;stroke-width:1.5;stroke-linecap:round"
             id="path34" />
        </g>
      </g>
      <g
         id="ytick_2">
        <g
           id="line2d_5">
          <path
             d="M 79.59,131.73933 H 412.56"
             clip-path="url(#p9421630c6c)"
             style="fill:none;stroke:#ffffff;stroke-width:1.5;stroke-linecap:round"
             id="path37" />
        </g>
      </g>
      <g
         id="ytick_3">
        <g
           id="line2d_6">
          <path
             d="M 79.59,80.106772 H 412.56"
             clip-path="url(#p9421630c6c)"
             style="fill:none;stroke:#ffffff;stroke-width:1.5;stroke-linecap:round"
             id="path40" />
        </g>
      </g>
      <g
         id="ytick_4">
        <g
           id="line2d_7">
          <path
             d="M 79.59,28.474216 H 412.56"
             clip-path="url(#p9421630c6c)"
             style="fill:none;stroke:#ffffff;stroke-width:1.5;stroke-linecap:round"
             id="path43" />
        </g>
      </g>
      <g
         id="text_10"
         transform="matrix(1.5,0,0,1.5,28.608985,-60.595983)">
        <!-- Transmission -->
        <g
           style="fill:#262626"
           transform="matrix(0,-0.18,-0.18,0,33.106406,176.96156)"
           id="g58">
          <defs
             id="defs46">
            <path
               id="DejaVuSans-54"
               d="M -19,4666 H 3928 V 4134 H 2272 V 0 H 1638 V 4134 H -19 Z"
               transform="scale(0.015625)" />
            <path
               id="DejaVuSans-61"
               d="m 2194,1759 q -697,0 -966,-159 -269,-159 -269,-544 0,-306 202,-486 202,-179 548,-179 479,0 768,339 289,339 289,901 v 128 z m 1147,238 V 0 H 2766 V 531 Q 2569,213 2275,61 1981,-91 1556,-91 q -537,0 -855,302 -317,302 -317,808 0,590 395,890 396,300 1180,300 h 807 v 57 q 0,397 -261,614 -261,217 -733,217 -300,0 -585,-72 -284,-72 -546,-216 v 532 q 315,122 612,182 297,61 578,61 760,0 1135,-394 375,-393 375,-1193 z"
               transform="scale(0.015625)" />
            <path
               id="DejaVuSans-73"
               d="m 2834,3397 v -544 q -243,125 -506,187 -262,63 -544,63 -428,0 -642,-131 -214,-131 -214,-394 0,-200 153,-314 153,-114 616,-217 l 197,-44 q 612,-131 870,-370 258,-239 258,-667 0,-488 -386,-773 Q 2250,-91 1575,-91 1294,-91 989,-36 684,19 347,128 v 594 q 319,-166 628,-249 309,-82 613,-82 406,0 624,139 219,139 219,392 0,234 -158,359 -157,125 -692,241 l -200,47 q -534,112 -772,345 -237,233 -237,639 0,494 350,762 350,269 994,269 318,0 599,-47 282,-46 519,-140 z"
               transform="scale(0.015625)" />
            <path
               id="DejaVuSans-6d"
               d="m 3328,2828 q 216,388 516,572 300,184 706,184 547,0 844,-383 297,-382 297,-1088 V 0 h -578 v 2094 q 0,503 -179,746 -178,244 -543,244 -447,0 -707,-297 -259,-296 -259,-809 V 0 h -578 v 2094 q 0,506 -178,748 -178,242 -550,242 -441,0 -701,-298 -259,-298 -259,-808 V 0 H 581 v 3500 h 578 v -544 q 197,322 472,475 275,153 653,153 382,0 649,-194 267,-193 395,-562 z"
               transform="scale(0.015625)" />
            <path
               id="DejaVuSans-69"
               d="m 603,3500 h 575 V 0 H 603 Z m 0,1363 h 575 V 4134 H 603 Z"
               transform="scale(0.015625)" />
            <path
               id="DejaVuSans-6f"
               d="m 1959,3097 q -462,0 -731,-361 -269,-361 -269,-989 0,-628 267,-989 268,-361 733,-361 460,0 728,362 269,363 269,988 0,622 -269,986 -268,364 -728,364 z m 0,487 q 750,0 1178,-488 429,-487 429,-1349 Q 3566,888 3137,398 2709,-91 1959,-91 1206,-91 779,398 353,888 353,1747 q 0,862 426,1349 427,488 1180,488 z"
               transform="scale(0.015625)" />
          </defs>
          <use
             xlink:href="#DejaVuSans-54"
             id="use47" />
          <use
             xlink:href="#DejaVuSans-72"
             transform="translate(46.333984)"
             id="use48" />
          <use
             xlink:href="#DejaVuSans-61"
             transform="translate(87.447266)"
             id="use49" />
          <use
             xlink:href="#DejaVuSans-6e"
             transform="translate(148.72656)"
             id="use50" />
          <use
             xlink:href="#DejaVuSans-73"
             transform="translate(212.10547)"
             id="use51" />
          <use
             xlink:href="#DejaVuSans-6d"
             transform="translate(264.20508)"
             id="use52" />
          <use
             xlink:href="#DejaVuSans-69"
             transform="translate(361.61719)"
             id="use53" />
          <use
             xlink:href="#DejaVuSans-73"
             transform="translate(389.40039)"
             id="use54" />
          <use
             xlink:href="#DejaVuSans-73"
             transform="translate(441.5)"
             id="use55" />
          <use
             xlink:href="#DejaVuSans-69"
             transform="translate(493.59961)"
             id="use56" />
          <use
             xlink:href="#DejaVuSans-6f"
             transform="translate(521.38281)"
             id="use57" />
          <use
             xlink:href="#DejaVuSans-6e"
             transform="translate(582.56445)"
             id="use58" />
        </g>
      </g>
    </g>
    <g
       id="patch_3">
      <path
         d="M 79.59,218.22 V 19.44"
         style="fill:none;stroke:#ffffff;stroke-width:1.875;stroke-linecap:square;stroke-linejoin:miter"
         id="path88" />
    </g>
    <g
       id="patch_4">
      <path
         d="M 412.56,218.22 V 19.44"
         style="fill:none;stroke:#ffffff;stroke-width:1.875;stroke-linecap:square;stroke-linejoin:miter"
         id="path89" />
    </g>
    <g
       id="patch_5">
      <path
         d="M 79.59,218.22 H 412.56"
         style="fill:none;stroke:#ffffff;stroke-width:1.875;stroke-linecap:square;stroke-linejoin:miter"
         id="path90" />
    </g>
    <g
       id="patch_6">
      <path
         d="M 79.59,19.44 H 412.56"
         style="fill:none;stroke:#ffffff;stroke-width:1.875;stroke-linecap:square;stroke-linejoin:miter"
         id="path91" />
    </g>
    <path
       id="path94"
       clip-path="url(#p9421630c6c)"
       style="fill:none;stroke:#666666;stroke-width:4.5;stroke-linecap:round;stroke-dasharray:none"
       d="m 78.052694,29.86408 9.788643,0.488595 7.341482,0.556861 6.117901,0.67624 4.89432,0.764807 3.67074,0.773184 3.67074,1.026859 2.44717,0.883218 2.44716,1.103092 2.44716,1.400953 2.44716,1.813762 1.22358,1.112937 1.22358,1.287966 1.22358,1.50044 1.22358,1.760501 1.22358,2.081573 1.22358,2.481572 1.22358,2.98457 1.22358,3.623036 1.22358,4.440768 1.22358,5.496385 1.22358,6.866557 1.22358,8.646333 1.22358,10.939112 1.22358,13.818179 1.22358,17.22132 1.22358,20.71725 2.44717,45.35611 1.22358,15.64845 1.22358,3.35499 1.22358,-10.35623 1.22358,-19.91435 2.44716,-45.382 1.22358,-18.91887 1.22358,-15.381948 1.22358,-12.231165 1.22358,-9.664576 1.22358,-7.653794 1.22358,-6.102022 1.22358,-4.90786 1.22358,-3.985581 1.22358,-3.268317 1.22358,-2.705692 1.22358,-2.260265 1.22358,-1.904299 1.22358,-1.6172 1.22358,-1.383582 1.22358,-1.191875 2.44716,-1.934448 2.44717,-1.486753 2.44716,-1.165606 2.44716,-0.929759 3.67074,-1.076659 3.67074,-0.807315 4.89432,-0.7954 6.1179,-0.700352 c 0,0 4.3832,-0.45417 7.34149,-0.574374 2.95829,-0.120204 7.53947,-0.262323 10.40043,-0.03269 2.86096,0.229631 4.79186,0.807066 6.72969,1.10902 1.93783,0.301954 4.89432,0.718831 4.89432,0.718831 l 3.67074,0.722227 3.67075,0.953015 2.44716,0.814652 2.44716,1.011556 2.44716,1.276184 2.44716,1.639638 1.22358,0.999765 1.22358,1.151527 1.22358,1.334664 1.22358,1.557408 1.22358,1.830587 1.22358,2.168567 1.22358,2.59056 1.22358,3.122395 1.22358,3.798945 1.22358,4.667196 1.22358,5.789796 1.22358,7.247967 1.22359,9.140293 1.22357,11.568181 1.22359,14.585958 1.22358,18.07111 3.67074,66.01265 1.22358,13.15596 h 1.22358 l 1.22358,-13.15596 1.22358,-21.25193 2.44716,-44.76072 1.22358,-18.07111 1.22358,-14.585958 1.22358,-11.568181 1.22358,-9.140293 1.22358,-7.247967 1.22358,-5.789796 1.22358,-4.667196 1.22358,-3.798945 1.22358,-3.122395 1.22358,-2.59056 1.22358,-2.168567 1.22359,-1.830587 1.22357,-1.557408 1.22359,-1.334664 2.44716,-2.151292 c 0,0 1.63068,-1.130057 2.44716,-1.639638 0.81648,-0.509581 1.53306,-1.365314 2.44716,-1.419451 0.9141,-0.05414 1.62776,0.625594 2.44716,1.05578 0.8194,0.430186 2.44716,1.532839 2.44716,1.532839 l 2.44716,1.999576 1.22358,1.234635 1.22358,1.435523 1.22358,1.680815 1.22358,1.982892 1.22358,2.358246 1.22358,2.828992 1.22358,3.424937 1.22358,4.186313 1.22358,5.167146 1.22358,6.438718 1.22358,8.091194 1.22358,10.227768 1.22359,12.937134 1.22358,16.21265 1.22358,19.76181 2.44716,45.63734 1.22358,18.18515 1.22358,7.26234 1.22358,-6.66394 1.22358,-17.82193 2.44716,-45.63772 1.22358,-19.91548 1.22358,-16.36936 1.22358,-13.072165 1.22358,-10.336139 1.22358,-8.175561 1.22358,-6.503695 1.22358,-5.217161 1.22358,-4.224998 1.22358,-3.455084 1.22358,-2.852695 1.22358,-2.377056 1.22359,-1.997961 1.22357,-1.692995 1.22359,-1.445458 1.22358,-1.242804 2.44716,-2.011999 2.44716,-1.541613 2.44716,-1.205402 2.44716,-0.959273 3.67074,-1.108108 3.67074,-0.828776 4.89432,-0.814556 6.11791,-0.715385 7.34148,-0.585245 9.78864,-0.51023 12.2358,-0.397661"
       sodipodi:nodetypes="cccccccccccccccccccccccccccccccccccccccccccccccccccccccczzzcccccccccccccccccccccccccccccccccccccccccccczzzccccccccccccccccccccccccccccccccccccccccccccccccc" />
    <g
       id="line2d_20"
       style="stroke-width:4.5;stroke-dasharray:none">
      <path
         d="m 123.32517,39.351651 1.22358,1.112937 1.22358,1.287966 1.22358,1.50044 1.22358,1.760501 1.22358,2.081573 1.22358,2.481572 1.22358,2.98457 1.22358,3.623036 1.22358,4.440768 1.22358,5.496385 1.22358,6.866557 1.22358,8.646333 1.22358,10.939112 1.22358,13.818179 1.22358,17.22132 1.22358,20.71725 2.44717,45.35611 1.22358,15.64845 1.22358,3.35499 1.22358,-10.35623 1.22358,-19.91435 2.44716,-45.382 1.22358,-18.91887 1.22358,-15.381948 1.22358,-12.231165 1.22358,-9.664576 1.22358,-7.653794 1.22358,-6.102022 1.22358,-4.90786 1.22358,-3.985581 1.22358,-3.268317 1.22358,-2.705692 1.22358,-2.260265 1.22358,-1.904299 1.22358,-1.6172 1.22358,-1.383582 1.22358,-1.191875"
         clip-path="url(#p9421630c6c)"
         style="fill:none;stroke:#8c0800;stroke-width:4.5;stroke-linecap:round;stroke-dasharray:none"
         id="path70"
         sodipodi:nodetypes="cccccccccccccccccccccccccccccccccccccc" />
    </g>
    <g
       id="line2d_21"
       style="stroke-width:4.5;stroke-dasharray:none">
      <path
         d="m 249.35395,42.087794 1.22358,1.557408 1.22358,1.830587 1.22358,2.168567 1.22358,2.59056 1.22358,3.122395 1.22358,3.798945 1.22358,4.667196 1.22358,5.789796 1.22358,7.247967 1.22359,9.140293 1.22357,11.568181 1.22359,14.585961 1.22358,18.07111 3.67074,66.01265 1.22358,13.15596 h 1.22358 l 1.22358,-13.15596 1.22358,-21.25193 2.44716,-44.76072 1.22358,-18.07111 1.22358,-14.585961 1.22358,-11.568181 1.22358,-9.140293 1.22358,-7.247967 1.22358,-5.789796 1.22358,-4.667196 1.22358,-3.798945 1.22358,-3.122395 1.22358,-2.59056 1.22358,-2.168567 1.22359,-1.830587 1.22357,-1.557408"
         clip-path="url(#p9421630c6c)"
         style="fill:none;stroke:#12711c;stroke-width:4.5;stroke-linecap:round;stroke-dasharray:none"
         id="path71"
         sodipodi:nodetypes="ccccccccccccccccccccccccccccccccc" />
    </g>
    <g
       id="line2d_22"
       style="stroke-width:4.5;stroke-dasharray:none">
      <path
         d="m 311.75655,44.481917 1.22358,1.982892 1.22358,2.358246 1.22358,2.828992 1.22358,3.424937 1.22358,4.186313 1.22358,5.167146 1.22358,6.438718 1.22358,8.091194 1.22358,10.227768 1.22359,12.937137 1.22358,16.21265 1.22358,19.76181 2.44716,45.63734 1.22358,18.18515 1.22358,7.26234 1.22358,-6.66394 1.22358,-17.82193 2.44716,-45.63772 1.22358,-19.91548 1.22358,-16.36936 1.22358,-13.072168 1.22358,-10.336139 1.22358,-8.175561 1.22358,-6.503695 1.22358,-5.217161 1.22358,-4.224998 1.22358,-3.455084 1.22358,-2.852695 1.22358,-2.377056"
         clip-path="url(#p9421630c6c)"
         style="fill:none;stroke:#001c7f;stroke-width:4.5;stroke-linecap:round;stroke-dasharray:none"
         id="path72"
         sodipodi:nodetypes="cccccccccccccccccccccccccccccc" />
    </g>
  </g>
  <defs
     id="defs91">
    <clipPath
       id="p9421630c6c">
      <rect
         x="79.589996"
         y="19.440001"
         width="332.97"
         height="198.78"
         id="rect91" />
    </clipPath>
  </defs>
</svg>
