<?xml version="1.0" encoding="UTF-8" standalone="no"?>
<svg
   width="357.24469pt"
   height="227.45483pt"
   viewBox="0 0 357.24469 227.45484"
   version="1.1"
   id="svg91"
   sodipodi:docname="Triplet 0_edit.svg"
   inkscape:version="1.4 (e7c3feb100, 2024-10-09)"
   inkscape:export-filename="Triplet 0_edit.png"
   inkscape:export-xdpi="200"
   inkscape:export-ydpi="200"
   xmlns:inkscape="http://www.inkscape.org/namespaces/inkscape"
   xmlns:sodipodi="http://sodipodi.sourceforge.net/DTD/sodipodi-0.dtd"
   xmlns:xlink="http://www.w3.org/1999/xlink"
   xmlns="http://www.w3.org/2000/svg"
   xmlns:svg="http://www.w3.org/2000/svg"
   xmlns:rdf="http://www.w3.org/1999/02/22-rdf-syntax-ns#"
   xmlns:cc="http://creativecommons.org/ns#"
   xmlns:dc="http://purl.org/dc/elements/1.1/">
  <sodipodi:namedview
     id="namedview91"
     pagecolor="#ffffff"
     bordercolor="#000000"
     borderopacity="0.25"
     inkscape:showpageshadow="2"
     inkscape:pageopacity="0.0"
     inkscape:pagecheckerboard="0"
     inkscape:deskcolor="#d1d1d1"
     inkscape:document-units="pt"
     inkscape:zoom="1.096261"
     inkscape:cx="225.7674"
     inkscape:cy="194.29679"
     inkscape:window-width="1920"
     inkscape:window-height="1011"
     inkscape:window-x="0"
     inkscape:window-y="0"
     inkscape:window-maximized="1"
     inkscape:current-layer="axes_1" />
  <metadata
     id="metadata1">
    <rdf:RDF>
      <cc:Work>
        <dc:type
           rdf:resource="http://purl.org/dc/dcmitype/StillImage" />
        <dc:date>2026-05-15T12:12:13.500301</dc:date>
        <dc:format>image/svg+xml</dc:format>
        <dc:creator>
          <cc:Agent>
            <dc:title>Matplotlib v3.10.1+dfsg1, https://matplotlib.org/</dc:title>
          </cc:Agent>
        </dc:creator>
      </cc:Work>
    </rdf:RDF>
  </metadata>
  <defs
     id="defs1">
    <style
       type="text/css"
       id="style1">*{stroke-linejoin: round; stroke-linecap: butt}</style>
  </defs>
  <g
     id="axes_1"
     transform="translate(-56.252813,-18.5025)">
    <g
       id="patch_2">
      <path
         d="M 79.59,218.22 H 412.56 V 19.44 H 79.59 Z"
         style="fill:#eaeaf2"
         id="path2" />
    </g>
    <g
       id="matplotlib.axis_1">
      <g
         id="xtick_1">
        <g
           id="line2d_1">
          <path
             d="M 159.88228,218.22 V 19.44"
             clip-path="url(#p6dee82a12c)"
             style="fill:none;stroke:#ffffff;stroke-width:1.5;stroke-linecap:round"
             id="path3" />
        </g>
      </g>
      <g
         id="xtick_2">
        <g
           id="line2d_2">
          <path
             d="M 255.88596,218.22 V 19.44"
             clip-path="url(#p6dee82a12c)"
             style="fill:none;stroke:#ffffff;stroke-width:1.5;stroke-linecap:round"
             id="path7" />
        </g>
      </g>
      <g
         id="xtick_3">
        <g
           id="line2d_3">
          <path
             d="M 351.88964,218.22 V 19.44"
             clip-path="url(#p6dee82a12c)"
             style="fill:none;stroke:#ffffff;stroke-width:1.5;stroke-linecap:round"
             id="path12" />
        </g>
      </g>
      <g
         id="text_4"
         transform="matrix(1.5,0,0,1.5,-123.34424,-156.20695)">
        <!-- Frequency -->
        <g
           style="fill:#262626"
           transform="matrix(0.18,0,0,-0.18,199.58156,264.36609)"
           id="g26">
          <defs
             id="defs17">
            <path
               id="DejaVuSans-46"
               d="M 628,4666 H 3309 V 4134 H 1259 V 2759 H 3109 V 2228 H 1259 V 0 H 628 Z"
               transform="scale(0.015625)" />
            <path
               id="DejaVuSans-72"
               d="m 2631,2963 q -97,56 -211,82 -114,27 -251,27 -488,0 -749,-317 -261,-317 -261,-911 V 0 H 581 v 3500 h 578 v -544 q 182,319 472,473 291,155 707,155 59,0 131,-8 72,-7 159,-23 z"
               transform="scale(0.015625)" />
            <path
               id="DejaVuSans-65"
               d="M 3597,1894 V 1613 H 953 q 38,-594 358,-905 320,-311 892,-311 331,0 642,81 311,81 618,244 V 178 Q 3153,47 2828,-22 2503,-91 2169,-91 1331,-91 842,396 353,884 353,1716 q 0,859 464,1363 464,505 1252,505 706,0 1117,-455 411,-454 411,-1235 z m -575,169 q -6,471 -264,752 -258,282 -683,282 -481,0 -770,-272 -289,-272 -333,-766 z"
               transform="scale(0.015625)" />
            <path
               id="DejaVuSans-71"
               d="m 947,1747 q 0,-634 261,-995 261,-361 717,-361 456,0 718,361 263,361 263,995 0,634 -263,995 -262,361 -718,361 -456,0 -717,-361 Q 947,2381 947,1747 Z M 2906,525 Q 2725,213 2448,61 2172,-91 1784,-91 1150,-91 751,415 353,922 353,1747 q 0,825 398,1331 399,506 1033,506 388,0 664,-152 277,-151 458,-463 v 531 h 575 v -4831 h -575 z"
               transform="scale(0.015625)" />
            <path
               id="DejaVuSans-75"
               d="m 544,1381 v 2119 h 575 V 1403 q 0,-497 193,-746 194,-248 582,-248 465,0 735,297 271,297 271,810 v 1984 h 575 V 0 H 2900 V 538 Q 2691,219 2414,64 2138,-91 1772,-91 1169,-91 856,284 544,659 544,1381 Z m 1447,2203 z"
               transform="scale(0.015625)" />
            <path
               id="DejaVuSans-6e"
               d="M 3513,2113 V 0 h -575 v 2094 q 0,497 -194,743 -194,247 -581,247 -466,0 -735,-297 -269,-296 -269,-809 V 0 H 581 v 3500 h 578 v -544 q 207,316 486,472 280,156 646,156 603,0 912,-373 310,-373 310,-1098 z"
               transform="scale(0.015625)" />
            <path
               id="DejaVuSans-63"
               d="m 3122,3366 v -538 q -244,135 -489,202 -245,67 -495,67 -560,0 -870,-355 -309,-354 -309,-995 0,-641 309,-996 310,-354 870,-354 250,0 495,67 245,67 489,202 V 134 Q 2881,22 2623,-34 2366,-91 2075,-91 1284,-91 818,406 353,903 353,1747 q 0,856 470,1346 471,491 1290,491 265,0 518,-55 253,-54 491,-163 z"
               transform="scale(0.015625)" />
            <path
               id="DejaVuSans-79"
               d="m 2059,-325 q -243,-625 -475,-815 -231,-191 -618,-191 H 506 v 481 h 338 q 237,0 368,113 132,112 291,531 L 1606,56 191,3500 H 800 L 1894,763 2988,3500 h 609 z"
               transform="scale(0.015625)" />
          </defs>
          <use
             xlink:href="#DejaVuSans-46"
             id="use18" />
          <use
             xlink:href="#DejaVuSans-72"
             transform="translate(50.269531)"
             id="use19" />
          <use
             xlink:href="#DejaVuSans-65"
             transform="translate(89.132812)"
             id="use20" />
          <use
             xlink:href="#DejaVuSans-71"
             transform="translate(150.65625)"
             id="use21" />
          <use
             xlink:href="#DejaVuSans-75"
             transform="translate(214.13281)"
             id="use22" />
          <use
             xlink:href="#DejaVuSans-65"
             transform="translate(277.51172)"
             id="use23" />
          <use
             xlink:href="#DejaVuSans-6e"
             transform="translate(339.03516)"
             id="use24" />
          <use
             xlink:href="#DejaVuSans-63"
             transform="translate(402.41406)"
             id="use25" />
          <use
             xlink:href="#DejaVuSans-79"
             transform="translate(457.39453)"
             id="use26" />
        </g>
      </g>
    </g>
    <g
       id="matplotlib.axis_2">
      <g
         id="ytick_1">
        <g
           id="line2d_4">
          <path
             d="M 79.59,183.36906 H 412.56"
             clip-path="url(#p6dee82a12c)"
             style="fill:none;stroke:#ffffff;stroke-width:1.5;stroke-linecap:round"
             id="path34" />
        </g>
      </g>
      <g
         id="ytick_2">
        <g
           id="line2d_5">
          <path
             d="M 79.59,131.73731 H 412.56"
             clip-path="url(#p6dee82a12c)"
             style="fill:none;stroke:#ffffff;stroke-width:1.5;stroke-linecap:round"
             id="path37" />
        </g>
      </g>
      <g
         id="ytick_3">
        <g
           id="line2d_6">
          <path
             d="M 79.59,80.105565 H 412.56"
             clip-path="url(#p6dee82a12c)"
             style="fill:none;stroke:#ffffff;stroke-width:1.5;stroke-linecap:round"
             id="path40" />
        </g>
      </g>
      <g
         id="ytick_4">
        <g
           id="line2d_7">
          <path
             d="M 79.59,28.473815 H 412.56"
             clip-path="url(#p6dee82a12c)"
             style="fill:none;stroke:#ffffff;stroke-width:1.5;stroke-linecap:round"
             id="path43" />
        </g>
      </g>
      <g
         id="text_10"
         transform="matrix(1.5,0,0,1.5,27.108985,-59.808661)">
        <!-- Transmission -->
        <g
           style="fill:#262626"
           transform="matrix(0,-0.18,-0.18,0,33.106406,176.96156)"
           id="g58">
          <defs
             id="defs46">
            <path
               id="DejaVuSans-54"
               d="M -19,4666 H 3928 V 4134 H 2272 V 0 H 1638 V 4134 H -19 Z"
               transform="scale(0.015625)" />
            <path
               id="DejaVuSans-61"
               d="m 2194,1759 q -697,0 -966,-159 -269,-159 -269,-544 0,-306 202,-486 202,-179 548,-179 479,0 768,339 289,339 289,901 v 128 z m 1147,238 V 0 H 2766 V 531 Q 2569,213 2275,61 1981,-91 1556,-91 q -537,0 -855,302 -317,302 -317,808 0,590 395,890 396,300 1180,300 h 807 v 57 q 0,397 -261,614 -261,217 -733,217 -300,0 -585,-72 -284,-72 -546,-216 v 532 q 315,122 612,182 297,61 578,61 760,0 1135,-394 375,-393 375,-1193 z"
               transform="scale(0.015625)" />
            <path
               id="DejaVuSans-73"
               d="m 2834,3397 v -544 q -243,125 -506,187 -262,63 -544,63 -428,0 -642,-131 -214,-131 -214,-394 0,-200 153,-314 153,-114 616,-217 l 197,-44 q 612,-131 870,-370 258,-239 258,-667 0,-488 -386,-773 Q 2250,-91 1575,-91 1294,-91 989,-36 684,19 347,128 v 594 q 319,-166 628,-249 309,-82 613,-82 406,0 624,139 219,139 219,392 0,234 -158,359 -157,125 -692,241 l -200,47 q -534,112 -772,345 -237,233 -237,639 0,494 350,762 350,269 994,269 318,0 599,-47 282,-46 519,-140 z"
               transform="scale(0.015625)" />
            <path
               id="DejaVuSans-6d"
               d="m 3328,2828 q 216,388 516,572 300,184 706,184 547,0 844,-383 297,-382 297,-1088 V 0 h -578 v 2094 q 0,503 -179,746 -178,244 -543,244 -447,0 -707,-297 -259,-296 -259,-809 V 0 h -578 v 2094 q 0,506 -178,748 -178,242 -550,242 -441,0 -701,-298 -259,-298 -259,-808 V 0 H 581 v 3500 h 578 v -544 q 197,322 472,475 275,153 653,153 382,0 649,-194 267,-193 395,-562 z"
               transform="scale(0.015625)" />
            <path
               id="DejaVuSans-69"
               d="m 603,3500 h 575 V 0 H 603 Z m 0,1363 h 575 V 4134 H 603 Z"
               transform="scale(0.015625)" />
            <path
               id="DejaVuSans-6f"
               d="m 1959,3097 q -462,0 -731,-361 -269,-361 -269,-989 0,-628 267,-989 268,-361 733,-361 460,0 728,362 269,363 269,988 0,622 -269,986 -268,364 -728,364 z m 0,487 q 750,0 1178,-488 429,-487 429,-1349 Q 3566,888 3137,398 2709,-91 1959,-91 1206,-91 779,398 353,888 353,1747 q 0,862 426,1349 427,488 1180,488 z"
               transform="scale(0.015625)" />
          </defs>
          <use
             xlink:href="#DejaVuSans-54"
             id="use47" />
          <use
             xlink:href="#DejaVuSans-72"
             transform="translate(46.333984)"
             id="use48" />
          <use
             xlink:href="#DejaVuSans-61"
             transform="translate(87.447266)"
             id="use49" />
          <use
             xlink:href="#DejaVuSans-6e"
             transform="translate(148.72656)"
             id="use50" />
          <use
             xlink:href="#DejaVuSans-73"
             transform="translate(212.10547)"
             id="use51" />
          <use
             xlink:href="#DejaVuSans-6d"
             transform="translate(264.20508)"
             id="use52" />
          <use
             xlink:href="#DejaVuSans-69"
             transform="translate(361.61719)"
             id="use53" />
          <use
             xlink:href="#DejaVuSans-73"
             transform="translate(389.40039)"
             id="use54" />
          <use
             xlink:href="#DejaVuSans-73"
             transform="translate(441.5)"
             id="use55" />
          <use
             xlink:href="#DejaVuSans-69"
             transform="translate(493.59961)"
             id="use56" />
          <use
             xlink:href="#DejaVuSans-6f"
             transform="translate(521.38281)"
             id="use57" />
          <use
             xlink:href="#DejaVuSans-6e"
             transform="translate(582.56445)"
             id="use58" />
        </g>
      </g>
    </g>
    <path
       id="path94"
       clip-path="url(#p6dee82a12c)"
       style="fill:none;stroke:#999999;stroke-width:4.5;stroke-linecap:round;stroke-dasharray:none"
       d="m 87.315442,29.755093 11.012224,0.496643 7.953274,0.562116 6.1179,0.634689 4.89432,0.712493 4.28253,0.854299 3.05895,0.803868 3.05896,1.034762 2.44716,1.057038 2.44716,1.338049 1.83537,1.250364 1.83537,1.531043 1.83537,1.899763 1.22358,1.530628 1.22358,1.797623 1.22358,2.12763 1.22358,2.539243 1.22358,3.057467 1.22358,3.716031 1.22358,4.56042 1.22358,5.651393 1.22358,7.068053 1.22358,8.907422 1.22358,11.272114 1.22358,14.226026 1.22358,17.67635 1.22358,21.11954 2.44716,44.9967 0.6118,8.50355 0.61179,5.84876 0.61179,2.56812 0.61179,-1.00714 0.61179,-4.4654 0.61179,-7.42751 1.22358,-20.67654 2.44716,-45.08941 1.22358,-18.4649 1.22358,-14.95153 1.22358,-11.871187 1.22358,-9.379399 1.22358,-7.432903 1.22358,-5.932064 1.22358,-4.776884 1.22358,-3.884046 1.22358,-3.188968 1.22358,-2.643114 1.22358,-2.210449 1.22358,-1.864272 1.83537,-2.288963 1.83537,-1.822818 1.83537,-1.47284 1.83538,-1.205621 2.44716,-1.293239 2.44716,-1.024112 3.05895,-1.004877 4.58843,-1.485614 5.812,0.228558 3.67074,0.808243 3.05895,0.874815 2.44716,0.882001 2.44716,1.101464 1.83538,1.015703 1.83537,1.227726 1.83537,1.501573 1.83537,1.860774 1.22358,1.497446 1.22358,1.756821 1.22358,2.077012 1.22358,2.475867 1.22358,2.977367 1.22358,3.613855 1.22358,4.428966 1.22358,5.481105 1.22358,6.846701 1.22358,8.620596 1.22358,10.906231 1.22358,13.777736 1.22358,17.17573 1.22358,20.67582 2.44716,45.3829 0.61179,9.10633 0.61179,6.66579 0.61179,3.53277 h 0.61179 l 0.61179,-3.53277 0.6118,-6.66579 1.22358,-19.83217 2.44716,-45.4048 1.22358,-18.96363 1.22358,-15.425027 1.22358,-12.267407 1.22358,-9.693358 1.22358,-7.676107 1.22358,-6.119188 1.22358,-4.921082 1.22358,-3.995821 1.22358,-3.276313 1.22358,-2.711992 1.22358,-2.265274 1.22358,-1.908321 1.83537,-2.339993 1.83537,-1.860774 1.83537,-1.501573 1.83537,-1.227726 2.44716,-1.315394 2.44717,-1.040404 3.05895,-1.019675 3.05895,-0.793048 3.67074,-0.738415 5.50611,-0.01707 4.28253,1.67962 3.05895,1.059084 2.44716,1.083907 2.44716,1.374716 1.83538,1.287073 1.83537,1.578919 1.83537,1.963236 1.22358,1.584746 1.22358,1.864272 1.22358,2.210449 1.22358,2.643114 1.22358,3.188968 1.22358,3.884046 1.22358,4.776884 1.22358,5.932064 1.22358,7.432903 1.22358,9.379399 1.22358,11.871187 1.22358,14.951535 1.22358,18.4649 1.83537,33.43246 1.22358,22.68968 0.61179,9.64381 0.61179,7.42751 0.61179,4.4654 0.61179,1.00714 0.61179,-2.56812 0.61179,-5.84876 0.61179,-8.50355 1.22358,-21.75023 1.83538,-34.19734 1.22358,-19.45681 1.22358,-15.90681 1.22358,-12.675403 1.22358,-10.018318 1.22358,-7.928327 1.22358,-6.313313 1.22358,-5.070595 1.22358,-4.1116 1.22358,-3.366679 1.22358,-2.783157 1.22358,-2.321847 1.22358,-1.953715 1.22358,-1.657212 1.83537,-2.048011 1.83537,-1.642679 1.83537,-1.335832 1.83537,-1.099776 2.44716,-1.186683 2.44716,-0.945401 3.05896,-0.93306 3.67074,-0.85757 4.28253,-0.749801 4.89432,-0.633152 6.1179,-0.570873 7.95328,-0.511835 10.40043,-0.43773"
       sodipodi:nodetypes="ccccccccccccccccccccccccccccccccccccccccccccccccccccccccccccccccccccccccccccccccccccccccccccccccccccccccccccccccccccccccccccccccccccccccccccccccccccccccccccccccccccccc" />
    <g
       id="line2d_23"
       style="stroke-width:4.5;stroke-dasharray:none">
      <path
         d="m 136.25866,40.030457 1.83537,1.899763 1.22358,1.530628 1.22358,1.797623 1.22358,2.12763 1.22358,2.539243 1.22358,3.057467 1.22358,3.716031 1.22358,4.56042 1.22358,5.651393 1.22358,7.068053 1.22358,8.907422 1.22358,11.272114 1.22358,14.226026 1.22358,17.67635 1.22358,21.11954 2.44716,44.9967 0.6118,8.50355 0.61179,5.84876 0.61179,2.56812 0.61179,-1.00714 0.61179,-4.4654 0.61179,-7.42751 1.22358,-20.67654 2.44716,-45.08941 1.22358,-18.4649 1.22358,-14.95153 1.22358,-11.871187 1.22358,-9.379399 1.22358,-7.432903 1.22358,-5.932064 1.22358,-4.776884 1.22358,-3.884046 1.22358,-3.188968 1.22358,-2.643114 1.22358,-2.210449 1.22358,-1.864272 1.83537,-2.288963 1.83537,-1.822818"
         clip-path="url(#p6dee82a12c)"
         style="fill:none;stroke:#8c0800;stroke-width:4.5;stroke-linecap:round;stroke-dasharray:none"
         id="path73"
         sodipodi:nodetypes="ccccccccccccccccccccccccccccccccccccccc" />
    </g>
    <g
       id="line2d_24"
       style="stroke-width:4.5;stroke-dasharray:none">
      <path
         d="m 222.52108,39.873573 1.83537,1.860774 1.22358,1.497446 1.22358,1.756821 1.22358,2.077012 1.22358,2.475867 1.22358,2.977367 1.22358,3.613855 1.22358,4.428966 1.22358,5.481105 1.22358,6.846701 1.22358,8.620596 1.22358,10.906231 1.22358,13.777736 1.22358,17.17573 1.22358,20.67582 2.44716,45.3829 0.61179,9.10633 0.61179,6.66579 0.61179,3.53277 h 0.61179 l 0.61179,-3.53277 0.6118,-6.66579 1.22358,-19.83217 2.44716,-45.4048 1.22358,-18.96363 1.22358,-15.425027 1.22358,-12.267407 1.22358,-9.693358 1.22358,-7.676107 1.22358,-6.119188 1.22358,-4.921082 1.22358,-3.995821 1.22358,-3.276313 1.22358,-2.711992 1.22358,-2.265274 1.22358,-1.908321 1.83537,-2.339993 1.83537,-1.860774 1.83537,-1.501573"
         clip-path="url(#p6dee82a12c)"
         style="fill:none;stroke:#12711c;stroke-width:4.5;stroke-linecap:round;stroke-dasharray:none"
         id="path74"
         sodipodi:nodetypes="cccccccccccccccccccccccccccccccccccccccc" />
    </g>
    <g
       id="line2d_25"
       style="stroke-width:4.5;stroke-dasharray:none">
      <path
         d="m 311.23066,42.246828 1.22358,1.584746 1.22358,1.864272 1.22358,2.210449 1.22358,2.643114 1.22358,3.188968 1.22358,3.884046 1.22358,4.776884 1.22358,5.932064 1.22358,7.432903 1.22358,9.379399 1.22358,11.871187 1.22358,14.95153 1.22358,18.4649 1.83537,33.43246 1.22358,22.68968 0.61179,9.64381 0.61179,7.42751 0.61179,4.4654 0.61179,1.00714 0.61179,-2.56812 0.61179,-5.84876 0.61179,-8.50355 1.22358,-21.75023 1.83538,-34.19734 1.22358,-19.45681 1.22358,-15.90681 1.22358,-12.675398 1.22358,-10.018318 1.22358,-7.928327 1.22358,-6.313313 1.22358,-5.070595 1.22358,-4.1116 1.22358,-3.366679 1.22358,-2.783157 1.22358,-2.321847 1.22358,-1.953715 1.22358,-1.657212"
         clip-path="url(#p6dee82a12c)"
         style="fill:none;stroke:#001c7f;stroke-width:4.5;stroke-linecap:round;stroke-dasharray:none"
         id="path75"
         sodipodi:nodetypes="cccccccccccccccccccccccccccccccccccccc" />
    </g>
    <g
       id="line2d_26">
      <path
         d="M 0,0"
         clip-path="url(#p6dee82a12c)"
         style="fill:none;stroke:#8c0800;stroke-width:2.25;stroke-linecap:round"
         id="path76" />
    </g>
    <g
       id="line2d_27">
      <path
         d="M 0,0"
         clip-path="url(#p6dee82a12c)"
         style="fill:none;stroke:#12711c;stroke-width:2.25;stroke-linecap:round"
         id="path77" />
    </g>
    <g
       id="line2d_28">
      <path
         d="M 0,0"
         clip-path="url(#p6dee82a12c)"
         style="fill:none;stroke:#001c7f;stroke-width:2.25;stroke-linecap:round"
         id="path78" />
    </g>
    <g
       id="line2d_29">
      <path
         d="M 0,0"
         clip-path="url(#p6dee82a12c)"
         style="fill:none;stroke:#8c0800;stroke-width:2.25;stroke-linecap:round"
         id="path79" />
    </g>
    <g
       id="line2d_30">
      <path
         d="M 0,0"
         clip-path="url(#p6dee82a12c)"
         style="fill:none;stroke:#12711c;stroke-width:2.25;stroke-linecap:round"
         id="path80" />
    </g>
    <g
       id="line2d_31">
      <path
         d="M 0,0"
         clip-path="url(#p6dee82a12c)"
         style="fill:none;stroke:#001c7f;stroke-width:2.25;stroke-linecap:round"
         id="path81" />
    </g>
    <g
       id="line2d_32">
      <path
         d="M 0,0"
         clip-path="url(#p6dee82a12c)"
         style="fill:none;stroke:#8c0800;stroke-width:2.25;stroke-linecap:round"
         id="path82" />
    </g>
    <g
       id="line2d_33">
      <path
         d="M 0,0"
         clip-path="url(#p6dee82a12c)"
         style="fill:none;stroke:#12711c;stroke-width:2.25;stroke-linecap:round"
         id="path83" />
    </g>
    <g
       id="line2d_34">
      <path
         d="M 0,0"
         clip-path="url(#p6dee82a12c)"
         style="fill:none;stroke:#001c7f;stroke-width:2.25;stroke-linecap:round"
         id="path84" />
    </g>
    <g
       id="line2d_35">
      <path
         d="M 0,0"
         clip-path="url(#p6dee82a12c)"
         style="fill:none;stroke:#8c0800;stroke-width:2.25;stroke-linecap:round"
         id="path85" />
    </g>
    <g
       id="line2d_36">
      <path
         d="M 0,0"
         clip-path="url(#p6dee82a12c)"
         style="fill:none;stroke:#12711c;stroke-width:2.25;stroke-linecap:round"
         id="path86" />
    </g>
    <g
       id="line2d_37">
      <path
         d="M 0,0"
         clip-path="url(#p6dee82a12c)"
         style="fill:none;stroke:#001c7f;stroke-width:2.25;stroke-linecap:round"
         id="path87" />
    </g>
    <g
       id="patch_3">
      <path
         d="M 79.59,218.22 V 19.44"
         style="fill:none;stroke:#ffffff;stroke-width:1.875;stroke-linecap:square;stroke-linejoin:miter"
         id="path88" />
    </g>
    <g
       id="patch_4">
      <path
         d="M 412.56,218.22 V 19.44"
         style="fill:none;stroke:#ffffff;stroke-width:1.875;stroke-linecap:square;stroke-linejoin:miter"
         id="path89" />
    </g>
    <g
       id="patch_5">
      <path
         d="M 79.59,218.22 H 412.56"
         style="fill:none;stroke:#ffffff;stroke-width:1.875;stroke-linecap:square;stroke-linejoin:miter"
         id="path90" />
    </g>
    <g
       id="patch_6">
      <path
         d="M 79.59,19.44 H 412.56"
         style="fill:none;stroke:#ffffff;stroke-width:1.875;stroke-linecap:square;stroke-linejoin:miter"
         id="path91" />
    </g>
  </g>
  <defs
     id="defs91">
    <clipPath
       id="p6dee82a12c">
      <rect
         x="79.589996"
         y="19.440001"
         width="332.97"
         height="198.78"
         id="rect91" />
    </clipPath>
  </defs>
</svg>
