<?xml version="1.0" encoding="utf-8" standalone="no"?>
<!DOCTYPE svg PUBLIC "-//W3C//DTD SVG 1.1//EN"
  "http://www.w3.org/Graphics/SVG/1.1/DTD/svg11.dtd">
<svg xmlns:xlink="http://www.w3.org/1999/xlink" width="432pt" height="288pt" viewBox="0 0 432 288" xmlns="http://www.w3.org/2000/svg" version="1.1">
 <metadata>
  <rdf:RDF xmlns:dc="http://purl.org/dc/elements/1.1/" xmlns:cc="http://creativecommons.org/ns#" xmlns:rdf="http://www.w3.org/1999/02/22-rdf-syntax-ns#">
   <cc:Work>
    <dc:type rdf:resource="http://purl.org/dc/dcmitype/StillImage"/>
    <dc:date>2026-05-15T12:12:13.500301</dc:date>
    <dc:format>image/svg+xml</dc:format>
    <dc:creator>
     <cc:Agent>
      <dc:title>Matplotlib v3.10.1+dfsg1, https://matplotlib.org/</dc:title>
     </cc:Agent>
    </dc:creator>
   </cc:Work>
  </rdf:RDF>
 </metadata>
 <defs>
  <style type="text/css">*{stroke-linejoin: round; stroke-linecap: butt}</style>
 </defs>
 <g id="figure_1">
  <g id="patch_1">
   <path d="M 0 288 
L 432 288 
L 432 0 
L 0 0 
z
" style="fill: #ffffff"/>
  </g>
  <g id="axes_1">
   <g id="patch_2">
    <path d="M 79.59 218.22 
L 412.56 218.22 
L 412.56 19.44 
L 79.59 19.44 
z
" style="fill: #eaeaf2"/>
   </g>
   <g id="matplotlib.axis_1">
    <g id="xtick_1">
     <g id="line2d_1">
      <path d="M 159.882276 218.22 
L 159.882276 19.44 
" clip-path="url(#p6dee82a12c)" style="fill: none; stroke: #ffffff; stroke-width: 1.5; stroke-linecap: round"/>
     </g>
     <g id="text_1">
      <!-- 0.010 -->
      <g style="fill: #262626" transform="translate(136.264073 243.257422) scale(0.165 -0.165)">
       <defs>
        <path id="DejaVuSans-30" d="M 2034 4250 
Q 1547 4250 1301 3770 
Q 1056 3291 1056 2328 
Q 1056 1369 1301 889 
Q 1547 409 2034 409 
Q 2525 409 2770 889 
Q 3016 1369 3016 2328 
Q 3016 3291 2770 3770 
Q 2525 4250 2034 4250 
z
M 2034 4750 
Q 2819 4750 3233 4129 
Q 3647 3509 3647 2328 
Q 3647 1150 3233 529 
Q 2819 -91 2034 -91 
Q 1250 -91 836 529 
Q 422 1150 422 2328 
Q 422 3509 836 4129 
Q 1250 4750 2034 4750 
z
" transform="scale(0.015625)"/>
        <path id="DejaVuSans-2e" d="M 684 794 
L 1344 794 
L 1344 0 
L 684 0 
L 684 794 
z
" transform="scale(0.015625)"/>
        <path id="DejaVuSans-31" d="M 794 531 
L 1825 531 
L 1825 4091 
L 703 3866 
L 703 4441 
L 1819 4666 
L 2450 4666 
L 2450 531 
L 3481 531 
L 3481 0 
L 794 0 
L 794 531 
z
" transform="scale(0.015625)"/>
       </defs>
       <use xlink:href="#DejaVuSans-30"/>
       <use xlink:href="#DejaVuSans-2e" transform="translate(63.623047 0)"/>
       <use xlink:href="#DejaVuSans-30" transform="translate(95.410156 0)"/>
       <use xlink:href="#DejaVuSans-31" transform="translate(159.033203 0)"/>
       <use xlink:href="#DejaVuSans-30" transform="translate(222.65625 0)"/>
      </g>
     </g>
    </g>
    <g id="xtick_2">
     <g id="line2d_2">
      <path d="M 255.885957 218.22 
L 255.885957 19.44 
" clip-path="url(#p6dee82a12c)" style="fill: none; stroke: #ffffff; stroke-width: 1.5; stroke-linecap: round"/>
     </g>
     <g id="text_2">
      <!-- 0.015 -->
      <g style="fill: #262626" transform="translate(232.267754 243.257422) scale(0.165 -0.165)">
       <defs>
        <path id="DejaVuSans-35" d="M 691 4666 
L 3169 4666 
L 3169 4134 
L 1269 4134 
L 1269 2991 
Q 1406 3038 1543 3061 
Q 1681 3084 1819 3084 
Q 2600 3084 3056 2656 
Q 3513 2228 3513 1497 
Q 3513 744 3044 326 
Q 2575 -91 1722 -91 
Q 1428 -91 1123 -41 
Q 819 9 494 109 
L 494 744 
Q 775 591 1075 516 
Q 1375 441 1709 441 
Q 2250 441 2565 725 
Q 2881 1009 2881 1497 
Q 2881 1984 2565 2268 
Q 2250 2553 1709 2553 
Q 1456 2553 1204 2497 
Q 953 2441 691 2322 
L 691 4666 
z
" transform="scale(0.015625)"/>
       </defs>
       <use xlink:href="#DejaVuSans-30"/>
       <use xlink:href="#DejaVuSans-2e" transform="translate(63.623047 0)"/>
       <use xlink:href="#DejaVuSans-30" transform="translate(95.410156 0)"/>
       <use xlink:href="#DejaVuSans-31" transform="translate(159.033203 0)"/>
       <use xlink:href="#DejaVuSans-35" transform="translate(222.65625 0)"/>
      </g>
     </g>
    </g>
    <g id="xtick_3">
     <g id="line2d_3">
      <path d="M 351.889638 218.22 
L 351.889638 19.44 
" clip-path="url(#p6dee82a12c)" style="fill: none; stroke: #ffffff; stroke-width: 1.5; stroke-linecap: round"/>
     </g>
     <g id="text_3">
      <!-- 0.020 -->
      <g style="fill: #262626" transform="translate(328.271434 243.257422) scale(0.165 -0.165)">
       <defs>
        <path id="DejaVuSans-32" d="M 1228 531 
L 3431 531 
L 3431 0 
L 469 0 
L 469 531 
Q 828 903 1448 1529 
Q 2069 2156 2228 2338 
Q 2531 2678 2651 2914 
Q 2772 3150 2772 3378 
Q 2772 3750 2511 3984 
Q 2250 4219 1831 4219 
Q 1534 4219 1204 4116 
Q 875 4013 500 3803 
L 500 4441 
Q 881 4594 1212 4672 
Q 1544 4750 1819 4750 
Q 2544 4750 2975 4387 
Q 3406 4025 3406 3419 
Q 3406 3131 3298 2873 
Q 3191 2616 2906 2266 
Q 2828 2175 2409 1742 
Q 1991 1309 1228 531 
z
" transform="scale(0.015625)"/>
       </defs>
       <use xlink:href="#DejaVuSans-30"/>
       <use xlink:href="#DejaVuSans-2e" transform="translate(63.623047 0)"/>
       <use xlink:href="#DejaVuSans-30" transform="translate(95.410156 0)"/>
       <use xlink:href="#DejaVuSans-32" transform="translate(159.033203 0)"/>
       <use xlink:href="#DejaVuSans-30" transform="translate(222.65625 0)"/>
      </g>
     </g>
    </g>
    <g id="text_4">
     <!-- Frequency -->
     <g style="fill: #262626" transform="translate(199.581563 264.366094) scale(0.18 -0.18)">
      <defs>
       <path id="DejaVuSans-46" d="M 628 4666 
L 3309 4666 
L 3309 4134 
L 1259 4134 
L 1259 2759 
L 3109 2759 
L 3109 2228 
L 1259 2228 
L 1259 0 
L 628 0 
L 628 4666 
z
" transform="scale(0.015625)"/>
       <path id="DejaVuSans-72" d="M 2631 2963 
Q 2534 3019 2420 3045 
Q 2306 3072 2169 3072 
Q 1681 3072 1420 2755 
Q 1159 2438 1159 1844 
L 1159 0 
L 581 0 
L 581 3500 
L 1159 3500 
L 1159 2956 
Q 1341 3275 1631 3429 
Q 1922 3584 2338 3584 
Q 2397 3584 2469 3576 
Q 2541 3569 2628 3553 
L 2631 2963 
z
" transform="scale(0.015625)"/>
       <path id="DejaVuSans-65" d="M 3597 1894 
L 3597 1613 
L 953 1613 
Q 991 1019 1311 708 
Q 1631 397 2203 397 
Q 2534 397 2845 478 
Q 3156 559 3463 722 
L 3463 178 
Q 3153 47 2828 -22 
Q 2503 -91 2169 -91 
Q 1331 -91 842 396 
Q 353 884 353 1716 
Q 353 2575 817 3079 
Q 1281 3584 2069 3584 
Q 2775 3584 3186 3129 
Q 3597 2675 3597 1894 
z
M 3022 2063 
Q 3016 2534 2758 2815 
Q 2500 3097 2075 3097 
Q 1594 3097 1305 2825 
Q 1016 2553 972 2059 
L 3022 2063 
z
" transform="scale(0.015625)"/>
       <path id="DejaVuSans-71" d="M 947 1747 
Q 947 1113 1208 752 
Q 1469 391 1925 391 
Q 2381 391 2643 752 
Q 2906 1113 2906 1747 
Q 2906 2381 2643 2742 
Q 2381 3103 1925 3103 
Q 1469 3103 1208 2742 
Q 947 2381 947 1747 
z
M 2906 525 
Q 2725 213 2448 61 
Q 2172 -91 1784 -91 
Q 1150 -91 751 415 
Q 353 922 353 1747 
Q 353 2572 751 3078 
Q 1150 3584 1784 3584 
Q 2172 3584 2448 3432 
Q 2725 3281 2906 2969 
L 2906 3500 
L 3481 3500 
L 3481 -1331 
L 2906 -1331 
L 2906 525 
z
" transform="scale(0.015625)"/>
       <path id="DejaVuSans-75" d="M 544 1381 
L 544 3500 
L 1119 3500 
L 1119 1403 
Q 1119 906 1312 657 
Q 1506 409 1894 409 
Q 2359 409 2629 706 
Q 2900 1003 2900 1516 
L 2900 3500 
L 3475 3500 
L 3475 0 
L 2900 0 
L 2900 538 
Q 2691 219 2414 64 
Q 2138 -91 1772 -91 
Q 1169 -91 856 284 
Q 544 659 544 1381 
z
M 1991 3584 
L 1991 3584 
z
" transform="scale(0.015625)"/>
       <path id="DejaVuSans-6e" d="M 3513 2113 
L 3513 0 
L 2938 0 
L 2938 2094 
Q 2938 2591 2744 2837 
Q 2550 3084 2163 3084 
Q 1697 3084 1428 2787 
Q 1159 2491 1159 1978 
L 1159 0 
L 581 0 
L 581 3500 
L 1159 3500 
L 1159 2956 
Q 1366 3272 1645 3428 
Q 1925 3584 2291 3584 
Q 2894 3584 3203 3211 
Q 3513 2838 3513 2113 
z
" transform="scale(0.015625)"/>
       <path id="DejaVuSans-63" d="M 3122 3366 
L 3122 2828 
Q 2878 2963 2633 3030 
Q 2388 3097 2138 3097 
Q 1578 3097 1268 2742 
Q 959 2388 959 1747 
Q 959 1106 1268 751 
Q 1578 397 2138 397 
Q 2388 397 2633 464 
Q 2878 531 3122 666 
L 3122 134 
Q 2881 22 2623 -34 
Q 2366 -91 2075 -91 
Q 1284 -91 818 406 
Q 353 903 353 1747 
Q 353 2603 823 3093 
Q 1294 3584 2113 3584 
Q 2378 3584 2631 3529 
Q 2884 3475 3122 3366 
z
" transform="scale(0.015625)"/>
       <path id="DejaVuSans-79" d="M 2059 -325 
Q 1816 -950 1584 -1140 
Q 1353 -1331 966 -1331 
L 506 -1331 
L 506 -850 
L 844 -850 
Q 1081 -850 1212 -737 
Q 1344 -625 1503 -206 
L 1606 56 
L 191 3500 
L 800 3500 
L 1894 763 
L 2988 3500 
L 3597 3500 
L 2059 -325 
z
" transform="scale(0.015625)"/>
      </defs>
      <use xlink:href="#DejaVuSans-46"/>
      <use xlink:href="#DejaVuSans-72" transform="translate(50.269531 0)"/>
      <use xlink:href="#DejaVuSans-65" transform="translate(89.132812 0)"/>
      <use xlink:href="#DejaVuSans-71" transform="translate(150.65625 0)"/>
      <use xlink:href="#DejaVuSans-75" transform="translate(214.132812 0)"/>
      <use xlink:href="#DejaVuSans-65" transform="translate(277.511719 0)"/>
      <use xlink:href="#DejaVuSans-6e" transform="translate(339.035156 0)"/>
      <use xlink:href="#DejaVuSans-63" transform="translate(402.414062 0)"/>
      <use xlink:href="#DejaVuSans-79" transform="translate(457.394531 0)"/>
     </g>
    </g>
    <g id="text_5">
     <!-- +1.934e2 -->
     <g style="fill: #262626" transform="translate(330.846328 262.226328) scale(0.165 -0.165)">
      <defs>
       <path id="DejaVuSans-2b" d="M 2944 4013 
L 2944 2272 
L 4684 2272 
L 4684 1741 
L 2944 1741 
L 2944 0 
L 2419 0 
L 2419 1741 
L 678 1741 
L 678 2272 
L 2419 2272 
L 2419 4013 
L 2944 4013 
z
" transform="scale(0.015625)"/>
       <path id="DejaVuSans-39" d="M 703 97 
L 703 672 
Q 941 559 1184 500 
Q 1428 441 1663 441 
Q 2288 441 2617 861 
Q 2947 1281 2994 2138 
Q 2813 1869 2534 1725 
Q 2256 1581 1919 1581 
Q 1219 1581 811 2004 
Q 403 2428 403 3163 
Q 403 3881 828 4315 
Q 1253 4750 1959 4750 
Q 2769 4750 3195 4129 
Q 3622 3509 3622 2328 
Q 3622 1225 3098 567 
Q 2575 -91 1691 -91 
Q 1453 -91 1209 -44 
Q 966 3 703 97 
z
M 1959 2075 
Q 2384 2075 2632 2365 
Q 2881 2656 2881 3163 
Q 2881 3666 2632 3958 
Q 2384 4250 1959 4250 
Q 1534 4250 1286 3958 
Q 1038 3666 1038 3163 
Q 1038 2656 1286 2365 
Q 1534 2075 1959 2075 
z
" transform="scale(0.015625)"/>
       <path id="DejaVuSans-33" d="M 2597 2516 
Q 3050 2419 3304 2112 
Q 3559 1806 3559 1356 
Q 3559 666 3084 287 
Q 2609 -91 1734 -91 
Q 1441 -91 1130 -33 
Q 819 25 488 141 
L 488 750 
Q 750 597 1062 519 
Q 1375 441 1716 441 
Q 2309 441 2620 675 
Q 2931 909 2931 1356 
Q 2931 1769 2642 2001 
Q 2353 2234 1838 2234 
L 1294 2234 
L 1294 2753 
L 1863 2753 
Q 2328 2753 2575 2939 
Q 2822 3125 2822 3475 
Q 2822 3834 2567 4026 
Q 2313 4219 1838 4219 
Q 1578 4219 1281 4162 
Q 984 4106 628 3988 
L 628 4550 
Q 988 4650 1302 4700 
Q 1616 4750 1894 4750 
Q 2613 4750 3031 4423 
Q 3450 4097 3450 3541 
Q 3450 3153 3228 2886 
Q 3006 2619 2597 2516 
z
" transform="scale(0.015625)"/>
       <path id="DejaVuSans-34" d="M 2419 4116 
L 825 1625 
L 2419 1625 
L 2419 4116 
z
M 2253 4666 
L 3047 4666 
L 3047 1625 
L 3713 1625 
L 3713 1100 
L 3047 1100 
L 3047 0 
L 2419 0 
L 2419 1100 
L 313 1100 
L 313 1709 
L 2253 4666 
z
" transform="scale(0.015625)"/>
      </defs>
      <use xlink:href="#DejaVuSans-2b"/>
      <use xlink:href="#DejaVuSans-31" transform="translate(83.789062 0)"/>
      <use xlink:href="#DejaVuSans-2e" transform="translate(147.412109 0)"/>
      <use xlink:href="#DejaVuSans-39" transform="translate(179.199219 0)"/>
      <use xlink:href="#DejaVuSans-33" transform="translate(242.822266 0)"/>
      <use xlink:href="#DejaVuSans-34" transform="translate(306.445312 0)"/>
      <use xlink:href="#DejaVuSans-65" transform="translate(370.068359 0)"/>
      <use xlink:href="#DejaVuSans-32" transform="translate(431.591797 0)"/>
     </g>
    </g>
   </g>
   <g id="matplotlib.axis_2">
    <g id="ytick_1">
     <g id="line2d_4">
      <path d="M 79.59 183.369063 
L 412.56 183.369063 
" clip-path="url(#p6dee82a12c)" style="fill: none; stroke: #ffffff; stroke-width: 1.5; stroke-linecap: round"/>
     </g>
     <g id="text_6">
      <!-- 0.4 -->
      <g style="fill: #262626" transform="translate(40.849844 189.637774) scale(0.165 -0.165)">
       <use xlink:href="#DejaVuSans-30"/>
       <use xlink:href="#DejaVuSans-2e" transform="translate(63.623047 0)"/>
       <use xlink:href="#DejaVuSans-34" transform="translate(95.410156 0)"/>
      </g>
     </g>
    </g>
    <g id="ytick_2">
     <g id="line2d_5">
      <path d="M 79.59 131.737314 
L 412.56 131.737314 
" clip-path="url(#p6dee82a12c)" style="fill: none; stroke: #ffffff; stroke-width: 1.5; stroke-linecap: round"/>
     </g>
     <g id="text_7">
      <!-- 0.6 -->
      <g style="fill: #262626" transform="translate(40.849844 138.006025) scale(0.165 -0.165)">
       <defs>
        <path id="DejaVuSans-36" d="M 2113 2584 
Q 1688 2584 1439 2293 
Q 1191 2003 1191 1497 
Q 1191 994 1439 701 
Q 1688 409 2113 409 
Q 2538 409 2786 701 
Q 3034 994 3034 1497 
Q 3034 2003 2786 2293 
Q 2538 2584 2113 2584 
z
M 3366 4563 
L 3366 3988 
Q 3128 4100 2886 4159 
Q 2644 4219 2406 4219 
Q 1781 4219 1451 3797 
Q 1122 3375 1075 2522 
Q 1259 2794 1537 2939 
Q 1816 3084 2150 3084 
Q 2853 3084 3261 2657 
Q 3669 2231 3669 1497 
Q 3669 778 3244 343 
Q 2819 -91 2113 -91 
Q 1303 -91 875 529 
Q 447 1150 447 2328 
Q 447 3434 972 4092 
Q 1497 4750 2381 4750 
Q 2619 4750 2861 4703 
Q 3103 4656 3366 4563 
z
" transform="scale(0.015625)"/>
       </defs>
       <use xlink:href="#DejaVuSans-30"/>
       <use xlink:href="#DejaVuSans-2e" transform="translate(63.623047 0)"/>
       <use xlink:href="#DejaVuSans-36" transform="translate(95.410156 0)"/>
      </g>
     </g>
    </g>
    <g id="ytick_3">
     <g id="line2d_6">
      <path d="M 79.59 80.105565 
L 412.56 80.105565 
" clip-path="url(#p6dee82a12c)" style="fill: none; stroke: #ffffff; stroke-width: 1.5; stroke-linecap: round"/>
     </g>
     <g id="text_8">
      <!-- 0.8 -->
      <g style="fill: #262626" transform="translate(40.849844 86.374275) scale(0.165 -0.165)">
       <defs>
        <path id="DejaVuSans-38" d="M 2034 2216 
Q 1584 2216 1326 1975 
Q 1069 1734 1069 1313 
Q 1069 891 1326 650 
Q 1584 409 2034 409 
Q 2484 409 2743 651 
Q 3003 894 3003 1313 
Q 3003 1734 2745 1975 
Q 2488 2216 2034 2216 
z
M 1403 2484 
Q 997 2584 770 2862 
Q 544 3141 544 3541 
Q 544 4100 942 4425 
Q 1341 4750 2034 4750 
Q 2731 4750 3128 4425 
Q 3525 4100 3525 3541 
Q 3525 3141 3298 2862 
Q 3072 2584 2669 2484 
Q 3125 2378 3379 2068 
Q 3634 1759 3634 1313 
Q 3634 634 3220 271 
Q 2806 -91 2034 -91 
Q 1263 -91 848 271 
Q 434 634 434 1313 
Q 434 1759 690 2068 
Q 947 2378 1403 2484 
z
M 1172 3481 
Q 1172 3119 1398 2916 
Q 1625 2713 2034 2713 
Q 2441 2713 2670 2916 
Q 2900 3119 2900 3481 
Q 2900 3844 2670 4047 
Q 2441 4250 2034 4250 
Q 1625 4250 1398 4047 
Q 1172 3844 1172 3481 
z
" transform="scale(0.015625)"/>
       </defs>
       <use xlink:href="#DejaVuSans-30"/>
       <use xlink:href="#DejaVuSans-2e" transform="translate(63.623047 0)"/>
       <use xlink:href="#DejaVuSans-38" transform="translate(95.410156 0)"/>
      </g>
     </g>
    </g>
    <g id="ytick_4">
     <g id="line2d_7">
      <path d="M 79.59 28.473815 
L 412.56 28.473815 
" clip-path="url(#p6dee82a12c)" style="fill: none; stroke: #ffffff; stroke-width: 1.5; stroke-linecap: round"/>
     </g>
     <g id="text_9">
      <!-- 1.0 -->
      <g style="fill: #262626" transform="translate(40.849844 34.742526) scale(0.165 -0.165)">
       <use xlink:href="#DejaVuSans-31"/>
       <use xlink:href="#DejaVuSans-2e" transform="translate(63.623047 0)"/>
       <use xlink:href="#DejaVuSans-30" transform="translate(95.410156 0)"/>
      </g>
     </g>
    </g>
    <g id="text_10">
     <!-- Transmission -->
     <g style="fill: #262626" transform="translate(33.106406 176.961562) rotate(-90) scale(0.18 -0.18)">
      <defs>
       <path id="DejaVuSans-54" d="M -19 4666 
L 3928 4666 
L 3928 4134 
L 2272 4134 
L 2272 0 
L 1638 0 
L 1638 4134 
L -19 4134 
L -19 4666 
z
" transform="scale(0.015625)"/>
       <path id="DejaVuSans-61" d="M 2194 1759 
Q 1497 1759 1228 1600 
Q 959 1441 959 1056 
Q 959 750 1161 570 
Q 1363 391 1709 391 
Q 2188 391 2477 730 
Q 2766 1069 2766 1631 
L 2766 1759 
L 2194 1759 
z
M 3341 1997 
L 3341 0 
L 2766 0 
L 2766 531 
Q 2569 213 2275 61 
Q 1981 -91 1556 -91 
Q 1019 -91 701 211 
Q 384 513 384 1019 
Q 384 1609 779 1909 
Q 1175 2209 1959 2209 
L 2766 2209 
L 2766 2266 
Q 2766 2663 2505 2880 
Q 2244 3097 1772 3097 
Q 1472 3097 1187 3025 
Q 903 2953 641 2809 
L 641 3341 
Q 956 3463 1253 3523 
Q 1550 3584 1831 3584 
Q 2591 3584 2966 3190 
Q 3341 2797 3341 1997 
z
" transform="scale(0.015625)"/>
       <path id="DejaVuSans-73" d="M 2834 3397 
L 2834 2853 
Q 2591 2978 2328 3040 
Q 2066 3103 1784 3103 
Q 1356 3103 1142 2972 
Q 928 2841 928 2578 
Q 928 2378 1081 2264 
Q 1234 2150 1697 2047 
L 1894 2003 
Q 2506 1872 2764 1633 
Q 3022 1394 3022 966 
Q 3022 478 2636 193 
Q 2250 -91 1575 -91 
Q 1294 -91 989 -36 
Q 684 19 347 128 
L 347 722 
Q 666 556 975 473 
Q 1284 391 1588 391 
Q 1994 391 2212 530 
Q 2431 669 2431 922 
Q 2431 1156 2273 1281 
Q 2116 1406 1581 1522 
L 1381 1569 
Q 847 1681 609 1914 
Q 372 2147 372 2553 
Q 372 3047 722 3315 
Q 1072 3584 1716 3584 
Q 2034 3584 2315 3537 
Q 2597 3491 2834 3397 
z
" transform="scale(0.015625)"/>
       <path id="DejaVuSans-6d" d="M 3328 2828 
Q 3544 3216 3844 3400 
Q 4144 3584 4550 3584 
Q 5097 3584 5394 3201 
Q 5691 2819 5691 2113 
L 5691 0 
L 5113 0 
L 5113 2094 
Q 5113 2597 4934 2840 
Q 4756 3084 4391 3084 
Q 3944 3084 3684 2787 
Q 3425 2491 3425 1978 
L 3425 0 
L 2847 0 
L 2847 2094 
Q 2847 2600 2669 2842 
Q 2491 3084 2119 3084 
Q 1678 3084 1418 2786 
Q 1159 2488 1159 1978 
L 1159 0 
L 581 0 
L 581 3500 
L 1159 3500 
L 1159 2956 
Q 1356 3278 1631 3431 
Q 1906 3584 2284 3584 
Q 2666 3584 2933 3390 
Q 3200 3197 3328 2828 
z
" transform="scale(0.015625)"/>
       <path id="DejaVuSans-69" d="M 603 3500 
L 1178 3500 
L 1178 0 
L 603 0 
L 603 3500 
z
M 603 4863 
L 1178 4863 
L 1178 4134 
L 603 4134 
L 603 4863 
z
" transform="scale(0.015625)"/>
       <path id="DejaVuSans-6f" d="M 1959 3097 
Q 1497 3097 1228 2736 
Q 959 2375 959 1747 
Q 959 1119 1226 758 
Q 1494 397 1959 397 
Q 2419 397 2687 759 
Q 2956 1122 2956 1747 
Q 2956 2369 2687 2733 
Q 2419 3097 1959 3097 
z
M 1959 3584 
Q 2709 3584 3137 3096 
Q 3566 2609 3566 1747 
Q 3566 888 3137 398 
Q 2709 -91 1959 -91 
Q 1206 -91 779 398 
Q 353 888 353 1747 
Q 353 2609 779 3096 
Q 1206 3584 1959 3584 
z
" transform="scale(0.015625)"/>
      </defs>
      <use xlink:href="#DejaVuSans-54"/>
      <use xlink:href="#DejaVuSans-72" transform="translate(46.333984 0)"/>
      <use xlink:href="#DejaVuSans-61" transform="translate(87.447266 0)"/>
      <use xlink:href="#DejaVuSans-6e" transform="translate(148.726562 0)"/>
      <use xlink:href="#DejaVuSans-73" transform="translate(212.105469 0)"/>
      <use xlink:href="#DejaVuSans-6d" transform="translate(264.205078 0)"/>
      <use xlink:href="#DejaVuSans-69" transform="translate(361.617188 0)"/>
      <use xlink:href="#DejaVuSans-73" transform="translate(389.400391 0)"/>
      <use xlink:href="#DejaVuSans-73" transform="translate(441.5 0)"/>
      <use xlink:href="#DejaVuSans-69" transform="translate(493.599609 0)"/>
      <use xlink:href="#DejaVuSans-6f" transform="translate(521.382812 0)"/>
      <use xlink:href="#DejaVuSans-6e" transform="translate(582.564453 0)"/>
     </g>
    </g>
   </g>
   <g id="line2d_8">
    <path d="M 0 0 
" clip-path="url(#p6dee82a12c)" style="fill: none; stroke: #8c0800; stroke-width: 2.25; stroke-linecap: round"/>
   </g>
   <g id="line2d_9">
    <path d="M 0 0 
" clip-path="url(#p6dee82a12c)" style="fill: none; stroke: #12711c; stroke-width: 2.25; stroke-linecap: round"/>
   </g>
   <g id="line2d_10">
    <path d="M 0 0 
" clip-path="url(#p6dee82a12c)" style="fill: none; stroke: #001c7f; stroke-width: 2.25; stroke-linecap: round"/>
   </g>
   <g id="line2d_11">
    <path d="M 0 0 
" clip-path="url(#p6dee82a12c)" style="fill: none; stroke: #8c0800; stroke-width: 2.25; stroke-linecap: round"/>
   </g>
   <g id="line2d_12">
    <path d="M 0 0 
" clip-path="url(#p6dee82a12c)" style="fill: none; stroke: #12711c; stroke-width: 2.25; stroke-linecap: round"/>
   </g>
   <g id="line2d_13">
    <path d="M 0 0 
" clip-path="url(#p6dee82a12c)" style="fill: none; stroke: #001c7f; stroke-width: 2.25; stroke-linecap: round"/>
   </g>
   <g id="line2d_14">
    <path d="M 0 0 
" clip-path="url(#p6dee82a12c)" style="fill: none; stroke: #8c0800; stroke-width: 2.25; stroke-linecap: round"/>
   </g>
   <g id="line2d_15">
    <path d="M 0 0 
" clip-path="url(#p6dee82a12c)" style="fill: none; stroke: #12711c; stroke-width: 2.25; stroke-linecap: round"/>
   </g>
   <g id="line2d_16">
    <path d="M 0 0 
" clip-path="url(#p6dee82a12c)" style="fill: none; stroke: #001c7f; stroke-width: 2.25; stroke-linecap: round"/>
   </g>
   <g id="line2d_17">
    <path d="M 0 0 
" clip-path="url(#p6dee82a12c)" style="fill: none; stroke: #8c0800; stroke-width: 2.25; stroke-linecap: round"/>
   </g>
   <g id="line2d_18">
    <path d="M 0 0 
" clip-path="url(#p6dee82a12c)" style="fill: none; stroke: #12711c; stroke-width: 2.25; stroke-linecap: round"/>
   </g>
   <g id="line2d_19">
    <path d="M 0 0 
" clip-path="url(#p6dee82a12c)" style="fill: none; stroke: #001c7f; stroke-width: 2.25; stroke-linecap: round"/>
   </g>
   <g id="line2d_20">
    <path d="M 0 0 
" clip-path="url(#p6dee82a12c)" style="fill: none; stroke: #8c0800; stroke-width: 2.25; stroke-linecap: round"/>
   </g>
   <g id="line2d_21">
    <path d="M 0 0 
" clip-path="url(#p6dee82a12c)" style="fill: none; stroke: #12711c; stroke-width: 2.25; stroke-linecap: round"/>
   </g>
   <g id="line2d_22">
    <path d="M 0 0 
" clip-path="url(#p6dee82a12c)" style="fill: none; stroke: #001c7f; stroke-width: 2.25; stroke-linecap: round"/>
   </g>
   <g id="line2d_23">
    <path d="M -1 28.735021 
L 46.325498 28.997992 
L 71.408897 29.336765 
L 87.315442 29.755093 
L 98.327666 30.251736 
L 106.280938 30.813852 
L 112.39884 31.448541 
L 117.293162 32.161034 
L 121.575693 33.015333 
L 124.634644 33.819201 
L 127.693595 34.853963 
L 130.140756 35.911001 
L 132.587917 37.24905 
L 134.423288 38.499414 
L 136.258658 40.030457 
L 138.094029 41.93022 
L 139.317609 43.460848 
L 140.54119 45.258471 
L 141.76477 47.386101 
L 142.988351 49.925344 
L 144.211931 52.982811 
L 145.435511 56.698842 
L 146.659092 61.259262 
L 147.882672 66.910655 
L 149.106253 73.978708 
L 150.329833 82.88613 
L 151.553413 94.158244 
L 152.776994 108.384273 
L 154.000574 126.06062 
L 155.224155 147.180157 
L 157.671315 192.176865 
L 158.283106 200.68041 
L 158.894896 206.52917 
L 159.506686 209.097289 
L 160.118476 208.090146 
L 160.730266 203.624747 
L 161.342057 196.197245 
L 162.565637 175.520699 
L 165.012798 130.43129 
L 166.236378 111.966388 
L 167.459959 97.01486 
L 168.683539 85.143673 
L 169.90712 75.764274 
L 171.1307 68.331371 
L 172.35428 62.399307 
L 173.577861 57.622423 
L 174.801441 53.738377 
L 176.025022 50.549409 
L 177.248602 47.906295 
L 178.472182 45.695846 
L 179.695763 43.831574 
L 181.531133 41.542611 
L 183.366504 39.719793 
L 185.201875 38.246953 
L 187.037245 37.041332 
L 189.484406 35.748093 
L 191.931567 34.723981 
L 194.990518 33.719104 
L 198.661259 32.80116 
L 202.943791 32.003444 
L 207.838112 31.333752 
L 213.956014 30.733364 
L 221.909287 30.198174 
L 232.30972 29.743127 
L 246.380895 29.366577 
L 267.181762 29.055619 
L 299.606643 28.817731 
L 357.114922 28.646752 
L 433 28.564105 
L 433 28.564105 
" clip-path="url(#p6dee82a12c)" style="fill: none; stroke: #8c0800; stroke-width: 2.25; stroke-linecap: round"/>
   </g>
   <g id="line2d_24">
    <path d="M -1 28.584325 
L 98.327666 28.782517 
L 139.317609 29.064157 
L 161.953847 29.422723 
L 176.636812 29.86304 
L 187.037245 30.389974 
L 194.378728 30.964818 
L 200.49663 31.66582 
L 205.390951 32.462048 
L 209.061693 33.270291 
L 212.120644 34.145106 
L 214.567804 35.027107 
L 217.014965 36.128571 
L 218.850336 37.144274 
L 220.685707 38.372 
L 222.521077 39.873573 
L 224.356448 41.734347 
L 225.580028 43.231793 
L 226.803609 44.988614 
L 228.027189 47.065626 
L 229.250769 49.541493 
L 230.47435 52.51886 
L 231.69793 56.132715 
L 232.921511 60.561681 
L 234.145091 66.042786 
L 235.368671 72.889487 
L 236.592252 81.510083 
L 237.815832 92.416314 
L 239.039413 106.194049 
L 240.262993 123.369783 
L 241.486573 144.045597 
L 243.933734 189.428497 
L 244.545524 198.534835 
L 245.157315 205.20062 
L 245.769105 208.733387 
L 246.380895 208.733387 
L 246.992685 205.20062 
L 247.604476 198.534835 
L 248.828056 178.702662 
L 251.275217 133.297864 
L 252.498797 114.334227 
L 253.722378 98.909203 
L 254.945958 86.641796 
L 256.169538 76.948438 
L 257.393119 69.272331 
L 258.616699 63.153143 
L 259.84028 58.232061 
L 261.06386 54.23624 
L 262.28744 50.959927 
L 263.511021 48.247935 
L 264.734601 45.982661 
L 265.958182 44.07434 
L 267.793552 41.734347 
L 269.628923 39.873573 
L 271.464293 38.372 
L 273.299664 37.144274 
L 275.746825 35.82888 
L 278.193986 34.788476 
L 281.252937 33.768801 
L 284.311888 32.975753 
L 287.982629 32.237338 
L 292.876951 31.503862 
L 298.383062 30.90767 
L 305.724545 30.351276 
L 314.901398 29.887653 
L 327.748992 29.480117 
L 346.102698 29.145959 
L 373.633258 28.887727 
L 420.741103 28.694805 
L 433 28.6668 
L 433 28.6668 
" clip-path="url(#p6dee82a12c)" style="fill: none; stroke: #12711c; stroke-width: 2.25; stroke-linecap: round"/>
   </g>
   <g id="line2d_25">
    <path d="M -1 28.534483 
L 161.342057 28.703922 
L 214.567804 28.957795 
L 242.098364 29.295877 
L 258.616699 29.701721 
L 270.240713 30.198174 
L 278.805776 30.784477 
L 284.923678 31.406563 
L 289.818 32.103287 
L 294.100531 32.936683 
L 297.771272 33.899893 
L 300.830223 34.958977 
L 303.277384 36.042884 
L 305.724545 37.4176 
L 307.559916 38.704673 
L 309.395286 40.283592 
L 311.230657 42.246828 
L 312.454237 43.831574 
L 313.677818 45.695846 
L 314.901398 47.906295 
L 316.124978 50.549409 
L 317.348559 53.738377 
L 318.572139 57.622423 
L 319.79572 62.399307 
L 321.0193 68.331371 
L 322.24288 75.764274 
L 323.466461 85.143673 
L 324.690041 97.01486 
L 325.913622 111.966388 
L 327.137202 130.43129 
L 328.972573 163.863749 
L 330.196153 186.553428 
L 330.807943 196.197245 
L 331.419734 203.624747 
L 332.031524 208.090146 
L 332.643314 209.097289 
L 333.255104 206.52917 
L 333.866894 200.68041 
L 334.478685 192.176865 
L 335.702265 170.426626 
L 337.537636 136.229294 
L 338.761216 116.772484 
L 339.984796 100.865665 
L 341.208377 88.190272 
L 342.431957 78.171954 
L 343.655538 70.243627 
L 344.879118 63.930314 
L 346.102698 58.859719 
L 347.326279 54.748119 
L 348.549859 51.38144 
L 349.77344 48.598283 
L 350.99702 46.276436 
L 352.2206 44.322721 
L 353.444181 42.665509 
L 355.279551 40.617498 
L 357.114922 38.974819 
L 358.950293 37.638987 
L 360.785663 36.539211 
L 363.232824 35.352528 
L 365.679985 34.407127 
L 368.738936 33.474067 
L 372.409677 32.616497 
L 376.692209 31.866696 
L 381.58653 31.233544 
L 387.704432 30.662671 
L 395.657705 30.150836 
L 406.058138 29.713106 
L 420.741103 29.336765 
L 433 29.139796 
L 433 29.139796 
" clip-path="url(#p6dee82a12c)" style="fill: none; stroke: #001c7f; stroke-width: 2.25; stroke-linecap: round"/>
   </g>
   <g id="line2d_26">
    <path d="M 0 0 
" clip-path="url(#p6dee82a12c)" style="fill: none; stroke: #8c0800; stroke-width: 2.25; stroke-linecap: round"/>
   </g>
   <g id="line2d_27">
    <path d="M 0 0 
" clip-path="url(#p6dee82a12c)" style="fill: none; stroke: #12711c; stroke-width: 2.25; stroke-linecap: round"/>
   </g>
   <g id="line2d_28">
    <path d="M 0 0 
" clip-path="url(#p6dee82a12c)" style="fill: none; stroke: #001c7f; stroke-width: 2.25; stroke-linecap: round"/>
   </g>
   <g id="line2d_29">
    <path d="M 0 0 
" clip-path="url(#p6dee82a12c)" style="fill: none; stroke: #8c0800; stroke-width: 2.25; stroke-linecap: round"/>
   </g>
   <g id="line2d_30">
    <path d="M 0 0 
" clip-path="url(#p6dee82a12c)" style="fill: none; stroke: #12711c; stroke-width: 2.25; stroke-linecap: round"/>
   </g>
   <g id="line2d_31">
    <path d="M 0 0 
" clip-path="url(#p6dee82a12c)" style="fill: none; stroke: #001c7f; stroke-width: 2.25; stroke-linecap: round"/>
   </g>
   <g id="line2d_32">
    <path d="M 0 0 
" clip-path="url(#p6dee82a12c)" style="fill: none; stroke: #8c0800; stroke-width: 2.25; stroke-linecap: round"/>
   </g>
   <g id="line2d_33">
    <path d="M 0 0 
" clip-path="url(#p6dee82a12c)" style="fill: none; stroke: #12711c; stroke-width: 2.25; stroke-linecap: round"/>
   </g>
   <g id="line2d_34">
    <path d="M 0 0 
" clip-path="url(#p6dee82a12c)" style="fill: none; stroke: #001c7f; stroke-width: 2.25; stroke-linecap: round"/>
   </g>
   <g id="line2d_35">
    <path d="M 0 0 
" clip-path="url(#p6dee82a12c)" style="fill: none; stroke: #8c0800; stroke-width: 2.25; stroke-linecap: round"/>
   </g>
   <g id="line2d_36">
    <path d="M 0 0 
" clip-path="url(#p6dee82a12c)" style="fill: none; stroke: #12711c; stroke-width: 2.25; stroke-linecap: round"/>
   </g>
   <g id="line2d_37">
    <path d="M 0 0 
" clip-path="url(#p6dee82a12c)" style="fill: none; stroke: #001c7f; stroke-width: 2.25; stroke-linecap: round"/>
   </g>
   <g id="patch_3">
    <path d="M 79.59 218.22 
L 79.59 19.44 
" style="fill: none; stroke: #ffffff; stroke-width: 1.875; stroke-linejoin: miter; stroke-linecap: square"/>
   </g>
   <g id="patch_4">
    <path d="M 412.56 218.22 
L 412.56 19.44 
" style="fill: none; stroke: #ffffff; stroke-width: 1.875; stroke-linejoin: miter; stroke-linecap: square"/>
   </g>
   <g id="patch_5">
    <path d="M 79.59 218.22 
L 412.56 218.22 
" style="fill: none; stroke: #ffffff; stroke-width: 1.875; stroke-linejoin: miter; stroke-linecap: square"/>
   </g>
   <g id="patch_6">
    <path d="M 79.59 19.44 
L 412.56 19.44 
" style="fill: none; stroke: #ffffff; stroke-width: 1.875; stroke-linejoin: miter; stroke-linecap: square"/>
   </g>
  </g>
 </g>
 <defs>
  <clipPath id="p6dee82a12c">
   <rect x="79.59" y="19.44" width="332.97" height="198.78"/>
  </clipPath>
 </defs>
</svg>
