<?xml version="1.0" encoding="utf-8" standalone="no"?>
<!DOCTYPE svg PUBLIC "-//W3C//DTD SVG 1.1//EN"
  "http://www.w3.org/Graphics/SVG/1.1/DTD/svg11.dtd">
<svg xmlns:xlink="http://www.w3.org/1999/xlink" width="432pt" height="432pt" viewBox="0 0 432 432" xmlns="http://www.w3.org/2000/svg" version="1.1">
 <metadata>
  <rdf:RDF xmlns:dc="http://purl.org/dc/elements/1.1/" xmlns:cc="http://creativecommons.org/ns#" xmlns:rdf="http://www.w3.org/1999/02/22-rdf-syntax-ns#">
   <cc:Work>
    <dc:type rdf:resource="http://purl.org/dc/dcmitype/StillImage"/>
    <dc:date>2026-05-05T22:54:39.339526</dc:date>
    <dc:format>image/svg+xml</dc:format>
    <dc:creator>
     <cc:Agent>
      <dc:title>Matplotlib v3.10.1+dfsg1, https://matplotlib.org/</dc:title>
     </cc:Agent>
    </dc:creator>
   </cc:Work>
  </rdf:RDF>
 </metadata>
 <defs>
  <style type="text/css">*{stroke-linejoin: round; stroke-linecap: butt}</style>
 </defs>
 <g id="figure_1">
  <g id="patch_1">
   <path d="M 0 432 
L 432 432 
L 432 0 
L 0 0 
z
" style="fill: #ffffff"/>
  </g>
  <g id="axes_1">
   <g id="patch_2">
    <path d="M 54 384.48 
L 388.8 384.48 
L 388.8 51.84 
L 54 51.84 
z
" style="fill: #ffffff"/>
   </g>
   <g id="matplotlib.axis_1">
    <g id="xtick_1">
     <g id="line2d_1">
      <defs>
       <path id="m8cdf66c7c2" d="M 0 0 
L 0 -3.5 
" style="stroke: #000000; stroke-width: 0.8"/>
      </defs>
      <g>
       <use xlink:href="#m8cdf66c7c2" x="69.218182" y="384.48" style="stroke: #000000; stroke-width: 0.8"/>
      </g>
     </g>
     <g id="text_1">
      <!-- $\mathdefault{−20}$ -->
      <g transform="translate(50.980398 402.92396) scale(0.216 -0.216)">
       <defs>
        <path id="CMSY10-0" d="M 4218 1472 
C 4326 1472 4442 1472 4442 1600 
C 4442 1728 4326 1728 4218 1728 
L 755 1728 
C 646 1728 531 1728 531 1600 
C 531 1472 646 1472 755 1472 
L 4218 1472 
z
" transform="scale(0.015625)"/>
        <path id="CMR17-32" d="M 2669 990 
L 2554 990 
C 2490 537 2438 460 2413 422 
C 2381 371 1920 371 1830 371 
L 602 371 
C 832 620 1280 1073 1824 1596 
C 2214 1966 2669 2400 2669 3033 
C 2669 3788 2067 4224 1395 4224 
C 691 4224 262 3603 262 3027 
C 262 2777 448 2745 525 2745 
C 589 2745 781 2783 781 3007 
C 781 3206 614 3264 525 3264 
C 486 3264 448 3257 422 3244 
C 544 3788 915 4057 1306 4057 
C 1862 4057 2227 3616 2227 3033 
C 2227 2477 1901 1998 1536 1583 
L 262 147 
L 262 0 
L 2515 0 
L 2669 990 
z
" transform="scale(0.015625)"/>
        <path id="CMR17-30" d="M 2688 2038 
C 2688 2430 2682 3099 2413 3613 
C 2176 4063 1798 4224 1466 4224 
C 1158 4224 768 4082 525 3620 
C 269 3137 243 2539 243 2038 
C 243 1671 250 1112 448 623 
C 723 -39 1216 -128 1466 -128 
C 1760 -128 2208 -7 2470 604 
C 2662 1048 2688 1568 2688 2038 
z
M 1466 -26 
C 1056 -26 813 328 723 816 
C 653 1196 653 1749 653 2109 
C 653 2604 653 3015 736 3407 
C 858 3954 1216 4121 1466 4121 
C 1728 4121 2067 3947 2189 3420 
C 2272 3054 2278 2623 2278 2109 
C 2278 1691 2278 1176 2202 797 
C 2067 96 1690 -26 1466 -26 
z
" transform="scale(0.015625)"/>
       </defs>
       <use xlink:href="#CMSY10-0" transform="scale(0.996264)"/>
       <use xlink:href="#CMR17-32" transform="translate(77.487468 0) scale(0.996264)"/>
       <use xlink:href="#CMR17-30" transform="translate(123.177945 0) scale(0.996264)"/>
      </g>
     </g>
    </g>
    <g id="xtick_2">
     <g id="line2d_2">
      <g>
       <use xlink:href="#m8cdf66c7c2" x="145.309091" y="384.48" style="stroke: #000000; stroke-width: 0.8"/>
      </g>
     </g>
     <g id="text_2">
      <!-- $\mathdefault{−10}$ -->
      <g transform="translate(127.071307 402.92396) scale(0.216 -0.216)">
       <defs>
        <path id="CMR17-31" d="M 1702 4083 
C 1702 4217 1696 4224 1606 4224 
C 1357 3927 979 3833 621 3820 
C 602 3820 570 3820 563 3808 
C 557 3795 557 3782 557 3648 
C 755 3648 1088 3686 1344 3839 
L 1344 467 
C 1344 243 1331 166 781 166 
L 589 166 
L 589 0 
C 896 6 1216 12 1523 12 
C 1830 12 2150 6 2458 0 
L 2458 166 
L 2266 166 
C 1715 166 1702 236 1702 467 
L 1702 4083 
z
" transform="scale(0.015625)"/>
       </defs>
       <use xlink:href="#CMSY10-0" transform="scale(0.996264)"/>
       <use xlink:href="#CMR17-31" transform="translate(77.487468 0) scale(0.996264)"/>
       <use xlink:href="#CMR17-30" transform="translate(123.177945 0) scale(0.996264)"/>
      </g>
     </g>
    </g>
    <g id="xtick_3">
     <g id="line2d_3">
      <g>
       <use xlink:href="#m8cdf66c7c2" x="221.4" y="384.48" style="stroke: #000000; stroke-width: 0.8"/>
      </g>
     </g>
     <g id="text_3">
      <!-- $\mathdefault{0}$ -->
      <g transform="translate(216.465433 402.92396) scale(0.216 -0.216)">
       <use xlink:href="#CMR17-30" transform="scale(0.996264)"/>
      </g>
     </g>
    </g>
    <g id="xtick_4">
     <g id="line2d_4">
      <g>
       <use xlink:href="#m8cdf66c7c2" x="297.490909" y="384.48" style="stroke: #000000; stroke-width: 0.8"/>
      </g>
     </g>
     <g id="text_4">
      <!-- $\mathdefault{10}$ -->
      <g transform="translate(287.621775 402.92396) scale(0.216 -0.216)">
       <use xlink:href="#CMR17-31" transform="scale(0.996264)"/>
       <use xlink:href="#CMR17-30" transform="translate(45.690477 0) scale(0.996264)"/>
      </g>
     </g>
    </g>
    <g id="xtick_5">
     <g id="line2d_5">
      <g>
       <use xlink:href="#m8cdf66c7c2" x="373.581818" y="384.48" style="stroke: #000000; stroke-width: 0.8"/>
      </g>
     </g>
     <g id="text_5">
      <!-- $\mathdefault{20}$ -->
      <g transform="translate(363.712684 402.92396) scale(0.216 -0.216)">
       <use xlink:href="#CMR17-32" transform="scale(0.996264)"/>
       <use xlink:href="#CMR17-30" transform="translate(45.690477 0) scale(0.996264)"/>
      </g>
     </g>
    </g>
    <g id="text_6">
     <!-- $\mu$ -->
     <g transform="translate(213.793598 429.042401) scale(0.2592 -0.2592)">
      <defs>
       <path id="CMMI12-16" d="M 922 140 
C 1082 -7 1318 -64 1536 -64 
C 1946 -64 2227 210 2374 408 
C 2438 70 2707 -64 2931 -64 
C 3123 -64 3277 51 3392 281 
C 3494 498 3584 887 3584 913 
C 3584 944 3558 970 3520 970 
C 3462 970 3456 938 3430 842 
C 3334 466 3213 64 2950 64 
C 2765 64 2752 229 2752 357 
C 2752 504 2810 734 2854 925 
L 3034 1615 
C 3059 1736 3130 2023 3162 2138 
C 3200 2291 3270 2566 3270 2591 
C 3270 2687 3194 2752 3098 2752 
C 3040 2752 2906 2726 2854 2534 
L 2406 759 
C 2374 632 2374 619 2291 517 
C 2214 408 1965 64 1562 64 
C 1203 64 1088 325 1088 625 
C 1088 811 1146 1034 1171 1143 
L 1459 2292 
C 1491 2413 1542 2617 1542 2656 
C 1542 2758 1459 2816 1376 2816 
C 1318 2816 1178 2796 1126 2592 
L 198 -1085 
C 192 -1116 179 -1154 179 -1191 
C 179 -1287 256 -1351 352 -1351 
C 538 -1351 576 -1204 621 -1029 
L 922 140 
z
" transform="scale(0.015625)"/>
      </defs>
      <use xlink:href="#CMMI12-16" transform="scale(0.996264)"/>
     </g>
    </g>
   </g>
   <g id="matplotlib.axis_2">
    <g id="ytick_1">
     <g id="line2d_6">
      <defs>
       <path id="m7b91414cee" d="M 0 0 
L 3.5 0 
" style="stroke: #000000; stroke-width: 0.8"/>
      </defs>
      <g>
       <use xlink:href="#m7b91414cee" x="54" y="384.48" style="stroke: #000000; stroke-width: 0.8"/>
      </g>
     </g>
     <g id="text_7">
      <!-- $\mathdefault{0.0}$ -->
      <g transform="translate(24.908742 391.95198) scale(0.216 -0.216)">
       <defs>
        <path id="CMMI12-3a" d="M 1178 307 
C 1178 492 1024 620 870 620 
C 685 620 557 467 557 313 
C 557 128 710 0 864 0 
C 1050 0 1178 153 1178 307 
z
" transform="scale(0.015625)"/>
       </defs>
       <use xlink:href="#CMR17-30" transform="scale(0.996264)"/>
       <use xlink:href="#CMMI12-3a" transform="translate(45.690477 0) scale(0.996264)"/>
       <use xlink:href="#CMR17-30" transform="translate(72.787654 0) scale(0.996264)"/>
      </g>
     </g>
    </g>
    <g id="ytick_2">
     <g id="line2d_7">
      <g>
       <use xlink:href="#m7b91414cee" x="54" y="317.952" style="stroke: #000000; stroke-width: 0.8"/>
      </g>
     </g>
     <g id="text_8">
      <!-- $\mathdefault{0.2}$ -->
      <g transform="translate(24.908742 325.42398) scale(0.216 -0.216)">
       <use xlink:href="#CMR17-30" transform="scale(0.996264)"/>
       <use xlink:href="#CMMI12-3a" transform="translate(45.690477 0) scale(0.996264)"/>
       <use xlink:href="#CMR17-32" transform="translate(72.787654 0) scale(0.996264)"/>
      </g>
     </g>
    </g>
    <g id="ytick_3">
     <g id="line2d_8">
      <g>
       <use xlink:href="#m7b91414cee" x="54" y="251.424" style="stroke: #000000; stroke-width: 0.8"/>
      </g>
     </g>
     <g id="text_9">
      <!-- $\mathdefault{0.4}$ -->
      <g transform="translate(24.908742 258.89598) scale(0.216 -0.216)">
       <defs>
        <path id="CMR17-34" d="M 2150 4147 
C 2150 4281 2144 4288 2029 4288 
L 128 1254 
L 128 1088 
L 1779 1088 
L 1779 460 
C 1779 230 1766 166 1318 166 
L 1197 166 
L 1197 0 
C 1402 12 1747 12 1965 12 
C 2182 12 2528 12 2733 0 
L 2733 166 
L 2611 166 
C 2163 166 2150 230 2150 460 
L 2150 1088 
L 2803 1088 
L 2803 1254 
L 2150 1254 
L 2150 4147 
z
M 1798 3723 
L 1798 1254 
L 256 1254 
L 1798 3723 
z
" transform="scale(0.015625)"/>
       </defs>
       <use xlink:href="#CMR17-30" transform="scale(0.996264)"/>
       <use xlink:href="#CMMI12-3a" transform="translate(45.690477 0) scale(0.996264)"/>
       <use xlink:href="#CMR17-34" transform="translate(72.787654 0) scale(0.996264)"/>
      </g>
     </g>
    </g>
    <g id="ytick_4">
     <g id="line2d_9">
      <g>
       <use xlink:href="#m7b91414cee" x="54" y="184.896" style="stroke: #000000; stroke-width: 0.8"/>
      </g>
     </g>
     <g id="text_10">
      <!-- $\mathdefault{0.6}$ -->
      <g transform="translate(24.908742 192.36798) scale(0.216 -0.216)">
       <defs>
        <path id="CMR17-36" d="M 678 2198 
C 678 3712 1395 4076 1811 4076 
C 1946 4076 2272 4049 2400 3782 
C 2298 3782 2106 3782 2106 3558 
C 2106 3385 2246 3328 2336 3328 
C 2394 3328 2566 3353 2566 3571 
C 2566 3987 2246 4224 1805 4224 
C 1043 4224 243 3411 243 2011 
C 243 257 966 -128 1478 -128 
C 2099 -128 2688 431 2688 1295 
C 2688 2101 2170 2688 1517 2688 
C 1126 2688 838 2430 678 1979 
L 678 2198 
z
M 1478 25 
C 691 25 691 1212 691 1450 
C 691 1914 909 2585 1504 2585 
C 1613 2585 1926 2585 2138 2140 
C 2253 1889 2253 1624 2253 1302 
C 2253 954 2253 696 2118 438 
C 1978 173 1773 25 1478 25 
z
" transform="scale(0.015625)"/>
       </defs>
       <use xlink:href="#CMR17-30" transform="scale(0.996264)"/>
       <use xlink:href="#CMMI12-3a" transform="translate(45.690477 0) scale(0.996264)"/>
       <use xlink:href="#CMR17-36" transform="translate(72.787654 0) scale(0.996264)"/>
      </g>
     </g>
    </g>
    <g id="ytick_5">
     <g id="line2d_10">
      <g>
       <use xlink:href="#m7b91414cee" x="54" y="118.368" style="stroke: #000000; stroke-width: 0.8"/>
      </g>
     </g>
     <g id="text_11">
      <!-- $\mathdefault{0.8}$ -->
      <g transform="translate(24.908742 125.83998) scale(0.216 -0.216)">
       <defs>
        <path id="CMR17-38" d="M 1741 2289 
C 2144 2494 2554 2803 2554 3298 
C 2554 3884 1990 4224 1472 4224 
C 890 4224 378 3800 378 3215 
C 378 3054 416 2777 666 2533 
C 730 2469 998 2276 1171 2154 
C 883 2006 211 1652 211 945 
C 211 282 838 -128 1459 -128 
C 2144 -128 2720 366 2720 1022 
C 2720 1607 2330 1877 2074 2051 
L 1741 2289 
z
M 902 2855 
C 851 2887 595 3086 595 3388 
C 595 3781 998 4076 1459 4076 
C 1965 4076 2336 3716 2336 3298 
C 2336 2700 1670 2359 1638 2359 
C 1632 2359 1626 2359 1574 2398 
L 902 2855 
z
M 2080 1536 
C 2176 1466 2483 1253 2483 861 
C 2483 385 2010 25 1472 25 
C 890 25 448 443 448 951 
C 448 1459 838 1884 1280 2083 
L 2080 1536 
z
" transform="scale(0.015625)"/>
       </defs>
       <use xlink:href="#CMR17-30" transform="scale(0.996264)"/>
       <use xlink:href="#CMMI12-3a" transform="translate(45.690477 0) scale(0.996264)"/>
       <use xlink:href="#CMR17-38" transform="translate(72.787654 0) scale(0.996264)"/>
      </g>
     </g>
    </g>
    <g id="ytick_6">
     <g id="line2d_11">
      <g>
       <use xlink:href="#m7b91414cee" x="54" y="51.84" style="stroke: #000000; stroke-width: 0.8"/>
      </g>
     </g>
     <g id="text_12">
      <!-- $\mathdefault{1.0}$ -->
      <g transform="translate(24.908742 59.31198) scale(0.216 -0.216)">
       <use xlink:href="#CMR17-31" transform="scale(0.996264)"/>
       <use xlink:href="#CMMI12-3a" transform="translate(45.690477 0) scale(0.996264)"/>
       <use xlink:href="#CMR17-30" transform="translate(72.787654 0) scale(0.996264)"/>
      </g>
     </g>
    </g>
    <g id="text_13">
     <!-- $f_0^{-1, 0, 1}$ -->
     <g transform="translate(14.019705 250.1513) rotate(-90) scale(0.2592 -0.2592)">
      <defs>
       <path id="CMMI12-66" d="M 2854 2566 
C 2982 2566 3034 2566 3034 2687 
C 3034 2752 2982 2752 2867 2752 
L 2349 2752 
C 2470 3398 2560 3846 2611 4051 
C 2650 4204 2784 4351 2950 4351 
C 3085 4351 3219 4294 3283 4236 
C 3034 4211 2957 4025 2957 3916 
C 2957 3788 3053 3712 3174 3712 
C 3302 3712 3494 3820 3494 4064 
C 3494 4332 3226 4480 2944 4480 
C 2669 4480 2400 4275 2272 4025 
C 2157 3801 2093 3573 1946 2752 
L 1517 2752 
C 1395 2752 1331 2752 1331 2636 
C 1331 2566 1370 2566 1498 2566 
L 1907 2566 
C 1792 1977 1530 545 1382 -132 
C 1274 -685 1178 -1152 858 -1152 
C 838 -1152 653 -1152 538 -1031 
C 864 -1005 864 -724 864 -717 
C 864 -589 768 -512 646 -512 
C 518 -512 326 -621 326 -865 
C 326 -1140 608 -1280 858 -1280 
C 1510 -1280 1779 -113 1850 203 
C 1965 691 2278 2376 2310 2566 
L 2854 2566 
z
" transform="scale(0.015625)"/>
       <path id="CMMI12-3b" d="M 1248 -26 
C 1248 345 1126 620 864 620 
C 659 620 557 454 557 313 
C 557 172 653 0 870 0 
C 954 0 1024 25 1082 83 
C 1094 96 1101 96 1107 96 
C 1120 96 1120 6 1120 -26 
C 1120 -233 1082 -642 710 -1051 
C 640 -1127 640 -1140 640 -1152 
C 640 -1184 672 -1216 704 -1216 
C 755 -1216 1248 -749 1248 -26 
z
" transform="scale(0.015625)"/>
      </defs>
      <use xlink:href="#CMMI12-66" transform="scale(0.996264)"/>
      <use xlink:href="#CMSY10-0" transform="translate(58.720305 47.87587) scale(0.697382)"/>
      <use xlink:href="#CMR17-31" transform="translate(112.961298 47.87587) scale(0.697382)"/>
      <use xlink:href="#CMMI12-3b" transform="translate(144.94448 47.87587) scale(0.697382)"/>
      <use xlink:href="#CMR17-30" transform="translate(163.912413 47.87587) scale(0.697382)"/>
      <use xlink:href="#CMMI12-3b" transform="translate(195.895595 47.87587) scale(0.697382)"/>
      <use xlink:href="#CMR17-31" transform="translate(214.863528 47.87587) scale(0.697382)"/>
      <use xlink:href="#CMR17-30" transform="translate(48.083238 -26.578082) scale(0.697382)"/>
     </g>
    </g>
   </g>
   <g id="line2d_12">
    <path d="M 69.218182 218.159997 
L 298.251818 218.159977 
L 373.581818 218.159918 
L 373.581818 218.159918 
" clip-path="url(#pe99825d18a)" style="fill: none; stroke: #1f77b4; stroke-width: 1.5; stroke-linecap: square"/>
   </g>
   <g id="line2d_13">
    <path d="M 69.218182 375.877803 
L 85.958182 374.904499 
L 100.415455 373.8469 
L 112.59 372.738616 
L 123.242727 371.544227 
L 132.373636 370.294413 
L 139.982727 369.040654 
L 146.830909 367.696014 
L 152.918182 366.278238 
L 158.244545 364.817378 
L 162.81 363.358172 
L 167.375455 361.658377 
L 171.18 360.01255 
L 174.984545 358.10596 
L 178.028182 356.349152 
L 181.071818 354.338989 
L 184.115455 352.017607 
L 186.398182 350.027233 
L 188.680909 347.777786 
L 190.963636 345.216813 
L 193.246364 342.277268 
L 195.529091 338.872366 
L 197.811818 334.888286 
L 199.333636 331.837734 
L 200.855455 328.406719 
L 202.377273 324.525673 
L 203.899091 320.109351 
L 205.420909 315.053436 
L 206.942727 309.231237 
L 208.464545 302.491798 
L 209.986364 294.662703 
L 211.508182 285.564996 
L 213.03 275.055919 
L 214.551818 263.12915 
L 218.356364 230.991532 
L 219.117273 225.75973 
L 219.878182 221.6724 
L 220.639091 219.060052 
L 221.4 218.16 
L 222.160909 219.061413 
L 222.921818 221.682774 
L 223.682727 225.792163 
L 224.443636 231.06103 
L 225.965455 243.658 
L 229.009091 269.717124 
L 230.530909 281.071265 
L 232.052727 290.964736 
L 233.574545 299.490664 
L 235.096364 306.820622 
L 236.618182 313.136345 
L 238.14 318.603013 
L 239.661818 323.361556 
L 241.183636 327.528815 
L 242.705455 331.200466 
L 244.227273 334.454541 
L 246.51 338.688801 
L 248.792727 342.292812 
L 251.075455 345.392924 
L 253.358182 348.08498 
L 255.640909 350.442654 
L 257.923636 352.523312 
L 260.967273 354.943405 
L 264.010909 357.033247 
L 267.054545 358.855245 
L 270.859091 360.827857 
L 274.663636 362.526698 
L 278.468182 364.004586 
L 283.033636 365.542256 
L 288.36 367.07587 
L 294.447273 368.558723 
L 300.534545 369.816204 
L 308.143636 371.142292 
L 316.513636 372.357807 
L 325.644545 373.462506 
L 336.297273 374.530324 
L 349.232727 375.588315 
L 363.69 376.543364 
L 373.581818 377.092244 
L 373.581818 377.092244 
" clip-path="url(#pe99825d18a)" style="fill: none; stroke: #ff7f0e; stroke-width: 1.5; stroke-linecap: square"/>
   </g>
   <g id="patch_3">
    <path d="M 54 384.48 
L 54 51.84 
" style="fill: none; stroke: #000000; stroke-width: 0.8; stroke-linejoin: miter; stroke-linecap: square"/>
   </g>
   <g id="patch_4">
    <path d="M 388.8 384.48 
L 388.8 51.84 
" style="fill: none; stroke: #000000; stroke-width: 0.8; stroke-linejoin: miter; stroke-linecap: square"/>
   </g>
   <g id="patch_5">
    <path d="M 54 384.48 
L 388.8 384.48 
" style="fill: none; stroke: #000000; stroke-width: 0.8; stroke-linejoin: miter; stroke-linecap: square"/>
   </g>
   <g id="patch_6">
    <path d="M 54 51.84 
L 388.8 51.84 
" style="fill: none; stroke: #000000; stroke-width: 0.8; stroke-linejoin: miter; stroke-linecap: square"/>
   </g>
  </g>
 </g>
 <defs>
  <clipPath id="pe99825d18a">
   <rect x="54" y="51.84" width="334.8" height="332.64"/>
  </clipPath>
 </defs>
</svg>
