<?xml version="1.0" encoding="UTF-8" standalone="no"?>
<svg
   width="648pt"
   height="288pt"
   viewBox="0 0 648 288"
   version="1.1"
   id="svg84"
   sodipodi:docname="DOPO overlap and gain_edit.svg"
   inkscape:version="1.4 (e7c3feb100, 2024-10-09)"
   xmlns:inkscape="http://www.inkscape.org/namespaces/inkscape"
   xmlns:sodipodi="http://sodipodi.sourceforge.net/DTD/sodipodi-0.dtd"
   xmlns:xlink="http://www.w3.org/1999/xlink"
   xmlns="http://www.w3.org/2000/svg"
   xmlns:svg="http://www.w3.org/2000/svg"
   xmlns:rdf="http://www.w3.org/1999/02/22-rdf-syntax-ns#"
   xmlns:cc="http://creativecommons.org/ns#"
   xmlns:dc="http://purl.org/dc/elements/1.1/">
  <sodipodi:namedview
     id="namedview84"
     pagecolor="#ffffff"
     bordercolor="#000000"
     borderopacity="0.25"
     inkscape:showpageshadow="2"
     inkscape:pageopacity="0.0"
     inkscape:pagecheckerboard="0"
     inkscape:deskcolor="#d1d1d1"
     inkscape:document-units="pt"
     inkscape:zoom="0.95543982"
     inkscape:cx="458.42762"
     inkscape:cy="96.290733"
     inkscape:window-width="2544"
     inkscape:window-height="995"
     inkscape:window-x="26"
     inkscape:window-y="23"
     inkscape:window-maximized="0"
     inkscape:current-layer="axes_2" />
  <metadata
     id="metadata1">
    <rdf:RDF>
      <cc:Work>
        <dc:type
           rdf:resource="http://purl.org/dc/dcmitype/StillImage" />
        <dc:date>2026-05-05T23:53:19.093403</dc:date>
        <dc:format>image/svg+xml</dc:format>
        <dc:creator>
          <cc:Agent>
            <dc:title>Matplotlib v3.10.1+dfsg1, https://matplotlib.org/</dc:title>
          </cc:Agent>
        </dc:creator>
      </cc:Work>
    </rdf:RDF>
  </metadata>
  <defs
     id="defs1">
    <style
       type="text/css"
       id="style1">*{stroke-linejoin: round; stroke-linecap: butt}</style>
  </defs>
  <g
     id="figure_1">
    <g
       id="axes_1">
      <g
         id="matplotlib.axis_1">
        <g
           id="xtick_1">
          <g
             id="line2d_1">
            <path
               d="M 78.604011 235.414538  L 78.604011 3.00024  "
               clip-path="url(#p3cd7e04595)"
               style="fill: none; stroke: #b0b0b0; stroke-opacity: 0.2; stroke-width: 0.8; stroke-linecap: square"
               id="path3" />
          </g>
          <g
             id="line2d_2">
            <defs
               id="defs3">
              <path
                 id="mb4205265f8"
                 d="M 0 0  L 0 -3.5  "
                 style="stroke: #000000; stroke-width: 0.8" />
            </defs>
            <g
               id="g3">
              <use
                 xlink:href="#mb4205265f8"
                 x="78.604011"
                 y="235.414538"
                 style="stroke: #000000; stroke-width: 0.8"
                 id="use3" />
            </g>
          </g>
          <g
             id="text_1">
            <!-- $\mathdefault{−20}$ -->
            <g
               transform="translate(60.366228 253.858498) scale(0.216 -0.216)"
               id="g6">
              <defs
                 id="defs4">
                <path
                   id="CMSY10-0"
                   d="M 4218 1472  C 4326 1472 4442 1472 4442 1600  C 4442 1728 4326 1728 4218 1728  L 755 1728  C 646 1728 531 1728 531 1600  C 531 1472 646 1472 755 1472  L 4218 1472  z "
                   transform="scale(0.015625)" />
                <path
                   id="CMR17-32"
                   d="M 2669 990  L 2554 990  C 2490 537 2438 460 2413 422  C 2381 371 1920 371 1830 371  L 602 371  C 832 620 1280 1073 1824 1596  C 2214 1966 2669 2400 2669 3033  C 2669 3788 2067 4224 1395 4224  C 691 4224 262 3603 262 3027  C 262 2777 448 2745 525 2745  C 589 2745 781 2783 781 3007  C 781 3206 614 3264 525 3264  C 486 3264 448 3257 422 3244  C 544 3788 915 4057 1306 4057  C 1862 4057 2227 3616 2227 3033  C 2227 2477 1901 1998 1536 1583  L 262 147  L 262 0  L 2515 0  L 2669 990  z "
                   transform="scale(0.015625)" />
                <path
                   id="CMR17-30"
                   d="M 2688 2038  C 2688 2430 2682 3099 2413 3613  C 2176 4063 1798 4224 1466 4224  C 1158 4224 768 4082 525 3620  C 269 3137 243 2539 243 2038  C 243 1671 250 1112 448 623  C 723 -39 1216 -128 1466 -128  C 1760 -128 2208 -7 2470 604  C 2662 1048 2688 1568 2688 2038  z M 1466 -26  C 1056 -26 813 328 723 816  C 653 1196 653 1749 653 2109  C 653 2604 653 3015 736 3407  C 858 3954 1216 4121 1466 4121  C 1728 4121 2067 3947 2189 3420  C 2272 3054 2278 2623 2278 2109  C 2278 1691 2278 1176 2202 797  C 2067 96 1690 -26 1466 -26  z "
                   transform="scale(0.015625)" />
              </defs>
              <use
                 xlink:href="#CMSY10-0"
                 transform="scale(0.996264)"
                 id="use4" />
              <use
                 xlink:href="#CMR17-32"
                 transform="translate(77.487468 0) scale(0.996264)"
                 id="use5" />
              <use
                 xlink:href="#CMR17-30"
                 transform="translate(123.177945 0) scale(0.996264)"
                 id="use6" />
            </g>
          </g>
        </g>
        <g
           id="xtick_2">
          <g
             id="line2d_3">
            <path
               d="M 194.224197 235.414538  L 194.224197 3.00024  "
               clip-path="url(#p3cd7e04595)"
               style="fill: none; stroke: #b0b0b0; stroke-opacity: 0.2; stroke-width: 0.8; stroke-linecap: square"
               id="path6" />
          </g>
          <g
             id="line2d_4">
            <g
               id="g7">
              <use
                 xlink:href="#mb4205265f8"
                 x="194.224197"
                 y="235.414538"
                 style="stroke: #000000; stroke-width: 0.8"
                 id="use7" />
            </g>
          </g>
          <g
             id="text_2">
            <!-- $\mathdefault{0}$ -->
            <g
               transform="translate(189.28963 253.858498) scale(0.216 -0.216)"
               id="g8">
              <use
                 xlink:href="#CMR17-30"
                 transform="scale(0.996264)"
                 id="use8" />
            </g>
          </g>
        </g>
        <g
           id="xtick_3">
          <g
             id="line2d_5">
            <path
               d="M 309.844382 235.414538  L 309.844382 3.00024  "
               clip-path="url(#p3cd7e04595)"
               style="fill: none; stroke: #b0b0b0; stroke-opacity: 0.2; stroke-width: 0.8; stroke-linecap: square"
               id="path8" />
          </g>
          <g
             id="line2d_6">
            <g
               id="g9">
              <use
                 xlink:href="#mb4205265f8"
                 x="309.844382"
                 y="235.414538"
                 style="stroke: #000000; stroke-width: 0.8"
                 id="use9" />
            </g>
          </g>
          <g
             id="text_3">
            <!-- $\mathdefault{20}$ -->
            <g
               transform="translate(299.975248 253.858498) scale(0.216 -0.216)"
               id="g11">
              <use
                 xlink:href="#CMR17-32"
                 transform="scale(0.996264)"
                 id="use10" />
              <use
                 xlink:href="#CMR17-30"
                 transform="translate(45.690477 0) scale(0.996264)"
                 id="use11" />
            </g>
          </g>
        </g>
        <g
           id="text_4">
          <!-- $\mu$ -->
          <g
             transform="translate(186.617795 279.976939) scale(0.2592 -0.2592)"
             id="g12">
            <defs
               id="defs11">
              <path
                 id="CMMI12-16"
                 d="M 922 140  C 1082 -7 1318 -64 1536 -64  C 1946 -64 2227 210 2374 408  C 2438 70 2707 -64 2931 -64  C 3123 -64 3277 51 3392 281  C 3494 498 3584 887 3584 913  C 3584 944 3558 970 3520 970  C 3462 970 3456 938 3430 842  C 3334 466 3213 64 2950 64  C 2765 64 2752 229 2752 357  C 2752 504 2810 734 2854 925  L 3034 1615  C 3059 1736 3130 2023 3162 2138  C 3200 2291 3270 2566 3270 2591  C 3270 2687 3194 2752 3098 2752  C 3040 2752 2906 2726 2854 2534  L 2406 759  C 2374 632 2374 619 2291 517  C 2214 408 1965 64 1562 64  C 1203 64 1088 325 1088 625  C 1088 811 1146 1034 1171 1143  L 1459 2292  C 1491 2413 1542 2617 1542 2656  C 1542 2758 1459 2816 1376 2816  C 1318 2816 1178 2796 1126 2592  L 198 -1085  C 192 -1116 179 -1154 179 -1191  C 179 -1287 256 -1351 352 -1351  C 538 -1351 576 -1204 621 -1029  L 922 140  z "
                 transform="scale(0.015625)" />
            </defs>
            <use
               xlink:href="#CMMI12-16"
               transform="scale(0.996264)"
               id="use12" />
          </g>
        </g>
      </g>
      <g
         id="matplotlib.axis_2">
        <g
           id="ytick_1">
          <g
             id="line2d_7">
            <path
               d="M 67.041993 235.414538  L 321.406401 235.414538  "
               clip-path="url(#p3cd7e04595)"
               style="fill: none; stroke: #b0b0b0; stroke-opacity: 0.2; stroke-width: 0.8; stroke-linecap: square"
               id="path12" />
          </g>
          <g
             id="line2d_8">
            <defs
               id="defs12">
              <path
                 id="ma379103280"
                 d="M 0 0  L 3.5 0  "
                 style="stroke: #000000; stroke-width: 0.8" />
            </defs>
            <g
               id="g13">
              <use
                 xlink:href="#ma379103280"
                 x="67.041993"
                 y="235.414538"
                 style="stroke: #000000; stroke-width: 0.8"
                 id="use13" />
            </g>
          </g>
          <g
             id="text_5">
            <!-- $\mathdefault{0.0}$ -->
            <g
               transform="translate(37.950734 242.886518) scale(0.216 -0.216)"
               id="g16">
              <defs
                 id="defs13">
                <path
                   id="CMMI12-3a"
                   d="M 1178 307  C 1178 492 1024 620 870 620  C 685 620 557 467 557 313  C 557 128 710 0 864 0  C 1050 0 1178 153 1178 307  z "
                   transform="scale(0.015625)" />
              </defs>
              <use
                 xlink:href="#CMR17-30"
                 transform="scale(0.996264)"
                 id="use14" />
              <use
                 xlink:href="#CMMI12-3a"
                 transform="translate(45.690477 0) scale(0.996264)"
                 id="use15" />
              <use
                 xlink:href="#CMR17-30"
                 transform="translate(72.787654 0) scale(0.996264)"
                 id="use16" />
            </g>
          </g>
        </g>
        <g
           id="ytick_2">
          <g
             id="line2d_9">
            <path
               d="M 67.041993 163.902446  L 321.406401 163.902446  "
               clip-path="url(#p3cd7e04595)"
               style="fill: none; stroke: #b0b0b0; stroke-opacity: 0.2; stroke-width: 0.8; stroke-linecap: square"
               id="path16" />
          </g>
          <g
             id="line2d_10">
            <g
               id="g17">
              <use
                 xlink:href="#ma379103280"
                 x="67.041993"
                 y="163.902446"
                 style="stroke: #000000; stroke-width: 0.8"
                 id="use17" />
            </g>
          </g>
          <g
             id="text_6">
            <!-- $\mathdefault{0.2}$ -->
            <g
               transform="translate(37.950734 171.374426) scale(0.216 -0.216)"
               id="g20">
              <use
                 xlink:href="#CMR17-30"
                 transform="scale(0.996264)"
                 id="use18" />
              <use
                 xlink:href="#CMMI12-3a"
                 transform="translate(45.690477 0) scale(0.996264)"
                 id="use19" />
              <use
                 xlink:href="#CMR17-32"
                 transform="translate(72.787654 0) scale(0.996264)"
                 id="use20" />
            </g>
          </g>
        </g>
        <g
           id="ytick_3">
          <g
             id="line2d_11">
            <path
               d="M 67.041993 92.390354  L 321.406401 92.390354  "
               clip-path="url(#p3cd7e04595)"
               style="fill: none; stroke: #b0b0b0; stroke-opacity: 0.2; stroke-width: 0.8; stroke-linecap: square"
               id="path20" />
          </g>
          <g
             id="line2d_12">
            <g
               id="g21">
              <use
                 xlink:href="#ma379103280"
                 x="67.041993"
                 y="92.390354"
                 style="stroke: #000000; stroke-width: 0.8"
                 id="use21" />
            </g>
          </g>
          <g
             id="text_7">
            <!-- $\mathdefault{0.4}$ -->
            <g
               transform="translate(37.950734 99.862335) scale(0.216 -0.216)"
               id="g24">
              <defs
                 id="defs21">
                <path
                   id="CMR17-34"
                   d="M 2150 4147  C 2150 4281 2144 4288 2029 4288  L 128 1254  L 128 1088  L 1779 1088  L 1779 460  C 1779 230 1766 166 1318 166  L 1197 166  L 1197 0  C 1402 12 1747 12 1965 12  C 2182 12 2528 12 2733 0  L 2733 166  L 2611 166  C 2163 166 2150 230 2150 460  L 2150 1088  L 2803 1088  L 2803 1254  L 2150 1254  L 2150 4147  z M 1798 3723  L 1798 1254  L 256 1254  L 1798 3723  z "
                   transform="scale(0.015625)" />
              </defs>
              <use
                 xlink:href="#CMR17-30"
                 transform="scale(0.996264)"
                 id="use22" />
              <use
                 xlink:href="#CMMI12-3a"
                 transform="translate(45.690477 0) scale(0.996264)"
                 id="use23" />
              <use
                 xlink:href="#CMR17-34"
                 transform="translate(72.787654 0) scale(0.996264)"
                 id="use24" />
            </g>
          </g>
        </g>
        <g
           id="ytick_4">
          <g
             id="line2d_13">
            <path
               d="M 67.041993 20.878263  L 321.406401 20.878263  "
               clip-path="url(#p3cd7e04595)"
               style="fill: none; stroke: #b0b0b0; stroke-opacity: 0.2; stroke-width: 0.8; stroke-linecap: square"
               id="path24" />
          </g>
          <g
             id="line2d_14">
            <g
               id="g25">
              <use
                 xlink:href="#ma379103280"
                 x="67.041993"
                 y="20.878263"
                 style="stroke: #000000; stroke-width: 0.8"
                 id="use25" />
            </g>
          </g>
          <g
             id="text_8">
            <!-- $\mathdefault{0.6}$ -->
            <g
               transform="translate(37.950734 28.350243) scale(0.216 -0.216)"
               id="g28">
              <defs
                 id="defs25">
                <path
                   id="CMR17-36"
                   d="M 678 2198  C 678 3712 1395 4076 1811 4076  C 1946 4076 2272 4049 2400 3782  C 2298 3782 2106 3782 2106 3558  C 2106 3385 2246 3328 2336 3328  C 2394 3328 2566 3353 2566 3571  C 2566 3987 2246 4224 1805 4224  C 1043 4224 243 3411 243 2011  C 243 257 966 -128 1478 -128  C 2099 -128 2688 431 2688 1295  C 2688 2101 2170 2688 1517 2688  C 1126 2688 838 2430 678 1979  L 678 2198  z M 1478 25  C 691 25 691 1212 691 1450  C 691 1914 909 2585 1504 2585  C 1613 2585 1926 2585 2138 2140  C 2253 1889 2253 1624 2253 1302  C 2253 954 2253 696 2118 438  C 1978 173 1773 25 1478 25  z "
                   transform="scale(0.015625)" />
              </defs>
              <use
                 xlink:href="#CMR17-30"
                 transform="scale(0.996264)"
                 id="use26" />
              <use
                 xlink:href="#CMMI12-3a"
                 transform="translate(45.690477 0) scale(0.996264)"
                 id="use27" />
              <use
                 xlink:href="#CMR17-36"
                 transform="translate(72.787654 0) scale(0.996264)"
                 id="use28" />
            </g>
          </g>
        </g>
        <g
           id="text_9">
          <!-- $f_0^{-1, 0, 1}$ -->
          <g
             transform="translate(27.061697 151.198689) rotate(-90) scale(0.2592 -0.2592)"
             id="g36">
            <defs
               id="defs28">
              <path
                 id="CMMI12-66"
                 d="M 2854 2566  C 2982 2566 3034 2566 3034 2687  C 3034 2752 2982 2752 2867 2752  L 2349 2752  C 2470 3398 2560 3846 2611 4051  C 2650 4204 2784 4351 2950 4351  C 3085 4351 3219 4294 3283 4236  C 3034 4211 2957 4025 2957 3916  C 2957 3788 3053 3712 3174 3712  C 3302 3712 3494 3820 3494 4064  C 3494 4332 3226 4480 2944 4480  C 2669 4480 2400 4275 2272 4025  C 2157 3801 2093 3573 1946 2752  L 1517 2752  C 1395 2752 1331 2752 1331 2636  C 1331 2566 1370 2566 1498 2566  L 1907 2566  C 1792 1977 1530 545 1382 -132  C 1274 -685 1178 -1152 858 -1152  C 838 -1152 653 -1152 538 -1031  C 864 -1005 864 -724 864 -717  C 864 -589 768 -512 646 -512  C 518 -512 326 -621 326 -865  C 326 -1140 608 -1280 858 -1280  C 1510 -1280 1779 -113 1850 203  C 1965 691 2278 2376 2310 2566  L 2854 2566  z "
                 transform="scale(0.015625)" />
              <path
                 id="CMR17-31"
                 d="M 1702 4083  C 1702 4217 1696 4224 1606 4224  C 1357 3927 979 3833 621 3820  C 602 3820 570 3820 563 3808  C 557 3795 557 3782 557 3648  C 755 3648 1088 3686 1344 3839  L 1344 467  C 1344 243 1331 166 781 166  L 589 166  L 589 0  C 896 6 1216 12 1523 12  C 1830 12 2150 6 2458 0  L 2458 166  L 2266 166  C 1715 166 1702 236 1702 467  L 1702 4083  z "
                 transform="scale(0.015625)" />
              <path
                 id="CMMI12-3b"
                 d="M 1248 -26  C 1248 345 1126 620 864 620  C 659 620 557 454 557 313  C 557 172 653 0 870 0  C 954 0 1024 25 1082 83  C 1094 96 1101 96 1107 96  C 1120 96 1120 6 1120 -26  C 1120 -233 1082 -642 710 -1051  C 640 -1127 640 -1140 640 -1152  C 640 -1184 672 -1216 704 -1216  C 755 -1216 1248 -749 1248 -26  z "
                 transform="scale(0.015625)" />
            </defs>
            <use
               xlink:href="#CMMI12-66"
               transform="scale(0.996264)"
               id="use29" />
            <use
               xlink:href="#CMSY10-0"
               transform="translate(58.720305 47.87587) scale(0.697382)"
               id="use30" />
            <use
               xlink:href="#CMR17-31"
               transform="translate(112.961298 47.87587) scale(0.697382)"
               id="use31" />
            <use
               xlink:href="#CMMI12-3b"
               transform="translate(144.94448 47.87587) scale(0.697382)"
               id="use32" />
            <use
               xlink:href="#CMR17-30"
               transform="translate(163.912413 47.87587) scale(0.697382)"
               id="use33" />
            <use
               xlink:href="#CMMI12-3b"
               transform="translate(195.895595 47.87587) scale(0.697382)"
               id="use34" />
            <use
               xlink:href="#CMR17-31"
               transform="translate(214.863528 47.87587) scale(0.697382)"
               id="use35" />
            <use
               xlink:href="#CMR17-30"
               transform="translate(48.083238 -26.578082) scale(0.697382)"
               id="use36" />
          </g>
        </g>
      </g>
      <g
         id="line2d_15">
        <path
           d="M 78.604011 56.634305  L 240.472271 56.634335  L 309.844382 56.634221  L 309.844382 56.634221  "
           clip-path="url(#p3cd7e04595)"
           style="fill: none; stroke: #6ec5b8; stroke-width: 2; stroke-linecap: square"
           id="path36" />
      </g>
      <g
         id="line2d_16">
        <path
           d="M 78.604011 226.167888  L 91.322232 225.121666  L 101.728048 224.051397  L 110.977663 222.875712  L 118.492975 221.709778  L 125.430186 220.40879  L 131.211196 219.107647  L 136.414104 217.716547  L 141.038911 216.254625  L 145.085618 214.753422  L 148.554223 213.259077  L 152.022829 211.524769  L 154.913334 209.85202  L 157.803838 207.922114  L 160.116242 206.151183  L 162.428646 204.133364  L 164.741049 201.814203  L 167.053453 199.122355  L 168.787756 196.80283  L 170.522059 194.168754  L 172.256361 191.153814  L 173.990664 187.672533  L 175.724967 183.613302  L 177.45927 178.82846  L 179.193572 173.120261  L 180.349774 168.673416  L 181.505976 163.597924  L 182.662178 157.770029  L 183.81838 151.040562  L 184.974582 143.234798  L 186.130784 134.160557  L 187.286985 123.636287  L 188.443187 111.562785  L 190.17749 90.984496  L 191.911793 70.427144  L 192.489894 64.803389  L 193.067995 60.409848  L 193.646096 57.60179  L 194.224197 56.634309  L 194.802298 57.603253  L 195.380398 60.420999  L 195.958499 64.838252  L 197.114701 77.024385  L 200.583307 118.35201  L 201.739509 129.769346  L 202.895711 139.648744  L 204.051912 148.145851  L 205.208114 155.456181  L 206.364316 161.768107  L 208.098619 169.717271  L 209.832922 176.231039  L 211.567224 181.641311  L 213.301527 186.19279  L 215.03583 190.066804  L 216.770133 193.399168  L 218.504436 196.292905  L 220.238738 198.827209  L 222.551142 201.751795  L 224.863546 204.257087  L 227.175949 206.425931  L 229.488353 208.320984  L 232.378858 210.377155  L 235.269362 212.15173  L 238.737968 213.984134  L 242.206574 215.5569  L 246.25328 217.131195  L 250.878087 218.658841  L 256.080996 220.107504  L 261.862005 221.458124  L 268.221115 222.701804  L 275.158326 223.836853  L 283.251739 224.938355  L 292.501354 225.975572  L 303.485272 226.979375  L 309.844382 227.473311  L 309.844382 227.473311  "
           clip-path="url(#p3cd7e04595)"
           style="fill: none; stroke: #1f4e79; stroke-width: 2; stroke-linecap: square"
           id="path37" />
      </g>
      <g
         id="patch_3"
         style="stroke-width:1.3;stroke-dasharray:none">
        <path
           d="M 67.041993 235.414538  L 67.041993 3.00024  "
           style="fill:none;stroke:#000000;stroke-width:1.3;stroke-linejoin:miter;stroke-linecap:square;stroke-dasharray:none"
           id="path38" />
      </g>
      <g
         id="patch_4"
         style="stroke-width:1.3;stroke-dasharray:none">
        <path
           d="M 321.406401 235.414538  L 321.406401 3.00024  "
           style="fill:none;stroke:#000000;stroke-width:1.3;stroke-linejoin:miter;stroke-linecap:square;stroke-dasharray:none"
           id="path39" />
      </g>
      <g
         id="patch_5"
         style="stroke-width:1.3;stroke-dasharray:none">
        <path
           d="M 67.041993 235.414538  L 321.406401 235.414538  "
           style="fill:none;stroke:#000000;stroke-width:1.3;stroke-linejoin:miter;stroke-linecap:square;stroke-dasharray:none"
           id="path40" />
      </g>
      <g
         id="patch_6"
         style="stroke-width:1.3;stroke-dasharray:none">
        <path
           d="M 67.041993 3.00024  L 321.406401 3.00024  "
           style="fill:none;stroke:#000000;stroke-width:1.3;stroke-linejoin:miter;stroke-linecap:square;stroke-dasharray:none"
           id="path41" />
      </g>
    </g>
    <g
       id="axes_2">
      <g
         id="FillBetweenPolyCollection_1">
        <defs
           id="defs42">
          <path
             id="mda0169756b"
             d="M 346.150539 -88.464007  L 346.150539 -267.856739  L 349.041044 -267.855998  L 351.931549 -267.857302  L 354.822053 -267.856533  L 357.712558 -267.856824  L 360.603063 -267.856616  L 363.493567 -267.85667  L 366.384072 -267.856489  L 369.274576 -267.856585  L 372.165081 -267.857076  L 375.055586 -267.856784  L 377.94609 -267.856554  L 380.836595 -267.856789  L 383.7271 -267.856794  L 386.617604 -267.856337  L 389.508109 -267.856708  L 392.398614 -267.856476  L 395.289118 -267.856438  L 398.179623 -267.856689  L 401.070127 -267.85692  L 403.960632 -267.856655  L 406.851137 -267.856786  L 409.741641 -267.856747  L 412.632146 -267.856741  L 415.522651 -267.856735  L 418.413155 -267.856773  L 421.30366 -267.856729  L 424.194165 -267.856707  L 427.084669 -267.856741  L 429.975174 -267.856732  L 432.865678 -267.856728  L 435.756183 -267.856706  L 438.646688 -267.85674  L 441.537192 -267.856735  L 444.427697 -267.856735  L 447.318202 -267.856732  L 450.208706 -267.856731  L 453.099211 -267.856731  L 455.989716 -267.856732  L 458.88022 -267.856732  L 461.770725 -267.856732  L 464.661229 -267.856732  L 467.551734 -267.856732  L 470.442239 -267.856732  L 473.332743 -267.856731  L 476.223248 -267.856735  L 479.113753 -267.856734  L 482.004257 -267.856732  L 484.894762 -267.856725  L 487.785267 -267.856732  L 490.675771 -267.856732  L 493.566276 -267.856741  L 496.45678 -267.856725  L 499.347285 -267.856747  L 502.23779 -267.856722  L 505.128294 -267.856715  L 508.018799 -267.85668  L 510.909304 -267.856771  L 513.799808 -267.856753  L 516.690313 -267.856729  L 519.580818 -267.856707  L 522.471322 -267.856763  L 525.361827 -267.856888  L 528.252331 -267.856764  L 531.142836 -267.85675  L 534.033341 -267.856453  L 536.923845 -267.856436  L 539.81435 -267.855688  L 542.704855 -267.856727  L 545.595359 -267.856698  L 548.485864 -267.857161  L 551.376369 -267.856561  L 554.266873 -267.856906  L 557.157378 -267.856839  L 560.047882 -267.856371  L 562.938387 -267.856821  L 565.828892 -267.856706  L 568.719396 -267.856733  L 571.609901 -267.856584  L 574.500406 -267.856627  L 577.39091 -267.856908  L 577.39091 -88.464007  L 577.39091 -88.464007  L 574.500406 -88.464007  L 571.609901 -88.464007  L 568.719396 -88.464007  L 565.828892 -88.464007  L 562.938387 -88.464007  L 560.047882 -88.464007  L 557.157378 -88.464007  L 554.266873 -88.464007  L 551.376369 -88.464007  L 548.485864 -88.464007  L 545.595359 -88.464007  L 542.704855 -88.464007  L 539.81435 -88.464007  L 536.923845 -88.464007  L 534.033341 -88.464007  L 531.142836 -88.464007  L 528.252331 -88.464007  L 525.361827 -88.464007  L 522.471322 -88.464007  L 519.580818 -88.464007  L 516.690313 -88.464007  L 513.799808 -88.464007  L 510.909304 -88.464007  L 508.018799 -88.464007  L 505.128294 -88.464007  L 502.23779 -88.464007  L 499.347285 -88.464007  L 496.45678 -88.464007  L 493.566276 -88.464007  L 490.675771 -88.464007  L 487.785267 -88.464007  L 484.894762 -88.464007  L 482.004257 -88.464007  L 479.113753 -88.464007  L 476.223248 -88.464007  L 473.332743 -88.464007  L 470.442239 -88.464007  L 467.551734 -88.464007  L 464.661229 -88.464007  L 461.770725 -88.464007  L 458.88022 -88.464007  L 455.989716 -88.464007  L 453.099211 -88.464007  L 450.208706 -88.464007  L 447.318202 -88.464007  L 444.427697 -88.464007  L 441.537192 -88.464007  L 438.646688 -88.464007  L 435.756183 -88.464007  L 432.865678 -88.464007  L 429.975174 -88.464007  L 427.084669 -88.464007  L 424.194165 -88.464007  L 421.30366 -88.464007  L 418.413155 -88.464007  L 415.522651 -88.464007  L 412.632146 -88.464007  L 409.741641 -88.464007  L 406.851137 -88.464007  L 403.960632 -88.464007  L 401.070127 -88.464007  L 398.179623 -88.464007  L 395.289118 -88.464007  L 392.398614 -88.464007  L 389.508109 -88.464007  L 386.617604 -88.464007  L 383.7271 -88.464007  L 380.836595 -88.464007  L 377.94609 -88.464007  L 375.055586 -88.464007  L 372.165081 -88.464007  L 369.274576 -88.464007  L 366.384072 -88.464007  L 363.493567 -88.464007  L 360.603063 -88.464007  L 357.712558 -88.464007  L 354.822053 -88.464007  L 351.931549 -88.464007  L 349.041044 -88.464007  L 346.150539 -88.464007  z "
             style="stroke: #6ec5b8; stroke-opacity: 0.15" />
        </defs>
        <g
           clip-path="url(#p910ab6d44c)"
           id="g42">
          <use
             xlink:href="#mda0169756b"
             x="0"
             y="288"
             style="fill: #6ec5b8; fill-opacity: 0.15; stroke: #6ec5b8; stroke-opacity: 0.15"
             id="use42" />
        </g>
      </g>
      <g
         id="FillBetweenPolyCollection_2">
        <defs
           id="defs43">
          <path
             id="mf5ca21a570"
             d="M 452.52111 -88.464007  L 452.52111 -94.062372  L 453.099211 -102.825126  L 453.677312 -112.273031  L 454.255413 -122.450696  L 454.833514 -133.393682  L 455.411615 -145.120874  L 455.989716 -157.623412  L 456.567816 -170.849296  L 457.145917 -184.683071  L 457.724018 -198.920992  L 458.302119 -213.244244  L 458.88022 -227.196435  L 459.458321 -240.176554  L 460.036422 -251.462596  L 460.614523 -260.279783  L 461.192624 -265.915139  L 461.770725 -267.856732  L 462.348826 -265.912205  L 462.926927 -260.257405  L 463.505028 -251.392632  L 464.083129 -240.026633  L 464.661229 -226.936868  L 465.23933 -212.852454  L 465.817431 -198.383118  L 466.395532 -183.993452  L 466.973633 -170.008851  L 467.551734 -156.63772  L 468.129835 -143.998443  L 468.707936 -132.144573  L 469.286037 -121.085539  L 469.864138 -110.802379  L 470.442239 -101.259051  L 471.02034 -92.410251  L 471.02034 -88.464007  L 471.02034 -88.464007  L 470.442239 -88.464007  L 469.864138 -88.464007  L 469.286037 -88.464007  L 468.707936 -88.464007  L 468.129835 -88.464007  L 467.551734 -88.464007  L 466.973633 -88.464007  L 466.395532 -88.464007  L 465.817431 -88.464007  L 465.23933 -88.464007  L 464.661229 -88.464007  L 464.083129 -88.464007  L 463.505028 -88.464007  L 462.926927 -88.464007  L 462.348826 -88.464007  L 461.770725 -88.464007  L 461.192624 -88.464007  L 460.614523 -88.464007  L 460.036422 -88.464007  L 459.458321 -88.464007  L 458.88022 -88.464007  L 458.302119 -88.464007  L 457.724018 -88.464007  L 457.145917 -88.464007  L 456.567816 -88.464007  L 455.989716 -88.464007  L 455.411615 -88.464007  L 454.833514 -88.464007  L 454.255413 -88.464007  L 453.677312 -88.464007  L 453.099211 -88.464007  L 452.52111 -88.464007  z "
             style="stroke: #1f4e79; stroke-opacity: 0.25" />
        </defs>
        <g
           clip-path="url(#p910ab6d44c)"
           id="g43">
          <use
             xlink:href="#mf5ca21a570"
             x="0"
             y="288"
             style="fill: #1f4e79; fill-opacity: 0.25; stroke: #1f4e79; stroke-opacity: 0.25"
             id="use43" />
        </g>
      </g>
      <g
         id="matplotlib.axis_3">
        <g
           id="xtick_4">
          <g
             id="line2d_17">
            <path
               d="M 346.150539 235.414538  L 346.150539 3.00024  "
               clip-path="url(#p910ab6d44c)"
               style="fill: none; stroke: #b0b0b0; stroke-opacity: 0.2; stroke-width: 0.8; stroke-linecap: square"
               id="path43" />
          </g>
          <g
             id="line2d_18">
            <g
               id="g44">
              <use
                 xlink:href="#mb4205265f8"
                 x="346.150539"
                 y="235.414538"
                 style="stroke: #000000; stroke-width: 0.8"
                 id="use44" />
            </g>
          </g>
          <g
             id="text_10">
            <!-- $\mathdefault{−20}$ -->
            <g
               transform="translate(327.912756 253.858498) scale(0.216 -0.216)"
               id="g47">
              <use
                 xlink:href="#CMSY10-0"
                 transform="scale(0.996264)"
                 id="use45" />
              <use
                 xlink:href="#CMR17-32"
                 transform="translate(77.487468 0) scale(0.996264)"
                 id="use46" />
              <use
                 xlink:href="#CMR17-30"
                 transform="translate(123.177945 0) scale(0.996264)"
                 id="use47" />
            </g>
          </g>
        </g>
        <g
           id="xtick_5">
          <g
             id="line2d_19">
            <path
               d="M 461.770725 235.414538  L 461.770725 3.00024  "
               clip-path="url(#p910ab6d44c)"
               style="fill: none; stroke: #b0b0b0; stroke-opacity: 0.2; stroke-width: 0.8; stroke-linecap: square"
               id="path47" />
          </g>
          <g
             id="line2d_20">
            <g
               id="g48">
              <use
                 xlink:href="#mb4205265f8"
                 x="461.770725"
                 y="235.414538"
                 style="stroke: #000000; stroke-width: 0.8"
                 id="use48" />
            </g>
          </g>
          <g
             id="text_11">
            <!-- $\mathdefault{0}$ -->
            <g
               transform="translate(456.836158 253.858498) scale(0.216 -0.216)"
               id="g49">
              <use
                 xlink:href="#CMR17-30"
                 transform="scale(0.996264)"
                 id="use49" />
            </g>
          </g>
        </g>
        <g
           id="xtick_6">
          <g
             id="line2d_21">
            <path
               d="M 577.39091 235.414538  L 577.39091 3.00024  "
               clip-path="url(#p910ab6d44c)"
               style="fill: none; stroke: #b0b0b0; stroke-opacity: 0.2; stroke-width: 0.8; stroke-linecap: square"
               id="path49" />
          </g>
          <g
             id="line2d_22">
            <g
               id="g50">
              <use
                 xlink:href="#mb4205265f8"
                 x="577.39091"
                 y="235.414538"
                 style="stroke: #000000; stroke-width: 0.8"
                 id="use50" />
            </g>
          </g>
          <g
             id="text_12">
            <!-- $\mathdefault{20}$ -->
            <g
               transform="translate(567.521776 253.858498) scale(0.216 -0.216)"
               id="g52">
              <use
                 xlink:href="#CMR17-32"
                 transform="scale(0.996264)"
                 id="use51" />
              <use
                 xlink:href="#CMR17-30"
                 transform="translate(45.690477 0) scale(0.996264)"
                 id="use52" />
            </g>
          </g>
        </g>
        <g
           id="text_13">
          <!-- $\mu$ -->
          <g
             transform="translate(454.164323 279.976939) scale(0.2592 -0.2592)"
             id="g53">
            <use
               xlink:href="#CMMI12-16"
               transform="scale(0.996264)"
               id="use53" />
          </g>
        </g>
      </g>
      <g
         id="matplotlib.axis_4">
        <g
           id="ytick_5">
          <g
             id="line2d_23">
            <path
               d="M 334.588521 199.535993  L 588.952929 199.535993  "
               clip-path="url(#p910ab6d44c)"
               style="fill: none; stroke: #b0b0b0; stroke-opacity: 0.2; stroke-width: 0.8; stroke-linecap: square"
               id="path53" />
          </g>
          <g
             id="line2d_24">
            <defs
               id="defs53">
              <path
                 id="mbd1b76c979"
                 d="M 0 0  L -3.5 0  "
                 style="stroke: #000000; stroke-width: 0.8" />
            </defs>
            <g
               id="g54">
              <use
                 xlink:href="#mbd1b76c979"
                 x="588.952929"
                 y="199.535993"
                 style="stroke: #000000; stroke-width: 0.8"
                 id="use54" />
            </g>
          </g>
          <g
             id="text_14">
            <!-- $\mathdefault{0.0}$ -->
            <g
               transform="translate(592.452929 207.007973) scale(0.216 -0.216)"
               id="g57">
              <use
                 xlink:href="#CMR17-30"
                 transform="scale(0.996264)"
                 id="use55" />
              <use
                 xlink:href="#CMMI12-3a"
                 transform="translate(45.690477 0) scale(0.996264)"
                 id="use56" />
              <use
                 xlink:href="#CMR17-30"
                 transform="translate(72.787654 0) scale(0.996264)"
                 id="use57" />
            </g>
          </g>
        </g>
        <g
           id="ytick_6">
          <g
             id="line2d_25">
            <path
               d="M 334.588521 109.839631  L 588.952929 109.839631  "
               clip-path="url(#p910ab6d44c)"
               style="fill: none; stroke: #b0b0b0; stroke-opacity: 0.2; stroke-width: 0.8; stroke-linecap: square"
               id="path57" />
          </g>
          <g
             id="line2d_26">
            <g
               id="g58">
              <use
                 xlink:href="#mbd1b76c979"
                 x="588.952929"
                 y="109.839631"
                 style="stroke: #000000; stroke-width: 0.8"
                 id="use58" />
            </g>
          </g>
          <g
             id="text_15">
            <!-- $\mathdefault{0.5}$ -->
            <g
               transform="translate(592.452929 117.311611) scale(0.216 -0.216)"
               id="g61">
              <defs
                 id="defs58">
                <path
                   id="CMR17-35"
                   d="M 730 3750  C 794 3724 1056 3641 1325 3641  C 1920 3641 2246 3961 2432 4140  C 2432 4191 2432 4224 2394 4224  C 2387 4224 2374 4224 2323 4198  C 2099 4102 1837 4032 1517 4032  C 1325 4032 1037 4055 723 4191  C 653 4224 640 4224 634 4224  C 602 4224 595 4217 595 4090  L 595 2231  C 595 2113 595 2080 659 2080  C 691 2080 704 2093 736 2139  C 941 2435 1222 2560 1542 2560  C 1766 2560 2246 2415 2246 1293  C 2246 1087 2246 716 2054 422  C 1894 159 1645 25 1370 25  C 947 25 518 319 403 812  C 429 806 480 793 506 793  C 589 793 749 838 749 1036  C 749 1209 627 1280 506 1280  C 358 1280 262 1190 262 1011  C 262 454 704 -128 1382 -128  C 2042 -128 2669 441 2669 1267  C 2669 2054 2170 2662 1549 2662  C 1222 2662 947 2540 730 2304  L 730 3750  z "
                   transform="scale(0.015625)" />
              </defs>
              <use
                 xlink:href="#CMR17-30"
                 transform="scale(0.996264)"
                 id="use59" />
              <use
                 xlink:href="#CMMI12-3a"
                 transform="translate(45.690477 0) scale(0.996264)"
                 id="use60" />
              <use
                 xlink:href="#CMR17-35"
                 transform="translate(72.787654 0) scale(0.996264)"
                 id="use61" />
            </g>
          </g>
        </g>
        <g
           id="ytick_7">
          <g
             id="line2d_27">
            <path
               d="M 334.588521 20.143268  L 588.952929 20.143268  "
               clip-path="url(#p910ab6d44c)"
               style="fill: none; stroke: #b0b0b0; stroke-opacity: 0.2; stroke-width: 0.8; stroke-linecap: square"
               id="path61" />
          </g>
          <g
             id="line2d_28">
            <g
               id="g62">
              <use
                 xlink:href="#mbd1b76c979"
                 x="588.952929"
                 y="20.143268"
                 style="stroke: #000000; stroke-width: 0.8"
                 id="use62" />
            </g>
          </g>
          <g
             id="text_16">
            <!-- $\mathdefault{1.0}$ -->
            <g
               transform="translate(592.452929 27.615248) scale(0.216 -0.216)"
               id="g65">
              <use
                 xlink:href="#CMR17-31"
                 transform="scale(0.996264)"
                 id="use63" />
              <use
                 xlink:href="#CMMI12-3a"
                 transform="translate(45.690477 0) scale(0.996264)"
                 id="use64" />
              <use
                 xlink:href="#CMR17-30"
                 transform="translate(72.787654 0) scale(0.996264)"
                 id="use65" />
            </g>
          </g>
        </g>
        <g
           id="text_17">
          <!-- gain -->
          <g
             transform="translate(639.976939 140.869678) rotate(-90) scale(0.2592 -0.2592)"
             id="g69">
            <defs
               id="defs65">
              <path
                 id="CMR17-67"
                 d="M 710 1165  C 832 1068 1043 960 1299 960  C 1805 960 2240 1359 2240 1895  C 2240 2063 2189 2321 1997 2521  C 2176 2713 2438 2777 2586 2777  C 2611 2777 2650 2777 2682 2758  C 2656 2751 2598 2726 2598 2623  C 2598 2540 2656 2483 2739 2483  C 2835 2483 2886 2547 2886 2630  C 2886 2751 2790 2880 2586 2880  C 2330 2880 2106 2758 1926 2591  C 1734 2764 1504 2828 1299 2828  C 794 2828 358 2431 358 1895  C 358 1527 570 1294 634 1230  C 442 1004 442 742 442 710  C 442 544 506 300 723 166  C 390 82 128 -184 128 -517  C 128 -996 736 -1344 1466 -1344  C 2170 -1344 2803 -1009 2803 -510  C 2803 384 1856 384 1363 384  C 1216 384 954 384 922 390  C 723 422 589 601 589 825  C 589 883 589 1024 710 1165  z M 1299 1068  C 736 1068 736 1766 736 1895  C 736 2024 736 2719 1299 2719  C 1862 2719 1862 2024 1862 1895  C 1862 1766 1862 1068 1299 1068  z M 1466 -1236  C 826 -1236 384 -883 384 -517  C 384 -311 493 -118 634 -11  C 794 102 858 102 1293 102  C 1818 102 2547 102 2547 -517  C 2547 -883 2106 -1236 1466 -1236  z "
                 transform="scale(0.015625)" />
              <path
                 id="CMR17-61"
                 d="M 2304 1656  C 2304 2048 2304 2275 2035 2534  C 1798 2751 1523 2816 1306 2816  C 800 2816 435 2408 435 1977  C 435 1740 627 1728 666 1728  C 749 1728 896 1779 896 1958  C 896 2118 774 2188 666 2188  C 640 2188 608 2182 589 2176  C 723 2594 1069 2713 1293 2713  C 1613 2713 1965 2421 1965 1875  L 1965 1632  C 1587 1619 1133 1568 774 1373  C 371 1147 256 822 256 576  C 256 77 832 -64 1171 -64  C 1523 -64 1850 135 1990 505  C 2003 219 2182 -39 2464 -39  C 2598 -39 2938 51 2938 563  L 2938 926  L 2822 926  L 2822 557  C 2822 161 2650 109 2566 109  C 2304 109 2304 446 2304 732  L 2304 1656  z M 1965 887  C 1965 323 1568 38 1216 38  C 896 38 646 278 646 576  C 646 771 730 1114 1101 1322  C 1408 1497 1760 1523 1965 1536  L 1965 887  z "
                 transform="scale(0.015625)" />
              <path
                 id="CMR17-69"
                 d="M 992 3961  C 992 4102 877 4224 730 4224  C 589 4224 467 4108 467 3961  C 467 3820 582 3699 730 3699  C 870 3699 992 3814 992 3961  z M 243 2745  L 243 2579  C 602 2579 653 2540 653 2231  L 653 443  C 653 198 627 166 218 166  L 218 0  C 371 12 646 12 806 12  C 960 12 1222 12 1370 0  L 1370 166  C 992 166 979 205 979 436  L 979 2816  L 243 2745  z "
                 transform="scale(0.015625)" />
              <path
                 id="CMR17-6e"
                 d="M 2656 1954  C 2656 2282 2592 2816 1837 2816  C 1331 2816 1069 2424 973 2166  L 966 2166  L 966 2816  L 211 2745  L 211 2578  C 589 2578 646 2540 646 2231  L 646 443  C 646 198 621 166 211 166  L 211 0  C 365 12 646 12 813 12  C 979 12 1267 12 1421 0  L 1421 166  C 1011 166 986 192 986 443  L 986 1678  C 986 2269 1344 2713 1792 2713  C 2266 2713 2317 2289 2317 1980  L 2317 443  C 2317 198 2291 166 1882 166  L 1882 0  C 2035 12 2317 12 2483 12  C 2650 12 2938 12 3091 0  L 3091 166  C 2682 166 2656 192 2656 443  L 2656 1954  z "
                 transform="scale(0.015625)" />
            </defs>
            <use
               xlink:href="#CMR17-67"
               transform="scale(0.996264)"
               id="use66" />
            <use
               xlink:href="#CMR17-61"
               transform="translate(45.690477 0) scale(0.996264)"
               id="use67" />
            <use
               xlink:href="#CMR17-69"
               transform="translate(91.380954 0) scale(0.996264)"
               id="use68" />
            <use
               xlink:href="#CMR17-6e"
               transform="translate(116.252013 0) scale(0.996264)"
               id="use69" />
          </g>
        </g>
      </g>
      <g
         id="line2d_29">
        <path
           d="M 346.150539 20.143261  L 349.041044 20.144002  L 351.931549 20.142698  L 354.822053 20.143467  L 357.712558 20.143176  L 360.603063 20.143384  L 363.493567 20.14333  L 366.384072 20.143511  L 369.274576 20.143415  L 372.165081 20.142924  L 375.055586 20.143216  L 377.94609 20.143446  L 380.836595 20.143211  L 383.7271 20.143206  L 386.617604 20.143663  L 389.508109 20.143292  L 392.398614 20.143524  L 395.289118 20.143562  L 398.179623 20.143311  L 401.070127 20.14308  L 403.960632 20.143345  L 406.851137 20.143214  L 409.741641 20.143253  L 412.632146 20.143259  L 415.522651 20.143265  L 418.413155 20.143227  L 421.30366 20.143271  L 424.194165 20.143293  L 427.084669 20.143259  L 429.975174 20.143268  L 432.865678 20.143272  L 435.756183 20.143294  L 438.646688 20.14326  L 441.537192 20.143265  L 444.427697 20.143265  L 447.318202 20.143268  L 450.208706 20.143269  L 453.099211 20.143269  L 455.989716 20.143268  L 458.88022 20.143268  L 461.770725 20.143268  L 464.661229 20.143268  L 467.551734 20.143268  L 470.442239 20.143268  L 473.332743 20.143269  L 476.223248 20.143265  L 479.113753 20.143266  L 482.004257 20.143268  L 484.894762 20.143275  L 487.785267 20.143268  L 490.675771 20.143268  L 493.566276 20.143259  L 496.45678 20.143275  L 499.347285 20.143253  L 502.23779 20.143278  L 505.128294 20.143285  L 508.018799 20.14332  L 510.909304 20.143229  L 513.799808 20.143247  L 516.690313 20.143271  L 519.580818 20.143293  L 522.471322 20.143237  L 525.361827 20.143112  L 528.252331 20.143236  L 531.142836 20.14325  L 534.033341 20.143547  L 536.923845 20.143564  L 539.81435 20.144312  L 542.704855 20.143273  L 545.595359 20.143302  L 548.485864 20.142839  L 551.376369 20.143439  L 554.266873 20.143094  L 557.157378 20.143161  L 560.047882 20.143629  L 562.938387 20.143179  L 565.828892 20.143294  L 568.719396 20.143267  L 571.609901 20.143416  L 574.500406 20.143373  L 577.39091 20.143092  "
           clip-path="url(#p910ab6d44c)"
           style="fill: none; stroke: #6ec5b8; stroke-width: 2; stroke-linecap: square"
           id="path69" />
      </g>
      <g
         id="line2d_30">
        <path
           d="M 440.091026 289  L 441.537192 283.117582  L 443.271495 274.971307  L 445.005798 265.368838  L 446.740101 253.913328  L 447.896303 244.989167  L 449.052504 234.803408  L 450.208706 223.107684  L 451.364908 209.60264  L 452.52111 193.937628  L 453.677312 175.726969  L 454.833514 154.606318  L 455.989716 130.376588  L 457.724018 89.079008  L 459.458321 47.823446  L 460.036422 36.537404  L 460.614523 27.720217  L 461.192624 22.084861  L 461.770725 20.143268  L 462.348826 22.087795  L 462.926927 27.742595  L 463.505028 36.607368  L 464.661229 61.063132  L 468.129835 144.001557  L 469.286037 166.914461  L 470.442239 186.740949  L 471.598441 203.793384  L 472.754642 218.464135  L 473.910844 231.131235  L 475.067046 242.125502  L 476.801349 256.07364  L 478.535652 267.607332  L 480.269954 277.270101  L 482.004257 285.463682  L 482.848708 289  L 482.848708 289  "
           clip-path="url(#p910ab6d44c)"
           style="fill: none; stroke: #1f4e79; stroke-width: 2; stroke-linecap: square"
           id="path70" />
      </g>
      <g
         id="LineCollection_1">
        <path
           d="M 334.588521 199.535993  L 588.952929 199.535993  "
           clip-path="url(#p910ab6d44c)"
           style="fill: none; stroke-dasharray: 5.55,2.4; stroke-dashoffset: 0; stroke: #000000; stroke-opacity: 0.7; stroke-width: 1.5"
           id="path71" />
      </g>
      <g
         id="patch_8"
         style="stroke-width:1.3;stroke-dasharray:none">
        <path
           d="M 334.588521 235.414538  L 334.588521 3.00024  "
           style="fill:none;stroke:#000000;stroke-width:1.3;stroke-linejoin:miter;stroke-linecap:square;stroke-dasharray:none"
           id="path72" />
      </g>
      <g
         id="patch_9"
         style="stroke-width:1.3;stroke-dasharray:none">
        <path
           d="M 588.952929 235.414538  L 588.952929 3.00024  "
           style="fill:none;stroke:#000000;stroke-width:1.3;stroke-linejoin:miter;stroke-linecap:square;stroke-dasharray:none"
           id="path73" />
      </g>
      <g
         id="patch_10"
         style="stroke-width:1.3;stroke-dasharray:none">
        <path
           d="M 334.588521 235.414538  L 588.952929 235.414538  "
           style="fill:none;stroke:#000000;stroke-width:1.3;stroke-linejoin:miter;stroke-linecap:square;stroke-dasharray:none"
           id="path74" />
      </g>
      <g
         id="patch_11"
         style="stroke-width:1.3;stroke-dasharray:none">
        <path
           d="M 334.588521 3.00024  L 588.952929 3.00024  "
           style="fill:none;stroke:#000000;stroke-width:1.3;stroke-linejoin:miter;stroke-linecap:square;stroke-dasharray:none"
           id="path75" />
      </g>
      <g
         id="text_18">
        <!-- Threshold -->
        <g
           transform="translate(517.640032 193.306083) scale(0.11 -0.11)"
           id="g83">
          <defs
             id="defs75">
            <path
               id="CMR17-54"
               d="M 3981 4332  L 288 4332  L 179 2924  L 294 2924  C 378 3981 467 4166 1453 4166  C 1568 4166 1754 4166 1805 4159  C 1926 4140 1926 4064 1926 3917  L 1926 465  C 1926 236 1907 166 1376 166  L 1197 166  L 1197 0  C 1504 6 1824 12 2138 12  C 2451 12 2771 6 3078 0  L 3078 166  L 2899 166  C 2368 166 2349 236 2349 465  L 2349 3917  C 2349 4057 2349 4134 2464 4159  C 2515 4166 2701 4166 2816 4166  C 3795 4166 3891 3981 3974 2924  L 4090 2924  L 3981 4332  z "
               transform="scale(0.015625)" />
            <path
               id="CMR17-68"
               d="M 2656 1954  C 2656 2282 2592 2816 1837 2816  C 1312 2816 1056 2392 979 2179  L 973 2179  L 973 4416  L 211 4345  L 211 4179  C 589 4179 646 4141 646 3843  L 646 443  C 646 198 621 166 211 166  L 211 0  C 365 12 646 12 813 12  C 979 12 1267 12 1421 0  L 1421 166  C 1011 166 986 192 986 443  L 986 1678  C 986 2269 1344 2713 1792 2713  C 2266 2713 2317 2289 2317 1980  L 2317 443  C 2317 198 2291 166 1882 166  L 1882 0  C 2035 12 2317 12 2483 12  C 2650 12 2938 12 3091 0  L 3091 166  C 2682 166 2656 192 2656 443  L 2656 1954  z "
               transform="scale(0.015625)" />
            <path
               id="CMR17-72"
               d="M 960 1517  C 960 2134 1222 2713 1702 2713  C 1747 2713 1792 2707 1837 2687  C 1837 2687 1696 2642 1696 2475  C 1696 2321 1818 2257 1914 2257  C 1990 2257 2131 2302 2131 2482  C 2131 2687 1926 2816 1709 2816  C 1222 2816 1011 2340 947 2115  L 941 2115  L 941 2816  L 198 2745  L 198 2578  C 576 2578 634 2540 634 2231  L 634 443  C 634 198 608 166 198 166  L 198 0  C 352 12 646 12 813 12  C 998 12 1325 12 1498 0  L 1498 166  C 1037 166 960 166 960 455  L 960 1517  z "
               transform="scale(0.015625)" />
            <path
               id="CMR17-65"
               d="M 2438 1503  C 2464 1529 2464 1542 2464 1606  C 2464 2251 2118 2816 1389 2816  C 710 2816 173 2175 173 1394  C 173 554 781 -64 1459 -64  C 2176 -64 2458 619 2458 755  C 2458 800 2419 800 2406 800  C 2362 800 2355 787 2330 709  C 2189 270 1837 51 1504 51  C 1229 51 954 206 781 490  C 582 819 582 1200 582 1503  L 2438 1503  z M 589 1600  C 634 2511 1126 2713 1382 2713  C 1818 2713 2112 2308 2118 1600  L 589 1600  z "
               transform="scale(0.015625)" />
            <path
               id="CMR17-73"
               d="M 1978 2688  C 1978 2803 1971 2809 1933 2809  C 1907 2809 1901 2803 1824 2707  C 1805 2681 1747 2617 1728 2592  C 1523 2809 1235 2816 1126 2816  C 416 2816 160 2444 160 2073  C 160 1497 813 1363 998 1324  C 1402 1241 1542 1216 1677 1100  C 1760 1024 1901 883 1901 652  C 1901 384 1747 38 1158 38  C 602 38 403 460 288 1024  C 269 1113 269 1120 218 1120  C 166 1120 160 1113 160 985  L 160 64  C 160 -52 166 -58 205 -58  C 237 -58 243 -52 275 0  C 314 57 410 211 448 275  C 576 102 800 -64 1158 -64  C 1792 -64 2131 281 2131 780  C 2131 1107 1958 1280 1875 1356  C 1683 1555 1459 1600 1190 1651  C 838 1728 390 1817 390 2208  C 390 2374 480 2726 1126 2726  C 1811 2726 1850 2086 1862 1881  C 1869 1849 1901 1843 1920 1843  C 1978 1843 1978 1862 1978 1971  L 1978 2688  z "
               transform="scale(0.015625)" />
            <path
               id="CMR17-6f"
               d="M 2758 1356  C 2758 2176 2163 2816 1466 2816  C 768 2816 173 2176 173 1356  C 173 550 768 -64 1466 -64  C 2163 -64 2758 550 2758 1356  z M 1466 51  C 1165 51 909 230 762 480  C 602 768 582 1126 582 1408  C 582 1676 595 2009 762 2297  C 890 2508 1139 2713 1466 2713  C 1754 2713 1997 2553 2150 2329  C 2349 2028 2349 1606 2349 1408  C 2349 1158 2336 774 2163 467  C 1984 172 1709 51 1466 51  z "
               transform="scale(0.015625)" />
            <path
               id="CMR17-6c"
               d="M 979 4416  L 218 4345  L 218 4179  C 595 4179 653 4141 653 3835  L 653 439  C 653 198 627 166 218 166  L 218 0  C 371 12 653 12 813 12  C 979 12 1261 12 1414 0  L 1414 166  C 1005 166 979 191 979 439  L 979 4416  z "
               transform="scale(0.015625)" />
            <path
               id="CMR17-64"
               d="M 1869 4345  L 1869 4179  C 2246 4179 2304 4141 2304 3843  L 2304 2371  C 2278 2403 2016 2816 1498 2816  C 845 2816 211 2228 211 1376  C 211 529 806 -64 1434 -64  C 1978 -64 2259 361 2291 406  L 2291 -64  L 3066 -13  L 3066 154  C 2688 154 2630 193 2630 503  L 2630 4416  L 1869 4345  z M 2291 762  C 2291 568 2176 393 2029 264  C 1811 70 1594 38 1472 38  C 1286 38 621 135 621 1369  C 621 2636 1363 2713 1530 2713  C 1824 2713 2061 2545 2208 2313  C 2291 2177 2291 2157 2291 2041  L 2291 762  z "
               transform="scale(0.015625)" />
          </defs>
          <use
             xlink:href="#CMR17-54"
             transform="scale(0.996264)"
             id="use75" />
          <use
             xlink:href="#CMR17-68"
             transform="translate(66.509881 0) scale(0.996264)"
             id="use76" />
          <use
             xlink:href="#CMR17-72"
             transform="translate(117.40525 0) scale(0.996264)"
             id="use77" />
          <use
             xlink:href="#CMR17-65"
             transform="translate(152.686018 0) scale(0.996264)"
             id="use78" />
          <use
             xlink:href="#CMR17-73"
             transform="translate(193.171679 0) scale(0.996264)"
             id="use79" />
          <use
             xlink:href="#CMR17-68"
             transform="translate(228.973016 0) scale(0.996264)"
             id="use80" />
          <use
             xlink:href="#CMR17-6f"
             transform="translate(279.868386 0) scale(0.996264)"
             id="use81" />
          <use
             xlink:href="#CMR17-6c"
             transform="translate(325.558863 0) scale(0.996264)"
             id="use82" />
          <use
             xlink:href="#CMR17-64"
             transform="translate(350.429922 0) scale(0.996264)"
             id="use83" />
        </g>
      </g>
    </g>
  </g>
  <defs
     id="defs84">
    <clipPath
       id="p3cd7e04595">
      <rect
         x="67.041993"
         y="3.00024"
         width="254.364408"
         height="232.414298"
         id="rect83" />
    </clipPath>
    <clipPath
       id="p910ab6d44c">
      <rect
         x="334.588521"
         y="3.00024"
         width="254.364408"
         height="232.414298"
         id="rect84" />
    </clipPath>
  </defs>
  <circle
     style="fill:none;fill-opacity:1;stroke:#6ec5b8;stroke-width:2.5;stroke-linecap:round;stroke-linejoin:round;stroke-dasharray:none;stroke-dashoffset:0;stroke-opacity:1"
     id="path56"
     cx="233.66711"
     cy="37.847721"
     r="12.982481" />
  <circle
     style="fill:none;fill-opacity:1;stroke:#6ec5b8;stroke-width:2.5;stroke-linecap:round;stroke-linejoin:round;stroke-dasharray:none;stroke-dashoffset:0;stroke-opacity:1"
     id="circle56"
     cx="264.18677"
     cy="37.847721"
     r="12.982481" />
  <circle
     style="fill:none;fill-opacity:1;stroke:#6ec5b8;stroke-width:2.5;stroke-linecap:round;stroke-linejoin:round;stroke-dasharray:none;stroke-dashoffset:0;stroke-opacity:1"
     id="circle57"
     cx="294.70645"
     cy="37.847721"
     r="12.982481" />
  <circle
     style="fill:none;fill-opacity:1;stroke:#6ec5b8;stroke-width:2.5;stroke-linecap:round;stroke-linejoin:round;stroke-dasharray:none;stroke-dashoffset:0;stroke-opacity:1"
     id="path56-7"
     cx="499.45523"
     cy="37.323032"
     r="12.982481" />
  <circle
     style="fill:none;fill-opacity:1;stroke:#6ec5b8;stroke-width:2.5;stroke-linecap:round;stroke-linejoin:round;stroke-dasharray:none;stroke-dashoffset:0;stroke-opacity:1"
     id="circle56-5"
     cx="529.97485"
     cy="37.323032"
     r="12.982481" />
  <circle
     style="fill:none;fill-opacity:1;stroke:#6ec5b8;stroke-width:2.5;stroke-linecap:round;stroke-linejoin:round;stroke-dasharray:none;stroke-dashoffset:0;stroke-opacity:1"
     id="circle57-3"
     cx="560.49457"
     cy="37.323032"
     r="12.982481" />
  <circle
     style="opacity:0.8;fill:none;fill-opacity:1;stroke:#1f4e79;stroke-width:2.5;stroke-linecap:round;stroke-linejoin:round;stroke-dasharray:none;stroke-dashoffset:0;stroke-opacity:1"
     id="circle58"
     cx="83.059433"
     cy="187.43416"
     r="10.62316" />
  <circle
     style="opacity:0.8;fill:none;fill-opacity:1;stroke:#1f4e79;stroke-width:2.5;stroke-linecap:round;stroke-linejoin:round;stroke-dasharray:none;stroke-dashoffset:0;stroke-opacity:1"
     id="circle59"
     cx="117.71854"
     cy="187.43416"
     r="20.184004" />
  <circle
     style="opacity:0.8;fill:none;fill-opacity:1;stroke:#1f4e79;stroke-width:2.5;stroke-linecap:round;stroke-linejoin:round;stroke-dasharray:none;stroke-dashoffset:0;stroke-opacity:1"
     id="circle60"
     cx="152.37767"
     cy="187.43416"
     r="10.62316" />
  <circle
     style="opacity:0.8;fill:none;fill-opacity:1;stroke:#1f4e79;stroke-width:2.5;stroke-linecap:round;stroke-linejoin:round;stroke-dasharray:none;stroke-dashoffset:0;stroke-opacity:1"
     id="circle58-6"
     cx="365.52747"
     cy="168.32135"
     r="10.62316" />
  <circle
     style="opacity:0.8;fill:none;fill-opacity:1;stroke:#1f4e79;stroke-width:2.5;stroke-linecap:round;stroke-linejoin:round;stroke-dasharray:none;stroke-dashoffset:0;stroke-opacity:1"
     id="circle59-2"
     cx="400.18655"
     cy="168.32135"
     r="20.184004" />
  <circle
     style="opacity:0.8;fill:none;fill-opacity:1;stroke:#1f4e79;stroke-width:2.5;stroke-linecap:round;stroke-linejoin:round;stroke-dasharray:none;stroke-dashoffset:0;stroke-opacity:1"
     id="circle60-9"
     cx="434.8457"
     cy="168.32135"
     r="10.62316" />
</svg>
