<?xml version="1.0" encoding="UTF-8" standalone="no"?>
<svg
   width="400.11996pt"
   height="389.78448pt"
   viewBox="0 0 400.11996 389.78449"
   version="1.1"
   id="svg55"
   sodipodi:docname="DOPO overlap_edit.svg"
   inkscape:version="1.4 (e7c3feb100, 2024-10-09)"
   inkscape:export-filename="DOPO overlap_edit.png"
   inkscape:export-xdpi="200"
   inkscape:export-ydpi="200"
   xml:space="preserve"
   xmlns:inkscape="http://www.inkscape.org/namespaces/inkscape"
   xmlns:sodipodi="http://sodipodi.sourceforge.net/DTD/sodipodi-0.dtd"
   xmlns:xlink="http://www.w3.org/1999/xlink"
   xmlns="http://www.w3.org/2000/svg"
   xmlns:svg="http://www.w3.org/2000/svg"
   xmlns:rdf="http://www.w3.org/1999/02/22-rdf-syntax-ns#"
   xmlns:cc="http://creativecommons.org/ns#"
   xmlns:dc="http://purl.org/dc/elements/1.1/"><sodipodi:namedview
     id="namedview55"
     pagecolor="#ffffff"
     bordercolor="#000000"
     borderopacity="0.25"
     inkscape:showpageshadow="2"
     inkscape:pageopacity="0.0"
     inkscape:pagecheckerboard="0"
     inkscape:deskcolor="#d1d1d1"
     inkscape:document-units="pt"
     inkscape:zoom="0.98209275"
     inkscape:cx="133.38862"
     inkscape:cy="295.28779"
     inkscape:window-width="2560"
     inkscape:window-height="1011"
     inkscape:window-x="0"
     inkscape:window-y="0"
     inkscape:window-maximized="1"
     inkscape:current-layer="axes_1" /><metadata
     id="metadata1"><rdf:RDF><cc:Work><dc:type
           rdf:resource="http://purl.org/dc/dcmitype/StillImage" /><dc:date>2026-05-05T21:17:33.446837</dc:date><dc:format>image/svg+xml</dc:format><dc:creator><cc:Agent><dc:title>Matplotlib v3.10.1+dfsg1, https://matplotlib.org/</dc:title></cc:Agent></dc:creator></cc:Work></rdf:RDF></metadata><defs
     id="defs1"><style
       type="text/css"
       id="style1">*{stroke-linejoin: round; stroke-linecap: butt}</style><style
       type="text/css"
       id="style1-3">*{stroke-linejoin: round; stroke-linecap: butt}</style><path
       id="mc3c947c52c"
       d="M 0,0 V -3.5"
       style="stroke:#000000;stroke-width:0.8" /><path
       id="CMSY10-0-0"
       d="m 4218,1472 c 108,0 224,0 224,128 0,128 -116,128 -224,128 H 755 c -109,0 -224,0 -224,-128 0,-128 115,-128 224,-128 z"
       transform="scale(0.015625)" /><path
       id="CMR17-32-6"
       d="M 2669,990 H 2554 C 2490,537 2438,460 2413,422 2381,371 1920,371 1830,371 H 602 c 230,249 678,702 1222,1225 390,370 845,804 845,1437 0,755 -602,1191 -1274,1191 -704,0 -1133,-621 -1133,-1197 0,-250 186,-282 263,-282 64,0 256,38 256,262 0,199 -167,257 -256,257 -39,0 -77,-7 -103,-20 122,544 493,813 884,813 556,0 921,-441 921,-1024 0,-556 -326,-1035 -691,-1450 L 262,147 V 0 h 2253 z"
       transform="scale(0.015625)" /><path
       id="CMR17-30-2"
       d="m 2688,2038 c 0,392 -6,1061 -275,1575 -237,450 -615,611 -947,611 -308,0 -698,-142 -941,-604 C 269,3137 243,2539 243,2038 c 0,-367 7,-926 205,-1415 275,-662 768,-751 1018,-751 294,0 742,121 1004,732 192,444 218,964 218,1434 z M 1466,-26 c -410,0 -653,354 -743,842 -70,380 -70,933 -70,1293 0,495 0,906 83,1298 122,547 480,714 730,714 262,0 601,-174 723,-701 83,-366 89,-797 89,-1311 0,-418 0,-933 -76,-1312 C 2067,96 1690,-26 1466,-26 Z"
       transform="scale(0.015625)" /><path
       id="CMR17-31-5"
       d="m 1702,4083 c 0,134 -6,141 -96,141 -249,-297 -627,-391 -985,-404 -19,0 -51,0 -58,-12 -6,-13 -6,-26 -6,-160 198,0 531,38 787,191 V 467 C 1344,243 1331,166 781,166 H 589 V 0 c 307,6 627,12 934,12 307,0 627,-6 935,-12 v 166 h -192 c -551,0 -564,70 -564,301 z"
       transform="scale(0.015625)" /><path
       id="CMMI12-16-1"
       d="m 922,140 c 160,-147 396,-204 614,-204 410,0 691,274 838,472 64,-338 333,-472 557,-472 192,0 346,115 461,345 102,217 192,606 192,632 0,31 -26,57 -64,57 -58,0 -64,-32 -90,-128 -96,-376 -217,-778 -480,-778 -185,0 -198,165 -198,293 0,147 58,377 102,568 l 180,690 c 25,121 96,408 128,523 38,153 108,428 108,453 0,96 -76,161 -172,161 -58,0 -192,-26 -244,-218 L 2406,759 C 2374,632 2374,619 2291,517 2214,408 1965,64 1562,64 c -359,0 -474,261 -474,561 0,186 58,409 83,518 l 288,1149 c 32,121 83,325 83,364 0,102 -83,160 -166,160 -58,0 -198,-20 -250,-224 L 198,-1085 c -6,-31 -19,-69 -19,-106 0,-96 77,-160 173,-160 186,0 224,147 269,322 z"
       transform="scale(0.015625)" /><path
       id="m361ffe32c3"
       d="M 0,0 H 3.5"
       style="stroke:#000000;stroke-width:0.8" /><path
       id="CMMI12-3a-4"
       d="M 1178,307 C 1178,492 1024,620 870,620 685,620 557,467 557,313 557,128 710,0 864,0 c 186,0 314,153 314,307 z"
       transform="scale(0.015625)" /><path
       id="CMR17-34-2"
       d="m 2150,4147 c 0,134 -6,141 -121,141 L 128,1254 V 1088 H 1779 V 460 c 0,-230 -13,-294 -461,-294 H 1197 V 0 c 205,12 550,12 768,12 217,0 563,0 768,-12 v 166 h -122 c -448,0 -461,64 -461,294 v 628 h 653 v 166 H 2150 Z M 1798,3723 V 1254 H 256 Z"
       transform="scale(0.015625)" /><path
       id="CMR17-36-0"
       d="m 678,2198 c 0,1514 717,1878 1133,1878 135,0 461,-27 589,-294 -102,0 -294,0 -294,-224 0,-173 140,-230 230,-230 58,0 230,25 230,243 0,416 -320,653 -761,653 -762,0 -1562,-813 -1562,-2213 0,-1754 723,-2139 1235,-2139 621,0 1210,559 1210,1423 0,806 -518,1393 -1171,1393 -391,0 -679,-258 -839,-709 z M 1478,25 c -787,0 -787,1187 -787,1425 0,464 218,1135 813,1135 109,0 422,0 634,-445 115,-251 115,-516 115,-838 0,-348 0,-606 -135,-864 C 1978,173 1773,25 1478,25 Z"
       transform="scale(0.015625)" /><path
       id="CMR17-38-1"
       d="m 1741,2289 c 403,205 813,514 813,1009 0,586 -564,926 -1082,926 -582,0 -1094,-424 -1094,-1009 0,-161 38,-438 288,-682 64,-64 332,-257 505,-379 C 883,2006 211,1652 211,945 211,282 838,-128 1459,-128 c 685,0 1261,494 1261,1150 0,585 -390,855 -646,1029 z m -839,566 c -51,32 -307,231 -307,533 0,393 403,688 864,688 506,0 877,-360 877,-778 0,-598 -666,-939 -698,-939 -6,0 -12,0 -64,39 z M 2080,1536 c 96,-70 403,-283 403,-675 C 2483,385 2010,25 1472,25 890,25 448,443 448,951 c 0,508 390,933 832,1132 z"
       transform="scale(0.015625)" /><path
       id="CMMI12-66-9"
       d="m 2854,2566 c 128,0 180,0 180,121 0,65 -52,65 -167,65 h -518 c 121,646 211,1094 262,1299 39,153 173,300 339,300 135,0 269,-57 333,-115 -249,-25 -326,-211 -326,-320 0,-128 96,-204 217,-204 128,0 320,108 320,352 0,268 -268,416 -550,416 -275,0 -544,-205 -672,-455 -115,-224 -179,-452 -326,-1273 h -429 c -122,0 -186,0 -186,-116 0,-70 39,-70 167,-70 h 409 C 1792,1977 1530,545 1382,-132 1274,-685 1178,-1152 858,-1152 c -20,0 -205,0 -320,121 326,26 326,307 326,314 0,128 -96,205 -218,205 -128,0 -320,-109 -320,-353 0,-275 282,-415 532,-415 652,0 921,1167 992,1483 115,488 428,2173 460,2363 z"
       transform="scale(0.015625)" /><path
       id="CMMI12-3b-7"
       d="M 1248,-26 C 1248,345 1126,620 864,620 659,620 557,454 557,313 557,172 653,0 870,0 c 84,0 154,25 212,83 12,13 19,13 25,13 13,0 13,-90 13,-122 0,-207 -38,-616 -410,-1025 -70,-76 -70,-89 -70,-101 0,-32 32,-64 64,-64 51,0 544,467 544,1190 z"
       transform="scale(0.015625)" /><clipPath
       id="pa29f10347e"><rect
         x="54"
         y="51.84"
         width="334.79999"
         height="332.64001"
         id="rect55-9" /></clipPath></defs><g
     id="figure_1"
     transform="translate(10.719974,-45.10924)"><g
       id="axes_1"><g
         id="matplotlib.axis_1"
         transform="translate(0,-3.099771)"><g
           id="xtick_1"><g
             id="line2d_1"><defs
               id="defs2"><path
                 id="m417c5bbd53"
                 d="M 0,0 V 3.5"
                 style="stroke:#000000;stroke-width:0.8" /></defs><g
               id="g2"><use
                 xlink:href="#m417c5bbd53"
                 x="69.218185"
                 y="384.48001"
                 style="stroke:#000000;stroke-width:0.8"
                 id="use2" /></g></g><g
             id="text_1"><!-- $\mathdefault{−20}$ --><g
               transform="matrix(0.216,0,0,-0.216,50.980398,406.42396)"
               id="g5"><defs
                 id="defs3"><path
                   id="CMSY10-0"
                   d="m 4218,1472 c 108,0 224,0 224,128 0,128 -116,128 -224,128 H 755 c -109,0 -224,0 -224,-128 0,-128 115,-128 224,-128 z"
                   transform="scale(0.015625)" /><path
                   id="CMR17-32"
                   d="M 2669,990 H 2554 C 2490,537 2438,460 2413,422 2381,371 1920,371 1830,371 H 602 c 230,249 678,702 1222,1225 390,370 845,804 845,1437 0,755 -602,1191 -1274,1191 -704,0 -1133,-621 -1133,-1197 0,-250 186,-282 263,-282 64,0 256,38 256,262 0,199 -167,257 -256,257 -39,0 -77,-7 -103,-20 122,544 493,813 884,813 556,0 921,-441 921,-1024 0,-556 -326,-1035 -691,-1450 L 262,147 V 0 h 2253 z"
                   transform="scale(0.015625)" /><path
                   id="CMR17-30"
                   d="m 2688,2038 c 0,392 -6,1061 -275,1575 -237,450 -615,611 -947,611 -308,0 -698,-142 -941,-604 C 269,3137 243,2539 243,2038 c 0,-367 7,-926 205,-1415 275,-662 768,-751 1018,-751 294,0 742,121 1004,732 192,444 218,964 218,1434 z M 1466,-26 c -410,0 -653,354 -743,842 -70,380 -70,933 -70,1293 0,495 0,906 83,1298 122,547 480,714 730,714 262,0 601,-174 723,-701 83,-366 89,-797 89,-1311 0,-418 0,-933 -76,-1312 C 2067,96 1690,-26 1466,-26 Z"
                   transform="scale(0.015625)" /></defs><use
                 xlink:href="#CMSY10-0"
                 transform="scale(0.996264)"
                 id="use3" /><use
                 xlink:href="#CMR17-32"
                 transform="matrix(0.996264,0,0,0.996264,77.487468,0)"
                 id="use4" /><use
                 xlink:href="#CMR17-30"
                 transform="matrix(0.996264,0,0,0.996264,123.17794,0)"
                 id="use5" /></g></g></g><g
           id="xtick_2"><g
             id="line2d_2"><g
               id="g6"><use
                 xlink:href="#m417c5bbd53"
                 x="145.3091"
                 y="384.48001"
                 style="stroke:#000000;stroke-width:0.8"
                 id="use6" /></g></g><g
             id="text_2"><!-- $\mathdefault{−10}$ --><g
               transform="matrix(0.216,0,0,-0.216,127.07131,406.42396)"
               id="g9"><defs
                 id="defs6"><path
                   id="CMR17-31"
                   d="m 1702,4083 c 0,134 -6,141 -96,141 -249,-297 -627,-391 -985,-404 -19,0 -51,0 -58,-12 -6,-13 -6,-26 -6,-160 198,0 531,38 787,191 V 467 C 1344,243 1331,166 781,166 H 589 V 0 c 307,6 627,12 934,12 307,0 627,-6 935,-12 v 166 h -192 c -551,0 -564,70 -564,301 z"
                   transform="scale(0.015625)" /></defs><use
                 xlink:href="#CMSY10-0"
                 transform="scale(0.996264)"
                 id="use7" /><use
                 xlink:href="#CMR17-31"
                 transform="matrix(0.996264,0,0,0.996264,77.487468,0)"
                 id="use8" /><use
                 xlink:href="#CMR17-30"
                 transform="matrix(0.996264,0,0,0.996264,123.17794,0)"
                 id="use9" /></g></g></g><g
           id="xtick_3"><g
             id="line2d_3"><g
               id="g10"><use
                 xlink:href="#m417c5bbd53"
                 x="221.39999"
                 y="384.48001"
                 style="stroke:#000000;stroke-width:0.8"
                 id="use10" /></g></g><g
             id="text_3"><!-- $\mathdefault{0}$ --><g
               transform="matrix(0.216,0,0,-0.216,216.46543,406.42396)"
               id="g11"><use
                 xlink:href="#CMR17-30"
                 transform="scale(0.996264)"
                 id="use11" /></g></g></g><g
           id="xtick_4"><g
             id="line2d_4"><g
               id="g12"><use
                 xlink:href="#m417c5bbd53"
                 x="297.49091"
                 y="384.48001"
                 style="stroke:#000000;stroke-width:0.8"
                 id="use12" /></g></g><g
             id="text_4"><!-- $\mathdefault{10}$ --><g
               transform="matrix(0.216,0,0,-0.216,287.62178,406.42396)"
               id="g14"><use
                 xlink:href="#CMR17-31"
                 transform="scale(0.996264)"
                 id="use13" /><use
                 xlink:href="#CMR17-30"
                 transform="matrix(0.996264,0,0,0.996264,45.690477,0)"
                 id="use14" /></g></g></g><g
           id="xtick_5"><g
             id="line2d_5"><g
               id="g15"><use
                 xlink:href="#m417c5bbd53"
                 x="373.58182"
                 y="384.48001"
                 style="stroke:#000000;stroke-width:0.8"
                 id="use15" /></g></g><g
             id="text_5"><!-- $\mathdefault{20}$ --><g
               transform="matrix(0.216,0,0,-0.216,363.71268,406.42396)"
               id="g17"><use
                 xlink:href="#CMR17-32"
                 transform="scale(0.996264)"
                 id="use16" /><use
                 xlink:href="#CMR17-30"
                 transform="matrix(0.996264,0,0,0.996264,45.690477,0)"
                 id="use17" /></g></g></g><g
           id="text_6"><!-- $\mu$ --><g
             transform="matrix(0.2592,0,0,-0.2592,213.7936,432.5424)"
             id="g18"><defs
               id="defs17"><path
                 id="CMMI12-16"
                 d="m 922,140 c 160,-147 396,-204 614,-204 410,0 691,274 838,472 64,-338 333,-472 557,-472 192,0 346,115 461,345 102,217 192,606 192,632 0,31 -26,57 -64,57 -58,0 -64,-32 -90,-128 -96,-376 -217,-778 -480,-778 -185,0 -198,165 -198,293 0,147 58,377 102,568 l 180,690 c 25,121 96,408 128,523 38,153 108,428 108,453 0,96 -76,161 -172,161 -58,0 -192,-26 -244,-218 L 2406,759 C 2374,632 2374,619 2291,517 2214,408 1965,64 1562,64 c -359,0 -474,261 -474,561 0,186 58,409 83,518 l 288,1149 c 32,121 83,325 83,364 0,102 -83,160 -166,160 -58,0 -198,-20 -250,-224 L 198,-1085 c -6,-31 -19,-69 -19,-106 0,-96 77,-160 173,-160 186,0 224,147 269,322 z"
                 transform="scale(0.015625)" /></defs><use
               xlink:href="#CMMI12-16"
               transform="scale(0.996264)"
               id="use18" /></g></g></g><g
         id="matplotlib.axis_2"
         transform="translate(3.0999999)"><g
           id="ytick_1"><g
             id="line2d_6"><defs
               id="defs18"><path
                 id="mb809f03c58"
                 d="M 0,0 H -3.5"
                 style="stroke:#000000;stroke-width:0.8" /></defs><g
               id="g19"><use
                 xlink:href="#mb809f03c58"
                 x="54"
                 y="384.48001"
                 style="stroke:#000000;stroke-width:0.8"
                 id="use19" /></g></g><g
             id="text_7"><!-- $\mathdefault{0.0}$ --><g
               transform="matrix(0.216,0,0,-0.216,21.408742,391.95198)"
               id="g22"><defs
                 id="defs19"><path
                   id="CMMI12-3a"
                   d="M 1178,307 C 1178,492 1024,620 870,620 685,620 557,467 557,313 557,128 710,0 864,0 c 186,0 314,153 314,307 z"
                   transform="scale(0.015625)" /></defs><use
                 xlink:href="#CMR17-30"
                 transform="scale(0.996264)"
                 id="use20" /><use
                 xlink:href="#CMMI12-3a"
                 transform="matrix(0.996264,0,0,0.996264,45.690477,0)"
                 id="use21" /><use
                 xlink:href="#CMR17-30"
                 transform="matrix(0.996264,0,0,0.996264,72.787654,0)"
                 id="use22" /></g></g></g><g
           id="ytick_2"><g
             id="line2d_7"><g
               id="g23"><use
                 xlink:href="#mb809f03c58"
                 x="54"
                 y="317.952"
                 style="stroke:#000000;stroke-width:0.8"
                 id="use23" /></g></g><g
             id="text_8"><!-- $\mathdefault{0.2}$ --><g
               transform="matrix(0.216,0,0,-0.216,21.408742,325.42398)"
               id="g26"><use
                 xlink:href="#CMR17-30"
                 transform="scale(0.996264)"
                 id="use24" /><use
                 xlink:href="#CMMI12-3a"
                 transform="matrix(0.996264,0,0,0.996264,45.690477,0)"
                 id="use25" /><use
                 xlink:href="#CMR17-32"
                 transform="matrix(0.996264,0,0,0.996264,72.787654,0)"
                 id="use26" /></g></g></g><g
           id="ytick_3"><g
             id="line2d_8"><g
               id="g27"><use
                 xlink:href="#mb809f03c58"
                 x="54"
                 y="251.424"
                 style="stroke:#000000;stroke-width:0.8"
                 id="use27" /></g></g><g
             id="text_9"><!-- $\mathdefault{0.4}$ --><g
               transform="matrix(0.216,0,0,-0.216,21.408742,258.89598)"
               id="g30"><defs
                 id="defs27"><path
                   id="CMR17-34"
                   d="m 2150,4147 c 0,134 -6,141 -121,141 L 128,1254 V 1088 H 1779 V 460 c 0,-230 -13,-294 -461,-294 H 1197 V 0 c 205,12 550,12 768,12 217,0 563,0 768,-12 v 166 h -122 c -448,0 -461,64 -461,294 v 628 h 653 v 166 H 2150 Z M 1798,3723 V 1254 H 256 Z"
                   transform="scale(0.015625)" /></defs><use
                 xlink:href="#CMR17-30"
                 transform="scale(0.996264)"
                 id="use28" /><use
                 xlink:href="#CMMI12-3a"
                 transform="matrix(0.996264,0,0,0.996264,45.690477,0)"
                 id="use29" /><use
                 xlink:href="#CMR17-34"
                 transform="matrix(0.996264,0,0,0.996264,72.787654,0)"
                 id="use30" /></g></g></g><g
           id="ytick_4"><g
             id="line2d_9"><g
               id="g31"><use
                 xlink:href="#mb809f03c58"
                 x="54"
                 y="184.896"
                 style="stroke:#000000;stroke-width:0.8"
                 id="use31" /></g></g><g
             id="text_10"><!-- $\mathdefault{0.6}$ --><g
               transform="matrix(0.216,0,0,-0.216,21.408742,192.36798)"
               id="g34"><defs
                 id="defs31"><path
                   id="CMR17-36"
                   d="m 678,2198 c 0,1514 717,1878 1133,1878 135,0 461,-27 589,-294 -102,0 -294,0 -294,-224 0,-173 140,-230 230,-230 58,0 230,25 230,243 0,416 -320,653 -761,653 -762,0 -1562,-813 -1562,-2213 0,-1754 723,-2139 1235,-2139 621,0 1210,559 1210,1423 0,806 -518,1393 -1171,1393 -391,0 -679,-258 -839,-709 z M 1478,25 c -787,0 -787,1187 -787,1425 0,464 218,1135 813,1135 109,0 422,0 634,-445 115,-251 115,-516 115,-838 0,-348 0,-606 -135,-864 C 1978,173 1773,25 1478,25 Z"
                   transform="scale(0.015625)" /></defs><use
                 xlink:href="#CMR17-30"
                 transform="scale(0.996264)"
                 id="use32" /><use
                 xlink:href="#CMMI12-3a"
                 transform="matrix(0.996264,0,0,0.996264,45.690477,0)"
                 id="use33" /><use
                 xlink:href="#CMR17-36"
                 transform="matrix(0.996264,0,0,0.996264,72.787654,0)"
                 id="use34" /></g></g></g><g
           id="ytick_5"><g
             id="line2d_10"><g
               id="g35"><use
                 xlink:href="#mb809f03c58"
                 x="54"
                 y="118.368"
                 style="stroke:#000000;stroke-width:0.8"
                 id="use35" /></g></g><g
             id="text_11"><!-- $\mathdefault{0.8}$ --><g
               transform="matrix(0.216,0,0,-0.216,21.408742,125.83998)"
               id="g38"><defs
                 id="defs35"><path
                   id="CMR17-38"
                   d="m 1741,2289 c 403,205 813,514 813,1009 0,586 -564,926 -1082,926 -582,0 -1094,-424 -1094,-1009 0,-161 38,-438 288,-682 64,-64 332,-257 505,-379 C 883,2006 211,1652 211,945 211,282 838,-128 1459,-128 c 685,0 1261,494 1261,1150 0,585 -390,855 -646,1029 z m -839,566 c -51,32 -307,231 -307,533 0,393 403,688 864,688 506,0 877,-360 877,-778 0,-598 -666,-939 -698,-939 -6,0 -12,0 -64,39 z M 2080,1536 c 96,-70 403,-283 403,-675 C 2483,385 2010,25 1472,25 890,25 448,443 448,951 c 0,508 390,933 832,1132 z"
                   transform="scale(0.015625)" /></defs><use
                 xlink:href="#CMR17-30"
                 transform="scale(0.996264)"
                 id="use36" /><use
                 xlink:href="#CMMI12-3a"
                 transform="matrix(0.996264,0,0,0.996264,45.690477,0)"
                 id="use37" /><use
                 xlink:href="#CMR17-38"
                 transform="matrix(0.996264,0,0,0.996264,72.787654,0)"
                 id="use38" /></g></g></g><g
           id="ytick_6"><g
             id="line2d_11"><g
               id="g39"><use
                 xlink:href="#mb809f03c58"
                 x="54"
                 y="51.84"
                 style="stroke:#000000;stroke-width:0.8"
                 id="use39" /></g></g><g
             id="text_12"><!-- $\mathdefault{1.0}$ --><g
               transform="matrix(0.216,0,0,-0.216,21.408742,59.31198)"
               id="g42"><use
                 xlink:href="#CMR17-31"
                 transform="scale(0.996264)"
                 id="use40" /><use
                 xlink:href="#CMMI12-3a"
                 transform="matrix(0.996264,0,0,0.996264,45.690477,0)"
                 id="use41" /><use
                 xlink:href="#CMR17-30"
                 transform="matrix(0.996264,0,0,0.996264,72.787654,0)"
                 id="use42" /></g></g></g><g
           id="text_13"><!-- $f_0^{-1, 0, 1}$ --><g
             transform="matrix(0,-0.2592,-0.2592,0,10.519705,250.1513)"
             id="g50"><defs
               id="defs42"><path
                 id="CMMI12-66"
                 d="m 2854,2566 c 128,0 180,0 180,121 0,65 -52,65 -167,65 h -518 c 121,646 211,1094 262,1299 39,153 173,300 339,300 135,0 269,-57 333,-115 -249,-25 -326,-211 -326,-320 0,-128 96,-204 217,-204 128,0 320,108 320,352 0,268 -268,416 -550,416 -275,0 -544,-205 -672,-455 -115,-224 -179,-452 -326,-1273 h -429 c -122,0 -186,0 -186,-116 0,-70 39,-70 167,-70 h 409 C 1792,1977 1530,545 1382,-132 1274,-685 1178,-1152 858,-1152 c -20,0 -205,0 -320,121 326,26 326,307 326,314 0,128 -96,205 -218,205 -128,0 -320,-109 -320,-353 0,-275 282,-415 532,-415 652,0 921,1167 992,1483 115,488 428,2173 460,2363 z"
                 transform="scale(0.015625)" /><path
                 id="CMMI12-3b"
                 d="M 1248,-26 C 1248,345 1126,620 864,620 659,620 557,454 557,313 557,172 653,0 870,0 c 84,0 154,25 212,83 12,13 19,13 25,13 13,0 13,-90 13,-122 0,-207 -38,-616 -410,-1025 -70,-76 -70,-89 -70,-101 0,-32 32,-64 64,-64 51,0 544,467 544,1190 z"
                 transform="scale(0.015625)" /></defs><use
               xlink:href="#CMMI12-66"
               transform="scale(0.996264)"
               id="use43" /><use
               xlink:href="#CMSY10-0"
               transform="matrix(0.697382,0,0,0.697382,58.720305,47.87587)"
               id="use44" /><use
               xlink:href="#CMR17-31"
               transform="matrix(0.697382,0,0,0.697382,112.9613,47.87587)"
               id="use45" /><use
               xlink:href="#CMMI12-3b"
               transform="matrix(0.697382,0,0,0.697382,144.94448,47.87587)"
               id="use46" /><use
               xlink:href="#CMR17-30"
               transform="matrix(0.697382,0,0,0.697382,163.91241,47.87587)"
               id="use47" /><use
               xlink:href="#CMMI12-3b"
               transform="matrix(0.697382,0,0,0.697382,195.89559,47.87587)"
               id="use48" /><use
               xlink:href="#CMR17-31"
               transform="matrix(0.697382,0,0,0.697382,214.86353,47.87587)"
               id="use49" /><use
               xlink:href="#CMR17-30"
               transform="matrix(0.697382,0,0,0.697382,48.083238,-26.578082)"
               id="use50" /></g></g></g><g
         id="line2d_12"
         style="stroke:#60b1ad;stroke-opacity:1"><path
           d="m 69.218182,218.16 229.033638,-2e-5 75.33,-6e-5 v 0"
           clip-path="url(#p8ecc5a02a9)"
           style="fill:#77767b;fill-opacity:1;stroke:#60b1ad;stroke-width:2.5;stroke-linecap:square;stroke-dasharray:none;stroke-dashoffset:0;stroke-opacity:1"
           id="path50" /></g><g
         id="line2d_13"><path
           d="m 69.218182,375.8778 16.74,-0.9733 14.457268,-1.0576 12.17455,-1.10828 10.65273,-1.19439 9.13091,-1.24982 7.60909,-1.25376 6.84818,-1.34464 6.08727,-1.41777 5.32636,-1.46086 4.56546,-1.45921 4.56545,-1.69979 3.80455,-1.64583 3.80454,-1.90659 3.04364,-1.75681 3.04364,-2.01016 3.04363,-2.32138 2.28273,-1.99038 2.28273,-2.24944 2.28273,-2.56098 2.28272,-2.93954 2.28273,-3.4049 2.28273,-3.98408 1.52182,-3.05056 1.52181,-3.43101 1.52182,-3.88105 1.52182,-4.41632 1.52182,-5.05591 1.52182,-5.8222 1.52181,-6.73944 1.52182,-7.8291 1.52182,-9.0977 1.52182,-10.50908 1.52182,-11.92677 3.80454,-32.13762 0.76091,-5.2318 0.76091,-4.08733 0.76091,-2.61235 0.76091,-0.90005 0.76091,0.90141 0.76091,2.62136 0.76091,4.10939 0.76091,5.26887 1.52181,12.59697 3.04364,26.05912 1.52182,11.35414 1.52182,9.89348 1.52181,8.52592 1.52182,7.32996 1.52182,6.31572 1.52182,5.46667 1.52182,4.75855 1.52182,4.16725 1.52181,3.67166 1.52182,3.25407 2.28273,4.23426 2.28273,3.60401 2.28272,3.10011 2.28273,2.69206 2.28273,2.35767 2.28273,2.08066 3.04363,2.42009 3.04364,2.08985 3.04364,1.822 3.80454,1.97261 3.80455,1.69884 3.80454,1.47789 4.56546,1.53767 5.32636,1.53361 6.08727,1.48285 6.08727,1.25748 7.6091,1.32609 8.37,1.21552 9.1309,1.1047 10.65273,1.06781 12.93546,1.058 14.45727,0.95504 9.89182,0.54888 v 0"
           clip-path="url(#p8ecc5a02a9)"
           style="fill:none;stroke:#1a5fb4;stroke-width:2.5;stroke-linecap:square;stroke-dasharray:none"
           id="path51" /></g><g
         id="patch_3"
         style="stroke-width:1.2;stroke-dasharray:none"><path
           d="M 54,384.48 V 51.84"
           style="fill:none;stroke:#000000;stroke-width:1.2;stroke-linecap:square;stroke-linejoin:miter;stroke-dasharray:none"
           id="path52" /></g><g
         id="patch_4"
         style="stroke-width:1.2;stroke-dasharray:none"><path
           d="M 388.8,384.48 V 51.84"
           style="fill:none;stroke:#000000;stroke-width:1.2;stroke-linecap:square;stroke-linejoin:miter;stroke-dasharray:none"
           id="path53" /></g><g
         id="patch_5"
         style="stroke-width:1.2;stroke-dasharray:none"><path
           d="M 54,384.48 H 388.8"
           style="fill:none;stroke:#000000;stroke-width:1.2;stroke-linecap:square;stroke-linejoin:miter;stroke-dasharray:none"
           id="path54" /></g><g
         id="patch_6"
         style="stroke-width:1.2;stroke-dasharray:none"><path
           d="M 54,51.84 H 388.8"
           style="fill:none;stroke:#000000;stroke-width:1.2;stroke-linecap:square;stroke-linejoin:miter;stroke-dasharray:none"
           id="path55" /></g><circle
         style="opacity:1;fill:none;fill-opacity:1;stroke:#60b1ad;stroke-width:2.5;stroke-linecap:round;stroke-linejoin:round;stroke-dasharray:none;stroke-dashoffset:0;stroke-opacity:1"
         id="path56"
         cx="290.94116"
         cy="194.20351"
         r="12.982481" /><circle
         style="opacity:1;fill:none;fill-opacity:1;stroke:#60b1ad;stroke-width:2.5;stroke-linecap:round;stroke-linejoin:round;stroke-dasharray:none;stroke-dashoffset:0;stroke-opacity:1"
         id="circle56"
         cx="321.46082"
         cy="194.20351"
         r="12.982481" /><circle
         style="opacity:1;fill:none;fill-opacity:1;stroke:#60b1ad;stroke-width:2.5;stroke-linecap:round;stroke-linejoin:round;stroke-dasharray:none;stroke-dashoffset:0;stroke-opacity:1"
         id="circle57"
         cx="351.9805"
         cy="194.20351"
         r="12.982481" /><circle
         style="opacity:0.8;fill:none;fill-opacity:1;stroke:#1a5fb4;stroke-width:2.5;stroke-linecap:round;stroke-linejoin:round;stroke-dasharray:none;stroke-dashoffset:0"
         id="circle58"
         cx="72.529999"
         cy="339.30182"
         r="12.982481" /><circle
         style="opacity:0.8;fill:none;fill-opacity:1;stroke:#1a5fb4;stroke-width:2.5;stroke-linecap:round;stroke-linejoin:round;stroke-dasharray:none;stroke-dashoffset:0"
         id="circle59"
         cx="114.88663"
         cy="339.30182"
         r="24.666714" /><circle
         style="opacity:0.8;fill:none;fill-opacity:1;stroke:#1a5fb4;stroke-width:2.5;stroke-linecap:round;stroke-linejoin:round;stroke-dasharray:none;stroke-dashoffset:0"
         id="circle60"
         cx="157.24329"
         cy="339.30182"
         r="12.982481" /></g></g><defs
     id="defs55"><clipPath
       id="p8ecc5a02a9"><rect
         x="54"
         y="51.84"
         width="334.79999"
         height="332.64001"
         id="rect55" /></clipPath></defs></svg>
